<?xml version="1.0" encoding="iso-8859-1"?>
<!-- Uploaded to: SVG Repo, www.svgrepo.com, Generator: SVG Repo Mixer Tools -->
<svg height="800px" width="800px" version="1.1" id="Layer_1" xmlns="http://www.w3.org/2000/svg" xmlns:xlink="http://www.w3.org/1999/xlink" 
	 viewBox="0 0 512 512" xml:space="preserve">
<path style="fill:#F8F8F8;" d="M35.326,377.229L35.326,377.229l242.161-242.162l85.342,85.342L206.01,377.229
	C158.877,424.362,82.458,424.362,35.326,377.229z"/>
<path style="fill:#FF4F18;" d="M206.008,377.228l156.818-156.818l-3.342-3.342c-28.735,4.971-54.247,4.414-82.263,22.257
	c-8.972,5.713-15.087,11.338-19.671,17.041c-13.649,16.981-16.663,29.168-24.711,44.825c-1.235,2.401-15.171,28.828-42.092,47.212
	c-27.959,19.091-57.141,20.786-72.343,21.477c-27.713,1.26-50.365-4.972-65.141-10.589l-17.938,17.938
	C82.459,424.363,158.874,424.361,206.008,377.228z"/>
<path style="fill:#FFD92D;" d="M367.277,168.177l-58.779-58.779l97.224-97.224c16.231-16.231,42.548-16.231,58.779,0l0,0
	c16.231,16.231,16.231,42.548,0,58.779L367.277,168.177z"/>
<path style="fill:#FFA81E;" d="M464.505,12.173c-16.232-16.231-42.548-16.231-58.78,0l-32.072,32.071
	c16.232-16.227,42.548-16.229,58.78,0.001c16.227,16.231,16.227,42.548,0,58.779l32.071-32.072
	C480.732,54.721,480.732,28.405,464.505,12.173z"/>
<path style="fill:#FF4F18;" d="M168.84,487.122c0,13.74-11.138,24.878-24.878,24.878s-24.878-11.138-24.878-24.878
	s24.878-37.866,24.878-37.866S168.84,473.382,168.84,487.122z"/>
<path style="fill:#57555C;" d="M367.671,225.303l-90.925-90.925c-7.823-7.823-7.823-20.507,0-28.329l0,0
	c7.823-7.823,20.507-7.823,28.329,0l90.925,90.925c7.823,7.823,7.823,20.507,0,28.329l0,0
	C388.176,233.125,375.494,233.125,367.671,225.303z"/>
<path style="fill:#787780;" d="M299.809,157.362c-7.826-7.822-7.826-20.506,0-28.329c7.821-7.823,20.503-7.823,28.33,0
	l-22.981-22.98c-7.826-7.822-20.508-7.822-28.33,0c-7.821,7.823-7.821,20.506,0,28.33l90.922,90.925c0,0,0.005,0.001,0.005,0.002
	L299.809,157.362z"/>
</svg>