<?xml version="1.0" encoding="iso-8859-1"?>
<!-- Uploaded to: SVG Repo, www.svgrepo.com, Generator: SVG Repo Mixer Tools -->
<svg height="800px" width="800px" version="1.1" id="Layer_1" xmlns="http://www.w3.org/2000/svg" xmlns:xlink="http://www.w3.org/1999/xlink" 
	 viewBox="0 0 512.003 512.003" xml:space="preserve">
<circle style="fill:#3FA9F5;" cx="256.001" cy="256.001" r="256.001"/>
<path style="fill:#1E96EC;" d="M310.859,474.208c-141.385,0-256-114.615-256-256c0-75.537,32.722-143.422,84.757-190.281
	C56.738,70.303,0,156.525,0,256c0,141.385,114.615,256,256,256c65.849,0,125.883-24.87,171.243-65.718
	C392.325,464.135,352.77,474.208,310.859,474.208z"/>
<g>
	<circle style="fill:#FFFFFF;" cx="211.414" cy="176.754" r="74.262"/>
	<circle style="fill:#FFFFFF;" cx="419.675" cy="176.754" r="74.262"/>
</g>
<g>
	<circle style="fill:#224275;" cx="223.911" cy="176.754" r="20.829"/>
	<circle style="fill:#224275;" cx="435.241" cy="176.754" r="20.829"/>
	<path style="fill:#224275;" d="M385.938,392.582c-3.656,0-7.203-1.927-9.108-5.349c-12.728-22.847-36.862-37.041-62.984-37.041
		c-25.446,0-49.828,14.304-63.634,37.328c-2.956,4.932-9.354,6.532-14.287,3.577c-4.934-2.958-6.535-9.354-3.577-14.287
		c17.546-29.266,48.774-47.447,81.498-47.447c33.672,0,64.778,18.291,81.18,47.734c2.799,5.024,0.996,11.367-4.03,14.165
		C389.393,392.157,387.653,392.582,385.938,392.582z"/>
</g>
<ellipse transform="matrix(0.2723 -0.9622 0.9622 0.2723 145.8683 333.4213)" style="fill:#5AC0FF;" cx="293.371" cy="70.272" rx="29.854" ry="53.46"/>
</svg>