<?xml version="1.0" ?><!-- Uploaded to: SVG Repo, www.svgrepo.com, Generator: SVG Repo Mixer Tools -->
<svg width="800px" height="800px" viewBox="0 -1.5 85 85" fill="none" xmlns="http://www.w3.org/2000/svg"><path clip-rule="evenodd" d="M33.423 1.37906C11.7008 7.00547 -1.34938 29.1752 4.27603 50.8984C9.90245 72.6205 32.0722 85.6707 53.7953 80.0453C75.5185 74.4199 88.5677 52.2491 82.9423 30.526C77.3168 8.80383 55.1461 -4.24635 33.423 1.37906V1.37906Z" fill="url(#paint0_radial)" fill-rule="evenodd"/><path d="M10.7882 51.0185C11.2801 50.4683 12.127 50.4211 12.6771 50.9139C13.2273 51.4067 13.2746 52.2526 12.7817 52.8028C11.3837 54.3628 9.54005 55.6029 7.45504 56.1159C5.60639 56.5695 3.58575 56.4588 1.53795 55.5084C0.866077 55.1986 0.572384 54.401 0.882169 53.7291C1.19195 53.0572 1.98854 52.7636 2.66142 53.0733C4.11077 53.7472 5.52794 53.8287 6.81435 53.5129C8.3512 53.1347 9.73015 52.1993 10.7882 51.0185V51.0185Z" fill="#2B2A29"/><path d="M37.1296 43.4184C37.6225 42.8682 38.4684 42.821 39.0185 43.3138C39.5687 43.8056 39.616 44.6525 39.1231 45.2027C37.7261 46.7617 35.8815 48.0028 33.7964 48.5148C31.9488 48.9694 29.9282 48.8587 27.8794 47.9073C27.2075 47.5975 26.9138 46.8009 27.2246 46.129C27.5344 45.4561 28.331 45.1635 29.0028 45.4732C30.4532 46.1461 31.8703 46.2276 33.1568 45.9118C34.6936 45.5346 36.0716 44.5992 37.1296 43.4184V43.4184Z" fill="#2B2A29"/><path clip-rule="evenodd" d="M21.6442 59.6783C25.7539 54.9692 36.366 61.6154 31.9194 67.8695C27.9667 73.4285 17.5255 64.3965 21.6442 59.6783V59.6783Z" fill="#282829" fill-rule="evenodd"/><path d="M20.8891 59.0177C22.6693 56.9769 25.4031 56.6882 27.9186 57.5039C28.9606 57.8419 29.9704 58.375 30.8525 59.0509C31.7466 59.7338 32.5161 60.5686 33.0662 61.501C34.2732 63.5437 34.4633 66.025 32.7374 68.452C31.115 70.7352 28.6538 71.045 26.2771 70.2252C25.2291 69.8632 24.1951 69.2707 23.2728 68.5315C22.3616 67.8013 21.5519 66.9202 20.9374 65.9717C19.4739 63.7127 19.0927 61.0745 20.8891 59.0177ZM27.296 59.417C25.4936 58.8326 23.5796 58.9895 22.4008 60.3393C21.3045 61.5945 21.6213 63.3335 22.6221 64.8774C23.1189 65.6449 23.7818 66.364 24.5331 66.9655C25.2734 67.5589 26.0991 68.0336 26.9309 68.3203C28.5009 68.8614 30.0981 68.6974 31.1009 67.2873C32.2857 65.6187 32.159 63.9199 31.3353 62.5249C30.9169 61.8168 30.3255 61.1781 29.6335 60.6481C28.9304 60.11 28.1268 59.6865 27.296 59.417V59.417Z" fill="#FCCA7A"/><path clip-rule="evenodd" d="M46.9908 16.6675C61.6151 16.236 56.9231 19.1086 52.3377 23.4928C53.3726 23.5331 53.5848 23.6025 57.0548 23.9988C57.957 24.1828 58.5394 25.0639 58.3553 25.9661C58.1703 26.8693 57.2892 27.4507 56.387 27.2666C46.1027 26.116 43.8598 26.6299 51.3429 19.8961C49.7015 19.8941 47.8759 19.9776 46.9908 20.0037C46.0695 20.0037 45.3232 19.2564 45.3232 18.3351C45.3232 17.4148 46.0695 16.6675 46.9908 16.6675V16.6675Z" fill="#3F58E3" fill-rule="evenodd"/><path clip-rule="evenodd" d="M59.1579 4.63533C78.3475 2.27372 71.2194 2.45175 66.275 13.7458C69.5367 12.7682 73.6696 12.1486 75.5444 11.7885C76.5783 11.7885 77.4172 12.6274 77.4172 13.6613C77.4172 14.6953 76.5783 15.5341 75.5444 15.5341C62.8241 18.113 55.8801 24.529 66.0748 7.30572C63.7363 7.65272 61.0629 8.16668 59.1579 8.38091C58.124 8.38091 57.2852 7.54308 57.2852 6.50812C57.2852 5.47416 58.124 4.63533 59.1579 4.63533V4.63533Z" fill="#3F58E3" fill-rule="evenodd"/><defs><radialGradient cx="0" cy="0" gradientTransform="translate(53.3989 25.3114) rotate(165.481) scale(128.794 128.793)" gradientUnits="userSpaceOnUse" id="paint0_radial" r="1"><stop stop-color="#FFE28E"/><stop offset="1" stop-color="#F9B86C"/></radialGradient></defs></svg>