<svg id="svg" version="1.1" xmlns="http://www.w3.org/2000/svg" xmlns:xlink="http://www.w3.org/1999/xlink" width="400" height="400" viewBox="0, 0, 400,400"><g id="svgg"><path id="path0" d="M11.600 6.400 C 11.270 6.613,10.415 6.791,9.700 6.794 C 8.985 6.797,8.400 6.980,8.400 7.200 C 8.400 7.420,8.040 7.600,7.600 7.600 C 7.160 7.600,6.800 7.780,6.800 8.000 C 6.800 8.220,6.450 8.400,6.023 8.400 C 5.595 8.400,4.965 8.800,4.623 9.289 C 4.280 9.778,4.000 10.040,4.000 9.871 C 4.000 9.401,2.033 11.472,1.909 12.073 C 1.849 12.363,1.440 12.930,1.000 13.334 C 0.002 14.249,-0.291 68.770,0.700 69.100 C 0.975 69.192,1.200 69.493,1.200 69.770 C 1.200 71.060,6.202 75.200,7.762 75.200 C 8.113 75.200,8.400 75.380,8.400 75.600 C 8.400 75.820,9.199 76.000,10.176 76.000 C 11.153 76.000,12.064 76.180,12.200 76.400 C 12.539 76.949,46.489 76.934,49.967 76.384 C 51.415 76.154,53.184 75.877,53.898 75.766 L 55.196 75.565 55.298 41.082 L 55.400 6.600 68.600 6.392 C 77.000 6.259,69.146 6.152,47.000 6.098 C 25.060 6.044,11.978 6.156,11.600 6.400 M82.000 6.400 C 82.000 6.620,82.180 6.800,82.400 6.800 C 82.664 6.800,82.800 18.533,82.800 41.200 L 82.800 75.600 186.200 75.600 L 289.600 75.600 289.600 41.433 C 289.600 22.641,289.709 6.981,289.843 6.633 C 290.064 6.057,280.752 6.000,186.043 6.000 C 116.948 6.000,82.000 6.134,82.000 6.400 M303.600 6.394 L 317.000 6.600 317.102 41.100 L 317.204 75.600 332.502 75.605 C 344.719 75.609,348.243 75.728,350.000 76.200 C 352.517 76.875,360.400 77.027,360.400 76.400 C 360.400 76.180,361.109 76.000,361.976 76.000 C 362.843 76.000,363.664 75.820,363.800 75.600 C 363.936 75.380,364.389 75.200,364.806 75.200 C 365.751 75.200,368.196 73.567,369.441 72.103 C 369.958 71.496,370.654 70.685,370.990 70.300 C 371.325 69.915,371.600 69.330,371.600 69.000 C 371.600 68.670,371.780 68.400,372.000 68.400 C 372.220 68.400,372.400 67.961,372.400 67.424 C 372.400 66.887,372.577 66.338,372.794 66.204 C 374.007 65.454,373.128 14.400,371.902 14.400 C 371.736 14.400,371.600 14.040,371.600 13.600 C 371.600 13.160,371.420 12.800,371.200 12.800 C 370.980 12.800,370.800 12.606,370.800 12.369 C 370.800 11.638,367.564 8.782,365.938 8.078 C 365.092 7.711,364.400 7.274,364.400 7.106 C 364.400 6.938,363.691 6.800,362.824 6.800 C 361.957 6.800,361.136 6.620,361.000 6.401 C 360.838 6.139,348.628 6.033,325.477 6.094 C 302.919 6.154,295.031 6.262,303.600 6.394 " stroke="none" fill="#3b97d3" fill-rule="evenodd"></path><path id="path1" d="M49.727 76.555 C 47.268 76.800,45.123 77.135,44.961 77.300 C 44.799 77.465,44.257 77.600,43.757 77.600 C 43.257 77.600,42.736 77.780,42.600 78.000 C 42.464 78.220,41.913 78.400,41.376 78.400 C 40.839 78.400,40.400 78.580,40.400 78.800 C 40.400 79.020,39.860 79.200,39.200 79.200 C 38.540 79.200,38.000 79.380,38.000 79.600 C 38.000 79.820,37.640 80.000,37.200 80.000 C 36.760 80.000,36.400 80.180,36.400 80.400 C 36.400 80.620,36.166 80.800,35.880 80.800 C 35.144 80.800,33.207 81.741,33.203 82.100 C 33.201 82.265,32.840 82.400,32.400 82.400 C 31.960 82.400,31.600 82.580,31.600 82.800 C 31.600 83.020,31.240 83.200,30.800 83.200 C 30.360 83.200,30.000 83.380,30.000 83.600 C 30.000 83.820,29.764 84.000,29.475 84.000 C 29.187 84.000,28.564 84.360,28.092 84.800 C 27.620 85.240,27.112 85.600,26.964 85.600 C 26.815 85.600,26.391 85.949,26.022 86.375 C 25.652 86.801,25.106 87.206,24.809 87.275 C 24.511 87.344,23.379 88.255,22.293 89.300 C 21.207 90.345,20.147 91.200,19.937 91.200 C 19.290 91.200,12.408 98.580,11.427 100.326 C 11.222 100.692,10.904 101.173,10.721 101.395 C 9.738 102.593,8.400 104.911,8.400 105.418 C 8.400 105.738,8.220 106.000,8.000 106.000 C 7.780 106.000,7.600 106.360,7.600 106.800 C 7.600 107.240,7.453 107.600,7.274 107.600 C 6.865 107.600,5.200 110.681,5.200 111.438 C 5.200 111.747,5.020 112.000,4.800 112.000 C 4.580 112.000,4.400 112.360,4.400 112.800 C 4.400 113.240,4.220 113.600,4.000 113.600 C 3.780 113.600,3.600 113.962,3.600 114.405 C 3.600 114.848,3.420 115.568,3.200 116.005 C 2.980 116.442,2.620 117.158,2.400 117.595 C 2.180 118.032,2.000 118.932,2.000 119.595 C 2.000 120.258,1.820 120.800,1.600 120.800 C 1.380 120.800,1.200 121.394,1.200 122.120 C 1.200 122.846,0.975 123.665,0.700 123.940 C -0.023 124.663,-0.023 151.337,0.700 152.060 C 0.975 152.335,1.200 153.154,1.200 153.880 C 1.200 154.606,1.380 155.200,1.600 155.200 C 1.820 155.200,2.000 155.830,2.000 156.600 C 2.000 157.370,2.180 158.000,2.400 158.000 C 2.620 158.000,2.800 158.540,2.800 159.200 C 2.800 159.860,2.980 160.400,3.200 160.400 C 3.420 160.400,3.600 160.760,3.600 161.200 C 3.600 161.640,3.780 162.000,4.000 162.000 C 4.220 162.000,4.400 162.272,4.400 162.605 C 4.400 162.938,4.557 163.523,4.750 163.905 C 4.942 164.287,5.509 165.410,6.010 166.400 C 6.510 167.390,7.117 168.604,7.360 169.097 C 7.602 169.590,7.935 169.995,8.100 169.997 C 8.265 169.999,8.400 170.282,8.400 170.627 C 8.400 171.241,10.309 174.070,10.900 174.333 C 11.065 174.407,11.200 174.722,11.200 175.033 C 11.200 175.345,11.380 175.600,11.600 175.600 C 11.820 175.600,12.000 175.804,12.000 176.053 C 12.000 176.302,12.324 176.797,12.719 177.153 C 13.114 177.509,13.877 178.430,14.414 179.200 C 15.669 180.999,19.001 184.331,20.800 185.586 C 21.570 186.123,22.491 186.886,22.847 187.281 C 23.203 187.676,23.698 188.000,23.947 188.000 C 24.196 188.000,24.400 188.180,24.400 188.400 C 24.400 188.620,24.655 188.800,24.967 188.800 C 25.278 188.800,25.593 188.935,25.667 189.100 C 25.930 189.691,28.759 191.600,29.373 191.600 C 29.718 191.600,30.001 191.735,30.003 191.900 C 30.007 192.265,31.949 193.200,32.703 193.200 C 33.002 193.200,33.160 193.342,33.052 193.515 C 32.945 193.688,33.430 194.060,34.129 194.341 C 34.828 194.622,35.713 195.021,36.095 195.226 C 36.477 195.432,37.062 195.600,37.395 195.600 C 37.728 195.600,38.000 195.780,38.000 196.000 C 38.000 196.220,38.349 196.400,38.776 196.400 C 39.203 196.400,39.664 196.580,39.800 196.800 C 39.936 197.020,40.487 197.200,41.024 197.200 C 41.561 197.200,42.000 197.380,42.000 197.600 C 42.000 197.820,42.630 198.000,43.400 198.000 C 44.170 198.000,44.800 198.180,44.800 198.400 C 44.800 198.620,45.394 198.800,46.120 198.800 C 46.846 198.800,47.665 199.025,47.940 199.300 C 48.338 199.698,79.229 199.800,199.720 199.800 L 351.000 199.800 352.262 198.900 C 352.956 198.405,353.651 198.000,353.808 198.000 C 354.333 198.000,356.692 195.168,357.408 193.677 C 357.798 192.865,358.271 191.887,358.459 191.505 C 358.646 191.123,358.800 189.923,358.800 188.839 C 358.800 187.624,358.992 186.797,359.300 186.686 C 359.700 186.541,359.700 186.335,359.300 185.658 C 359.025 185.192,358.800 183.908,358.800 182.805 C 358.800 181.702,358.643 180.800,358.450 180.800 C 358.258 180.800,357.987 180.236,357.849 179.547 C 357.569 178.145,353.673 174.000,352.635 174.000 C 352.286 174.000,352.000 173.820,352.000 173.600 C 352.000 173.380,351.640 173.200,351.200 173.200 C 350.760 173.200,350.400 173.020,350.400 172.800 C 350.400 172.580,349.860 172.400,349.200 172.400 C 348.540 172.400,348.000 172.200,348.000 171.956 C 348.000 171.655,347.519 171.612,346.500 171.823 C 343.494 172.446,57.698 172.264,54.800 171.638 C 42.196 168.915,32.181 159.166,28.495 146.034 C 27.671 143.099,27.578 133.416,28.345 130.600 C 32.694 114.658,43.569 105.264,59.581 103.621 C 66.616 102.899,343.528 103.073,344.800 103.800 C 345.955 104.460,348.000 104.588,348.000 104.000 C 348.000 103.780,348.433 103.600,348.962 103.600 C 351.954 103.600,358.000 98.128,358.000 95.420 C 358.000 95.079,358.180 94.800,358.400 94.800 C 358.620 94.800,358.800 93.911,358.800 92.824 C 358.800 91.737,358.980 90.736,359.200 90.600 C 359.420 90.464,359.600 90.003,359.600 89.576 C 359.600 89.149,359.420 88.800,359.200 88.800 C 358.980 88.800,358.797 88.035,358.794 87.100 C 358.782 83.720,355.256 77.600,353.322 77.600 C 353.035 77.600,352.800 77.446,352.800 77.259 C 352.800 75.950,62.587 75.276,49.727 76.555 M41.445 297.027 C 41.076 297.989,41.163 392.522,41.533 393.105 C 41.783 393.500,44.794 393.588,55.227 393.505 L 68.600 393.400 68.600 345.000 L 68.600 296.600 55.145 296.495 C 43.136 296.401,41.663 296.458,41.445 297.027 M304.100 296.665 C 303.434 296.934,303.358 393.200,304.024 393.200 C 304.257 393.200,304.364 393.335,304.262 393.500 C 304.160 393.665,309.982 393.800,317.200 393.800 C 324.418 393.800,330.240 393.665,330.138 393.500 C 330.036 393.335,330.233 393.200,330.576 393.200 C 331.138 393.200,331.200 388.393,331.200 345.047 L 331.200 296.893 330.300 296.652 C 329.223 296.363,304.818 296.375,304.100 296.665 M179.107 324.290 C 179.826 324.379,180.906 324.377,181.507 324.286 C 182.108 324.195,181.520 324.122,180.200 324.124 C 178.880 324.126,178.388 324.201,179.107 324.290 M191.107 324.290 C 191.826 324.379,192.906 324.377,193.507 324.286 C 194.108 324.195,193.520 324.122,192.200 324.124 C 190.880 324.126,190.388 324.201,191.107 324.290 M244.800 338.200 C 245.546 338.970,246.247 339.600,246.357 339.600 C 246.467 339.600,245.946 338.970,245.200 338.200 C 244.454 337.430,243.753 336.800,243.643 336.800 C 243.533 336.800,244.054 337.430,244.800 338.200 " stroke="none" fill="#f29c1f" fill-rule="evenodd"></path><path id="path2" d="M59.200 103.618 C 35.584 106.056,21.259 129.720,30.387 151.217 C 34.703 161.382,42.792 168.344,54.000 171.540 C 56.195 172.166,342.169 172.819,344.700 172.203 L 345.600 171.985 345.600 138.057 L 345.600 104.128 344.581 103.664 C 343.400 103.126,64.402 103.081,59.200 103.618 M169.400 325.009 C 121.771 329.994,108.336 350.198,145.851 360.421 C 167.570 366.340,194.703 367.128,217.600 362.507 C 219.250 362.174,221.050 361.814,221.600 361.708 C 225.233 361.008,231.991 358.768,236.954 356.617 C 256.859 347.993,249.171 334.113,221.000 327.812 C 206.892 324.656,184.429 323.436,169.400 325.009 " stroke="none" fill="#f5efca" fill-rule="evenodd"></path><path id="path3" d="M134.332 75.900 C 163.005 75.957,209.805 75.957,238.332 75.900 C 266.859 75.843,243.400 75.797,186.200 75.797 C 129.000 75.797,105.659 75.843,134.332 75.900 M324.674 75.899 C 328.894 75.964,335.914 75.964,340.274 75.900 C 344.633 75.835,341.180 75.782,332.600 75.782 C 324.020 75.782,320.453 75.835,324.674 75.899 M36.400 199.935 C 36.400 200.191,35.995 200.400,35.500 200.401 C 35.005 200.401,33.970 200.941,33.200 201.600 C 32.430 202.259,31.652 202.799,31.471 202.799 C 30.951 202.801,30.000 203.889,30.000 204.483 C 30.000 204.780,29.640 205.283,29.200 205.600 C 28.760 205.917,28.400 206.497,28.400 206.888 C 28.400 207.280,28.264 207.600,28.097 207.600 C 26.822 207.600,25.933 286.217,27.200 287.000 C 27.420 287.136,27.600 287.687,27.600 288.224 C 27.600 288.761,27.768 289.200,27.973 289.200 C 28.178 289.200,28.464 289.572,28.608 290.027 C 29.040 291.388,33.060 295.117,34.686 295.666 C 35.828 296.051,41.927 296.207,59.500 296.301 L 82.800 296.425 82.800 248.212 L 82.800 200.000 72.500 199.999 C 66.835 199.999,56.395 199.880,49.300 199.735 C 39.619 199.537,36.400 199.587,36.400 199.935 M346.903 199.895 L 344.806 200.042 344.703 248.321 L 344.600 296.600 352.600 296.675 C 357.000 296.716,367.147 296.865,375.149 297.006 C 385.339 297.186,389.827 297.133,390.129 296.831 C 390.366 296.594,390.974 296.400,391.480 296.400 C 391.986 296.400,392.400 296.220,392.400 296.000 C 392.400 295.780,392.720 295.600,393.112 295.600 C 393.503 295.600,394.083 295.240,394.400 294.800 C 394.717 294.360,395.252 293.994,395.588 293.988 C 396.289 293.973,398.347 291.306,399.344 289.120 C 399.965 287.757,400.010 284.452,399.909 247.510 L 399.800 207.381 398.900 206.415 C 398.405 205.884,398.000 205.297,398.000 205.111 C 398.000 204.592,395.528 202.269,394.297 201.632 C 393.694 201.320,393.200 200.915,393.200 200.732 C 393.200 200.550,392.750 200.400,392.200 200.400 C 391.650 200.400,391.200 200.220,391.200 200.000 C 391.200 199.623,352.112 199.530,346.903 199.895 M96.800 247.626 C 96.800 281.921,96.675 295.486,96.353 296.087 C 95.971 296.801,96.005 296.884,96.586 296.661 C 96.960 296.517,149.901 296.400,214.233 296.400 L 331.200 296.400 331.200 248.200 L 331.200 200.000 214.000 200.000 L 96.800 200.000 96.800 247.626 M293.675 228.877 C 296.528 231.054,296.585 231.383,296.727 246.600 C 296.895 264.589,296.741 265.525,293.231 267.890 L 291.882 268.800 213.895 268.800 L 135.909 268.800 134.402 267.953 C 131.200 266.153,131.200 266.154,131.200 248.226 C 131.200 230.755,131.173 230.966,133.700 229.061 C 134.415 228.522,135.360 227.993,135.800 227.885 C 136.240 227.777,171.624 227.714,214.431 227.744 L 292.262 227.800 293.675 228.877 " stroke="none" fill="#7d6599" fill-rule="evenodd"></path><path id="path4" d="M10.613 295.980 C 10.470 296.211,9.919 296.400,9.389 296.400 C 7.407 296.400,1.200 301.358,1.200 302.941 C 1.200 303.267,0.975 303.608,0.700 303.700 C -0.034 303.945,-0.034 386.055,0.700 386.300 C 0.975 386.392,1.200 386.701,1.200 386.987 C 1.200 387.777,5.234 391.600,6.068 391.600 C 6.471 391.600,6.800 391.780,6.800 392.000 C 6.800 392.220,7.160 392.400,7.600 392.400 C 8.040 392.400,8.400 392.580,8.400 392.800 C 8.400 393.020,9.019 393.200,9.776 393.200 C 10.533 393.200,11.264 393.381,11.401 393.601 C 11.743 394.154,360.660 394.150,361.002 393.597 C 361.137 393.379,361.957 393.200,362.824 393.200 C 363.691 393.200,364.400 393.020,364.400 392.800 C 364.400 392.580,364.760 392.400,365.200 392.400 C 365.640 392.400,366.000 392.242,366.000 392.049 C 366.000 391.855,366.525 391.479,367.168 391.213 C 368.391 390.707,370.800 388.317,370.800 387.611 C 370.800 387.385,370.980 387.200,371.200 387.200 C 371.420 387.200,371.600 386.840,371.600 386.400 C 371.600 385.960,371.736 385.600,371.903 385.600 C 373.128 385.600,374.059 308.560,372.863 306.095 C 372.678 305.713,372.093 304.500,371.563 303.400 C 370.503 301.198,367.570 298.000,366.611 298.000 C 366.275 298.000,366.000 297.849,366.000 297.665 C 366.000 296.797,357.750 296.349,344.080 296.472 C 336.314 296.543,330.239 296.658,330.580 296.729 C 331.136 296.845,331.200 301.830,331.200 344.983 L 331.200 393.107 330.300 393.348 C 329.120 393.664,305.055 393.673,304.233 393.357 C 303.380 393.030,303.249 297.015,304.100 296.656 C 304.375 296.540,251.500 296.453,186.600 296.464 L 68.600 296.483 68.600 344.942 L 68.600 393.400 55.109 393.505 L 41.618 393.611 41.398 392.705 C 41.276 392.207,41.227 370.349,41.289 344.130 L 41.400 296.461 39.000 296.207 C 34.421 295.721,10.888 295.533,10.613 295.980 M197.620 324.397 C 231.958 326.929,252.807 336.890,247.444 348.200 C 244.001 355.462,230.456 361.036,208.600 364.188 C 170.118 369.737,124.105 359.238,124.009 344.887 C 123.965 338.350,133.866 331.843,149.600 328.069 C 154.426 326.911,155.134 326.763,157.600 326.390 C 158.810 326.207,161.150 325.846,162.800 325.588 C 171.576 324.215,187.687 323.664,197.620 324.397 " stroke="none" fill="#e64c3c" fill-rule="evenodd"></path><path id="path5" d="M63.525 75.899 C 67.114 75.966,72.874 75.966,76.325 75.899 C 79.776 75.833,76.840 75.778,69.800 75.778 C 62.760 75.779,59.936 75.833,63.525 75.899 M296.700 75.899 C 300.495 75.965,306.705 75.965,310.500 75.899 C 314.295 75.834,311.190 75.780,303.600 75.780 C 296.010 75.780,292.905 75.834,296.700 75.899 M82.800 248.400 L 82.800 296.800 89.386 296.800 C 95.488 296.800,96.002 296.743,96.386 296.026 C 96.665 295.505,96.800 279.691,96.800 247.626 L 96.800 200.000 89.800 200.000 L 82.800 200.000 82.800 248.400 M331.200 248.410 L 331.200 296.819 337.900 296.710 L 344.600 296.600 344.702 248.300 L 344.803 200.000 338.002 200.000 L 331.200 200.000 331.200 248.410 M135.800 227.885 C 135.360 227.993,134.415 228.522,133.700 229.061 C 131.173 230.966,131.200 230.755,131.200 248.226 C 131.200 266.154,131.200 266.153,134.402 267.953 L 135.909 268.800 213.895 268.800 L 291.882 268.800 293.231 267.890 C 296.741 265.525,296.895 264.589,296.727 246.600 C 296.585 231.383,296.528 231.054,293.675 228.877 L 292.262 227.800 214.431 227.744 C 171.624 227.714,136.240 227.777,135.800 227.885 M184.313 324.295 C 185.476 324.376,187.276 324.376,188.313 324.293 C 189.351 324.211,188.400 324.145,186.200 324.146 C 184.000 324.147,183.151 324.214,184.313 324.295 " stroke="none" fill="#b49aca" fill-rule="evenodd"></path><path id="path6" d="M68.600 6.400 L 55.400 6.600 55.298 41.071 C 55.202 73.458,55.153 75.555,54.498 75.759 C 54.114 75.878,54.951 75.891,56.359 75.787 C 57.766 75.684,64.291 75.600,70.859 75.600 L 82.800 75.600 82.800 41.371 C 82.800 14.507,82.692 7.041,82.300 6.671 C 81.928 6.321,78.422 6.251,68.600 6.400 M289.804 6.733 C 289.692 7.026,289.600 22.641,289.600 41.433 L 289.600 75.600 303.404 75.600 L 317.208 75.600 317.196 40.900 L 317.183 6.200 303.596 6.200 C 292.650 6.200,289.969 6.304,289.804 6.733 " stroke="none" fill="#67b9cc" fill-rule="evenodd"></path></g></svg>