<svg id="svg" version="1.1" xmlns="http://www.w3.org/2000/svg" xmlns:xlink="http://www.w3.org/1999/xlink" width="400" height="400" viewBox="0, 0, 400,400"><g id="svgg"><path id="path0" d="M169.000 58.000 C 168.864 58.220,168.293 58.400,167.731 58.400 C 165.407 58.400,158.400 63.505,158.400 65.198 C 158.400 65.542,158.040 66.083,157.600 66.400 C 157.160 66.717,156.800 67.286,156.800 67.665 C 156.800 68.043,156.620 68.464,156.400 68.600 C 156.180 68.736,156.000 69.276,156.000 69.800 C 156.000 70.324,155.820 70.864,155.600 71.000 C 155.368 71.144,155.200 73.355,155.200 76.275 L 155.200 81.302 161.700 80.988 C 170.572 80.560,185.131 80.696,188.894 81.241 C 193.356 81.889,193.200 82.064,193.200 76.413 C 193.200 73.471,193.045 71.600,192.800 71.600 C 192.580 71.600,192.400 71.060,192.400 70.400 C 192.400 69.740,192.220 69.200,192.000 69.200 C 191.780 69.200,191.600 68.905,191.600 68.544 C 191.600 66.807,187.238 60.800,185.976 60.800 C 185.801 60.800,185.419 60.566,185.129 60.279 C 184.384 59.546,181.375 58.400,180.192 58.400 C 179.646 58.400,179.200 58.220,179.200 58.000 C 179.200 57.755,177.275 57.600,174.224 57.600 C 171.337 57.600,169.143 57.768,169.000 58.000 M166.584 193.700 C 166.479 193.975,166.439 205.630,166.496 219.600 L 166.600 245.000 222.157 245.101 C 262.884 245.176,277.859 245.083,278.257 244.752 C 278.823 244.283,279.112 195.277,278.557 193.833 C 278.230 192.980,166.909 192.848,166.584 193.700 " stroke="none" fill="#92a0cb" fill-rule="evenodd"></path><path id="path1" d="M224.336 278.998 C 224.202 279.132,220.156 279.420,215.346 279.637 C 205.326 280.090,197.161 280.614,191.400 281.173 C 181.439 282.139,178.414 282.453,175.800 282.791 C 174.260 282.990,171.470 283.333,169.600 283.553 C 167.730 283.773,164.940 284.151,163.400 284.392 C 161.860 284.633,159.430 285.006,158.000 285.221 C 152.074 286.109,143.598 287.557,139.600 288.363 C 138.610 288.563,136.810 288.908,135.600 289.130 C 133.612 289.496,131.857 289.863,122.616 291.848 C 121.086 292.177,117.666 292.989,115.016 293.654 C 112.367 294.319,109.570 295.017,108.800 295.205 C 108.030 295.393,106.680 295.756,105.800 296.011 C 104.920 296.266,103.613 296.568,102.896 296.681 C 102.179 296.795,101.494 297.049,101.373 297.244 C 101.252 297.440,100.771 297.600,100.305 297.600 C 99.404 297.600,97.061 298.265,95.905 298.849 C 95.523 299.042,94.846 299.200,94.400 299.200 C 93.954 299.200,93.277 299.362,92.895 299.561 C 92.513 299.760,91.390 300.146,90.400 300.419 C 88.127 301.046,83.651 302.412,82.600 302.800 C 82.160 302.962,80.540 303.488,79.000 303.968 C 77.460 304.448,75.840 305.002,75.400 305.199 C 74.960 305.396,71.823 306.486,68.428 307.621 C 61.135 310.061,59.426 311.265,62.408 311.862 C 63.073 311.995,63.714 312.260,63.832 312.452 C 63.950 312.643,64.487 312.800,65.024 312.800 C 65.561 312.800,66.000 312.980,66.000 313.200 C 66.000 313.420,66.360 313.600,66.800 313.600 C 67.240 313.600,67.600 313.780,67.600 314.000 C 67.600 314.220,68.140 314.400,68.800 314.400 C 69.460 314.400,70.000 314.580,70.000 314.800 C 70.000 315.020,70.540 315.200,71.200 315.200 C 71.860 315.200,72.400 315.380,72.400 315.600 C 72.400 315.820,72.760 316.000,73.200 316.000 C 73.640 316.000,74.000 316.180,74.000 316.400 C 74.000 316.620,74.439 316.800,74.976 316.800 C 75.513 316.800,76.064 316.980,76.200 317.200 C 76.336 317.420,76.791 317.600,77.211 317.600 C 77.632 317.600,78.617 317.960,79.400 318.400 C 80.183 318.840,81.179 319.200,81.612 319.200 C 82.045 319.200,82.400 319.380,82.400 319.600 C 82.400 319.820,82.940 320.000,83.600 320.000 C 84.260 320.000,84.800 320.141,84.800 320.313 C 84.800 320.485,85.655 320.874,86.700 321.178 C 87.745 321.482,88.700 321.881,88.822 322.064 C 88.945 322.246,89.530 322.436,90.122 322.485 C 90.715 322.534,91.200 322.715,91.200 322.887 C 91.200 323.059,91.472 323.200,91.805 323.200 C 92.138 323.200,92.723 323.369,93.105 323.576 C 93.702 323.898,95.617 324.463,96.467 324.567 C 96.613 324.585,96.868 324.735,97.033 324.900 C 97.198 325.065,97.854 325.200,98.490 325.200 C 99.160 325.200,99.543 325.369,99.400 325.600 C 99.260 325.826,99.588 326.000,100.153 326.000 C 100.703 326.000,101.264 326.180,101.400 326.400 C 101.536 326.620,102.187 326.800,102.847 326.800 C 103.545 326.800,103.944 326.967,103.800 327.200 C 103.656 327.433,104.055 327.600,104.753 327.600 C 105.413 327.600,106.064 327.780,106.200 328.000 C 106.336 328.220,106.966 328.400,107.600 328.400 C 108.234 328.400,108.864 328.580,109.000 328.800 C 109.136 329.020,109.687 329.200,110.224 329.200 C 110.761 329.200,111.200 329.380,111.200 329.600 C 111.200 329.820,111.830 330.000,112.600 330.000 C 113.370 330.000,114.000 330.180,114.000 330.400 C 114.000 330.620,114.630 330.800,115.400 330.800 C 116.170 330.800,116.800 330.980,116.800 331.200 C 116.800 331.420,117.340 331.600,118.000 331.600 C 118.660 331.600,119.200 331.780,119.200 332.000 C 119.200 332.220,119.920 332.400,120.800 332.400 C 121.680 332.400,122.400 332.580,122.400 332.800 C 122.400 333.020,123.120 333.200,124.000 333.200 C 124.880 333.200,125.600 333.380,125.600 333.600 C 125.600 333.820,126.219 334.000,126.976 334.000 C 127.733 334.000,128.464 334.180,128.600 334.400 C 128.736 334.620,129.456 334.800,130.200 334.800 C 130.944 334.800,131.664 334.980,131.800 335.200 C 131.936 335.420,132.836 335.600,133.800 335.600 C 134.764 335.600,135.664 335.780,135.800 336.000 C 135.936 336.220,136.847 336.400,137.824 336.400 C 138.801 336.400,139.600 336.580,139.600 336.800 C 139.600 337.020,140.374 337.200,141.320 337.200 C 142.266 337.200,143.211 337.363,143.420 337.561 C 143.780 337.904,144.714 338.055,150.106 338.645 C 151.375 338.784,152.511 339.055,152.630 339.249 C 152.749 339.442,153.881 339.600,155.144 339.600 C 156.407 339.600,157.611 339.766,157.820 339.969 C 158.029 340.172,159.460 340.423,161.000 340.527 C 162.540 340.631,164.340 340.822,165.000 340.951 C 165.660 341.080,169.478 341.307,173.485 341.455 C 177.492 341.604,180.676 341.877,180.561 342.063 C 180.447 342.248,228.243 342.400,286.776 342.400 C 357.459 342.400,393.200 342.266,393.200 342.000 C 393.200 341.780,393.496 341.600,393.858 341.600 C 394.720 341.600,397.998 339.522,397.999 338.975 C 398.000 338.742,398.405 338.116,398.900 337.585 C 399.751 336.672,399.800 336.289,399.800 330.601 L 399.800 324.583 397.509 322.291 C 396.248 321.031,394.943 320.000,394.609 320.000 C 394.274 320.000,394.000 319.820,394.000 319.600 C 394.000 319.380,393.640 319.200,393.200 319.200 C 392.760 319.200,392.400 319.020,392.400 318.800 C 392.400 318.580,392.130 318.400,391.800 318.400 C 391.470 318.400,391.200 318.220,391.200 318.000 C 391.200 317.780,390.930 317.600,390.600 317.600 C 390.270 317.600,390.000 317.454,390.000 317.275 C 390.000 317.096,389.370 316.702,388.600 316.400 C 387.830 316.098,387.200 315.704,387.200 315.525 C 387.200 315.346,386.840 315.200,386.400 315.200 C 385.960 315.200,385.600 315.020,385.600 314.800 C 385.600 314.580,385.322 314.400,384.983 314.400 C 384.644 314.400,383.980 314.040,383.508 313.600 C 383.036 313.160,382.413 312.800,382.125 312.800 C 381.836 312.800,381.600 312.620,381.600 312.400 C 381.600 312.180,381.240 312.000,380.800 312.000 C 380.360 312.000,380.000 311.820,380.000 311.600 C 380.000 311.380,379.640 311.200,379.200 311.200 C 378.760 311.200,378.400 311.020,378.400 310.800 C 378.400 310.580,378.040 310.400,377.600 310.400 C 377.160 310.400,376.800 310.238,376.800 310.040 C 376.800 309.841,375.991 309.346,375.001 308.940 C 374.012 308.533,373.202 308.065,373.201 307.900 C 373.201 307.735,372.840 307.600,372.400 307.600 C 371.960 307.600,371.600 307.420,371.600 307.200 C 371.600 306.980,371.330 306.800,371.000 306.800 C 370.670 306.800,370.400 306.620,370.400 306.400 C 370.400 306.180,370.130 306.000,369.800 306.000 C 369.470 306.000,369.200 305.820,369.200 305.600 C 369.200 305.380,368.840 305.200,368.400 305.200 C 367.960 305.200,367.600 305.020,367.600 304.800 C 367.600 304.580,367.240 304.400,366.800 304.400 C 366.360 304.400,366.000 304.220,366.000 304.000 C 366.000 303.780,365.680 303.600,365.288 303.600 C 364.897 303.600,364.317 303.240,364.000 302.800 C 363.683 302.360,363.103 302.000,362.712 302.000 C 362.320 302.000,362.000 301.820,362.000 301.600 C 362.000 301.380,361.640 301.200,361.200 301.200 C 360.760 301.200,360.400 301.020,360.400 300.800 C 360.400 300.580,360.040 300.400,359.600 300.400 C 359.160 300.400,358.800 300.220,358.800 300.000 C 358.800 299.780,358.530 299.600,358.200 299.600 C 357.870 299.600,357.600 299.420,357.600 299.200 C 357.600 298.980,357.330 298.800,357.000 298.800 C 356.670 298.800,356.400 298.620,356.400 298.400 C 356.400 298.180,356.130 298.000,355.800 298.000 C 355.470 298.000,355.200 297.820,355.200 297.600 C 355.200 297.380,354.840 297.200,354.400 297.200 C 353.960 297.200,353.600 297.020,353.600 296.800 C 353.600 296.580,353.240 296.400,352.800 296.400 C 352.360 296.400,352.000 296.220,352.000 296.000 C 352.000 295.780,351.803 295.600,351.562 295.600 C 351.321 295.600,350.601 295.228,349.962 294.773 C 349.198 294.229,348.511 294.038,347.953 294.215 C 347.486 294.363,346.676 294.285,346.152 294.042 C 345.240 293.619,343.916 293.059,342.200 292.373 C 341.760 292.197,340.680 291.824,339.800 291.545 C 338.920 291.265,338.029 290.893,337.820 290.718 C 337.611 290.543,337.037 290.400,336.544 290.400 C 336.051 290.400,335.549 290.241,335.429 290.046 C 335.308 289.851,334.713 289.597,334.105 289.480 C 333.497 289.363,331.650 288.876,330.000 288.397 C 328.350 287.919,326.370 287.352,325.600 287.136 C 324.154 286.732,316.622 284.989,313.800 284.405 C 309.316 283.477,307.202 283.080,305.200 282.789 C 303.990 282.613,301.740 282.264,300.200 282.013 C 294.035 281.011,285.472 280.091,277.400 279.564 C 270.281 279.100,224.720 278.613,224.336 278.998 " stroke="none" fill="#fc6c9f" fill-rule="evenodd"></path><path id="path2" d="M166.400 80.834 C 163.210 80.980,159.340 81.154,157.800 81.220 L 155.000 81.341 157.800 81.600 C 159.340 81.742,160.203 81.891,159.719 81.929 C 159.234 81.968,158.424 82.164,157.919 82.364 C 157.413 82.564,155.920 83.039,154.600 83.420 C 133.352 89.550,111.390 107.142,96.171 130.220 C 92.239 136.184,92.090 136.417,91.596 137.400 C 91.376 137.840,90.559 139.280,89.782 140.600 C 87.644 144.234,81.974 156.005,80.823 159.200 C 80.168 161.020,79.828 161.867,79.000 163.747 C 78.624 164.598,77.701 167.208,76.947 169.547 C 76.193 171.886,75.423 174.160,75.236 174.600 C 75.050 175.040,74.402 177.200,73.798 179.400 C 73.193 181.600,72.350 184.660,71.925 186.200 C 70.518 191.287,67.969 203.209,67.136 208.600 C 66.897 210.140,66.551 212.300,66.365 213.400 C 63.756 228.858,62.512 251.831,62.427 286.143 C 62.378 305.847,62.290 308.967,61.766 309.491 C 61.434 309.823,61.270 310.204,61.403 310.336 C 61.535 310.468,61.769 310.379,61.922 310.138 C 62.075 309.896,64.990 308.767,68.400 307.628 C 71.810 306.489,74.960 305.396,75.400 305.199 C 75.840 305.002,77.460 304.448,79.000 303.968 C 80.540 303.488,82.160 302.962,82.600 302.800 C 83.651 302.412,88.127 301.046,90.400 300.419 C 91.390 300.146,92.513 299.760,92.895 299.561 C 93.277 299.362,93.954 299.200,94.400 299.200 C 94.846 299.200,95.523 299.042,95.905 298.849 C 97.061 298.265,99.404 297.600,100.305 297.600 C 100.771 297.600,101.252 297.440,101.373 297.244 C 101.494 297.049,102.179 296.795,102.896 296.681 C 103.613 296.568,104.920 296.266,105.800 296.011 C 106.680 295.756,108.030 295.393,108.800 295.205 C 109.570 295.017,112.367 294.319,115.016 293.654 C 117.666 292.989,121.086 292.177,122.616 291.848 C 131.857 289.863,133.612 289.496,135.600 289.130 C 136.810 288.908,138.610 288.563,139.600 288.363 C 143.598 287.557,152.074 286.109,158.000 285.221 C 159.430 285.006,161.860 284.633,163.400 284.392 C 164.940 284.151,167.730 283.773,169.600 283.553 C 171.470 283.333,174.260 282.990,175.800 282.791 C 178.414 282.453,181.439 282.139,191.400 281.173 C 206.819 279.677,223.487 279.026,246.400 279.023 C 273.401 279.021,286.163 279.730,300.200 282.013 C 301.740 282.264,303.990 282.613,305.200 282.789 C 307.202 283.080,309.316 283.477,313.800 284.405 C 316.622 284.989,324.154 286.732,325.600 287.136 C 326.370 287.352,328.350 287.919,330.000 288.397 C 331.650 288.876,333.497 289.363,334.105 289.480 C 334.713 289.597,335.308 289.851,335.429 290.046 C 335.549 290.241,336.051 290.400,336.544 290.400 C 337.037 290.400,337.611 290.543,337.820 290.718 C 338.029 290.893,338.920 291.265,339.800 291.545 C 340.680 291.824,341.850 292.245,342.400 292.480 C 342.950 292.715,343.850 293.084,344.400 293.300 C 344.950 293.516,345.713 293.852,346.095 294.047 C 348.094 295.064,348.000 296.315,348.000 268.824 C 348.000 252.204,347.860 243.161,347.600 243.000 C 347.377 242.862,347.200 241.004,347.200 238.800 C 347.200 236.596,347.023 234.738,346.800 234.600 C 346.580 234.464,346.400 233.049,346.400 231.456 C 346.400 229.863,346.237 228.389,346.037 228.180 C 345.700 227.828,345.577 227.046,344.954 221.300 C 344.828 220.145,344.563 219.200,344.363 219.200 C 344.163 219.200,344.000 218.480,344.000 217.600 C 344.000 216.720,343.820 216.000,343.600 216.000 C 343.380 216.000,343.200 215.190,343.200 214.200 C 343.200 213.210,343.020 212.400,342.800 212.400 C 342.580 212.400,342.400 211.781,342.400 211.024 C 342.400 210.267,342.220 209.536,342.000 209.400 C 341.780 209.264,341.600 208.634,341.600 208.000 C 341.600 207.366,341.444 206.751,341.254 206.633 C 341.064 206.516,340.801 205.740,340.669 204.910 C 340.334 202.787,340.243 202.427,339.532 200.400 C 339.185 199.410,338.684 197.880,338.417 197.000 C 338.151 196.120,337.642 194.770,337.286 194.000 C 336.930 193.230,336.573 192.153,336.493 191.607 C 336.413 191.062,336.209 190.522,336.039 190.407 C 335.870 190.293,335.482 189.345,335.178 188.300 C 334.874 187.255,334.485 186.400,334.313 186.400 C 334.141 186.400,334.000 186.040,334.000 185.600 C 334.000 185.160,333.820 184.800,333.600 184.800 C 333.380 184.800,333.200 184.528,333.200 184.195 C 333.200 183.862,333.032 183.277,332.826 182.895 C 332.621 182.513,332.217 181.615,331.929 180.900 C 331.640 180.185,331.269 179.600,331.102 179.600 C 330.936 179.600,330.800 179.366,330.800 179.080 C 330.800 178.344,329.859 176.407,329.500 176.403 C 329.335 176.401,329.200 176.040,329.200 175.600 C 329.200 175.160,329.020 174.800,328.800 174.800 C 328.580 174.800,328.400 174.440,328.400 174.000 C 328.400 173.560,328.220 173.200,328.000 173.200 C 327.780 173.200,327.600 172.840,327.600 172.400 C 327.600 171.960,327.420 171.600,327.200 171.600 C 326.980 171.600,326.800 171.364,326.800 171.075 C 326.800 170.787,326.440 170.164,326.000 169.692 C 325.560 169.220,325.200 168.556,325.200 168.217 C 325.200 167.878,325.049 167.600,324.864 167.600 C 324.679 167.600,324.290 166.880,324.000 166.000 C 323.710 165.120,323.359 164.400,323.222 164.400 C 323.084 164.400,322.438 163.411,321.786 162.201 C 321.134 160.992,320.465 160.002,320.300 160.001 C 320.135 160.001,320.000 159.775,320.000 159.500 C 319.999 159.225,319.554 158.483,319.011 157.851 C 318.467 157.219,317.916 156.364,317.784 155.951 C 317.653 155.538,317.378 155.200,317.173 155.200 C 316.968 155.200,316.799 154.975,316.798 154.700 C 316.797 154.425,316.257 153.625,315.598 152.922 C 314.939 152.219,314.400 151.455,314.400 151.225 C 314.400 150.995,313.860 150.291,313.200 149.660 C 312.540 149.029,312.000 148.343,312.000 148.135 C 312.000 147.927,311.415 147.108,310.700 146.315 C 309.985 145.522,309.056 144.452,308.636 143.937 C 308.215 143.422,307.354 142.370,306.720 141.600 C 306.087 140.830,305.171 139.695,304.685 139.078 C 303.358 137.395,293.775 127.794,290.234 124.600 C 288.527 123.060,286.341 121.035,285.376 120.100 C 284.411 119.165,283.458 118.400,283.259 118.400 C 283.059 118.400,282.155 117.680,281.248 116.800 C 280.341 115.920,279.464 115.200,279.300 115.200 C 279.135 115.199,278.477 114.749,277.838 114.200 C 277.199 113.650,276.551 113.200,276.399 113.200 C 276.247 113.200,275.690 112.820,275.161 112.355 C 274.006 111.338,268.534 107.600,268.201 107.600 C 268.072 107.600,267.580 107.240,267.108 106.800 C 266.636 106.360,266.013 106.000,265.725 106.000 C 265.436 106.000,265.200 105.855,265.200 105.679 C 265.200 105.502,264.303 104.917,263.206 104.379 C 262.110 103.840,261.210 103.265,261.206 103.100 C 261.203 102.935,260.840 102.800,260.400 102.800 C 259.960 102.800,259.600 102.642,259.600 102.449 C 259.600 102.255,259.060 101.873,258.400 101.600 C 257.740 101.327,257.200 100.945,257.200 100.751 C 257.200 100.558,256.840 100.400,256.400 100.400 C 255.960 100.400,255.600 100.220,255.600 100.000 C 255.600 99.780,255.240 99.600,254.800 99.600 C 254.360 99.600,253.999 99.465,253.999 99.300 C 253.998 99.135,253.008 98.550,251.800 98.000 C 250.592 97.450,249.602 96.865,249.601 96.700 C 249.601 96.535,249.285 96.399,248.900 96.399 C 248.515 96.398,247.615 96.040,246.900 95.604 C 246.185 95.168,245.600 94.909,245.600 95.028 C 245.600 95.148,245.105 94.988,244.500 94.673 C 242.546 93.658,240.388 92.800,239.786 92.800 C 239.464 92.800,239.200 92.620,239.200 92.400 C 239.200 92.180,238.838 92.000,238.395 92.000 C 237.617 92.000,237.231 91.858,235.305 90.862 C 234.813 90.608,234.138 90.400,233.805 90.400 C 233.472 90.400,233.200 90.220,233.200 90.000 C 233.200 89.780,232.660 89.600,232.000 89.600 C 231.340 89.600,230.800 89.420,230.800 89.200 C 230.800 88.980,230.271 88.800,229.624 88.800 C 228.977 88.800,228.336 88.620,228.200 88.400 C 228.064 88.180,227.513 88.000,226.976 88.000 C 226.439 88.000,226.000 87.820,226.000 87.600 C 226.000 87.380,225.471 87.200,224.824 87.200 C 224.177 87.200,223.536 87.020,223.400 86.800 C 223.264 86.580,222.634 86.400,222.000 86.400 C 221.366 86.400,220.736 86.220,220.600 86.000 C 220.464 85.780,219.834 85.600,219.200 85.600 C 218.566 85.600,217.936 85.420,217.800 85.200 C 217.664 84.980,216.843 84.800,215.976 84.800 C 215.109 84.800,214.400 84.620,214.400 84.400 C 214.400 84.180,213.680 84.000,212.800 84.000 C 211.920 84.000,211.200 83.820,211.200 83.600 C 211.200 83.380,210.300 83.200,209.200 83.200 C 208.100 83.200,207.200 83.037,207.200 82.837 C 207.200 82.497,206.378 82.366,200.500 81.765 C 199.235 81.635,198.029 81.365,197.820 81.165 C 197.277 80.643,193.447 80.713,192.905 81.255 C 192.567 81.593,191.493 81.596,188.725 81.269 C 183.886 80.696,173.720 80.498,166.400 80.834 M48.000 133.400 C 47.483 133.950,47.227 134.394,47.430 134.387 C 47.772 134.376,49.421 132.400,49.088 132.400 C 49.006 132.400,48.517 132.850,48.000 133.400 M278.557 193.833 C 279.112 195.277,278.823 244.283,278.257 244.752 C 277.859 245.083,262.884 245.176,222.157 245.101 L 166.600 245.000 166.496 219.600 C 166.439 205.630,166.479 193.975,166.584 193.700 C 166.909 192.848,278.230 192.980,278.557 193.833 M13.200 317.213 C 13.200 317.426,13.545 317.600,13.967 317.600 C 14.388 317.600,14.825 317.784,14.937 318.010 C 15.049 318.236,15.099 318.208,15.049 317.948 C 14.936 317.360,13.200 316.669,13.200 317.213 M26.500 320.676 C 26.885 320.776,27.515 320.776,27.900 320.676 C 28.285 320.575,27.970 320.493,27.200 320.493 C 26.430 320.493,26.115 320.575,26.500 320.676 " stroke="none" fill="#f2f2f2" fill-rule="evenodd"></path><path id="path3" d="M148.923 81.237 C 148.683 81.477,147.972 81.722,147.343 81.780 C 146.714 81.838,145.840 82.019,145.400 82.181 C 144.760 82.417,144.720 82.389,145.200 82.044 C 145.985 81.479,145.094 81.447,143.995 82.000 C 143.558 82.220,142.821 82.593,142.358 82.830 C 141.895 83.066,141.622 83.088,141.751 82.880 C 142.109 82.300,139.916 82.427,139.323 83.020 C 139.016 83.326,138.237 83.470,137.426 83.369 C 136.668 83.275,135.937 83.379,135.801 83.599 C 135.664 83.820,134.921 84.000,134.148 84.000 C 133.375 84.000,132.488 84.255,132.177 84.566 C 131.833 84.910,131.139 85.058,130.405 84.942 C 129.516 84.802,129.200 84.909,129.200 85.352 C 129.200 85.683,128.992 86.081,128.738 86.238 C 128.452 86.415,128.385 86.348,128.562 86.062 C 128.719 85.808,128.657 85.600,128.424 85.600 C 128.191 85.600,128.000 85.802,128.000 86.049 C 128.000 86.341,127.767 86.306,127.335 85.949 C 126.816 85.521,126.633 85.510,126.502 85.900 C 126.409 86.175,125.978 86.400,125.543 86.400 C 125.108 86.400,124.864 86.580,125.000 86.800 C 125.145 87.034,124.730 87.200,124.000 87.200 C 123.314 87.200,122.840 87.341,122.947 87.514 C 123.054 87.687,122.808 87.829,122.400 87.829 C 121.992 87.829,121.746 87.687,121.853 87.514 C 121.960 87.341,121.767 87.200,121.424 87.200 C 121.081 87.200,120.800 87.460,120.800 87.777 C 120.800 88.147,120.500 88.296,119.962 88.193 C 119.501 88.104,118.722 88.295,118.230 88.617 C 117.738 88.939,117.224 89.091,117.087 88.954 C 116.950 88.817,116.545 88.998,116.187 89.356 C 115.829 89.714,115.350 89.893,115.123 89.752 C 114.896 89.612,114.596 89.656,114.455 89.849 C 114.066 90.385,112.278 91.320,112.582 90.830 C 112.728 90.593,112.657 90.400,112.424 90.400 C 112.191 90.400,112.000 90.580,112.000 90.800 C 112.000 91.020,111.661 91.200,111.246 91.200 C 110.282 91.200,108.333 92.200,108.660 92.527 C 108.797 92.663,108.501 92.696,108.003 92.601 C 107.505 92.505,106.716 92.639,106.249 92.899 C 105.782 93.159,105.280 93.378,105.133 93.386 C 104.987 93.394,104.717 93.564,104.533 93.764 C 104.335 93.981,104.442 93.991,104.800 93.787 C 105.329 93.487,105.331 93.532,104.815 94.167 C 104.464 94.598,104.170 94.709,104.081 94.444 C 103.897 93.891,102.800 93.854,102.800 94.400 C 102.800 94.620,102.440 94.800,102.000 94.800 C 101.560 94.800,101.245 95.018,101.300 95.284 C 101.355 95.550,100.975 95.796,100.456 95.831 C 99.937 95.866,99.397 96.054,99.256 96.247 C 99.115 96.441,98.640 96.600,98.200 96.600 C 97.760 96.600,97.434 96.793,97.476 97.029 C 97.518 97.265,97.162 97.445,96.683 97.429 C 96.205 97.413,95.811 97.610,95.807 97.867 C 95.803 98.123,95.665 98.468,95.500 98.633 C 95.335 98.798,95.200 98.723,95.200 98.467 C 95.200 97.674,94.619 97.948,93.860 99.100 C 93.367 99.848,93.209 99.944,93.368 99.400 C 93.573 98.699,93.540 98.678,93.101 99.235 C 92.825 99.584,92.412 99.807,92.182 99.729 C 91.952 99.651,91.374 99.951,90.899 100.394 C 90.423 100.837,89.775 101.200,89.460 101.200 C 89.144 101.200,88.783 101.467,88.658 101.793 C 88.528 102.131,88.165 102.285,87.815 102.150 C 87.477 102.021,87.200 102.114,87.200 102.357 C 87.200 102.601,86.840 102.800,86.400 102.800 C 85.867 102.800,85.600 103.067,85.600 103.600 C 85.600 104.222,85.333 104.400,84.400 104.400 C 83.740 104.400,83.200 104.580,83.200 104.800 C 83.200 105.020,82.840 105.200,82.400 105.200 C 81.960 105.200,81.600 105.451,81.600 105.757 C 81.600 106.356,80.516 106.977,79.700 106.846 C 79.423 106.801,79.197 107.175,79.194 107.682 C 79.189 108.353,79.095 108.453,78.842 108.055 C 78.552 107.596,78.468 107.596,78.316 108.053 C 78.216 108.352,77.789 108.597,77.367 108.598 C 76.942 108.599,76.649 108.836,76.710 109.130 C 76.770 109.421,76.669 109.566,76.485 109.453 C 76.301 109.339,75.621 109.594,74.975 110.020 C 74.329 110.446,74.025 110.796,74.300 110.797 C 75.259 110.802,74.792 111.426,73.765 111.511 C 72.663 111.602,70.295 113.196,71.246 113.206 C 71.711 113.211,71.712 113.268,71.256 113.557 C 70.956 113.747,70.341 113.805,69.888 113.687 C 69.253 113.521,69.122 113.619,69.312 114.115 C 69.486 114.567,69.386 114.693,68.980 114.537 C 68.661 114.414,68.377 114.514,68.350 114.757 C 68.323 115.001,68.277 115.425,68.248 115.700 C 68.220 115.975,67.837 116.211,67.398 116.225 C 66.185 116.262,65.200 116.819,65.200 117.466 C 65.200 117.808,65.007 117.928,64.732 117.758 C 64.420 117.565,64.347 117.684,64.512 118.114 C 64.697 118.597,64.589 118.695,64.080 118.505 C 63.499 118.287,63.476 118.344,63.923 118.894 C 64.375 119.450,64.338 119.509,63.648 119.328 C 63.209 119.214,62.434 119.430,61.925 119.809 C 61.326 120.256,61.246 120.415,61.700 120.262 C 62.085 120.132,62.400 120.199,62.400 120.413 C 62.400 120.775,61.814 120.965,61.079 120.840 C 60.631 120.764,59.600 121.848,59.600 122.395 C 59.600 122.644,59.375 122.718,59.100 122.559 C 58.825 122.401,58.733 122.419,58.897 122.599 C 59.273 123.014,58.476 124.000,57.765 124.000 C 56.767 124.000,54.080 126.819,54.294 127.640 C 54.407 128.068,54.288 128.400,54.023 128.400 C 53.764 128.400,53.664 128.220,53.800 128.000 C 53.936 127.780,53.747 127.600,53.381 127.600 C 52.963 127.600,52.797 127.816,52.937 128.180 C 53.093 128.588,52.967 128.686,52.510 128.510 C 52.030 128.326,51.926 128.430,52.110 128.910 C 52.294 129.390,52.190 129.494,51.710 129.310 C 51.237 129.129,51.126 129.231,51.302 129.688 C 51.598 130.459,50.030 131.981,49.236 131.695 C 48.872 131.563,48.750 131.691,48.890 132.058 C 49.173 132.794,47.831 134.454,47.135 134.230 C 46.530 134.035,44.267 136.561,44.267 137.431 C 44.267 137.744,44.066 138.000,43.822 138.000 C 43.577 138.000,43.112 138.382,42.788 138.848 C 42.465 139.315,41.570 140.384,40.800 141.224 C 36.639 145.763,35.992 146.621,37.000 146.274 C 37.788 146.002,37.788 146.007,37.024 146.599 C 36.596 146.930,36.101 147.200,35.924 147.200 C 35.746 147.200,35.600 147.560,35.600 148.000 C 35.600 148.533,35.333 148.800,34.800 148.800 C 34.360 148.800,34.000 148.991,34.000 149.224 C 34.000 149.457,34.225 149.533,34.500 149.394 C 34.775 149.255,34.688 149.397,34.306 149.710 C 33.925 150.023,33.737 150.403,33.889 150.555 C 34.041 150.707,33.758 150.938,33.260 151.068 C 32.727 151.208,32.438 151.522,32.557 151.832 C 32.692 152.184,32.546 152.277,32.115 152.112 C 31.611 151.919,31.521 152.053,31.698 152.733 C 31.823 153.210,31.749 153.600,31.534 153.600 C 31.100 153.600,30.000 154.600,30.000 154.995 C 30.000 155.134,30.178 155.137,30.395 155.003 C 30.622 154.863,30.689 155.023,30.554 155.377 C 30.423 155.717,30.154 155.895,29.955 155.772 C 29.756 155.649,29.426 155.965,29.222 156.474 C 29.018 156.983,28.838 157.220,28.823 157.000 C 28.808 156.780,28.527 157.114,28.200 157.742 C 27.872 158.370,27.696 159.032,27.809 159.214 C 27.921 159.396,27.802 159.675,27.545 159.834 C 27.252 160.015,27.184 159.950,27.362 159.662 C 27.519 159.408,27.436 159.200,27.177 159.200 C 26.896 159.200,26.795 159.538,26.926 160.040 C 27.047 160.501,27.047 160.780,26.925 160.659 C 26.664 160.397,26.004 161.074,25.270 162.357 C 24.979 162.867,24.932 163.166,25.166 163.021 C 25.425 162.861,25.498 162.999,25.354 163.377 C 25.223 163.717,24.943 163.888,24.731 163.757 C 24.519 163.627,24.247 163.898,24.126 164.360 C 24.006 164.822,23.736 165.200,23.528 165.200 C 23.320 165.200,23.206 165.605,23.275 166.100 C 23.352 166.655,23.209 166.962,22.900 166.900 C 22.608 166.842,22.400 167.211,22.400 167.786 C 22.400 168.362,22.068 168.950,21.600 169.200 C 21.160 169.435,20.800 169.892,20.800 170.214 C 20.800 170.536,20.599 170.800,20.353 170.800 C 20.104 170.800,19.999 171.153,20.116 171.600 C 20.252 172.120,20.128 172.400,19.763 172.400 C 19.453 172.400,19.200 172.591,19.200 172.824 C 19.200 173.057,19.368 173.144,19.573 173.017 C 19.778 172.890,19.668 173.343,19.329 174.023 C 18.990 174.703,18.462 175.355,18.156 175.472 C 17.850 175.590,17.600 175.857,17.600 176.066 C 17.600 176.276,17.825 176.338,18.100 176.205 C 18.375 176.072,18.195 176.263,17.700 176.630 C 17.205 176.997,16.800 177.546,16.800 177.849 C 16.800 178.152,16.607 178.400,16.371 178.400 C 16.135 178.400,16.006 178.715,16.085 179.100 C 16.164 179.485,15.953 180.019,15.615 180.287 C 15.196 180.619,15.159 180.779,15.500 180.787 C 15.775 180.794,16.000 181.010,16.000 181.267 C 16.000 181.523,15.881 181.614,15.736 181.469 C 15.362 181.095,14.301 182.717,14.602 183.204 C 14.739 183.425,14.569 183.714,14.225 183.846 C 13.881 183.978,13.600 184.257,13.600 184.466 C 13.600 184.676,13.825 184.733,14.100 184.593 C 14.375 184.453,14.201 184.692,13.714 185.122 C 13.170 185.603,12.890 186.230,12.989 186.745 C 13.082 187.226,12.958 187.544,12.699 187.492 C 12.451 187.441,12.182 187.760,12.102 188.200 C 11.980 188.875,12.029 188.907,12.416 188.400 C 12.805 187.892,12.839 187.913,12.638 188.533 C 12.507 188.936,12.400 189.341,12.400 189.433 C 12.400 189.525,12.109 189.600,11.753 189.600 C 11.330 189.600,11.171 189.846,11.293 190.312 C 11.395 190.703,11.221 191.265,10.905 191.560 C 10.590 191.854,10.419 192.428,10.525 192.834 C 10.631 193.241,10.522 193.534,10.283 193.486 C 10.043 193.439,9.783 193.760,9.703 194.200 C 9.624 194.640,9.364 195.393,9.126 195.874 C 8.888 196.354,8.790 197.120,8.909 197.574 C 9.046 198.099,8.970 198.305,8.700 198.138 C 8.428 197.970,8.354 198.181,8.495 198.719 C 8.616 199.183,8.470 199.886,8.170 200.281 C 7.871 200.677,7.620 201.506,7.613 202.124 C 7.605 202.768,7.430 203.142,7.200 203.000 C 6.967 202.856,6.800 203.263,6.800 203.976 C 6.800 204.649,6.620 205.200,6.400 205.200 C 6.180 205.200,6.000 205.772,6.000 206.472 C 6.000 207.924,5.199 210.457,4.602 210.894 C 4.340 211.086,4.350 211.190,4.633 211.194 C 4.872 211.197,5.067 211.470,5.067 211.800 C 5.067 212.130,4.897 212.400,4.691 212.400 C 4.484 212.400,4.416 212.665,4.540 212.988 C 4.664 213.312,4.504 213.839,4.183 214.160 C 3.469 214.874,3.420 215.349,4.100 214.965 C 4.500 214.739,4.500 214.790,4.100 215.221 C 3.825 215.518,3.600 216.174,3.600 216.680 C 3.600 217.186,3.439 217.600,3.242 217.600 C 3.045 217.600,2.933 218.329,2.994 219.220 C 3.060 220.196,2.884 221.058,2.552 221.391 C 2.234 221.709,2.000 222.768,2.000 223.891 C 2.000 224.963,1.775 226.082,1.500 226.379 C 1.095 226.815,1.108 226.856,1.568 226.593 C 2.014 226.338,2.062 226.433,1.790 227.034 C 1.600 227.455,1.367 228.970,1.274 230.400 C 1.162 232.099,1.003 232.725,0.813 232.206 C 0.647 231.750,0.517 232.688,0.509 234.406 C 0.500 236.053,0.383 237.670,0.247 238.000 C -0.486 239.782,0.288 302.657,1.041 302.520 C 1.303 302.472,1.406 302.836,1.294 303.420 C 1.186 303.987,1.295 304.400,1.553 304.400 C 1.799 304.400,2.000 304.689,2.000 305.042 C 2.000 305.396,2.442 306.032,2.982 306.457 C 3.540 306.896,3.868 307.478,3.743 307.804 C 3.622 308.121,3.810 308.667,4.161 309.018 C 4.513 309.370,4.804 309.509,4.809 309.329 C 4.814 309.148,5.126 309.630,5.503 310.400 C 6.263 311.953,8.531 314.400,9.210 314.400 C 9.451 314.400,9.519 314.192,9.362 313.938 C 9.189 313.659,9.252 313.585,9.521 313.751 C 9.765 313.902,9.852 314.319,9.715 314.678 C 9.547 315.115,9.619 315.235,9.932 315.042 C 10.223 314.862,10.402 315.027,10.406 315.476 C 10.410 315.882,10.541 316.024,10.706 315.800 C 10.868 315.580,11.255 315.345,11.568 315.277 C 12.023 315.179,12.039 315.271,11.648 315.742 C 11.114 316.386,11.687 317.040,12.400 316.600 C 12.620 316.464,12.803 316.678,12.806 317.076 C 12.810 317.527,12.923 317.630,13.106 317.350 C 13.461 316.808,15.200 317.357,15.200 318.011 C 15.200 318.251,15.380 318.336,15.600 318.200 C 15.820 318.064,16.000 318.233,16.000 318.576 C 16.000 318.919,16.174 319.200,16.387 319.200 C 16.601 319.200,16.674 318.885,16.550 318.500 C 16.361 317.912,16.392 317.896,16.748 318.400 C 16.980 318.730,17.364 319.000,17.600 319.000 C 17.836 319.000,18.184 319.251,18.374 319.558 C 18.564 319.865,18.962 320.024,19.260 319.911 C 19.557 319.798,20.250 319.891,20.800 320.118 C 22.920 320.994,33.287 320.783,34.365 319.842 C 34.895 319.379,35.199 319.225,35.041 319.500 C 34.691 320.108,36.225 320.206,36.600 319.600 C 36.736 319.380,37.317 319.200,37.890 319.200 C 38.464 319.200,38.816 319.083,38.673 318.939 C 38.297 318.563,40.273 317.622,41.662 317.517 C 42.313 317.467,43.029 317.206,43.252 316.937 C 43.476 316.668,43.923 316.549,44.246 316.673 C 44.604 316.811,44.787 316.690,44.716 316.362 C 44.635 315.986,44.973 315.859,45.848 315.937 C 46.681 316.012,47.174 315.844,47.333 315.431 C 47.470 315.074,47.829 314.913,48.185 315.050 C 48.551 315.190,48.802 315.066,48.806 314.743 C 48.811 314.324,48.901 314.337,49.200 314.800 C 49.458 315.200,49.590 315.233,49.594 314.900 C 49.597 314.612,50.110 314.400,50.800 314.400 C 51.460 314.400,52.000 314.220,52.000 314.000 C 52.000 313.780,52.345 313.600,52.767 313.600 C 53.188 313.600,53.624 313.375,53.735 313.100 C 53.892 312.710,53.944 312.714,53.968 313.116 C 53.989 313.455,54.299 313.353,54.875 312.816 C 55.848 311.910,56.602 311.725,56.165 312.500 C 55.939 312.900,55.990 312.900,56.421 312.500 C 56.718 312.225,57.374 312.000,57.880 312.000 C 58.386 312.000,58.800 311.820,58.800 311.600 C 58.800 311.380,59.340 311.200,60.000 311.200 C 60.773 311.200,61.200 310.997,61.200 310.629 C 61.200 310.314,61.463 309.794,61.785 309.472 C 62.284 308.973,62.379 305.519,62.427 286.143 C 62.512 251.831,63.756 228.858,66.365 213.400 C 66.551 212.300,66.897 210.140,67.136 208.600 C 67.969 203.209,70.518 191.287,71.925 186.200 C 72.350 184.660,73.193 181.600,73.798 179.400 C 74.402 177.200,75.050 175.040,75.236 174.600 C 75.423 174.160,76.193 171.886,76.947 169.547 C 77.701 167.208,78.624 164.598,79.000 163.747 C 79.828 161.867,80.168 161.020,80.823 159.200 C 81.974 156.005,87.644 144.234,89.782 140.600 C 90.559 139.280,91.376 137.840,91.596 137.400 C 92.090 136.417,92.239 136.184,96.171 130.220 C 111.391 107.139,133.272 89.611,154.600 83.415 C 155.920 83.032,157.450 82.566,158.000 82.381 C 158.550 82.196,159.360 81.966,159.800 81.869 C 160.240 81.772,159.385 81.672,157.900 81.646 C 156.398 81.621,155.200 81.423,155.200 81.200 C 155.200 80.652,149.474 80.686,148.923 81.237 M239.200 92.391 C 239.200 92.565,239.645 92.792,240.188 92.896 C 240.731 92.999,241.094 92.952,240.994 92.790 C 240.728 92.360,239.200 92.020,239.200 92.391 M270.800 109.164 C 271.350 109.614,271.980 109.983,272.200 109.985 C 272.628 109.988,271.905 109.434,270.600 108.760 C 270.069 108.485,270.136 108.621,270.800 109.164 M275.200 112.357 C 275.200 112.554,275.485 112.824,275.833 112.957 C 276.811 113.333,276.908 113.251,276.257 112.600 C 275.577 111.920,275.200 111.833,275.200 112.357 M281.600 117.100 C 281.600 117.269,281.960 117.632,282.400 117.907 C 282.840 118.182,283.200 118.269,283.200 118.100 C 283.200 117.931,282.840 117.568,282.400 117.293 C 281.960 117.018,281.600 116.931,281.600 117.100 M286.400 121.157 C 286.400 121.354,286.685 121.624,287.033 121.757 C 288.011 122.133,288.108 122.051,287.457 121.400 C 286.777 120.720,286.400 120.633,286.400 121.157 M296.649 130.628 C 297.655 131.634,298.547 132.386,298.632 132.301 C 298.841 132.092,295.564 128.800,295.148 128.800 C 294.968 128.800,295.644 129.623,296.649 130.628 M50.060 130.642 C 49.762 130.978,49.599 131.332,49.695 131.429 C 49.792 131.526,50.198 131.244,50.598 130.802 C 50.997 130.361,51.161 130.007,50.962 130.015 C 50.763 130.024,50.357 130.305,50.060 130.642 M322.311 163.174 C 322.682 163.820,323.040 164.293,323.107 164.226 C 323.324 164.009,322.283 162.000,321.954 162.000 C 321.780 162.000,321.940 162.528,322.311 163.174 " stroke="none" fill="#f8f8f8" fill-rule="evenodd"></path></g></svg>