<svg id="svg" version="1.1" xmlns="http://www.w3.org/2000/svg" xmlns:xlink="http://www.w3.org/1999/xlink" width="400" height="400" viewBox="0, 0, 400,400"><g id="svgg"><path id="path0" d="M205.613 2.729 C 205.606 3.019,205.870 3.527,206.200 3.857 C 206.971 4.628,206.980 3.991,206.213 2.976 C 205.844 2.489,205.621 2.397,205.613 2.729 M188.700 24.693 C 189.635 24.777,191.165 24.777,192.100 24.693 C 193.035 24.609,192.270 24.540,190.400 24.540 C 188.530 24.540,187.765 24.609,188.700 24.693 M207.900 24.693 C 208.835 24.777,210.365 24.777,211.300 24.693 C 212.235 24.609,211.470 24.540,209.600 24.540 C 207.730 24.540,206.965 24.609,207.900 24.693 M195.200 41.500 C 195.200 41.665,197.343 41.800,199.962 41.800 C 202.581 41.800,204.640 41.665,204.538 41.500 C 204.436 41.335,202.293 41.200,199.776 41.200 C 197.259 41.200,195.200 41.335,195.200 41.500 M98.008 76.683 C 94.823 76.760,92.042 76.998,91.828 77.212 C 91.615 77.425,90.306 77.600,88.920 77.600 C 87.507 77.600,86.400 77.776,86.400 78.000 C 86.400 78.220,85.500 78.400,84.400 78.400 C 83.300 78.400,82.400 78.580,82.400 78.800 C 82.400 79.020,81.601 79.200,80.624 79.200 C 79.647 79.200,78.736 79.380,78.600 79.600 C 78.464 79.820,77.913 80.000,77.376 80.000 C 76.839 80.000,76.400 80.180,76.400 80.400 C 76.400 80.620,75.680 80.800,74.800 80.800 C 73.920 80.800,73.200 80.980,73.200 81.200 C 73.200 81.420,72.660 81.600,72.000 81.600 C 71.340 81.600,70.800 81.780,70.800 82.000 C 70.800 82.220,70.350 82.400,69.800 82.400 C 69.250 82.400,68.800 82.580,68.800 82.800 C 68.800 83.020,68.350 83.200,67.800 83.200 C 67.250 83.200,66.800 83.380,66.800 83.600 C 66.800 83.820,66.350 84.000,65.800 84.000 C 65.250 84.000,64.800 84.180,64.800 84.400 C 64.800 84.620,64.350 84.800,63.800 84.800 C 63.250 84.800,62.799 84.935,62.797 85.100 C 62.793 85.459,60.856 86.400,60.120 86.400 C 59.834 86.400,59.600 86.580,59.600 86.800 C 59.600 87.020,59.330 87.200,59.000 87.200 C 58.670 87.200,58.400 87.380,58.400 87.600 C 58.400 87.820,58.040 88.000,57.600 88.000 C 57.160 88.000,56.800 88.180,56.800 88.400 C 56.800 88.620,56.440 88.800,56.000 88.800 C 55.560 88.800,55.199 88.935,55.197 89.100 C 55.193 89.437,53.275 90.400,52.609 90.400 C 52.371 90.400,51.917 90.760,51.600 91.200 C 51.283 91.640,50.703 92.000,50.312 92.000 C 49.920 92.000,49.600 92.162,49.600 92.361 C 49.600 92.559,49.094 92.898,48.476 93.114 C 47.857 93.329,47.015 93.842,46.604 94.253 C 46.193 94.664,45.715 95.000,45.542 95.000 C 45.368 95.000,44.858 95.315,44.408 95.700 C 43.959 96.085,43.485 96.400,43.356 96.400 C 43.227 96.400,42.644 96.902,42.060 97.515 C 41.477 98.129,40.375 99.070,39.612 99.606 C 38.848 100.142,36.989 101.800,35.481 103.290 C 33.973 104.781,32.543 106.000,32.303 106.000 C 32.063 106.000,31.955 106.088,32.063 106.197 C 32.171 106.305,30.581 108.096,28.530 110.178 C 26.478 112.260,24.800 114.241,24.800 114.581 C 24.800 114.922,24.665 115.201,24.500 115.203 C 24.335 115.204,23.750 115.876,23.200 116.696 C 22.650 117.516,21.705 118.711,21.100 119.353 C 20.495 119.994,20.000 120.679,20.000 120.876 C 20.000 121.073,19.640 121.620,19.200 122.092 C 18.760 122.564,18.400 123.187,18.400 123.475 C 18.400 123.764,18.220 124.000,18.000 124.000 C 17.780 124.000,17.600 124.294,17.600 124.653 C 17.600 125.012,17.285 125.597,16.900 125.953 C 16.515 126.309,15.750 127.542,15.200 128.694 C 14.650 129.845,14.065 130.790,13.900 130.794 C 13.735 130.797,13.600 131.160,13.600 131.600 C 13.600 132.040,13.420 132.400,13.200 132.400 C 12.980 132.400,12.800 132.760,12.800 133.200 C 12.800 133.640,12.620 134.000,12.400 134.000 C 12.180 134.000,12.000 134.360,12.000 134.800 C 12.000 135.240,11.820 135.600,11.600 135.600 C 11.380 135.600,11.200 135.960,11.200 136.400 C 11.200 136.840,11.020 137.200,10.800 137.200 C 10.580 137.200,10.400 137.530,10.400 137.933 C 10.400 138.337,10.281 138.786,10.135 138.932 C 9.726 139.341,8.400 143.279,8.400 144.085 C 8.400 144.478,8.220 144.800,8.000 144.800 C 7.780 144.800,7.600 145.340,7.600 146.000 C 7.600 146.660,7.420 147.200,7.200 147.200 C 6.980 147.200,6.800 147.740,6.800 148.400 C 6.800 149.060,6.620 149.600,6.400 149.600 C 6.180 149.600,6.000 150.320,6.000 151.200 C 6.000 152.080,5.820 152.800,5.600 152.800 C 5.380 152.800,5.200 153.520,5.200 154.400 C 5.200 155.280,5.020 156.000,4.800 156.000 C 4.580 156.000,4.400 156.900,4.400 158.000 C 4.400 159.100,4.220 160.000,4.000 160.000 C 3.780 160.000,3.600 160.954,3.600 162.120 C 3.600 163.286,3.432 164.411,3.226 164.620 C 2.556 165.301,1.764 183.124,2.376 183.736 C 2.622 183.982,2.800 185.972,2.800 188.480 C 2.800 191.093,2.958 192.800,3.200 192.800 C 3.426 192.800,3.600 193.941,3.600 195.424 C 3.600 197.071,3.749 197.955,4.000 197.800 C 4.249 197.646,4.400 198.404,4.400 199.800 C 4.400 201.196,4.551 201.954,4.800 201.800 C 5.042 201.651,5.200 202.196,5.200 203.176 C 5.200 204.069,5.380 204.800,5.600 204.800 C 5.820 204.800,6.000 205.531,6.000 206.424 C 6.000 207.404,6.158 207.949,6.400 207.800 C 6.638 207.653,6.800 208.129,6.800 208.976 C 6.800 209.759,6.980 210.400,7.200 210.400 C 7.420 210.400,7.600 210.951,7.600 211.624 C 7.600 212.337,7.767 212.744,8.000 212.600 C 8.233 212.456,8.400 212.858,8.400 213.563 C 8.400 214.637,8.989 216.397,10.049 218.495 C 10.242 218.877,10.400 219.462,10.400 219.795 C 10.400 220.128,10.580 220.400,10.800 220.400 C 11.020 220.400,11.200 220.760,11.200 221.200 C 11.200 221.640,11.380 222.000,11.600 222.000 C 11.820 222.000,12.000 222.234,12.000 222.520 C 12.000 223.256,12.941 225.193,13.300 225.197 C 13.465 225.199,13.600 225.483,13.600 225.829 C 13.600 226.174,13.872 226.729,14.204 227.061 C 14.536 227.393,14.705 227.830,14.580 228.032 C 14.455 228.235,14.543 228.400,14.776 228.400 C 15.009 228.400,15.200 228.636,15.200 228.925 C 15.200 229.213,15.560 229.836,16.000 230.308 C 16.440 230.780,16.800 231.444,16.800 231.783 C 16.800 232.122,16.980 232.400,17.200 232.400 C 17.420 232.400,17.600 232.771,17.600 233.224 C 17.600 233.677,17.780 233.936,18.000 233.800 C 18.220 233.664,18.400 233.833,18.400 234.176 C 18.400 234.519,18.559 234.800,18.753 234.800 C 18.948 234.800,19.205 235.178,19.326 235.640 C 19.514 236.359,19.421 236.436,18.673 236.176 C 17.170 235.655,11.600 235.492,11.600 235.970 C 11.600 236.206,11.060 236.400,10.400 236.400 C 9.740 236.400,9.200 236.580,9.200 236.800 C 9.200 237.020,8.829 237.200,8.376 237.200 C 7.923 237.200,7.664 237.380,7.800 237.600 C 7.936 237.820,7.851 238.000,7.610 238.000 C 6.948 238.000,4.400 240.688,4.400 241.387 C 4.400 241.724,4.220 242.000,4.000 242.000 C 3.780 242.000,3.600 242.371,3.600 242.824 C 3.600 243.277,3.439 243.548,3.242 243.426 C 2.868 243.195,2.453 245.250,2.216 248.500 C 2.140 249.545,2.240 250.400,2.439 250.400 C 2.637 250.400,2.800 251.120,2.800 252.000 C 2.800 252.880,2.980 253.600,3.200 253.600 C 3.420 253.600,3.600 253.872,3.600 254.203 C 3.600 254.535,4.095 255.372,4.700 256.062 C 6.822 258.484,11.907 263.600,12.191 263.600 C 12.350 263.600,12.983 264.140,13.600 264.800 C 14.217 265.460,14.827 266.000,14.956 266.000 C 15.180 266.000,15.502 266.248,17.934 268.300 C 18.520 268.794,19.225 269.199,19.500 269.200 C 19.775 269.200,20.000 269.345,20.000 269.521 C 20.000 269.698,20.897 270.283,21.994 270.821 C 23.090 271.360,23.990 271.935,23.994 272.100 C 23.997 272.265,24.345 272.400,24.767 272.400 C 25.188 272.400,25.593 272.557,25.667 272.749 C 25.872 273.286,29.870 275.200,30.787 275.200 C 31.234 275.200,31.600 275.380,31.600 275.600 C 31.600 275.820,31.960 276.000,32.400 276.000 C 32.840 276.000,33.200 276.180,33.200 276.400 C 33.200 276.620,33.740 276.800,34.400 276.800 C 35.060 276.800,35.600 276.980,35.600 277.200 C 35.600 277.420,35.949 277.600,36.376 277.600 C 36.803 277.600,37.264 277.780,37.400 278.000 C 37.536 278.220,38.267 278.400,39.024 278.400 C 39.781 278.400,40.400 278.580,40.400 278.800 C 40.400 279.020,41.030 279.200,41.800 279.200 C 42.570 279.200,43.200 279.362,43.200 279.560 C 43.200 279.955,44.552 280.147,52.000 280.808 C 54.750 281.053,58.170 281.154,59.600 281.034 C 61.030 280.914,64.270 280.643,66.800 280.431 C 71.331 280.052,74.058 279.635,77.600 278.778 C 78.590 278.538,79.987 278.245,80.704 278.127 C 81.421 278.008,82.106 277.751,82.227 277.556 C 82.348 277.360,82.876 277.200,83.400 277.200 C 83.924 277.200,84.464 277.020,84.600 276.800 C 84.736 276.580,85.199 276.400,85.629 276.400 C 86.059 276.400,86.723 276.240,87.105 276.044 C 87.487 275.848,88.610 275.327,89.600 274.887 C 95.640 272.199,97.986 270.888,103.196 267.289 C 107.787 264.118,107.011 264.119,111.604 267.275 C 114.888 269.532,116.640 270.586,120.600 272.691 C 122.238 273.561,126.647 275.532,128.000 275.998 C 128.770 276.264,129.760 276.628,130.200 276.807 C 130.640 276.986,131.450 277.250,132.000 277.394 C 132.550 277.537,133.630 277.835,134.400 278.057 C 135.731 278.441,136.804 278.686,141.400 279.661 C 144.416 280.300,161.347 280.562,164.000 280.010 C 165.210 279.758,167.190 279.369,168.400 279.146 C 170.532 278.753,172.288 278.325,175.200 277.491 C 177.022 276.968,177.705 276.719,181.200 275.301 C 186.226 273.263,191.938 270.071,196.593 266.699 C 200.220 264.072,199.794 264.061,203.673 266.885 C 207.961 270.007,214.594 273.699,218.600 275.194 C 219.040 275.359,219.850 275.688,220.400 275.926 C 222.623 276.890,226.763 278.150,230.000 278.849 C 235.313 279.996,237.276 280.154,246.200 280.157 C 256.315 280.160,259.387 279.827,265.600 278.054 C 266.370 277.834,267.450 277.537,268.000 277.394 C 268.550 277.250,269.360 276.986,269.800 276.807 C 270.240 276.628,271.230 276.264,272.000 275.999 C 276.813 274.344,283.549 270.716,289.365 266.648 C 291.106 265.430,292.726 264.551,292.965 264.694 C 293.204 264.838,295.020 266.070,297.000 267.433 C 301.640 270.628,304.310 272.120,309.800 274.590 C 311.120 275.184,312.513 275.834,312.895 276.035 C 313.277 276.236,313.941 276.400,314.371 276.400 C 314.801 276.400,315.264 276.580,315.400 276.800 C 315.536 277.020,316.076 277.200,316.600 277.200 C 317.124 277.200,317.652 277.360,317.773 277.556 C 317.894 277.751,318.579 278.008,319.296 278.127 C 320.013 278.245,321.410 278.538,322.400 278.778 C 326.201 279.698,328.777 280.064,333.800 280.399 C 339.446 280.776,347.791 280.874,349.274 280.581 C 349.783 280.481,351.685 280.282,353.500 280.140 C 355.315 279.998,356.800 279.729,356.800 279.541 C 356.800 279.353,357.430 279.200,358.200 279.200 C 358.970 279.200,359.600 279.020,359.600 278.800 C 359.600 278.580,360.219 278.400,360.976 278.400 C 361.733 278.400,362.464 278.220,362.600 278.000 C 362.736 277.780,363.197 277.600,363.624 277.600 C 364.051 277.600,364.400 277.420,364.400 277.200 C 364.400 276.980,364.940 276.800,365.600 276.800 C 366.260 276.800,366.800 276.620,366.800 276.400 C 366.800 276.180,367.160 276.000,367.600 276.000 C 368.040 276.000,368.400 275.820,368.400 275.600 C 368.400 275.380,368.720 275.200,369.111 275.200 C 369.843 275.200,375.628 272.561,375.995 272.060 C 376.108 271.906,377.055 271.335,378.100 270.791 C 379.145 270.247,380.000 269.666,380.000 269.501 C 380.000 269.335,380.225 269.200,380.500 269.199 C 380.775 269.199,381.630 268.659,382.400 268.000 C 383.170 267.341,383.949 266.801,384.131 266.801 C 384.314 266.800,385.154 266.080,386.000 265.200 C 386.846 264.320,387.673 263.600,387.839 263.600 C 388.116 263.600,392.690 258.954,395.300 256.022 C 395.905 255.342,396.400 254.519,396.400 254.193 C 396.400 253.867,396.580 253.600,396.800 253.600 C 397.020 253.600,397.200 252.880,397.200 252.000 C 397.200 251.106,397.394 250.400,397.639 250.400 C 397.927 250.400,398.001 249.747,397.854 248.500 C 397.386 244.517,397.105 243.212,396.758 243.426 C 396.561 243.548,396.400 243.277,396.400 242.824 C 396.400 242.371,396.220 242.000,396.000 242.000 C 395.780 242.000,395.600 241.724,395.600 241.387 C 395.600 240.688,393.052 238.000,392.390 238.000 C 392.149 238.000,392.064 237.820,392.200 237.600 C 392.336 237.380,392.077 237.200,391.624 237.200 C 391.171 237.200,390.800 237.059,390.800 236.887 C 390.800 236.715,390.305 236.534,389.700 236.484 C 389.095 236.434,388.540 236.215,388.467 235.997 C 388.259 235.379,383.204 235.542,381.200 236.230 C 379.861 236.691,378.478 237.790,375.798 240.525 C 360.360 256.277,340.892 261.030,321.250 253.841 C 320.287 253.488,319.134 253.200,318.688 253.200 C 316.134 253.200,307.167 246.884,302.048 241.480 C 295.440 234.504,289.909 234.970,281.320 243.226 C 276.104 248.240,270.701 251.792,265.000 253.954 C 263.680 254.454,262.287 255.030,261.905 255.232 C 261.523 255.434,260.794 255.600,260.285 255.600 C 259.776 255.600,259.189 255.762,258.980 255.959 C 258.581 256.336,257.308 256.549,251.400 257.230 C 244.433 258.033,237.272 257.304,230.600 255.113 C 227.092 253.962,223.333 252.124,223.067 251.431 C 222.934 251.084,222.631 250.800,222.394 250.800 C 221.992 250.800,216.930 247.520,215.076 246.057 C 214.618 245.696,212.613 243.802,210.621 241.848 C 202.637 234.018,197.302 234.121,188.979 242.265 C 186.613 244.581,183.320 247.270,180.979 248.799 C 178.790 250.229,176.820 251.609,176.600 251.867 C 176.118 252.431,172.232 254.183,169.400 255.113 C 165.162 256.505,159.725 257.409,154.200 257.641 C 151.876 257.739,144.769 257.073,144.562 256.739 C 144.447 256.552,143.654 256.400,142.800 256.400 C 141.946 256.400,141.136 256.220,141.000 256.000 C 140.864 255.780,140.311 255.600,139.771 255.600 C 139.231 255.600,138.477 255.434,138.095 255.232 C 137.713 255.030,136.320 254.453,135.000 253.951 C 129.066 251.694,123.927 248.299,118.496 243.050 C 110.167 234.996,104.482 234.560,97.980 241.473 C 92.990 246.780,83.866 253.200,81.314 253.200 C 78.481 253.200,67.646 248.070,60.853 243.512 C 59.174 242.386,57.710 241.359,57.600 241.230 C 57.490 241.101,56.552 240.366,55.515 239.597 C 52.025 237.009,40.400 224.550,40.400 223.397 C 40.400 223.270,40.040 222.780,39.600 222.308 C 39.160 221.836,38.800 221.213,38.800 220.925 C 38.800 220.636,38.620 220.400,38.400 220.400 C 38.180 220.400,38.000 220.203,38.000 219.962 C 38.000 219.721,37.648 219.030,37.218 218.426 C 35.501 216.014,31.647 207.519,30.220 203.000 C 28.762 198.379,28.704 198.027,28.981 195.440 C 29.173 193.642,29.126 192.800,28.832 192.800 C 28.571 192.800,28.400 191.851,28.400 190.400 C 28.400 189.067,28.222 188.000,28.000 188.000 C 27.455 188.000,27.455 170.137,28.000 169.800 C 28.220 169.664,28.400 168.393,28.400 166.976 C 28.400 165.525,28.575 164.400,28.800 164.400 C 29.020 164.400,29.200 163.691,29.200 162.824 C 29.200 161.957,29.380 161.136,29.600 161.000 C 29.820 160.864,30.000 160.133,30.000 159.376 C 30.000 158.619,30.180 158.000,30.400 158.000 C 30.620 158.000,30.800 157.548,30.800 156.995 C 30.800 156.442,30.980 155.632,31.200 155.195 C 31.420 154.758,31.780 154.042,32.000 153.605 C 32.220 153.168,32.400 152.544,32.400 152.218 C 32.400 151.891,32.760 150.983,33.200 150.200 C 33.640 149.417,34.000 148.547,34.000 148.268 C 34.000 147.541,34.944 145.607,35.300 145.603 C 35.465 145.601,35.600 145.240,35.600 144.800 C 35.600 144.360,35.780 144.000,36.000 144.000 C 36.220 144.000,36.400 143.640,36.400 143.200 C 36.400 142.760,36.580 142.400,36.800 142.400 C 37.020 142.400,37.200 142.040,37.200 141.600 C 37.200 141.160,37.339 140.800,37.509 140.800 C 37.679 140.800,38.165 140.156,38.588 139.370 C 39.012 138.583,39.683 137.566,40.079 137.109 C 40.476 136.652,40.800 136.062,40.800 135.798 C 40.800 135.534,41.340 134.754,42.000 134.063 C 42.660 133.372,43.200 132.612,43.200 132.372 C 43.200 132.133,43.920 131.246,44.800 130.400 C 45.680 129.554,46.400 128.654,46.400 128.400 C 46.400 127.916,47.825 126.493,52.007 122.800 C 53.378 121.590,54.911 120.234,55.414 119.787 C 55.917 119.340,56.913 118.530,57.628 117.987 C 58.342 117.444,59.155 116.775,59.435 116.500 C 59.714 116.225,60.053 116.000,60.188 116.000 C 60.323 116.000,60.789 115.669,61.223 115.264 C 61.658 114.859,62.505 114.274,63.107 113.965 C 63.708 113.655,64.290 113.309,64.400 113.195 C 64.510 113.082,65.455 112.558,66.500 112.032 C 67.545 111.505,68.400 110.923,68.400 110.737 C 68.400 110.552,68.760 110.400,69.200 110.400 C 69.640 110.400,70.000 110.220,70.000 110.000 C 70.000 109.780,70.345 109.600,70.767 109.600 C 71.188 109.600,71.596 109.412,71.673 109.182 C 71.749 108.952,72.214 108.734,72.706 108.697 C 73.198 108.660,73.600 108.488,73.600 108.315 C 73.600 108.142,73.960 108.000,74.400 108.000 C 74.840 108.000,75.200 107.830,75.200 107.623 C 75.200 107.416,75.560 107.315,76.000 107.400 C 76.440 107.485,76.800 107.384,76.800 107.177 C 76.800 106.970,77.239 106.800,77.776 106.800 C 78.313 106.800,78.864 106.620,79.000 106.400 C 79.136 106.180,79.676 106.000,80.200 106.000 C 80.724 106.000,81.264 105.820,81.400 105.600 C 81.536 105.380,82.177 105.200,82.824 105.200 C 83.471 105.200,84.000 105.020,84.000 104.800 C 84.000 104.580,84.619 104.400,85.376 104.400 C 86.133 104.400,86.864 104.220,87.000 104.000 C 87.136 103.780,87.946 103.600,88.800 103.600 C 89.654 103.600,90.464 103.420,90.600 103.200 C 90.736 102.980,91.996 102.800,93.400 102.800 C 94.804 102.800,96.064 102.620,96.200 102.400 C 96.352 102.154,99.604 102.000,104.624 102.000 C 109.808 102.000,112.800 102.146,112.800 102.400 C 112.800 102.622,113.859 102.800,115.176 102.800 C 116.483 102.800,117.664 102.980,117.800 103.200 C 117.936 103.420,118.847 103.600,119.824 103.600 C 120.801 103.600,121.600 103.743,121.600 103.918 C 121.600 104.093,122.270 104.282,123.088 104.337 C 123.906 104.392,124.677 104.600,124.800 104.800 C 124.923 105.000,125.694 105.208,126.512 105.263 C 127.330 105.318,128.000 105.507,128.000 105.682 C 128.000 105.857,128.450 106.000,129.000 106.000 C 129.550 106.000,130.000 106.199,130.000 106.443 C 130.000 106.686,130.249 106.790,130.554 106.673 C 130.859 106.556,131.453 106.702,131.875 106.997 C 132.296 107.292,133.307 107.659,134.120 107.811 C 134.934 107.964,135.600 108.249,135.600 108.445 C 135.600 108.640,135.960 108.800,136.400 108.800 C 136.840 108.800,137.200 108.980,137.200 109.200 C 137.200 109.420,137.560 109.600,138.000 109.600 C 138.440 109.600,138.800 109.780,138.800 110.000 C 138.800 110.220,139.160 110.400,139.600 110.400 C 140.040 110.400,140.400 110.580,140.400 110.800 C 140.400 111.020,140.760 111.200,141.200 111.200 C 141.640 111.200,142.000 111.380,142.000 111.600 C 142.000 111.820,142.270 112.000,142.600 112.000 C 142.930 112.000,143.200 112.180,143.200 112.400 C 143.200 112.620,143.436 112.800,143.725 112.800 C 144.013 112.800,144.636 113.160,145.108 113.600 C 145.580 114.040,146.154 114.400,146.383 114.400 C 146.612 114.400,146.800 114.580,146.800 114.800 C 146.800 115.020,147.030 115.200,147.312 115.200 C 147.593 115.200,148.083 115.560,148.400 116.000 C 148.717 116.440,149.225 116.800,149.528 116.800 C 149.831 116.800,150.583 117.340,151.200 118.000 C 151.817 118.660,152.527 119.200,152.780 119.200 C 153.032 119.200,154.096 120.055,155.145 121.100 C 156.193 122.145,157.721 123.585,158.540 124.300 C 159.358 125.015,159.920 125.600,159.787 125.600 C 159.655 125.600,160.459 126.488,161.573 127.574 C 162.688 128.660,163.600 129.750,163.600 129.998 C 163.600 130.245,163.780 130.336,164.000 130.200 C 164.220 130.064,164.400 130.207,164.400 130.517 C 164.400 130.827,164.940 131.646,165.600 132.337 C 166.260 133.028,166.800 133.746,166.800 133.934 C 166.800 134.122,167.160 134.602,167.600 135.000 C 168.040 135.398,168.400 136.016,168.400 136.374 C 168.400 136.731,168.760 137.283,169.200 137.600 C 169.640 137.917,170.000 138.507,170.000 138.912 C 170.000 139.316,170.180 139.536,170.400 139.400 C 170.620 139.264,170.800 139.484,170.800 139.888 C 170.800 140.293,171.160 140.883,171.600 141.200 C 172.040 141.517,172.400 142.097,172.400 142.488 C 172.400 142.880,172.580 143.200,172.800 143.200 C 173.020 143.200,173.200 143.560,173.200 144.000 C 173.200 144.440,173.380 144.800,173.600 144.800 C 173.820 144.800,174.000 145.034,174.000 145.320 C 174.000 146.300,174.999 147.959,175.700 148.142 C 176.359 148.314,176.405 147.197,176.487 129.263 C 176.535 118.778,176.591 109.169,176.612 107.909 C 176.632 106.649,176.572 105.695,176.478 105.788 C 176.385 105.882,175.440 105.068,174.380 103.979 C 173.320 102.891,172.326 102.000,172.173 102.000 C 172.019 102.000,171.007 101.100,169.924 100.000 C 168.842 98.900,167.776 98.000,167.556 98.000 C 167.336 98.000,166.581 97.461,165.878 96.802 C 165.175 96.143,164.441 95.603,164.247 95.602 C 164.053 95.601,163.558 95.212,163.147 94.739 C 162.736 94.265,162.400 94.004,162.400 94.159 C 162.400 94.314,161.815 94.002,161.100 93.467 C 160.385 92.931,159.395 92.370,158.900 92.219 C 158.405 92.069,158.000 91.778,158.000 91.573 C 158.000 91.368,157.730 91.200,157.400 91.200 C 157.070 91.200,156.800 91.020,156.800 90.800 C 156.800 90.580,156.440 90.400,156.000 90.400 C 155.560 90.400,155.200 90.220,155.200 90.000 C 155.200 89.780,154.880 89.600,154.488 89.600 C 154.097 89.600,153.517 89.240,153.200 88.800 C 152.883 88.360,152.303 88.000,151.912 88.000 C 151.520 88.000,151.200 87.820,151.200 87.600 C 151.200 87.380,150.840 87.200,150.400 87.200 C 149.960 87.200,149.600 87.009,149.600 86.776 C 149.600 86.543,149.435 86.455,149.232 86.580 C 149.030 86.705,148.593 86.536,148.261 86.204 C 147.929 85.872,147.295 85.600,146.852 85.600 C 146.409 85.600,145.936 85.420,145.800 85.200 C 145.664 84.980,145.203 84.800,144.776 84.800 C 144.349 84.800,144.000 84.620,144.000 84.400 C 144.000 84.180,143.640 84.000,143.200 84.000 C 142.760 84.000,142.400 83.820,142.400 83.600 C 142.400 83.380,141.961 83.200,141.424 83.200 C 140.887 83.200,140.336 83.020,140.200 82.800 C 140.064 82.580,139.513 82.400,138.976 82.400 C 138.439 82.400,138.000 82.220,138.000 82.000 C 138.000 81.780,137.359 81.600,136.576 81.600 C 135.793 81.600,135.240 81.458,135.348 81.285 C 135.455 81.112,135.060 80.930,134.471 80.881 C 133.882 80.833,133.340 80.615,133.267 80.397 C 133.193 80.178,132.428 80.000,131.567 80.000 C 130.705 80.000,130.000 79.820,130.000 79.600 C 130.000 79.380,129.280 79.200,128.400 79.200 C 127.520 79.200,126.800 79.065,126.800 78.900 C 126.800 78.735,125.945 78.545,124.900 78.478 C 123.855 78.411,122.829 78.186,122.620 77.978 C 122.411 77.770,121.207 77.600,119.944 77.600 C 118.681 77.600,117.548 77.439,117.426 77.242 C 117.304 77.044,114.818 76.858,111.902 76.827 C 108.986 76.795,105.970 76.719,105.200 76.657 C 104.430 76.595,101.194 76.607,98.008 76.683 M294.376 76.557 C 294.262 76.671,291.611 76.790,288.484 76.822 C 285.357 76.853,282.698 77.041,282.576 77.239 C 282.453 77.438,281.319 77.600,280.056 77.600 C 278.793 77.600,277.589 77.770,277.380 77.978 C 277.171 78.186,276.162 78.411,275.138 78.478 C 274.115 78.545,273.360 78.735,273.462 78.900 C 273.564 79.065,273.097 79.223,272.424 79.250 C 270.710 79.320,270.506 79.361,270.167 79.700 C 270.002 79.865,269.192 80.000,268.367 80.000 C 267.542 80.000,266.807 80.178,266.733 80.397 C 266.660 80.615,266.118 80.833,265.529 80.881 C 264.940 80.930,264.545 81.112,264.652 81.285 C 264.760 81.458,264.207 81.600,263.424 81.600 C 262.641 81.600,262.000 81.780,262.000 82.000 C 262.000 82.220,261.661 82.400,261.246 82.400 C 260.831 82.400,259.989 82.661,259.374 82.980 C 258.760 83.298,258.109 83.468,257.929 83.356 C 257.748 83.244,257.600 83.343,257.600 83.576 C 257.600 83.809,257.240 84.000,256.800 84.000 C 256.360 84.000,256.000 84.180,256.000 84.400 C 256.000 84.620,255.640 84.800,255.200 84.800 C 254.760 84.800,254.400 84.980,254.400 85.200 C 254.400 85.420,253.860 85.600,253.200 85.600 C 252.540 85.600,252.000 85.780,252.000 86.000 C 252.000 86.220,251.640 86.400,251.200 86.400 C 250.760 86.400,250.399 86.535,250.397 86.700 C 250.393 87.065,248.451 88.000,247.697 88.000 C 247.398 88.000,247.264 88.180,247.400 88.400 C 247.536 88.620,247.367 88.800,247.024 88.800 C 246.681 88.800,246.400 88.980,246.400 89.200 C 246.400 89.420,246.040 89.600,245.600 89.600 C 245.160 89.600,244.800 89.780,244.800 90.000 C 244.800 90.220,244.429 90.400,243.976 90.400 C 243.523 90.400,243.264 90.580,243.400 90.800 C 243.536 91.020,243.316 91.200,242.912 91.200 C 242.507 91.200,241.924 91.550,241.615 91.979 C 241.307 92.407,240.899 92.661,240.710 92.544 C 240.520 92.427,239.743 92.806,238.983 93.386 C 238.222 93.966,237.600 94.314,237.600 94.159 C 237.600 94.004,237.264 94.265,236.853 94.739 C 236.442 95.212,235.947 95.605,235.753 95.611 C 235.559 95.618,234.597 96.338,233.614 97.211 C 232.632 98.085,231.642 98.804,231.414 98.809 C 231.187 98.814,230.381 99.534,229.624 100.409 C 228.867 101.284,228.094 102.000,227.906 102.000 C 227.719 102.000,226.628 102.960,225.483 104.133 L 223.400 106.266 223.533 127.287 C 223.657 146.670,223.719 148.294,224.334 148.133 C 225.007 147.957,226.000 146.281,226.000 145.320 C 226.000 145.034,226.180 144.800,226.400 144.800 C 226.620 144.800,226.800 144.440,226.800 144.000 C 226.800 143.560,226.946 143.200,227.125 143.200 C 227.304 143.200,227.695 142.578,227.993 141.818 C 228.291 141.058,228.685 140.529,228.868 140.642 C 229.050 140.755,229.200 140.466,229.200 140.000 C 229.200 139.534,229.380 139.264,229.600 139.400 C 229.820 139.536,230.000 139.316,230.000 138.912 C 230.000 138.507,230.360 137.917,230.800 137.600 C 231.240 137.283,231.600 136.737,231.600 136.387 C 231.600 136.037,231.960 135.364,232.400 134.892 C 232.840 134.420,233.200 133.928,233.200 133.799 C 233.200 133.669,233.605 133.144,234.100 132.632 C 235.354 131.334,236.400 130.032,236.400 129.769 C 236.400 129.648,237.312 128.660,238.427 127.574 C 239.541 126.488,240.345 125.600,240.213 125.600 C 240.080 125.600,240.642 125.015,241.460 124.300 C 242.279 123.585,243.807 122.145,244.855 121.100 C 245.904 120.055,246.968 119.200,247.220 119.200 C 247.473 119.200,248.183 118.660,248.800 118.000 C 249.417 117.340,250.169 116.800,250.472 116.800 C 250.775 116.800,251.283 116.440,251.600 116.000 C 251.917 115.560,252.407 115.200,252.688 115.200 C 252.970 115.200,253.200 115.020,253.200 114.800 C 253.200 114.580,253.470 114.400,253.800 114.400 C 254.130 114.400,254.400 114.220,254.400 114.000 C 254.400 113.780,254.642 113.600,254.938 113.600 C 255.234 113.600,255.802 113.240,256.200 112.800 C 256.598 112.360,257.166 112.000,257.462 112.000 C 257.758 112.000,258.000 111.820,258.000 111.600 C 258.000 111.380,258.360 111.200,258.800 111.200 C 259.240 111.200,259.601 111.065,259.603 110.900 C 259.607 110.535,261.549 109.600,262.303 109.600 C 262.602 109.600,262.736 109.420,262.600 109.200 C 262.460 108.973,262.796 108.800,263.376 108.800 C 263.939 108.800,264.400 108.640,264.400 108.445 C 264.400 108.249,265.072 107.963,265.893 107.809 C 266.714 107.655,267.749 107.327,268.193 107.081 C 268.637 106.834,269.225 106.678,269.500 106.734 C 269.775 106.789,270.000 106.647,270.000 106.418 C 270.000 106.188,270.540 106.000,271.200 106.000 C 271.860 106.000,272.400 105.820,272.400 105.600 C 272.400 105.380,273.015 105.200,273.767 105.200 C 274.518 105.200,275.193 105.023,275.267 104.807 C 275.340 104.591,276.075 104.366,276.899 104.307 C 277.724 104.248,278.399 104.083,278.399 103.940 C 278.400 103.659,280.731 103.293,284.700 102.948 C 286.075 102.829,287.200 102.567,287.200 102.366 C 287.200 101.854,303.483 101.887,303.800 102.400 C 303.936 102.620,305.196 102.800,306.600 102.800 C 308.004 102.800,309.264 102.980,309.400 103.200 C 309.536 103.420,310.346 103.600,311.200 103.600 C 312.054 103.600,312.864 103.780,313.000 104.000 C 313.136 104.220,313.867 104.400,314.624 104.400 C 315.381 104.400,316.000 104.580,316.000 104.800 C 316.000 105.020,316.529 105.200,317.176 105.200 C 317.823 105.200,318.464 105.380,318.600 105.600 C 318.736 105.820,319.377 106.000,320.024 106.000 C 320.671 106.000,321.200 106.180,321.200 106.400 C 321.200 106.620,321.539 106.800,321.954 106.800 C 322.369 106.800,323.224 107.069,323.854 107.398 C 324.484 107.726,325.405 107.996,325.900 107.998 C 326.395 107.999,326.800 108.180,326.800 108.400 C 326.800 108.620,327.160 108.800,327.600 108.800 C 328.040 108.800,328.400 108.980,328.400 109.200 C 328.400 109.420,328.760 109.600,329.200 109.600 C 329.640 109.600,330.000 109.780,330.000 110.000 C 330.000 110.220,330.278 110.400,330.617 110.400 C 330.956 110.400,331.620 110.760,332.092 111.200 C 332.564 111.640,333.232 112.000,333.575 112.001 C 333.919 112.001,334.830 112.541,335.600 113.200 C 336.370 113.859,337.197 114.399,337.438 114.399 C 337.679 114.400,338.202 114.760,338.600 115.200 C 338.998 115.640,339.489 116.000,339.691 116.000 C 339.892 116.000,340.286 116.225,340.565 116.500 C 340.845 116.775,341.649 117.438,342.353 117.973 C 343.057 118.507,344.143 119.407,344.766 119.973 C 345.389 120.538,346.937 121.900,348.205 123.000 C 351.489 125.848,353.200 127.677,352.953 128.075 C 352.836 128.265,352.951 128.370,353.207 128.310 C 353.464 128.249,353.883 128.546,354.137 128.969 C 354.392 129.392,355.095 130.274,355.700 130.928 C 356.305 131.583,356.800 132.274,356.800 132.463 C 356.800 132.652,357.340 133.372,358.000 134.063 C 358.660 134.754,359.200 135.534,359.200 135.798 C 359.200 136.062,359.524 136.652,359.921 137.109 C 360.317 137.566,360.988 138.583,361.412 139.370 C 361.835 140.156,362.321 140.800,362.491 140.800 C 362.661 140.800,362.800 141.160,362.800 141.600 C 362.800 142.040,362.980 142.400,363.200 142.400 C 363.420 142.400,363.600 142.760,363.600 143.200 C 363.600 143.640,363.780 144.000,364.000 144.000 C 364.220 144.000,364.400 144.360,364.400 144.800 C 364.400 145.240,364.535 145.601,364.700 145.603 C 365.044 145.607,366.000 147.531,366.000 148.218 C 366.000 148.471,366.312 149.290,366.693 150.039 C 367.626 151.869,368.387 154.045,368.394 154.900 C 368.397 155.285,368.580 155.600,368.800 155.600 C 369.020 155.600,369.200 156.140,369.200 156.800 C 369.200 157.460,369.380 158.000,369.600 158.000 C 369.820 158.000,370.000 158.619,370.000 159.376 C 370.000 160.133,370.180 160.864,370.400 161.000 C 370.620 161.136,370.800 162.011,370.800 162.944 C 370.800 163.877,370.974 164.814,371.187 165.027 C 371.400 165.240,371.610 166.491,371.654 167.807 C 371.732 170.116,371.752 170.158,372.229 169.000 C 373.485 165.952,371.390 152.780,367.680 140.400 C 365.642 133.598,361.226 123.462,357.957 118.081 C 357.101 116.671,356.400 115.432,356.400 115.327 C 356.400 114.965,351.629 108.194,349.488 105.517 C 340.094 93.776,326.758 84.025,315.200 80.447 C 313.550 79.936,311.887 79.356,311.505 79.159 C 311.123 78.962,310.279 78.800,309.629 78.800 C 308.435 78.800,307.618 78.194,308.441 77.920 C 308.711 77.830,308.602 77.539,308.167 77.185 C 307.771 76.863,307.574 76.813,307.730 77.072 C 307.886 77.332,307.843 77.650,307.634 77.779 C 307.426 77.908,307.153 77.847,307.027 77.644 C 306.902 77.441,306.411 77.377,305.937 77.501 C 305.461 77.625,305.176 77.562,305.302 77.359 C 305.431 77.149,303.960 76.951,301.864 76.896 C 299.849 76.842,297.386 76.698,296.392 76.574 C 295.397 76.451,294.490 76.443,294.376 76.557 M197.100 89.497 C 198.695 89.573,201.305 89.573,202.900 89.497 C 204.495 89.421,203.190 89.359,200.000 89.359 C 196.810 89.359,195.505 89.421,197.100 89.497 M195.978 108.107 C 190.889 112.934,194.932 120.995,201.548 119.214 C 208.943 117.223,207.643 106.800,200.000 106.800 C 197.562 106.800,197.249 106.902,195.978 108.107 M202.788 107.794 C 208.120 110.551,206.031 118.800,200.000 118.800 C 194.075 118.800,191.917 111.035,196.983 107.945 C 198.454 107.048,201.207 106.976,202.788 107.794 M199.200 156.398 C 198.870 156.612,198.195 156.791,197.700 156.794 C 197.205 156.797,196.800 156.980,196.800 157.200 C 196.800 157.420,196.570 157.600,196.289 157.600 C 194.189 157.600,192.965 163.134,194.450 165.917 C 197.536 171.698,206.400 169.269,206.400 162.642 C 206.400 160.844,204.670 157.600,203.711 157.600 C 203.430 157.600,203.200 157.440,203.200 157.245 C 203.200 157.050,202.705 156.806,202.100 156.702 C 201.495 156.598,200.730 156.400,200.400 156.261 C 200.070 156.122,199.530 156.184,199.200 156.398 M201.874 157.225 C 207.173 159.228,207.068 166.270,201.707 168.382 C 198.924 169.478,195.220 167.444,194.390 164.363 C 193.172 159.839,197.604 155.612,201.874 157.225 M397.342 174.162 C 397.374 174.691,397.535 175.040,397.700 174.938 C 398.124 174.677,398.075 173.200,397.642 173.200 C 397.446 173.200,397.311 173.633,397.342 174.162 M198.200 206.400 C 198.064 206.620,197.695 206.800,197.379 206.800 C 194.811 206.800,192.580 212.587,194.100 215.305 C 197.592 221.553,206.400 219.609,206.400 212.591 C 206.400 210.160,204.219 206.800,202.641 206.800 C 202.314 206.800,201.936 206.620,201.800 206.400 C 201.664 206.180,200.854 206.000,200.000 206.000 C 199.146 206.000,198.336 206.180,198.200 206.400 M202.788 207.394 C 206.886 209.513,206.801 215.780,202.647 217.751 C 198.588 219.677,194.223 217.015,194.233 212.618 C 194.243 208.145,198.827 205.346,202.788 207.394 M38.180 305.179 C 37.948 305.411,37.878 310.051,38.000 317.079 L 38.200 328.600 51.830 328.800 L 65.459 329.000 67.818 330.207 C 76.915 334.862,75.773 348.436,66.000 351.813 C 65.450 352.003,58.970 352.258,51.600 352.379 L 38.200 352.600 38.094 363.900 C 37.996 374.315,37.933 375.200,37.294 375.202 C 36.835 375.204,36.989 375.408,37.747 375.803 C 38.759 376.331,56.338 376.389,188.147 376.301 L 337.400 376.200 337.506 364.706 L 337.612 353.212 338.506 352.988 C 338.998 352.864,344.485 352.817,350.701 352.882 C 356.916 352.947,362.000 352.865,362.000 352.700 C 362.000 352.535,356.216 352.400,349.146 352.400 C 335.628 352.400,334.323 352.262,331.528 350.535 C 323.319 345.463,324.408 332.999,333.352 329.652 C 335.504 328.847,336.345 328.800,348.591 328.800 C 356.801 328.800,361.643 328.653,361.800 328.400 C 361.963 328.137,357.871 328.000,349.824 328.000 L 337.600 328.000 337.600 316.400 L 337.600 304.800 188.080 304.800 C 94.363 304.800,38.418 304.942,38.180 305.179 M213.894 328.454 C 225.969 331.331,227.875 346.626,216.800 351.765 C 213.982 353.072,185.962 353.057,183.200 351.746 C 172.295 346.572,173.990 331.419,185.800 328.497 C 188.112 327.925,211.523 327.889,213.894 328.454 M130.089 329.738 C 138.758 333.591,139.515 345.500,131.418 350.648 C 124.536 355.023,115.433 350.946,113.578 342.658 C 111.561 333.646,121.458 325.902,130.089 329.738 M278.851 329.367 C 288.939 333.606,289.244 347.064,279.352 351.438 C 267.788 356.552,257.525 341.876,266.117 332.511 C 269.172 329.180,274.989 327.744,278.851 329.367 " stroke="none" fill="#fbae48" fill-rule="evenodd"></path><path id="path1" d="M194.166 41.971 C 190.781 42.296,186.582 44.007,185.168 45.637 C 184.804 46.057,184.321 46.400,184.095 46.400 C 183.868 46.400,183.113 47.075,182.417 47.900 C 181.721 48.725,180.712 49.898,180.175 50.507 C 179.639 51.116,179.200 51.798,179.200 52.024 C 179.200 52.249,178.865 52.793,178.456 53.232 C 175.555 56.346,174.290 68.705,176.443 72.895 C 176.639 73.277,176.800 73.952,176.800 74.395 C 176.800 74.838,176.980 75.200,177.200 75.200 C 177.420 75.200,177.600 75.560,177.600 76.000 C 177.600 76.440,177.780 76.800,178.000 76.800 C 178.220 76.800,178.400 77.120,178.400 77.512 C 178.400 77.903,178.760 78.483,179.200 78.800 C 179.640 79.117,180.000 79.610,180.000 79.896 C 180.000 80.624,185.053 85.600,185.793 85.600 C 186.127 85.600,186.400 85.750,186.400 85.932 C 186.400 86.115,186.895 86.520,187.500 86.832 C 188.105 87.144,188.690 87.500,188.800 87.624 C 190.758 89.833,209.242 89.833,211.200 87.624 C 211.310 87.500,211.895 87.144,212.500 86.832 C 213.105 86.520,213.600 86.115,213.600 85.932 C 213.600 85.750,213.849 85.600,214.154 85.600 C 214.878 85.600,220.000 80.622,220.000 79.919 C 220.000 79.621,220.360 79.117,220.800 78.800 C 221.240 78.483,221.600 77.903,221.600 77.512 C 221.600 77.120,221.780 76.800,222.000 76.800 C 222.220 76.800,222.400 76.440,222.400 76.000 C 222.400 75.560,222.580 75.200,222.800 75.200 C 223.020 75.200,223.200 74.838,223.200 74.395 C 223.200 73.952,223.361 73.277,223.557 72.895 C 224.670 70.729,225.102 64.534,224.365 61.306 C 223.364 56.916,221.799 52.800,221.132 52.800 C 220.949 52.800,220.800 52.480,220.800 52.088 C 220.800 51.697,220.440 51.117,220.000 50.800 C 219.560 50.483,219.200 50.030,219.200 49.793 C 219.200 49.292,216.328 46.400,215.830 46.400 C 215.645 46.400,215.196 46.057,214.832 45.637 C 213.671 44.298,209.268 42.323,207.064 42.153 C 201.896 41.753,197.140 41.686,194.166 41.971 M35.800 328.000 C 35.664 328.220,35.023 328.400,34.376 328.400 C 33.729 328.400,33.200 328.580,33.200 328.800 C 33.200 329.020,32.954 329.200,32.654 329.200 C 31.878 329.200,27.600 333.403,27.600 334.165 C 27.600 334.514,27.420 334.800,27.200 334.800 C 26.980 334.800,26.800 335.149,26.800 335.576 C 26.800 336.003,26.620 336.464,26.400 336.600 C 25.425 337.202,26.267 346.400,27.297 346.400 C 27.464 346.400,27.600 346.675,27.600 347.011 C 27.600 348.753,33.335 352.800,35.804 352.800 C 36.535 352.800,37.228 353.025,37.343 353.300 C 37.494 353.658,37.679 353.601,37.997 353.100 C 38.403 352.457,39.477 352.400,51.073 352.400 C 64.360 352.400,65.683 352.258,68.472 350.535 C 76.681 345.463,75.592 332.999,66.648 329.652 C 64.495 328.847,63.656 328.800,51.372 328.800 C 40.188 328.800,38.343 328.716,38.145 328.200 C 37.887 327.527,36.182 327.382,35.800 328.000 M361.855 328.200 C 361.657 328.716,359.812 328.800,348.628 328.800 C 336.344 328.800,335.505 328.847,333.352 329.652 C 324.408 332.999,323.319 345.463,331.528 350.535 C 334.323 352.262,335.628 352.400,349.146 352.400 C 360.305 352.400,362.000 352.479,362.000 353.000 C 362.000 353.330,362.180 353.600,362.400 353.600 C 362.620 353.600,362.800 353.420,362.800 353.200 C 362.800 352.980,363.413 352.800,364.162 352.800 C 366.658 352.800,372.400 348.713,372.400 346.936 C 372.400 346.641,372.536 346.400,372.703 346.400 C 373.283 346.400,374.000 343.194,374.000 340.600 C 374.000 338.006,373.283 334.800,372.703 334.800 C 372.536 334.800,372.400 334.514,372.400 334.165 C 372.400 333.403,368.122 329.200,367.346 329.200 C 367.046 329.200,366.800 329.020,366.800 328.800 C 366.800 328.580,366.271 328.400,365.624 328.400 C 364.977 328.400,364.336 328.220,364.200 328.000 C 363.818 327.382,362.113 327.527,361.855 328.200 " stroke="none" fill="#2fb3ea" fill-rule="evenodd"></path><path id="path2" d="M86.400 148.407 C 86.400 148.629,85.107 148.800,83.424 148.800 C 81.787 148.800,80.336 148.980,80.200 149.200 C 80.064 149.420,79.254 149.600,78.400 149.600 C 77.546 149.600,76.736 149.780,76.600 150.000 C 76.464 150.220,75.823 150.400,75.176 150.400 C 74.529 150.400,74.000 150.580,74.000 150.800 C 74.000 151.020,73.458 151.200,72.795 151.200 C 72.132 151.200,71.232 151.380,70.795 151.600 C 70.358 151.820,69.642 152.180,69.205 152.400 C 68.768 152.620,68.048 152.800,67.605 152.800 C 67.162 152.800,66.800 152.980,66.800 153.200 C 66.800 153.420,66.440 153.600,66.000 153.600 C 65.560 153.600,65.200 153.780,65.200 154.000 C 65.200 154.220,64.750 154.400,64.200 154.400 C 63.650 154.400,63.200 154.580,63.200 154.800 C 63.200 155.020,62.930 155.200,62.600 155.200 C 62.270 155.200,62.000 155.380,62.000 155.600 C 62.000 155.820,61.640 156.000,61.200 156.000 C 60.760 156.000,60.400 156.146,60.400 156.325 C 60.400 156.504,59.770 156.898,59.000 157.200 C 58.230 157.502,57.600 157.868,57.600 158.014 C 57.600 158.159,56.880 158.603,56.000 159.000 C 55.120 159.397,54.400 159.874,54.400 160.061 C 54.400 160.247,54.157 160.400,53.859 160.400 C 53.562 160.400,52.754 160.940,52.063 161.600 C 51.372 162.260,50.642 162.800,50.440 162.800 C 50.238 162.800,48.516 164.330,46.612 166.200 C 44.708 168.070,43.249 169.600,43.371 169.600 C 43.493 169.600,43.054 170.114,42.396 170.743 C 41.738 171.372,41.200 172.057,41.200 172.265 C 41.200 172.473,40.615 173.292,39.900 174.085 C 37.620 176.613,37.200 177.195,37.200 177.828 C 37.200 178.169,37.020 178.336,36.800 178.200 C 36.580 178.064,36.400 178.233,36.400 178.576 C 36.400 178.919,36.220 179.200,36.000 179.200 C 35.780 179.200,35.600 179.478,35.600 179.817 C 35.600 180.156,35.240 180.820,34.800 181.292 C 34.360 181.764,34.000 182.387,34.000 182.675 C 34.000 182.964,33.820 183.200,33.600 183.200 C 33.380 183.200,33.200 183.560,33.200 184.000 C 33.200 184.440,33.020 184.800,32.800 184.800 C 32.580 184.800,32.400 185.145,32.400 185.567 C 32.400 185.988,32.222 186.393,32.003 186.467 C 31.785 186.540,31.566 187.095,31.516 187.700 C 31.466 188.305,31.285 188.800,31.113 188.800 C 30.941 188.800,30.800 189.160,30.800 189.600 C 30.800 190.040,30.620 190.400,30.400 190.400 C 30.180 190.400,30.000 190.839,30.000 191.376 C 30.000 191.913,29.799 192.477,29.553 192.629 C 28.175 193.480,30.104 202.574,33.043 209.087 C 33.617 210.359,34.371 212.030,34.719 212.800 C 35.067 213.570,35.992 215.282,36.776 216.605 C 37.559 217.928,38.440 219.474,38.733 220.040 C 39.931 222.356,45.429 229.235,48.892 232.750 C 57.946 241.942,69.774 249.384,80.196 252.448 C 82.907 253.245,91.215 247.785,97.672 240.964 C 104.062 234.213,110.637 234.714,118.790 242.572 C 129.165 252.574,139.947 256.970,154.000 256.929 C 162.163 256.905,171.989 254.612,175.389 251.937 L 176.400 251.142 176.400 200.899 C 176.400 162.736,176.284 150.337,175.918 149.325 L 175.437 147.993 130.918 148.003 C 102.025 148.010,86.400 148.152,86.400 148.407 M224.080 149.328 C 223.716 150.336,223.600 162.805,223.600 200.899 L 223.600 251.142 224.611 251.937 C 228.072 254.660,237.859 256.916,246.200 256.915 C 260.197 256.912,270.869 252.540,281.210 242.572 C 289.260 234.812,296.139 234.219,302.091 240.772 C 305.938 245.007,311.860 249.530,316.499 251.779 L 318.798 252.893 320.899 252.218 C 344.106 244.764,364.012 223.596,370.602 199.365 C 371.170 197.279,371.006 192.974,370.343 192.565 C 370.154 192.448,370.000 191.913,370.000 191.376 C 370.000 190.839,369.853 190.400,369.672 190.400 C 369.492 190.400,369.100 189.500,368.800 188.400 C 368.500 187.300,368.108 186.400,367.928 186.400 C 367.747 186.400,367.600 186.040,367.600 185.600 C 367.600 185.160,367.420 184.800,367.200 184.800 C 366.980 184.800,366.800 184.440,366.800 184.000 C 366.800 183.560,366.620 183.200,366.400 183.200 C 366.180 183.200,366.000 182.964,366.000 182.675 C 366.000 182.387,365.640 181.764,365.200 181.292 C 364.760 180.820,364.400 180.156,364.400 179.817 C 364.400 179.478,364.220 179.200,364.000 179.200 C 363.780 179.200,363.600 178.930,363.600 178.600 C 363.600 178.270,363.420 178.000,363.200 178.000 C 362.980 178.000,362.800 177.822,362.800 177.605 C 362.800 177.188,362.236 176.454,360.100 174.085 C 359.385 173.292,358.800 172.500,358.800 172.325 C 358.800 171.599,350.275 162.800,349.572 162.800 C 349.363 162.800,348.628 162.260,347.937 161.600 C 347.246 160.940,346.438 160.400,346.141 160.400 C 345.843 160.400,345.600 160.241,345.600 160.046 C 345.600 159.851,344.925 159.374,344.100 158.986 C 343.275 158.599,342.510 158.173,342.400 158.040 C 342.290 157.907,341.660 157.529,341.000 157.200 C 340.340 156.871,339.710 156.511,339.600 156.401 C 339.140 155.939,335.880 154.400,335.362 154.400 C 335.053 154.400,334.800 154.220,334.800 154.000 C 334.800 153.780,334.440 153.600,334.000 153.600 C 333.560 153.600,333.200 153.420,333.200 153.200 C 333.200 152.980,332.660 152.800,332.000 152.800 C 331.340 152.800,330.800 152.620,330.800 152.400 C 330.800 152.180,330.451 152.000,330.024 152.000 C 329.597 152.000,329.136 151.820,329.000 151.600 C 328.864 151.380,328.133 151.200,327.376 151.200 C 326.619 151.200,326.000 151.020,326.000 150.800 C 326.000 150.580,325.471 150.400,324.824 150.400 C 324.177 150.400,323.536 150.220,323.400 150.000 C 323.264 149.780,322.454 149.600,321.600 149.600 C 320.746 149.600,319.936 149.420,319.800 149.200 C 319.664 148.980,318.213 148.800,316.576 148.800 C 314.859 148.800,313.600 148.631,313.600 148.400 C 313.600 148.136,298.493 148.000,269.080 148.000 L 224.561 148.000 224.080 149.328 M106.386 265.651 C 97.401 272.798,87.288 277.274,73.551 280.185 L 69.000 281.149 107.400 281.127 C 133.697 281.112,145.170 280.982,143.800 280.712 C 130.331 278.065,113.463 271.128,110.000 266.811 C 108.830 265.352,107.356 264.880,106.386 265.651 M291.395 265.722 C 290.738 266.189,290.110 266.690,290.000 266.834 C 286.801 271.028,269.654 278.068,256.200 280.712 C 254.830 280.982,266.303 281.112,292.600 281.127 L 331.000 281.149 326.600 280.214 C 312.664 277.251,303.204 273.076,293.595 265.648 C 292.597 264.877,292.582 264.877,291.395 265.722 M199.032 265.548 C 198.914 265.739,196.789 267.237,194.309 268.878 C 185.989 274.382,177.621 277.783,166.963 279.993 L 161.400 281.146 200.000 281.146 L 238.600 281.146 233.037 279.993 C 221.187 277.536,207.712 271.516,201.169 265.756 C 200.458 265.130,199.357 265.023,199.032 265.548 M184.600 329.331 C 174.213 333.404,173.596 346.738,183.580 351.358 C 186.398 352.662,213.602 352.662,216.420 351.358 C 226.048 346.903,225.667 332.816,215.829 329.470 C 213.355 328.629,186.694 328.510,184.600 329.331 " stroke="none" fill="#fa3a2a" fill-rule="evenodd"></path><path id="path3" d="M196.983 107.945 C 191.917 111.035,194.075 118.800,200.000 118.800 C 203.426 118.800,205.771 116.443,205.771 113.000 C 205.771 108.434,200.836 105.595,196.983 107.945 M198.000 157.248 C 193.870 158.890,192.895 164.244,196.197 167.144 C 198.649 169.297,201.566 169.190,204.106 166.855 C 208.546 162.774,203.615 155.016,198.000 157.248 M196.983 207.545 C 191.966 210.605,194.132 218.400,200.000 218.400 C 205.975 218.400,208.071 210.126,202.788 207.394 C 201.207 206.576,198.454 206.648,196.983 207.545 M120.200 329.841 C 110.855 334.609,111.151 347.115,120.711 351.444 C 132.158 356.627,142.444 341.842,133.883 332.511 C 130.466 328.787,124.534 327.630,120.200 329.841 M269.800 329.761 C 261.232 333.681,260.541 345.535,268.582 350.648 C 277.134 356.085,288.739 347.950,286.391 338.163 C 284.598 330.688,276.613 326.644,269.800 329.761 " stroke="none" fill="#fcfaf8" fill-rule="evenodd"></path><path id="path4" d="M195.342 1.104 C 194.714 1.711,194.141 2.474,194.068 2.800 C 193.995 3.126,193.809 3.484,193.655 3.596 C 193.337 3.826,193.320 4.030,193.250 8.200 L 193.200 11.200 189.819 11.200 C 184.088 11.200,181.600 13.182,181.600 17.749 C 181.600 22.495,183.983 24.400,189.919 24.400 L 193.400 24.400 193.400 33.100 L 193.400 41.800 194.300 41.928 C 194.795 41.998,195.200 41.863,195.200 41.628 C 195.200 41.068,204.255 41.042,204.600 41.600 C 204.736 41.820,205.293 42.000,205.838 42.000 L 206.830 42.000 206.715 33.200 L 206.600 24.399 210.081 24.400 C 218.094 24.400,221.524 17.797,216.213 12.595 C 215.298 11.699,213.637 11.309,210.410 11.234 C 206.354 11.138,206.862 11.636,206.766 7.661 C 206.711 5.379,206.504 4.161,206.104 3.761 C 205.784 3.441,205.624 2.914,205.749 2.590 C 205.891 2.218,205.733 2.000,205.321 2.000 C 204.961 2.000,204.781 1.886,204.920 1.747 C 205.059 1.608,204.746 1.158,204.223 0.747 C 202.562 -0.560,196.825 -0.329,195.342 1.104 M304.993 77.300 C 305.354 77.502,305.902 77.570,306.211 77.451 C 306.521 77.332,306.883 77.410,307.015 77.624 C 307.147 77.838,307.426 77.908,307.634 77.779 C 308.412 77.298,307.504 76.810,305.948 76.870 C 304.742 76.918,304.503 77.026,304.993 77.300 M308.562 77.538 C 308.719 77.792,308.646 78.000,308.400 78.000 C 308.154 78.000,308.064 78.180,308.200 78.400 C 308.336 78.620,308.979 78.800,309.629 78.800 C 310.279 78.800,311.123 78.962,311.505 79.159 C 311.887 79.356,313.550 79.936,315.200 80.447 C 326.758 84.025,340.094 93.776,349.488 105.517 C 351.629 108.194,356.400 114.965,356.400 115.327 C 356.400 115.432,357.101 116.671,357.957 118.081 C 363.044 126.455,367.910 139.272,370.454 151.000 C 372.591 160.853,373.321 169.816,371.915 168.947 C 371.691 168.809,371.711 169.060,371.960 169.525 C 372.533 170.595,372.570 187.848,372.000 188.200 C 371.780 188.336,371.600 189.517,371.600 190.824 C 371.600 192.335,371.434 193.200,371.144 193.200 C 370.831 193.200,370.764 193.838,370.930 195.236 C 371.477 199.857,366.451 212.571,360.568 221.452 C 351.226 235.552,335.986 247.372,320.899 252.218 L 318.798 252.893 316.499 251.779 C 311.860 249.530,305.938 245.007,302.091 240.772 C 296.139 234.219,289.260 234.812,281.210 242.572 C 270.869 252.540,260.197 256.912,246.200 256.915 C 237.856 256.916,228.072 254.659,224.608 251.935 L 223.594 251.137 223.702 200.469 C 223.763 171.974,223.967 149.379,224.168 148.837 C 224.428 148.138,224.399 147.953,224.063 148.161 C 223.715 148.376,223.592 143.941,223.567 130.324 C 223.529 109.310,223.358 103.945,222.716 103.548 C 222.465 103.393,222.197 102.855,222.120 102.354 C 222.044 101.852,221.715 101.148,221.390 100.789 C 221.066 100.431,220.800 100.018,220.800 99.872 C 220.800 98.818,215.351 93.059,214.722 93.448 C 214.542 93.560,214.293 93.386,214.168 93.061 C 214.044 92.737,213.505 92.363,212.971 92.228 C 212.437 92.094,212.000 91.808,212.000 91.592 C 212.000 91.377,211.640 91.200,211.200 91.200 C 210.760 91.200,210.400 91.020,210.400 90.800 C 210.400 90.580,210.051 90.400,209.624 90.400 C 209.197 90.400,208.736 90.220,208.600 90.000 C 208.266 89.459,191.734 89.459,191.400 90.000 C 191.264 90.220,190.803 90.400,190.376 90.400 C 189.949 90.400,189.600 90.580,189.600 90.800 C 189.600 91.020,189.240 91.200,188.800 91.200 C 188.360 91.200,188.000 91.380,188.000 91.600 C 188.000 91.820,187.711 92.000,187.358 92.000 C 186.668 92.000,184.035 93.937,182.401 95.647 C 180.807 97.313,179.984 98.399,180.304 98.412 C 180.467 98.419,180.285 98.608,179.900 98.832 C 179.515 99.056,179.200 99.427,179.200 99.657 C 179.200 99.886,178.840 100.531,178.400 101.091 C 177.960 101.650,177.600 102.444,177.600 102.854 C 177.600 103.264,177.450 103.600,177.267 103.600 C 176.656 103.600,176.596 105.601,176.487 129.324 C 176.422 143.687,176.285 148.376,175.937 148.161 C 175.601 147.953,175.572 148.138,175.832 148.837 C 176.033 149.379,176.237 171.974,176.298 200.469 L 176.406 251.137 175.392 251.935 C 171.989 254.612,162.166 256.905,154.000 256.929 C 139.947 256.970,129.165 252.574,118.790 242.572 C 110.637 234.714,104.062 234.213,97.672 240.964 C 91.215 247.785,82.907 253.245,80.196 252.448 C 69.774 249.384,57.946 241.942,48.892 232.750 C 45.429 229.235,39.931 222.356,38.733 220.040 C 38.440 219.474,37.559 217.928,36.776 216.605 C 35.992 215.282,35.067 213.570,34.719 212.800 C 34.371 212.030,33.617 210.359,33.043 209.087 C 31.533 205.741,29.609 199.748,29.227 197.200 L 28.898 195.000 28.849 196.881 C 28.822 197.916,28.962 199.176,29.160 199.681 C 29.358 200.187,29.790 201.500,30.119 202.600 C 31.473 207.129,35.388 215.856,37.218 218.426 C 37.648 219.030,38.000 219.721,38.000 219.962 C 38.000 220.203,38.180 220.400,38.400 220.400 C 38.620 220.400,38.800 220.636,38.800 220.925 C 38.800 221.213,39.160 221.836,39.600 222.308 C 40.040 222.780,40.400 223.270,40.400 223.397 C 40.400 224.550,52.025 237.009,55.515 239.597 C 56.552 240.366,57.490 241.101,57.600 241.230 C 58.739 242.567,67.488 247.763,72.200 249.900 C 75.818 251.541,80.399 253.200,81.314 253.200 C 83.866 253.200,92.990 246.780,97.980 241.473 C 104.482 234.560,110.167 234.996,118.496 243.050 C 123.927 248.299,129.066 251.694,135.000 253.951 C 136.320 254.453,137.713 255.030,138.095 255.232 C 138.477 255.434,139.231 255.600,139.771 255.600 C 140.311 255.600,140.864 255.780,141.000 256.000 C 141.136 256.220,141.946 256.400,142.800 256.400 C 143.654 256.400,144.447 256.552,144.562 256.739 C 144.769 257.073,151.876 257.739,154.200 257.641 C 159.725 257.409,165.162 256.505,169.400 255.113 C 172.232 254.183,176.118 252.431,176.600 251.867 C 176.820 251.609,178.790 250.229,180.979 248.799 C 183.320 247.270,186.613 244.581,188.979 242.265 C 197.302 234.121,202.637 234.018,210.621 241.848 C 212.613 243.802,214.618 245.696,215.076 246.057 C 216.930 247.520,221.992 250.800,222.394 250.800 C 222.631 250.800,222.934 251.084,223.067 251.431 C 223.333 252.124,227.092 253.962,230.600 255.113 C 237.272 257.304,244.433 258.033,251.400 257.230 C 257.308 256.549,258.581 256.336,258.980 255.959 C 259.189 255.762,259.776 255.600,260.285 255.600 C 260.794 255.600,261.523 255.434,261.905 255.232 C 262.287 255.030,263.680 254.454,265.000 253.954 C 270.701 251.792,276.104 248.240,281.320 243.226 C 289.909 234.970,295.440 234.504,302.048 241.480 C 307.167 246.884,316.134 253.200,318.688 253.200 C 319.134 253.200,320.287 253.488,321.250 253.841 C 338.048 259.989,356.851 256.918,370.185 245.848 C 373.961 242.713,381.355 234.976,382.066 233.415 C 382.320 232.857,382.680 232.400,382.864 232.400 C 383.049 232.400,383.200 232.055,383.200 231.633 C 383.200 231.212,383.367 230.807,383.570 230.733 C 383.774 230.660,383.999 230.330,384.070 230.000 C 384.142 229.670,384.515 229.109,384.900 228.753 C 385.285 228.397,385.600 227.812,385.600 227.453 C 385.600 227.094,385.780 226.800,386.000 226.800 C 386.220 226.800,386.400 226.440,386.400 226.000 C 386.400 225.560,386.580 225.200,386.800 225.200 C 387.020 225.200,387.200 224.851,387.200 224.424 C 387.200 223.997,387.383 223.534,387.607 223.396 C 387.830 223.258,387.921 222.996,387.809 222.814 C 387.696 222.633,387.857 222.387,388.165 222.269 C 388.473 222.151,388.852 221.457,389.008 220.727 C 389.165 219.997,389.426 219.220,389.590 219.000 C 389.876 218.616,391.336 214.919,391.447 214.300 C 391.476 214.135,391.523 213.629,391.550 213.176 C 391.578 212.723,391.780 212.464,392.000 212.600 C 392.233 212.744,392.400 212.337,392.400 211.624 C 392.400 210.951,392.580 210.400,392.800 210.400 C 393.020 210.400,393.200 209.871,393.200 209.224 C 393.200 208.577,393.380 207.936,393.600 207.800 C 393.820 207.664,394.000 206.933,394.000 206.176 C 394.000 205.419,394.180 204.800,394.400 204.800 C 394.620 204.800,394.800 204.080,394.800 203.200 C 394.800 202.320,394.946 201.600,395.125 201.600 C 395.304 201.600,395.494 200.760,395.547 199.733 C 395.600 198.706,395.814 197.548,396.022 197.159 C 396.230 196.771,396.400 195.440,396.400 194.203 C 396.400 192.905,396.559 192.051,396.775 192.184 C 396.995 192.320,397.234 190.635,397.353 188.108 C 397.465 185.739,397.664 181.759,397.797 179.265 C 397.933 176.682,397.885 174.824,397.684 174.948 C 397.490 175.068,397.290 173.069,397.238 170.506 C 397.187 167.942,396.978 165.532,396.773 165.149 C 396.568 164.766,396.400 163.551,396.400 162.450 C 396.400 161.348,396.220 160.336,396.000 160.200 C 395.780 160.064,395.600 159.153,395.600 158.176 C 395.600 157.199,395.420 156.400,395.200 156.400 C 394.980 156.400,394.800 155.691,394.800 154.824 C 394.800 153.957,394.620 153.136,394.400 153.000 C 394.180 152.864,394.000 152.302,394.000 151.750 C 394.000 151.199,393.819 150.409,393.597 149.995 C 393.376 149.581,393.157 148.783,393.110 148.221 C 393.064 147.660,392.885 147.200,392.713 147.200 C 392.541 147.200,392.400 146.750,392.400 146.200 C 392.400 145.650,392.220 145.200,392.000 145.200 C 391.780 145.200,391.600 144.758,391.600 144.219 C 391.600 143.042,390.814 141.200,390.312 141.200 C 390.115 141.200,390.061 141.026,390.192 140.813 C 390.324 140.600,390.064 139.620,389.616 138.635 C 389.167 137.650,388.800 136.553,388.800 136.198 C 388.800 135.843,388.620 135.664,388.400 135.800 C 388.180 135.936,388.000 135.749,388.000 135.386 C 388.000 135.022,387.460 133.740,386.800 132.537 C 386.140 131.335,385.600 130.081,385.600 129.752 C 385.600 129.422,385.420 129.264,385.200 129.400 C 384.980 129.536,384.800 129.387,384.800 129.069 C 384.800 128.333,383.783 126.351,383.533 126.600 C 383.430 126.704,383.099 126.161,382.798 125.394 C 382.497 124.627,382.116 124.000,381.952 124.000 C 381.788 124.000,381.538 123.634,381.396 123.187 C 381.254 122.740,380.747 121.975,380.269 121.487 C 379.791 120.999,379.145 120.105,378.832 119.500 C 378.520 118.895,378.115 118.400,377.932 118.400 C 377.750 118.400,377.600 118.052,377.600 117.627 C 377.600 117.202,377.240 116.740,376.800 116.600 C 376.360 116.460,376.000 116.180,376.000 115.978 C 376.000 115.617,375.194 114.532,374.000 113.284 C 373.670 112.939,373.400 112.541,373.400 112.400 C 373.400 111.958,360.929 99.807,360.349 99.683 C 360.047 99.619,359.501 99.214,359.136 98.783 C 358.771 98.352,358.265 98.000,358.012 98.000 C 357.760 98.000,357.648 97.846,357.764 97.658 C 357.880 97.471,357.493 97.098,356.905 96.829 C 356.316 96.561,355.583 95.983,355.276 95.544 C 354.968 95.105,354.498 94.830,354.230 94.933 C 353.962 95.036,353.529 94.778,353.268 94.360 C 353.007 93.942,352.553 93.600,352.259 93.600 C 351.965 93.600,351.398 93.240,351.000 92.800 C 350.602 92.360,349.944 92.000,349.538 92.000 C 349.132 92.000,348.800 91.820,348.800 91.600 C 348.800 91.380,348.564 91.200,348.275 91.200 C 347.987 91.200,347.364 90.840,346.892 90.400 C 346.420 89.960,345.882 89.600,345.696 89.600 C 345.103 89.600,343.206 88.611,343.203 88.300 C 343.201 88.135,342.840 88.000,342.400 88.000 C 341.960 88.000,341.600 87.820,341.600 87.600 C 341.600 87.380,341.351 87.200,341.046 87.200 C 340.216 87.200,338.373 86.160,338.673 85.861 C 338.816 85.717,338.478 85.600,337.921 85.600 C 337.364 85.600,336.450 85.240,335.891 84.800 C 335.331 84.360,334.407 84.000,333.837 84.000 C 333.267 84.000,332.800 83.840,332.800 83.643 C 332.800 83.447,332.358 83.176,331.818 83.040 C 331.277 82.905,330.332 82.587,329.718 82.334 C 329.103 82.082,328.153 81.801,327.607 81.711 C 327.062 81.621,326.522 81.404,326.407 81.229 C 326.213 80.930,325.195 80.672,322.096 80.137 C 321.379 80.013,320.694 79.751,320.573 79.556 C 320.452 79.360,319.744 79.200,319.000 79.200 C 318.256 79.200,317.536 79.020,317.400 78.800 C 317.264 78.580,316.383 78.400,315.443 78.400 C 314.503 78.400,313.621 78.288,313.484 78.150 C 313.346 78.013,312.315 77.837,311.193 77.759 C 310.070 77.681,308.954 77.495,308.714 77.347 C 308.451 77.185,308.391 77.261,308.562 77.538 M204.022 108.107 C 209.180 113.000,205.101 121.004,198.372 119.193 C 191.083 117.230,192.453 106.800,200.000 106.800 C 202.438 106.800,202.751 106.902,204.022 108.107 M202.100 156.702 C 202.705 156.806,203.200 157.050,203.200 157.245 C 203.200 157.440,203.430 157.600,203.711 157.600 C 205.811 157.600,207.035 163.134,205.550 165.917 C 202.464 171.698,193.600 169.269,193.600 162.642 C 193.600 160.844,195.330 157.600,196.289 157.600 C 196.570 157.600,196.800 157.420,196.800 157.200 C 196.800 156.980,197.205 156.797,197.700 156.794 C 198.195 156.791,198.870 156.612,199.200 156.398 C 199.530 156.184,200.070 156.122,200.400 156.261 C 200.730 156.400,201.495 156.598,202.100 156.702 M201.800 206.400 C 201.936 206.620,202.314 206.800,202.641 206.800 C 205.130 206.800,207.377 212.663,205.900 215.305 C 202.433 221.509,193.600 219.614,193.600 212.667 C 193.600 210.002,195.663 206.800,197.379 206.800 C 197.695 206.800,198.064 206.620,198.200 206.400 C 198.336 206.180,199.146 206.000,200.000 206.000 C 200.854 206.000,201.664 206.180,201.800 206.400 M102.977 267.443 C 100.572 269.091,98.153 270.677,97.602 270.968 C 95.380 272.140,91.687 273.951,89.800 274.794 C 88.700 275.286,87.487 275.848,87.105 276.044 C 86.723 276.240,86.059 276.400,85.629 276.400 C 85.199 276.400,84.736 276.580,84.600 276.800 C 84.464 277.020,83.924 277.200,83.400 277.200 C 82.876 277.200,82.348 277.360,82.227 277.556 C 82.106 277.751,81.421 278.008,80.704 278.127 C 79.987 278.245,78.590 278.538,77.600 278.778 C 74.058 279.635,71.331 280.052,66.800 280.431 C 64.270 280.643,61.030 280.914,59.600 281.034 C 58.170 281.154,54.660 281.031,51.800 280.760 C 40.206 279.661,31.200 280.591,31.200 282.886 C 31.200 283.059,30.970 283.200,30.688 283.200 C 30.407 283.200,29.912 283.582,29.588 284.049 C 29.265 284.516,28.795 285.113,28.545 285.376 C 26.740 287.269,25.045 296.400,26.498 296.400 C 26.690 296.400,26.736 296.580,26.600 296.800 C 26.464 297.020,26.543 297.200,26.776 297.200 C 27.009 297.200,27.155 297.343,27.100 297.518 C 26.878 298.221,28.638 301.118,29.840 302.029 C 30.545 302.563,31.020 303.180,30.897 303.400 C 30.773 303.620,30.815 303.670,30.991 303.512 C 31.166 303.353,31.798 303.571,32.395 303.996 C 33.527 304.803,36.600 305.667,36.980 305.286 C 37.101 305.166,37.200 305.305,37.200 305.595 C 37.200 305.985,37.392 305.950,37.931 305.462 C 38.609 304.848,49.611 304.800,188.131 304.800 L 337.600 304.800 337.600 316.400 L 337.600 328.000 349.800 328.000 L 362.000 328.000 362.000 316.776 C 362.000 309.951,362.146 305.643,362.372 305.783 C 362.577 305.909,362.858 305.830,362.996 305.607 C 363.134 305.383,363.741 305.200,364.344 305.200 C 364.947 305.200,365.656 304.984,365.920 304.720 C 366.184 304.456,366.400 304.376,366.400 304.543 C 366.400 305.109,368.904 303.406,370.573 301.704 C 373.889 298.326,374.947 291.728,372.837 287.600 C 371.926 285.818,368.943 282.400,368.300 282.400 C 368.117 282.400,367.604 282.062,367.161 281.650 C 365.760 280.344,356.259 279.710,349.800 280.490 C 343.049 281.305,329.295 280.446,322.400 278.778 C 321.410 278.538,320.013 278.245,319.296 278.127 C 318.579 278.008,317.894 277.751,317.773 277.556 C 317.652 277.360,317.124 277.200,316.600 277.200 C 316.076 277.200,315.536 277.020,315.400 276.800 C 315.264 276.580,314.801 276.400,314.371 276.400 C 313.941 276.400,313.277 276.236,312.895 276.035 C 312.513 275.834,311.120 275.184,309.800 274.590 C 304.310 272.120,301.640 270.628,297.000 267.433 C 295.020 266.070,293.204 264.838,292.965 264.694 C 292.726 264.551,291.106 265.430,289.365 266.648 C 283.549 270.716,276.813 274.344,272.000 275.999 C 271.230 276.264,270.240 276.622,269.800 276.795 C 269.360 276.967,268.190 277.330,267.200 277.601 C 266.210 277.871,264.950 278.233,264.400 278.404 C 263.490 278.686,261.388 279.130,257.600 279.840 C 254.806 280.364,238.277 280.480,236.197 279.990 C 235.096 279.731,233.746 279.590,233.197 279.677 C 232.564 279.777,233.369 280.070,235.400 280.477 C 238.427 281.085,236.519 281.120,200.000 281.133 L 161.400 281.146 166.963 279.993 C 179.467 277.401,187.058 273.989,199.427 265.402 C 199.807 265.138,200.193 265.138,200.573 265.402 C 211.249 272.814,217.105 275.739,226.945 278.578 C 230.660 279.649,232.722 279.925,231.600 279.200 C 231.270 278.987,230.563 278.809,230.028 278.806 C 229.494 278.803,228.504 278.624,227.828 278.409 C 223.098 276.902,221.287 276.300,220.500 275.974 C 220.005 275.768,219.195 275.442,218.700 275.248 C 214.140 273.464,208.036 270.052,203.407 266.699 C 199.780 264.072,200.206 264.061,196.327 266.885 C 192.015 270.025,185.775 273.497,181.300 275.248 C 180.805 275.442,179.950 275.780,179.400 276.000 C 176.965 276.974,176.500 277.136,174.800 277.608 C 171.263 278.590,170.572 278.757,168.400 279.152 C 167.190 279.372,165.210 279.758,164.000 280.010 C 161.347 280.562,144.416 280.300,141.400 279.661 C 136.804 278.686,135.731 278.441,134.400 278.057 C 133.630 277.835,132.550 277.537,132.000 277.394 C 131.450 277.250,130.640 276.986,130.200 276.807 C 129.760 276.628,128.770 276.264,128.000 275.998 C 126.647 275.532,122.238 273.561,120.600 272.691 C 116.665 270.600,114.913 269.550,111.800 267.419 C 109.820 266.064,108.009 264.841,107.776 264.701 C 107.542 264.561,105.383 265.795,102.977 267.443 M110.000 266.811 C 113.463 271.128,130.331 278.065,143.800 280.712 C 145.170 280.982,133.697 281.112,107.400 281.127 L 69.000 281.149 73.551 280.185 C 87.288 277.274,97.401 272.798,106.386 265.651 C 107.356 264.880,108.830 265.352,110.000 266.811 M297.453 268.393 C 305.943 274.249,314.096 277.555,326.600 280.214 L 331.000 281.149 292.600 281.127 C 266.303 281.112,254.830 280.982,256.200 280.712 C 269.654 278.068,286.801 271.028,290.000 266.834 C 291.114 265.374,292.604 264.883,293.595 265.648 C 294.148 266.076,295.884 267.311,297.453 268.393 M186.600 328.400 C 186.134 328.600,191.728 328.744,200.000 328.744 C 208.272 328.744,213.866 328.600,213.400 328.400 C 212.960 328.211,206.930 328.056,200.000 328.056 C 193.070 328.056,187.040 328.211,186.600 328.400 M182.400 329.664 C 173.421 334.838,173.874 347.321,183.200 351.746 C 185.962 353.057,213.982 353.072,216.800 351.765 C 223.294 348.752,225.884 341.400,222.727 334.940 C 221.320 332.062,217.187 328.757,215.088 328.832 C 214.506 328.852,214.819 329.082,215.998 329.498 C 223.874 332.277,226.041 343.666,219.746 349.194 C 216.325 352.198,216.309 352.200,200.000 352.200 C 185.999 352.200,185.325 352.165,183.580 351.358 C 173.596 346.738,174.213 333.404,184.600 329.331 C 185.745 328.882,185.754 328.861,184.800 328.859 C 184.250 328.858,183.170 329.220,182.400 329.664 M338.106 353.126 C 337.738 353.360,337.586 356.327,337.506 364.820 L 337.400 376.200 188.200 376.306 C 76.815 376.386,38.780 376.297,38.131 375.955 C 37.394 375.568,36.249 375.656,34.800 376.212 C 34.690 376.254,34.009 376.427,33.287 376.597 C 31.720 376.965,28.131 380.340,27.767 381.787 C 27.628 382.344,27.392 382.800,27.244 382.800 C 25.752 382.800,25.924 392.775,27.437 394.031 C 27.742 394.284,27.901 394.636,27.791 394.814 C 27.541 395.220,31.183 398.800,31.846 398.800 C 32.114 398.800,32.408 399.025,32.500 399.300 C 32.633 399.699,66.399 399.821,199.186 399.902 L 365.705 400.004 367.361 399.177 C 369.073 398.321,371.980 396.005,371.354 395.994 C 371.159 395.991,371.184 395.856,371.409 395.694 C 372.032 395.247,373.187 393.316,373.312 392.513 C 373.373 392.121,373.528 391.620,373.657 391.400 C 373.992 390.827,373.817 385.152,373.435 384.200 C 372.340 381.468,371.675 380.432,369.922 378.724 C 368.843 377.673,367.834 376.839,367.680 376.870 C 367.406 376.926,366.739 376.711,364.881 375.967 C 364.376 375.765,363.521 375.600,362.981 375.600 L 362.000 375.600 362.000 364.443 C 362.000 354.638,361.923 353.256,361.367 353.043 C 360.429 352.683,338.682 352.760,338.106 353.126 " stroke="none" fill="#ff9a42" fill-rule="evenodd"></path></g></svg>