<svg id="svg" version="1.1" xmlns="http://www.w3.org/2000/svg" xmlns:xlink="http://www.w3.org/1999/xlink" width="400" height="400" viewBox="0, 0, 400,400"><g id="svgg"><path id="path0" d="M226.775 81.182 C 226.432 81.387,225.307 81.599,224.275 81.652 C 223.244 81.706,222.400 81.896,222.400 82.075 C 222.400 82.254,221.680 82.400,220.800 82.400 C 219.920 82.400,219.200 82.580,219.200 82.800 C 219.200 83.020,218.660 83.200,218.000 83.200 C 217.340 83.200,216.800 83.380,216.800 83.600 C 216.800 83.820,216.260 84.000,215.600 84.000 C 214.940 84.000,214.400 84.180,214.400 84.400 C 214.400 84.620,213.950 84.800,213.400 84.800 C 212.850 84.800,212.400 84.980,212.400 85.200 C 212.400 85.420,212.166 85.600,211.880 85.600 C 211.144 85.600,209.207 86.541,209.203 86.900 C 209.201 87.065,208.840 87.200,208.400 87.200 C 207.960 87.200,207.600 87.380,207.600 87.600 C 207.600 87.820,207.240 88.000,206.800 88.000 C 206.360 88.000,206.000 88.180,206.000 88.400 C 206.000 88.620,205.640 88.800,205.200 88.800 C 204.760 88.800,204.400 88.980,204.400 89.200 C 204.400 89.420,204.130 89.600,203.800 89.600 C 203.470 89.600,203.200 89.780,203.200 90.000 C 203.200 90.220,202.930 90.400,202.600 90.400 C 202.270 90.400,202.000 90.580,202.000 90.800 C 202.000 91.020,201.655 91.200,201.233 91.200 C 200.812 91.200,200.407 91.358,200.333 91.552 C 200.260 91.745,199.620 92.253,198.911 92.681 C 196.346 94.227,188.800 101.176,188.800 101.992 C 188.800 102.216,188.620 102.400,188.400 102.400 C 188.180 102.400,188.000 102.580,188.000 102.800 C 188.000 103.019,187.280 103.941,186.400 104.848 C 185.520 105.755,184.800 106.705,184.800 106.960 C 184.800 107.215,184.440 107.683,184.000 108.000 C 183.560 108.317,183.200 108.814,183.200 109.105 C 183.200 109.396,182.869 109.989,182.464 110.423 C 182.059 110.858,181.474 111.705,181.165 112.307 C 180.855 112.908,180.511 113.490,180.401 113.600 C 179.621 114.377,174.800 124.089,174.800 124.882 C 174.800 125.277,174.620 125.600,174.400 125.600 C 174.180 125.600,174.000 125.870,174.000 126.200 C 174.000 126.530,173.820 126.800,173.600 126.800 C 173.380 126.800,173.200 127.160,173.200 127.600 C 173.200 128.040,173.020 128.400,172.800 128.400 C 172.580 128.400,172.400 128.760,172.400 129.200 C 172.400 129.640,172.220 130.000,172.000 130.000 C 171.780 130.000,171.600 130.360,171.600 130.800 C 171.600 131.240,171.420 131.600,171.200 131.600 C 170.980 131.600,170.800 132.050,170.800 132.600 C 170.800 133.150,170.620 133.600,170.400 133.600 C 170.180 133.600,170.000 134.050,170.000 134.600 C 170.000 135.150,169.820 135.600,169.600 135.600 C 169.380 135.600,169.200 135.960,169.200 136.400 C 169.200 136.840,169.020 137.200,168.800 137.200 C 168.580 137.200,168.400 137.650,168.400 138.200 C 168.400 138.750,168.220 139.200,168.000 139.200 C 167.780 139.200,167.600 139.650,167.600 140.200 C 167.600 140.750,167.420 141.200,167.200 141.200 C 166.980 141.200,166.800 141.560,166.800 142.000 C 166.800 142.440,166.620 142.800,166.400 142.800 C 166.180 142.800,166.000 143.162,166.000 143.605 C 166.000 144.048,165.792 144.813,165.538 145.305 C 164.754 146.822,164.553 147.335,163.980 149.300 C 163.675 150.345,163.285 151.200,163.113 151.200 C 162.941 151.200,162.800 151.740,162.800 152.400 C 162.800 153.060,162.620 153.600,162.400 153.600 C 162.180 153.600,162.000 154.140,162.000 154.800 C 162.000 155.460,161.820 156.000,161.600 156.000 C 161.380 156.000,161.200 156.856,161.200 157.901 C 161.200 158.947,160.818 161.062,160.350 162.601 C 153.220 186.089,150.000 209.275,150.000 237.133 C 150.000 247.418,149.887 250.460,149.500 250.578 C 144.753 252.033,133.084 256.083,130.900 257.034 C 128.957 257.880,126.760 258.827,125.300 259.447 C 124.585 259.751,123.415 260.253,122.700 260.562 C 121.985 260.871,120.725 261.402,119.900 261.741 C 119.075 262.081,118.400 262.450,118.400 262.562 C 118.400 262.805,120.655 262.006,123.400 260.789 C 124.500 260.302,126.300 259.506,127.400 259.020 C 128.500 258.534,130.930 257.549,132.800 256.830 C 134.670 256.112,136.560 255.369,137.000 255.181 C 137.440 254.992,140.050 254.110,142.800 253.219 C 145.550 252.329,148.610 251.313,149.600 250.961 C 155.273 248.947,168.948 246.195,180.000 244.844 C 204.545 241.843,234.559 245.079,258.140 253.268 C 261.202 254.331,261.256 254.218,260.369 248.600 C 259.487 243.017,256.574 222.829,255.996 218.300 C 254.642 207.698,253.595 198.030,252.822 189.000 C 251.348 171.794,250.692 160.329,250.900 155.400 C 251.001 152.980,251.105 146.635,251.130 141.300 C 251.160 134.942,251.318 131.600,251.588 131.600 C 251.815 131.600,252.000 131.780,252.000 132.000 C 252.000 132.220,252.360 132.400,252.800 132.400 C 253.240 132.400,253.600 132.580,253.600 132.800 C 253.600 133.020,253.960 133.200,254.400 133.200 C 254.840 133.200,255.200 133.380,255.200 133.600 C 255.200 133.820,255.436 134.000,255.725 134.000 C 256.013 134.000,256.636 134.360,257.108 134.800 C 257.580 135.240,258.075 135.600,258.207 135.600 C 258.462 135.600,261.166 137.663,262.665 139.000 C 263.829 140.039,264.385 140.479,265.589 141.314 C 266.133 141.691,266.434 142.000,266.258 142.000 C 266.082 142.000,266.473 142.450,267.127 143.000 C 267.781 143.550,268.599 144.000,268.944 144.000 C 269.698 144.000,272.043 146.271,273.050 147.977 C 273.447 148.650,273.914 149.200,274.086 149.200 C 274.259 149.200,274.400 149.388,274.400 149.617 C 274.400 149.846,274.760 150.420,275.200 150.892 C 275.640 151.364,276.224 152.256,276.497 152.875 C 276.771 153.494,277.098 154.000,277.223 154.000 C 277.348 154.000,277.698 154.630,278.000 155.400 C 278.302 156.170,278.696 156.800,278.875 156.800 C 279.054 156.800,279.200 157.160,279.200 157.600 C 279.200 158.040,279.380 158.400,279.600 158.400 C 279.820 158.400,280.000 158.672,280.000 159.005 C 280.000 159.338,280.208 160.013,280.462 160.505 C 281.501 162.515,281.617 162.848,281.400 163.200 C 281.275 163.402,281.353 163.890,281.572 164.284 C 281.792 164.678,282.525 166.710,283.200 168.800 C 283.875 170.890,284.602 172.913,284.814 173.295 C 285.026 173.677,285.200 174.341,285.200 174.771 C 285.200 175.201,285.380 175.664,285.600 175.800 C 285.820 175.936,286.000 176.476,286.000 177.000 C 286.000 177.524,286.180 178.064,286.400 178.200 C 286.620 178.336,286.800 178.876,286.800 179.400 C 286.800 179.924,286.980 180.464,287.200 180.600 C 287.420 180.736,287.600 181.276,287.600 181.800 C 287.600 182.324,287.780 182.864,288.000 183.000 C 288.220 183.136,288.400 183.676,288.400 184.200 C 288.400 184.724,288.580 185.264,288.800 185.400 C 289.020 185.536,289.200 185.997,289.200 186.424 C 289.200 187.147,289.513 187.200,293.800 187.200 C 296.330 187.200,298.509 187.245,298.641 187.300 C 298.774 187.355,299.510 185.780,300.278 183.800 C 301.045 181.820,301.829 179.840,302.020 179.400 C 302.695 177.845,303.998 173.465,303.834 173.301 C 303.743 173.209,303.916 172.542,304.218 171.818 C 304.521 171.094,304.671 170.404,304.552 170.285 C 304.433 170.166,304.532 169.700,304.774 169.249 C 305.703 167.513,306.460 147.900,305.630 147.070 C 305.393 146.833,305.200 145.607,305.200 144.344 C 305.200 143.081,305.020 141.936,304.800 141.800 C 304.212 141.437,304.286 137.200,304.880 137.200 C 305.253 137.200,305.253 137.093,304.880 136.720 C 304.616 136.456,304.400 135.736,304.400 135.120 C 304.400 134.504,304.220 134.000,304.000 134.000 C 303.780 134.000,303.600 133.471,303.600 132.824 C 303.600 132.177,303.420 131.536,303.200 131.400 C 302.980 131.264,302.800 130.713,302.800 130.176 C 302.800 129.639,302.620 129.200,302.400 129.200 C 302.180 129.200,302.000 128.750,302.000 128.200 C 302.000 127.650,301.820 127.200,301.600 127.200 C 301.380 127.200,301.200 126.966,301.200 126.680 C 301.200 125.944,300.259 124.007,299.900 124.003 C 299.735 124.001,299.600 123.640,299.600 123.200 C 299.600 122.760,299.420 122.400,299.200 122.400 C 298.980 122.400,298.800 122.040,298.800 121.600 C 298.800 121.160,298.620 120.800,298.400 120.800 C 298.180 120.800,298.000 120.440,298.000 120.000 C 298.000 119.560,297.820 119.200,297.600 119.200 C 297.380 119.200,297.200 118.840,297.200 118.400 C 297.200 117.960,297.042 117.600,296.849 117.600 C 296.655 117.600,296.273 117.060,296.000 116.400 C 295.727 115.740,295.345 115.200,295.151 115.200 C 294.958 115.200,294.800 114.957,294.800 114.659 C 294.800 114.362,294.260 113.554,293.600 112.863 C 292.940 112.172,292.400 111.426,292.400 111.204 C 292.400 110.982,292.220 110.800,292.000 110.800 C 291.780 110.800,291.600 110.608,291.600 110.373 C 291.600 109.888,289.846 107.462,288.500 106.085 C 288.005 105.578,287.600 104.994,287.600 104.786 C 287.600 104.315,277.719 94.400,277.250 94.400 C 277.062 94.400,276.299 93.863,275.554 93.206 C 274.809 92.550,274.003 92.010,273.762 92.006 C 273.521 92.003,272.998 91.640,272.600 91.200 C 272.202 90.760,271.634 90.400,271.338 90.400 C 271.042 90.400,270.800 90.220,270.800 90.000 C 270.800 89.780,270.429 89.600,269.976 89.600 C 269.523 89.600,269.264 89.420,269.400 89.200 C 269.536 88.980,269.367 88.800,269.024 88.800 C 268.681 88.800,268.400 88.620,268.400 88.400 C 268.400 88.180,268.040 88.000,267.600 88.000 C 267.160 88.000,266.800 87.820,266.800 87.600 C 266.800 87.380,266.440 87.200,266.000 87.200 C 265.560 87.200,265.200 87.020,265.200 86.800 C 265.200 86.580,264.761 86.400,264.224 86.400 C 263.687 86.400,263.136 86.220,263.000 86.000 C 262.864 85.780,262.403 85.600,261.976 85.600 C 261.549 85.600,261.200 85.420,261.200 85.200 C 261.200 84.980,260.851 84.800,260.424 84.800 C 259.997 84.800,259.536 84.620,259.400 84.400 C 259.264 84.180,258.724 84.000,258.200 84.000 C 257.676 84.000,257.136 83.820,257.000 83.600 C 256.864 83.380,256.223 83.200,255.576 83.200 C 254.929 83.200,254.400 83.020,254.400 82.800 C 254.400 82.580,253.680 82.400,252.800 82.400 C 251.920 82.400,251.200 82.237,251.200 82.037 C 251.200 81.193,228.111 80.385,226.775 81.182 M27.522 268.611 C 27.406 268.728,26.521 268.990,25.555 269.193 L 23.800 269.564 25.600 269.358 C 26.590 269.244,29.020 269.014,31.000 268.846 L 34.600 268.540 31.167 268.470 C 29.278 268.432,27.638 268.495,27.522 268.611 " stroke="none" fill="#6db569" fill-rule="evenodd"></path><path id="path1" d="M77.200 137.600 C 77.200 137.822,76.133 138.000,74.800 138.000 C 73.467 138.000,72.400 138.178,72.400 138.400 C 72.400 138.620,71.680 138.800,70.800 138.800 C 69.920 138.800,69.200 138.980,69.200 139.200 C 69.200 139.420,68.581 139.600,67.824 139.600 C 67.067 139.600,66.336 139.780,66.200 140.000 C 66.064 140.220,65.423 140.400,64.776 140.400 C 64.129 140.400,63.600 140.580,63.600 140.800 C 63.600 141.020,63.161 141.200,62.624 141.200 C 62.087 141.200,61.549 141.360,61.428 141.555 C 61.307 141.750,60.577 142.028,59.804 142.173 C 59.032 142.318,58.400 142.619,58.400 142.842 C 58.400 143.065,58.252 143.156,58.071 143.044 C 57.891 142.932,57.240 143.102,56.626 143.420 C 56.011 143.739,55.259 144.000,54.954 144.000 C 54.649 144.000,54.400 144.180,54.400 144.400 C 54.400 144.620,54.040 144.800,53.600 144.800 C 53.160 144.800,52.800 144.980,52.800 145.200 C 52.800 145.420,52.440 145.600,52.000 145.600 C 51.560 145.600,51.200 145.758,51.200 145.951 C 51.200 146.145,50.660 146.527,50.000 146.800 C 49.340 147.073,48.800 147.455,48.800 147.649 C 48.800 147.842,48.480 148.000,48.088 148.000 C 47.697 148.000,47.117 148.360,46.800 148.800 C 46.483 149.240,45.943 149.600,45.600 149.600 C 45.257 149.600,44.717 149.960,44.400 150.400 C 44.083 150.840,43.665 151.200,43.472 151.200 C 43.279 151.200,42.617 151.740,42.000 152.400 C 41.383 153.060,40.678 153.600,40.433 153.600 C 40.187 153.600,38.817 154.725,37.387 156.100 C 30.894 162.346,28.400 164.883,28.400 165.242 C 28.400 165.454,28.034 166.027,27.586 166.514 C 26.703 167.474,25.336 169.549,24.432 171.300 C 24.120 171.905,23.715 172.400,23.532 172.400 C 23.350 172.400,23.200 172.694,23.200 173.053 C 23.200 173.412,22.871 173.997,22.470 174.353 C 22.068 174.709,21.484 175.585,21.172 176.300 C 20.860 177.015,20.469 177.600,20.302 177.600 C 20.136 177.600,20.000 177.960,20.000 178.400 C 20.000 178.840,19.820 179.200,19.600 179.200 C 19.380 179.200,19.200 179.560,19.200 180.000 C 19.200 180.440,19.020 180.800,18.800 180.800 C 18.580 180.800,18.400 181.149,18.400 181.576 C 18.400 182.003,18.220 182.464,18.000 182.600 C 17.780 182.736,17.600 183.287,17.600 183.824 C 17.600 184.361,17.420 184.800,17.200 184.800 C 16.980 184.800,16.800 185.160,16.800 185.600 C 16.800 186.040,16.620 186.400,16.400 186.400 C 16.180 186.400,16.000 186.940,16.000 187.600 C 16.000 188.260,15.820 188.800,15.600 188.800 C 15.380 188.800,15.200 189.329,15.200 189.976 C 15.200 190.623,15.020 191.264,14.800 191.400 C 14.580 191.536,14.400 192.166,14.400 192.800 C 14.400 193.434,14.220 194.064,14.000 194.200 C 13.780 194.336,13.600 195.121,13.600 195.944 C 13.600 196.767,13.437 197.611,13.237 197.820 C 11.937 199.181,11.931 234.000,13.232 234.000 C 13.434 234.000,13.600 234.979,13.600 236.176 C 13.600 237.373,13.780 238.464,14.000 238.600 C 14.220 238.736,14.400 239.647,14.400 240.624 C 14.400 241.601,14.580 242.400,14.800 242.400 C 15.020 242.400,15.200 243.120,15.200 244.000 C 15.200 244.880,15.380 245.600,15.600 245.600 C 15.820 245.600,16.000 246.320,16.000 247.200 C 16.000 248.080,16.180 248.800,16.400 248.800 C 16.620 248.800,16.800 249.329,16.800 249.976 C 16.800 250.623,16.980 251.264,17.200 251.400 C 17.420 251.536,17.600 252.166,17.600 252.800 C 17.600 253.434,17.780 254.064,18.000 254.200 C 18.220 254.336,18.400 254.876,18.400 255.400 C 18.400 255.924,18.580 256.464,18.800 256.600 C 19.020 256.736,19.200 257.287,19.200 257.824 C 19.200 258.361,19.380 258.800,19.600 258.800 C 19.820 258.800,20.000 259.160,20.000 259.600 C 20.000 260.040,20.180 260.400,20.400 260.400 C 20.620 260.400,20.800 260.940,20.800 261.600 C 20.800 262.260,20.980 262.800,21.200 262.800 C 21.420 262.800,21.600 263.149,21.600 263.576 C 21.600 264.003,21.780 264.464,22.000 264.600 C 22.220 264.736,22.400 265.287,22.400 265.824 C 22.400 266.361,22.580 266.800,22.800 266.800 C 23.020 266.800,23.200 267.083,23.200 267.429 C 23.200 268.598,24.326 269.308,25.715 269.013 C 26.422 268.863,28.696 268.645,30.770 268.529 C 34.815 268.303,35.600 267.932,35.600 266.252 C 35.600 265.699,35.780 265.136,36.000 265.000 C 36.220 264.864,36.400 264.234,36.400 263.600 C 36.400 262.966,36.580 262.336,36.800 262.200 C 37.020 262.064,37.200 261.603,37.200 261.176 C 37.200 260.749,37.380 260.400,37.600 260.400 C 37.820 260.400,38.000 259.875,38.000 259.233 C 38.000 258.592,38.139 258.007,38.309 257.933 C 38.734 257.750,41.600 251.694,41.600 250.979 C 41.600 250.660,41.780 250.400,42.000 250.400 C 42.220 250.400,42.400 250.080,42.400 249.688 C 42.400 249.297,42.760 248.717,43.200 248.400 C 43.640 248.083,44.000 247.543,44.000 247.200 C 44.000 246.857,44.360 246.317,44.800 246.000 C 45.240 245.683,45.600 245.196,45.600 244.919 C 45.600 244.461,46.167 243.732,48.600 241.059 C 50.413 239.067,52.248 236.908,52.995 235.887 C 53.432 235.289,53.925 234.800,54.090 234.800 C 54.424 234.800,55.615 233.869,57.032 232.500 C 57.544 232.005,58.112 231.600,58.294 231.600 C 58.475 231.600,58.883 231.240,59.200 230.800 C 59.517 230.360,60.097 230.000,60.488 230.000 C 60.880 230.000,61.200 229.820,61.200 229.600 C 61.200 229.380,61.560 229.200,62.000 229.200 C 62.440 229.200,62.800 229.020,62.800 228.800 C 62.800 228.580,63.160 228.400,63.600 228.400 C 64.040 228.400,64.400 228.220,64.400 228.000 C 64.400 227.780,64.940 227.600,65.600 227.600 C 66.260 227.600,66.800 227.420,66.800 227.200 C 66.800 226.980,67.520 226.800,68.400 226.800 C 69.280 226.800,70.000 226.620,70.000 226.400 C 70.000 226.169,71.256 226.000,72.967 226.000 C 74.966 226.000,75.999 225.837,76.135 225.500 C 76.296 225.100,76.343 225.100,76.368 225.500 C 76.391 225.853,77.284 226.000,79.400 226.000 C 81.133 226.000,82.400 226.169,82.400 226.400 C 82.400 226.620,83.120 226.800,84.000 226.800 C 84.880 226.800,85.600 226.980,85.600 227.200 C 85.600 227.420,86.140 227.600,86.800 227.600 C 87.460 227.600,88.000 227.780,88.000 228.000 C 88.000 228.220,88.360 228.400,88.800 228.400 C 89.240 228.400,89.600 228.580,89.600 228.800 C 89.600 229.020,89.960 229.200,90.400 229.200 C 90.840 229.200,91.200 229.380,91.200 229.600 C 91.200 229.820,91.470 230.000,91.800 230.000 C 92.130 230.000,92.400 230.150,92.400 230.332 C 92.400 230.515,92.886 230.920,93.479 231.232 C 94.538 231.789,98.285 235.070,99.555 236.553 C 99.910 236.967,100.785 237.906,101.500 238.640 C 102.215 239.373,102.800 240.158,102.800 240.383 C 102.800 240.609,103.160 241.018,103.600 241.293 C 104.040 241.568,104.400 242.069,104.400 242.408 C 104.400 242.746,104.760 243.283,105.200 243.600 C 105.640 243.917,106.000 244.457,106.000 244.800 C 106.000 245.143,106.360 245.683,106.800 246.000 C 107.240 246.317,107.600 246.897,107.600 247.288 C 107.600 247.680,107.745 248.000,107.923 248.000 C 108.101 248.000,108.564 248.720,108.952 249.600 C 109.340 250.480,109.825 251.200,110.029 251.200 C 110.233 251.200,110.400 251.436,110.400 251.725 C 110.400 252.013,110.715 252.598,111.100 253.025 C 111.485 253.451,112.055 254.295,112.368 254.900 C 112.680 255.505,113.085 256.000,113.268 256.000 C 113.450 256.000,113.600 256.268,113.600 256.597 C 113.600 256.925,113.960 257.418,114.400 257.693 C 114.840 257.968,115.200 258.469,115.200 258.808 C 115.200 259.146,115.560 259.683,116.000 260.000 C 116.440 260.317,116.800 260.820,116.800 261.117 C 116.800 262.441,117.821 262.787,119.447 262.013 C 120.301 261.607,121.675 260.988,122.500 260.637 C 123.325 260.287,124.630 259.730,125.400 259.400 C 126.170 259.070,127.430 258.530,128.200 258.200 C 128.970 257.870,130.185 257.345,130.900 257.034 C 133.084 256.083,144.753 252.033,149.500 250.578 C 149.887 250.460,150.000 247.418,150.000 237.133 C 150.000 209.275,153.220 186.089,160.350 162.601 C 161.391 159.175,161.453 157.600,160.547 157.600 C 160.188 157.600,159.603 157.284,159.247 156.897 C 158.891 156.511,158.060 155.926,157.400 155.598 C 156.740 155.270,156.110 154.911,156.000 154.801 C 155.606 154.405,153.387 153.146,152.700 152.929 C 152.315 152.807,152.000 152.548,152.000 152.353 C 152.000 152.159,151.640 152.000,151.200 152.000 C 150.760 152.000,150.400 151.820,150.400 151.600 C 150.400 151.380,150.040 151.200,149.600 151.200 C 149.160 151.200,148.800 151.020,148.800 150.800 C 148.800 150.580,148.440 150.400,148.000 150.400 C 147.560 150.400,147.200 150.220,147.200 150.000 C 147.200 149.780,146.840 149.600,146.400 149.600 C 145.960 149.600,145.600 149.420,145.600 149.200 C 145.600 148.980,145.251 148.800,144.824 148.800 C 144.397 148.800,143.936 148.620,143.800 148.400 C 143.664 148.180,143.113 148.000,142.576 148.000 C 142.039 148.000,141.599 147.865,141.597 147.700 C 141.593 147.294,139.614 146.400,138.720 146.400 C 138.324 146.400,138.000 146.220,138.000 146.000 C 138.000 145.780,137.651 145.600,137.224 145.600 C 136.797 145.600,136.336 145.420,136.200 145.200 C 136.064 144.980,135.513 144.800,134.976 144.800 C 134.439 144.800,134.000 144.620,134.000 144.400 C 134.000 144.180,133.460 144.000,132.800 144.000 C 132.140 144.000,131.600 143.820,131.600 143.600 C 131.600 143.380,131.090 143.200,130.467 143.200 C 129.843 143.200,129.210 143.076,129.059 142.925 C 128.660 142.526,123.592 141.250,122.300 141.223 C 121.695 141.210,121.200 141.020,121.200 140.800 C 121.200 140.580,120.390 140.400,119.400 140.400 C 118.410 140.400,117.600 140.220,117.600 140.000 C 117.600 139.780,116.700 139.600,115.600 139.600 C 114.500 139.600,113.600 139.420,113.600 139.200 C 113.600 138.980,112.711 138.800,111.624 138.800 C 110.537 138.800,109.536 138.620,109.400 138.400 C 109.264 138.180,107.914 138.000,106.400 138.000 C 104.886 138.000,103.536 137.820,103.400 137.600 C 103.243 137.347,98.396 137.200,90.176 137.200 C 81.792 137.200,77.200 137.342,77.200 137.600 " stroke="none" fill="#1d549c" fill-rule="evenodd"></path><path id="path2" d="M304.738 137.396 C 304.550 137.583,304.662 138.422,305.698 144.600 C 306.319 148.298,306.302 161.839,305.672 165.393 C 304.790 170.369,303.080 176.923,302.016 179.400 C 301.010 181.744,298.780 187.709,298.882 187.783 C 298.947 187.831,300.170 188.414,301.600 189.079 C 319.208 197.269,314.217 223.889,294.915 224.733 C 275.127 225.598,267.531 200.612,284.340 189.952 C 285.356 189.308,286.865 188.598,287.694 188.375 C 288.658 188.115,289.200 187.733,289.200 187.313 C 289.200 186.574,288.483 184.158,287.951 183.105 C 287.758 182.723,287.600 182.059,287.600 181.629 C 287.600 181.199,287.420 180.736,287.200 180.600 C 286.980 180.464,286.800 179.924,286.800 179.400 C 286.800 178.876,286.620 178.336,286.400 178.200 C 286.180 178.064,286.000 177.524,286.000 177.000 C 286.000 176.476,285.820 175.936,285.600 175.800 C 285.380 175.664,285.200 175.201,285.200 174.771 C 285.200 174.341,285.026 173.677,284.814 173.295 C 284.602 172.913,283.872 170.890,283.192 168.800 C 282.513 166.710,281.805 164.640,281.619 164.200 C 278.378 156.523,276.884 153.778,273.333 148.977 C 270.108 144.617,269.332 143.960,267.533 144.066 C 266.690 144.116,266.000 144.301,266.000 144.478 C 266.000 144.655,265.550 144.800,265.000 144.800 C 264.450 144.800,264.000 144.980,264.000 145.200 C 264.000 145.420,263.550 145.600,263.000 145.600 C 262.450 145.600,262.000 145.780,262.000 146.000 C 262.000 146.220,261.550 146.400,261.000 146.400 C 260.450 146.400,260.000 146.580,260.000 146.800 C 260.000 147.020,259.640 147.200,259.200 147.200 C 258.760 147.200,258.400 147.380,258.400 147.600 C 258.400 147.820,257.961 148.000,257.424 148.000 C 256.887 148.000,256.336 148.180,256.200 148.400 C 256.064 148.620,255.603 148.800,255.176 148.800 C 254.749 148.800,254.400 148.980,254.400 149.200 C 254.400 149.420,254.029 149.600,253.576 149.600 C 253.123 149.600,252.864 149.780,253.000 150.000 C 253.136 150.220,252.979 150.400,252.652 150.400 C 250.712 150.400,250.268 155.502,251.180 167.292 C 251.388 169.992,251.757 175.080,251.998 178.600 C 253.282 197.303,255.479 216.283,259.219 241.000 C 260.085 246.720,260.860 252.028,260.942 252.795 C 261.085 254.139,261.213 254.239,264.445 255.513 C 270.866 258.044,280.605 262.041,281.337 262.445 C 282.106 262.871,283.160 261.991,283.187 260.900 C 283.194 260.625,283.350 260.400,283.532 260.400 C 283.715 260.400,284.120 259.905,284.432 259.300 C 284.745 258.695,285.315 257.965,285.700 257.677 C 286.085 257.390,286.400 256.895,286.400 256.577 C 286.400 256.260,286.550 256.000,286.732 256.000 C 286.915 256.000,287.318 255.505,287.627 254.900 C 288.307 253.569,289.601 251.635,290.347 250.835 C 290.648 250.512,291.071 249.743,291.286 249.124 C 291.502 248.506,291.841 248.000,292.039 248.000 C 292.238 248.000,292.400 247.680,292.400 247.288 C 292.400 246.897,292.760 246.317,293.200 246.000 C 293.640 245.683,294.000 245.143,294.000 244.800 C 294.000 244.457,294.360 243.917,294.800 243.600 C 295.240 243.283,295.600 242.746,295.600 242.408 C 295.600 242.069,295.960 241.568,296.400 241.293 C 296.840 241.018,297.200 240.604,297.200 240.373 C 297.200 239.693,302.611 234.000,303.258 234.000 C 303.472 234.000,303.536 233.820,303.400 233.600 C 303.264 233.380,303.367 233.200,303.629 233.200 C 303.892 233.200,304.397 232.884,304.753 232.497 C 305.109 232.111,305.889 231.544,306.486 231.237 C 307.084 230.930,307.478 230.527,307.363 230.340 C 307.247 230.153,307.523 230.000,307.976 230.000 C 308.429 230.000,308.800 229.820,308.800 229.600 C 308.800 229.380,309.160 229.200,309.600 229.200 C 310.040 229.200,310.400 229.020,310.400 228.800 C 310.400 228.580,310.760 228.400,311.200 228.400 C 311.640 228.400,312.000 228.220,312.000 228.000 C 312.000 227.780,312.540 227.600,313.200 227.600 C 313.860 227.600,314.400 227.420,314.400 227.200 C 314.400 226.980,315.120 226.800,316.000 226.800 C 316.880 226.800,317.600 226.620,317.600 226.400 C 317.600 226.169,318.856 226.000,320.567 226.000 C 322.566 226.000,323.599 225.837,323.735 225.500 C 323.896 225.100,323.943 225.100,323.968 225.500 C 323.991 225.856,324.928 226.000,327.224 226.000 C 329.271 226.000,330.357 226.146,330.200 226.400 C 330.051 226.642,330.596 226.800,331.576 226.800 C 332.469 226.800,333.200 226.980,333.200 227.200 C 333.200 227.420,333.740 227.600,334.400 227.600 C 335.060 227.600,335.600 227.780,335.600 228.000 C 335.600 228.220,335.960 228.400,336.400 228.400 C 336.840 228.400,337.200 228.580,337.200 228.800 C 337.200 229.020,337.560 229.200,338.000 229.200 C 338.440 229.200,338.800 229.380,338.800 229.600 C 338.800 229.820,339.160 230.000,339.600 230.000 C 340.040 230.000,340.400 230.136,340.400 230.302 C 340.400 230.469,340.950 230.848,341.623 231.146 C 342.296 231.444,342.751 231.782,342.636 231.897 C 342.520 232.013,343.275 232.746,344.313 233.526 C 345.351 234.307,346.560 235.379,347.000 235.909 C 347.440 236.438,348.385 237.531,349.100 238.336 C 349.815 239.141,350.400 239.946,350.400 240.124 C 350.400 240.302,350.580 240.336,350.800 240.200 C 351.020 240.064,351.200 240.244,351.200 240.600 C 351.200 240.956,351.380 241.136,351.600 241.000 C 351.820 240.864,352.000 241.007,352.000 241.317 C 352.000 241.627,352.540 242.446,353.200 243.137 C 353.860 243.828,354.400 244.625,354.400 244.908 C 354.400 245.191,354.760 245.683,355.200 246.000 C 355.640 246.317,356.000 246.857,356.000 247.200 C 356.000 247.543,356.360 248.083,356.800 248.400 C 357.240 248.717,357.600 249.297,357.600 249.688 C 357.600 250.080,357.759 250.400,357.953 250.400 C 358.260 250.400,358.547 251.007,358.995 252.600 C 359.275 253.598,361.401 257.814,361.684 257.933 C 361.858 258.007,362.000 258.592,362.000 259.233 C 362.000 259.875,362.180 260.400,362.400 260.400 C 362.620 260.400,362.800 260.749,362.800 261.176 C 362.800 261.603,362.980 262.064,363.200 262.200 C 363.420 262.336,363.600 262.887,363.600 263.424 C 363.600 263.961,363.743 264.400,363.918 264.400 C 364.093 264.400,364.280 265.050,364.334 265.844 C 364.471 267.885,365.162 268.400,367.764 268.400 C 368.986 268.400,371.228 268.613,372.747 268.874 C 375.795 269.396,376.800 268.982,376.800 267.205 C 376.800 266.736,376.980 266.464,377.200 266.600 C 377.426 266.740,377.600 266.412,377.600 265.847 C 377.600 265.297,377.780 264.736,378.000 264.600 C 378.220 264.464,378.400 264.003,378.400 263.576 C 378.400 263.149,378.580 262.800,378.800 262.800 C 379.020 262.800,379.200 262.260,379.200 261.600 C 379.200 260.940,379.380 260.400,379.600 260.400 C 379.820 260.400,380.000 260.040,380.000 259.600 C 380.000 259.160,380.191 258.800,380.424 258.800 C 380.657 258.800,380.756 258.652,380.644 258.471 C 380.532 258.291,380.702 257.640,381.020 257.026 C 381.339 256.411,381.600 255.580,381.600 255.178 C 381.600 254.776,381.780 254.336,382.000 254.200 C 382.220 254.064,382.400 253.333,382.400 252.576 C 382.400 251.819,382.580 251.200,382.800 251.200 C 383.020 251.200,383.200 250.660,383.200 250.000 C 383.200 249.340,383.380 248.800,383.600 248.800 C 383.820 248.800,384.000 248.091,384.000 247.224 C 384.000 246.357,384.180 245.536,384.400 245.400 C 384.620 245.264,384.800 244.533,384.800 243.776 C 384.800 243.019,384.980 242.400,385.200 242.400 C 385.420 242.400,385.600 241.601,385.600 240.624 C 385.600 239.647,385.780 238.736,386.000 238.600 C 386.220 238.464,386.400 237.319,386.400 236.056 C 386.400 234.793,386.570 233.589,386.777 233.380 C 386.984 233.171,387.193 231.785,387.240 230.300 C 387.287 228.815,387.468 227.600,387.642 227.600 C 387.815 227.600,387.971 222.020,387.989 215.200 C 388.006 208.380,387.866 202.800,387.679 202.800 C 387.491 202.800,387.296 201.765,387.245 200.500 C 387.195 199.235,386.984 198.029,386.777 197.820 C 386.570 197.611,386.400 196.767,386.400 195.944 C 386.400 195.121,386.220 194.336,386.000 194.200 C 385.780 194.064,385.600 193.513,385.600 192.976 C 385.600 192.439,385.459 192.000,385.287 192.000 C 385.015 192.000,384.807 191.047,384.698 189.300 C 384.681 189.025,384.517 188.800,384.333 188.800 C 384.150 188.800,384.000 188.350,384.000 187.800 C 384.000 187.250,383.820 186.800,383.600 186.800 C 383.380 186.800,383.200 186.350,383.200 185.800 C 383.200 185.250,383.020 184.800,382.800 184.800 C 382.580 184.800,382.400 184.361,382.400 183.824 C 382.400 183.287,382.220 182.736,382.000 182.600 C 381.780 182.464,381.600 181.993,381.600 181.553 C 381.600 181.113,381.420 180.864,381.200 181.000 C 380.973 181.140,380.800 180.804,380.800 180.224 C 380.800 179.661,380.620 179.200,380.400 179.200 C 380.180 179.200,380.000 178.829,380.000 178.376 C 380.000 177.923,379.820 177.664,379.600 177.800 C 379.380 177.936,379.200 177.699,379.200 177.273 C 379.200 176.847,378.932 176.276,378.604 176.004 C 378.277 175.732,378.087 175.383,378.183 175.228 C 378.279 175.073,378.007 174.693,377.579 174.385 C 377.150 174.076,376.800 173.503,376.800 173.112 C 376.800 172.720,376.650 172.400,376.468 172.400 C 376.285 172.400,375.884 171.905,375.578 171.300 C 375.271 170.695,374.611 169.691,374.110 169.069 C 373.610 168.447,373.200 167.753,373.200 167.527 C 373.200 167.300,372.748 166.760,372.196 166.326 C 371.644 165.891,371.296 165.369,371.422 165.165 C 371.548 164.961,371.370 164.687,371.028 164.555 C 370.685 164.424,370.463 164.200,370.534 164.058 C 370.605 163.916,369.524 162.690,368.132 161.334 C 366.739 159.978,365.600 158.952,365.600 159.054 C 365.600 159.156,364.349 157.970,362.819 156.420 C 361.290 154.869,359.832 153.600,359.580 153.600 C 359.327 153.600,358.617 153.060,358.000 152.400 C 357.383 151.740,356.683 151.200,356.443 151.200 C 356.203 151.200,355.782 150.840,355.507 150.400 C 355.232 149.960,354.731 149.600,354.392 149.600 C 354.054 149.600,353.517 149.240,353.200 148.800 C 352.883 148.360,352.386 148.000,352.095 148.000 C 351.804 148.000,351.180 147.640,350.708 147.200 C 350.236 146.760,349.613 146.400,349.325 146.400 C 349.036 146.400,348.800 146.209,348.800 145.976 C 348.800 145.743,348.635 145.655,348.432 145.780 C 348.230 145.905,347.821 145.781,347.523 145.504 C 347.225 145.227,346.717 144.941,346.394 144.868 C 346.072 144.795,345.674 144.525,345.510 144.268 C 345.346 144.011,345.209 143.945,345.206 144.123 C 345.203 144.300,344.705 144.181,344.100 143.858 C 342.414 142.959,340.393 142.160,338.300 141.565 C 337.255 141.268,336.400 140.885,336.400 140.713 C 336.400 140.541,335.871 140.400,335.224 140.400 C 334.577 140.400,333.936 140.220,333.800 140.000 C 333.664 139.780,332.944 139.600,332.200 139.600 C 331.456 139.600,330.736 139.420,330.600 139.200 C 330.464 138.980,329.733 138.800,328.976 138.800 C 328.219 138.800,327.600 138.620,327.600 138.400 C 327.600 138.178,326.533 138.000,325.200 138.000 C 323.867 138.000,322.800 137.822,322.800 137.600 C 322.800 137.197,305.136 136.997,304.738 137.396 " stroke="none" fill="#d93d47" fill-rule="evenodd"></path><path id="path3" d="M304.460 139.676 C 304.427 140.708,304.580 141.664,304.800 141.800 C 305.020 141.936,305.200 143.106,305.200 144.400 C 305.200 145.694,305.372 146.859,305.583 146.989 C 306.023 147.261,305.764 143.765,305.184 141.600 C 304.977 140.830,304.743 139.660,304.664 139.000 C 304.571 138.223,304.499 138.461,304.460 139.676 M271.821 147.000 C 273.539 149.096,274.063 149.381,272.740 147.500 C 271.655 145.957,270.952 145.200,270.602 145.200 C 270.461 145.200,271.010 146.010,271.821 147.000 M306.167 155.000 C 306.167 159.180,306.226 160.836,306.298 158.679 C 306.371 156.523,306.370 153.103,306.298 151.079 C 306.225 149.056,306.166 150.820,306.167 155.000 M274.789 150.987 C 276.050 152.506,278.205 156.479,280.609 161.714 C 280.992 162.547,281.384 163.150,281.480 163.053 C 281.577 162.957,281.435 162.455,281.165 161.939 C 280.179 160.050,280.000 159.599,280.000 159.005 C 280.000 158.672,279.820 158.400,279.600 158.400 C 279.380 158.400,279.200 158.040,279.200 157.600 C 279.200 157.160,279.054 156.800,278.875 156.800 C 278.696 156.800,278.302 156.170,278.000 155.400 C 277.698 154.630,277.304 154.000,277.125 154.000 C 276.946 154.000,276.800 153.817,276.800 153.594 C 276.800 152.997,275.058 150.411,274.651 150.405 C 274.459 150.402,274.521 150.664,274.789 150.987 M289.200 187.585 C 289.200 187.796,288.522 188.152,287.694 188.375 C 279.065 190.698,273.240 201.997,275.798 211.449 C 279.437 224.890,296.975 229.408,306.917 219.465 C 318.887 207.495,310.453 187.217,293.500 187.203 C 291.013 187.201,289.200 187.362,289.200 187.585 M189.600 244.029 C 179.568 244.659,170.703 245.936,159.000 248.437 C 156.110 249.054,151.433 250.310,149.600 250.961 C 148.610 251.313,145.550 252.329,142.800 253.219 C 140.050 254.110,137.440 254.992,137.000 255.181 C 136.560 255.369,134.670 256.112,132.800 256.830 C 130.930 257.549,128.500 258.535,127.400 259.022 C 124.389 260.355,119.891 262.257,119.100 262.532 C 118.442 262.760,118.400 264.478,118.400 290.987 L 118.400 319.200 119.776 319.200 C 120.533 319.200,121.264 319.020,121.400 318.800 C 121.536 318.580,121.997 318.400,122.424 318.400 C 122.851 318.400,123.201 318.265,123.203 318.100 C 123.207 317.694,125.186 316.800,126.080 316.800 C 126.476 316.800,126.800 316.620,126.800 316.400 C 126.800 316.180,127.160 316.000,127.600 316.000 C 128.040 316.000,128.400 315.820,128.400 315.600 C 128.400 315.380,128.760 315.200,129.200 315.200 C 129.640 315.200,130.000 315.020,130.000 314.800 C 130.000 314.580,130.540 314.400,131.200 314.400 C 131.860 314.400,132.400 314.220,132.400 314.000 C 132.400 313.780,132.760 313.600,133.200 313.600 C 133.640 313.600,134.000 313.420,134.000 313.200 C 134.000 312.980,134.540 312.800,135.200 312.800 C 135.860 312.800,136.400 312.620,136.400 312.400 C 136.400 312.180,136.762 312.000,137.205 312.000 C 137.648 312.000,138.368 311.820,138.805 311.600 C 139.242 311.380,139.958 311.020,140.395 310.800 C 140.832 310.580,141.462 310.400,141.795 310.400 C 142.128 310.400,142.400 310.220,142.400 310.000 C 142.400 309.780,143.019 309.600,143.776 309.600 C 144.533 309.600,145.252 309.440,145.373 309.244 C 145.494 309.049,146.179 308.789,146.896 308.668 C 148.317 308.427,152.067 307.508,154.600 306.779 C 155.480 306.525,156.876 306.228,157.703 306.117 C 158.529 306.006,159.305 305.755,159.426 305.558 C 159.548 305.361,160.357 305.200,161.224 305.200 C 162.091 305.200,162.800 305.037,162.800 304.837 C 162.800 304.637,163.790 304.367,165.000 304.237 C 166.210 304.107,168.190 303.893,169.400 303.763 C 170.610 303.633,171.600 303.363,171.600 303.163 C 171.600 302.963,172.669 302.800,173.976 302.800 C 175.283 302.800,176.464 302.620,176.600 302.400 C 176.736 302.180,178.356 302.000,180.200 302.000 C 182.044 302.000,183.664 301.820,183.800 301.600 C 183.950 301.357,186.863 301.200,191.200 301.200 C 195.537 301.200,198.450 301.043,198.600 300.800 C 198.736 300.580,199.366 300.400,200.000 300.400 C 200.634 300.400,201.264 300.580,201.400 300.800 C 201.550 301.043,204.463 301.200,208.800 301.200 C 213.137 301.200,216.050 301.357,216.200 301.600 C 216.336 301.820,217.967 302.000,219.824 302.000 C 221.808 302.000,223.200 302.165,223.200 302.400 C 223.200 302.624,224.307 302.800,225.720 302.800 C 227.106 302.800,228.411 302.963,228.620 303.161 C 228.983 303.506,230.477 303.757,235.100 304.250 C 236.255 304.373,237.200 304.619,237.200 304.797 C 237.200 304.974,237.965 305.211,238.900 305.324 C 240.551 305.523,242.095 305.872,245.400 306.793 C 249.081 307.819,251.903 308.473,253.500 308.671 C 254.435 308.786,255.200 309.042,255.200 309.240 C 255.200 309.438,255.740 309.600,256.400 309.600 C 257.060 309.600,257.600 309.780,257.600 310.000 C 257.600 310.220,258.050 310.400,258.600 310.400 C 259.150 310.400,259.600 310.580,259.600 310.800 C 259.600 311.020,259.949 311.200,260.376 311.200 C 260.803 311.200,261.264 311.380,261.400 311.600 C 261.536 311.820,262.087 312.000,262.624 312.000 C 263.161 312.000,263.600 312.180,263.600 312.400 C 263.600 312.620,264.039 312.800,264.576 312.800 C 265.113 312.800,265.664 312.980,265.800 313.200 C 265.936 313.420,266.397 313.600,266.824 313.600 C 267.251 313.600,267.600 313.780,267.600 314.000 C 267.600 314.220,268.039 314.400,268.576 314.400 C 269.113 314.400,269.664 314.580,269.800 314.800 C 269.936 315.020,270.397 315.200,270.824 315.200 C 271.251 315.200,271.600 315.380,271.600 315.600 C 271.600 315.820,271.960 316.000,272.400 316.000 C 272.840 316.000,273.200 316.180,273.200 316.400 C 273.200 316.620,273.542 316.800,273.959 316.800 C 274.377 316.800,275.745 317.340,277.000 318.000 C 278.255 318.660,279.804 319.200,280.443 319.200 L 281.605 319.200 281.503 290.796 L 281.400 262.391 276.000 260.175 C 264.185 255.325,260.181 253.825,254.000 251.931 C 232.930 245.474,210.471 242.718,189.600 244.029 M30.800 268.883 C 28.710 269.071,26.145 269.263,25.100 269.310 C 24.055 269.356,23.200 269.530,23.200 269.697 C 23.200 269.864,22.840 270.000,22.400 270.000 C 21.960 270.000,21.600 270.180,21.600 270.400 C 21.600 270.620,21.327 270.800,20.994 270.800 C 19.318 270.800,12.800 278.766,12.800 280.814 C 12.800 281.220,12.620 281.664,12.400 281.800 C 11.862 282.132,11.862 293.200,12.400 293.200 C 12.620 293.200,12.800 293.740,12.800 294.400 C 12.800 295.060,12.938 295.600,13.106 295.600 C 13.274 295.600,13.720 296.313,14.098 297.185 C 14.857 298.937,19.467 303.777,20.771 304.191 C 21.227 304.336,21.600 304.622,21.600 304.827 C 21.600 305.032,21.960 305.200,22.400 305.200 C 22.840 305.200,23.200 305.380,23.200 305.600 C 23.200 305.820,23.729 306.000,24.376 306.000 C 25.023 306.000,25.664 306.180,25.800 306.400 C 25.945 306.634,28.263 306.800,31.400 306.800 C 34.537 306.800,36.855 306.634,37.000 306.400 C 37.136 306.180,37.561 306.000,37.944 306.000 C 38.819 306.000,40.793 305.101,40.797 304.700 C 40.799 304.535,41.061 304.400,41.381 304.400 C 42.137 304.400,48.000 298.537,48.000 297.781 C 48.000 297.461,48.180 297.200,48.400 297.200 C 48.620 297.200,48.800 296.840,48.800 296.400 C 48.800 295.960,48.980 295.600,49.200 295.600 C 49.420 295.600,49.600 295.060,49.600 294.400 C 49.600 293.740,49.780 293.200,50.000 293.200 C 50.248 293.200,50.400 291.000,50.400 287.400 C 50.400 283.800,50.248 281.600,50.000 281.600 C 49.780 281.600,49.600 281.060,49.600 280.400 C 49.600 279.740,49.420 279.200,49.200 279.200 C 48.980 279.200,48.800 278.840,48.800 278.400 C 48.800 277.960,48.620 277.600,48.400 277.600 C 48.180 277.600,48.000 277.403,48.000 277.161 C 48.000 276.457,42.244 270.975,40.861 270.363 C 40.168 270.056,39.600 269.669,39.600 269.502 C 39.600 269.336,39.060 269.200,38.400 269.200 C 37.740 269.200,37.200 269.020,37.200 268.800 C 37.200 268.362,36.469 268.372,30.800 268.883 M362.800 268.752 C 362.800 268.998,362.260 269.200,361.600 269.200 C 360.940 269.200,360.400 269.336,360.400 269.502 C 360.400 269.669,359.832 270.056,359.139 270.363 C 357.756 270.975,352.000 276.457,352.000 277.161 C 352.000 277.403,351.820 277.600,351.600 277.600 C 351.380 277.600,351.200 277.960,351.200 278.400 C 351.200 278.840,351.020 279.200,350.800 279.200 C 350.580 279.200,350.400 279.740,350.400 280.400 C 350.400 281.060,350.220 281.600,350.000 281.600 C 349.752 281.600,349.600 283.800,349.600 287.400 C 349.600 291.000,349.752 293.200,350.000 293.200 C 350.220 293.200,350.400 293.740,350.400 294.400 C 350.400 295.060,350.580 295.600,350.800 295.600 C 351.020 295.600,351.200 295.960,351.200 296.400 C 351.200 296.840,351.380 297.200,351.600 297.200 C 351.820 297.200,352.000 297.464,352.000 297.786 C 352.000 298.392,357.427 304.000,358.013 304.000 C 358.194 304.000,358.588 304.225,358.887 304.500 C 359.808 305.347,361.151 306.000,361.971 306.000 C 362.401 306.000,362.864 306.180,363.000 306.400 C 363.145 306.634,365.463 306.800,368.600 306.800 C 371.737 306.800,374.055 306.634,374.200 306.400 C 374.336 306.180,374.876 306.000,375.400 306.000 C 375.924 306.000,376.464 305.820,376.600 305.600 C 376.736 305.380,377.197 305.200,377.624 305.200 C 378.051 305.200,378.400 305.020,378.400 304.800 C 378.400 304.580,378.661 304.400,378.981 304.400 C 379.737 304.400,385.600 298.537,385.600 297.781 C 385.600 297.461,385.780 297.200,386.000 297.200 C 386.220 297.200,386.400 296.840,386.400 296.400 C 386.400 295.960,386.580 295.600,386.800 295.600 C 387.020 295.600,387.200 295.060,387.200 294.400 C 387.200 293.740,387.380 293.200,387.600 293.200 C 387.848 293.200,388.000 291.075,388.000 287.624 C 388.000 284.337,387.836 281.946,387.600 281.800 C 387.380 281.664,387.200 281.220,387.200 280.814 C 387.200 278.807,380.666 270.800,379.027 270.800 C 378.682 270.800,378.400 270.620,378.400 270.400 C 378.400 270.180,378.040 270.000,377.600 270.000 C 377.160 270.000,376.800 269.837,376.800 269.639 C 376.800 269.202,374.223 268.896,367.700 268.557 C 364.197 268.376,362.800 268.431,362.800 268.752 " stroke="none" fill="#f9cb6e" fill-rule="evenodd"></path></g></svg>