<svg id="svg" version="1.1" xmlns="http://www.w3.org/2000/svg" xmlns:xlink="http://www.w3.org/1999/xlink" width="400" height="400" viewBox="0, 0, 400,400"><g id="svgg"><path id="path0" d="M117.102 134.166 C 117.034 198.233,117.134 230.228,117.400 230.020 C 117.837 229.678,117.761 229.698,125.400 228.000 C 126.390 227.780,128.055 227.401,129.100 227.158 C 136.269 225.491,140.430 226.854,141.616 231.258 C 142.598 234.906,140.270 239.368,136.971 240.161 C 135.872 240.426,135.104 240.599,130.600 241.600 C 129.610 241.820,128.035 242.172,127.100 242.383 C 126.165 242.593,124.500 242.952,123.400 243.180 C 122.300 243.408,120.590 243.768,119.600 243.980 C 118.610 244.192,117.665 244.373,117.500 244.383 C 117.112 244.405,117.118 321.265,117.506 321.819 C 117.668 322.050,118.250 322.230,118.800 322.219 C 119.350 322.209,119.899 322.332,120.020 322.494 C 120.140 322.655,121.016 322.885,121.965 323.004 C 122.915 323.123,124.018 323.396,124.417 323.609 C 124.816 323.822,125.425 323.889,125.771 323.756 C 126.117 323.623,126.400 323.675,126.400 323.872 C 126.400 324.069,126.982 324.274,127.693 324.328 C 128.405 324.383,129.161 324.601,129.373 324.813 C 129.586 325.026,130.343 325.200,131.056 325.200 C 131.769 325.200,132.452 325.361,132.574 325.558 C 132.695 325.755,133.516 326.025,134.397 326.158 C 135.279 326.291,136.721 326.509,137.603 326.642 C 138.484 326.775,139.305 327.045,139.426 327.242 C 140.066 328.277,143.410 327.027,145.444 324.992 C 145.990 324.447,146.600 324.000,146.800 324.000 C 147.000 324.000,147.622 323.542,148.182 322.982 C 148.742 322.422,149.203 322.107,149.206 322.282 C 149.209 322.457,149.344 322.418,149.506 322.196 C 149.668 321.974,150.461 321.350,151.270 320.809 C 152.078 320.268,152.653 319.685,152.546 319.513 C 152.440 319.341,152.555 319.200,152.803 319.200 C 153.051 319.200,153.871 318.729,154.627 318.153 C 155.382 317.576,156.003 317.261,156.006 317.453 C 156.009 317.644,156.184 317.530,156.394 317.200 C 156.717 316.692,156.907 316.682,157.630 317.130 C 158.338 317.569,158.432 317.569,158.177 317.130 C 158.009 316.838,158.344 317.031,158.923 317.558 C 159.502 318.085,159.891 318.653,159.787 318.821 C 159.683 318.989,160.215 320.566,160.969 322.327 C 161.722 324.087,162.233 325.634,162.103 325.764 C 161.973 325.894,162.044 326.000,162.261 326.000 C 162.478 326.000,162.900 326.900,163.200 328.000 C 163.500 329.100,163.892 330.000,164.072 330.000 C 164.253 330.000,164.400 330.360,164.400 330.800 C 164.400 331.240,164.536 331.600,164.702 331.600 C 164.869 331.600,165.231 332.112,165.508 332.738 C 166.001 333.850,166.789 334.234,170.600 335.218 C 171.260 335.388,172.443 335.724,173.228 335.964 C 174.014 336.204,175.038 336.400,175.505 336.400 C 175.971 336.400,176.464 336.580,176.600 336.800 C 176.736 337.020,177.456 337.200,178.200 337.200 C 178.944 337.200,179.664 337.380,179.800 337.600 C 179.936 337.820,180.637 338.000,181.357 338.000 C 182.077 338.000,182.791 338.125,182.944 338.277 C 183.096 338.429,183.531 338.602,183.910 338.662 C 184.290 338.721,184.960 338.827,185.400 338.896 C 185.840 338.966,186.380 339.129,186.600 339.259 C 186.947 339.464,188.864 339.918,190.800 340.254 C 191.130 340.311,192.110 340.537,192.978 340.755 C 193.846 340.973,194.701 341.061,194.878 340.952 C 195.055 340.842,195.200 340.943,195.200 341.176 C 195.200 341.409,195.819 341.600,196.576 341.600 C 197.333 341.600,198.064 341.780,198.200 342.000 C 198.336 342.220,199.056 342.400,199.800 342.400 C 200.544 342.400,201.264 342.580,201.400 342.800 C 201.536 343.020,202.267 343.200,203.024 343.200 C 203.781 343.200,204.400 343.380,204.400 343.600 C 204.400 343.820,205.120 344.000,206.000 344.000 C 206.880 344.000,207.600 344.180,207.600 344.400 C 207.600 344.620,207.735 344.779,207.900 344.753 C 208.932 344.590,211.214 344.854,211.051 345.117 C 210.944 345.291,211.428 345.477,212.128 345.529 C 213.461 345.629,215.714 346.253,216.895 346.849 C 217.277 347.042,218.121 347.200,218.771 347.200 C 219.421 347.200,220.064 347.380,220.200 347.600 C 220.336 347.820,221.056 348.000,221.800 348.000 C 222.544 348.000,223.264 348.180,223.400 348.400 C 223.536 348.620,224.357 348.800,225.224 348.800 C 226.091 348.800,226.800 348.961,226.800 349.158 C 226.800 349.355,227.520 349.625,228.400 349.758 C 229.280 349.891,230.720 350.109,231.600 350.242 C 232.480 350.375,233.200 350.645,233.200 350.842 C 233.200 351.039,233.662 351.200,234.226 351.200 C 234.791 351.200,235.575 351.373,235.969 351.584 C 236.364 351.795,237.342 352.011,238.143 352.065 C 238.944 352.119,239.600 352.287,239.600 352.438 C 239.600 352.692,240.130 352.810,244.000 353.417 C 244.770 353.538,245.460 353.809,245.533 354.019 C 245.607 354.228,246.372 354.400,247.233 354.400 C 248.095 354.400,248.800 354.591,248.800 354.824 C 248.800 355.057,248.954 355.152,249.143 355.035 C 249.332 354.919,250.097 355.013,250.843 355.246 C 251.589 355.479,252.560 355.738,253.000 355.822 C 254.163 356.043,254.920 356.247,255.600 356.521 C 255.930 356.653,256.740 356.860,257.400 356.980 C 260.844 357.604,263.072 358.122,263.695 358.442 C 264.077 358.639,264.921 358.800,265.571 358.800 C 266.221 358.800,266.849 358.956,266.967 359.147 C 267.163 359.463,268.078 359.650,272.500 360.273 C 273.325 360.389,274.000 360.645,274.000 360.842 C 274.000 361.039,274.540 361.200,275.200 361.200 C 275.860 361.200,276.400 361.380,276.400 361.600 C 276.400 361.820,277.109 362.000,277.976 362.000 C 278.843 362.000,279.664 362.180,279.800 362.400 C 279.936 362.620,280.667 362.800,281.424 362.800 L 282.800 362.800 282.800 220.800 C 282.800 107.483,282.699 78.794,282.300 78.770 C 281.072 78.697,279.821 78.349,279.334 77.945 C 279.042 77.703,278.452 77.598,278.021 77.710 C 277.590 77.823,276.921 77.684,276.535 77.402 C 276.149 77.120,275.615 76.973,275.348 77.075 C 275.081 77.178,274.483 77.059,274.019 76.810 C 273.187 76.365,272.037 76.109,269.100 75.717 C 268.275 75.606,267.600 75.355,267.600 75.158 C 267.600 74.961,266.891 74.800,266.024 74.800 C 265.157 74.800,264.336 74.620,264.200 74.400 C 264.064 74.180,263.333 74.000,262.576 74.000 C 261.819 74.000,261.200 73.820,261.200 73.600 C 261.200 73.380,260.480 73.200,259.600 73.200 C 258.720 73.200,258.000 73.058,258.000 72.885 C 258.000 72.712,257.418 72.526,256.707 72.472 C 255.995 72.417,255.239 72.199,255.027 71.987 C 254.814 71.774,253.945 71.600,253.096 71.600 C 252.169 71.600,251.652 71.440,251.800 71.200 C 251.951 70.955,251.330 70.800,250.200 70.800 C 249.070 70.800,248.449 70.645,248.600 70.400 C 248.749 70.158,248.204 70.000,247.224 70.000 C 246.331 70.000,245.600 69.820,245.600 69.600 C 245.600 69.380,244.880 69.200,244.000 69.200 C 243.120 69.200,242.400 69.020,242.400 68.800 C 242.400 68.580,241.691 68.400,240.824 68.400 C 239.957 68.400,239.136 68.220,239.000 68.000 C 238.864 67.780,238.234 67.600,237.600 67.600 C 236.966 67.600,236.336 67.420,236.200 67.200 C 236.064 66.980,235.344 66.800,234.600 66.800 C 233.856 66.800,233.136 66.620,233.000 66.400 C 232.150 65.024,226.800 67.445,226.800 69.205 C 226.800 69.422,226.632 69.600,226.427 69.600 C 226.222 69.600,225.952 69.920,225.828 70.311 C 225.704 70.702,224.706 71.962,223.610 73.111 C 222.514 74.260,221.738 75.200,221.884 75.200 C 222.031 75.200,221.802 75.525,221.375 75.923 C 220.949 76.321,219.970 77.424,219.200 78.375 C 217.050 81.029,216.339 81.600,215.187 81.600 C 213.787 81.600,212.000 79.373,212.000 77.629 C 212.000 77.199,211.820 76.736,211.600 76.600 C 211.380 76.464,211.200 75.834,211.200 75.200 C 211.200 74.566,211.020 73.936,210.800 73.800 C 210.580 73.664,210.400 72.923,210.400 72.153 C 210.400 71.321,210.238 70.853,210.000 71.000 C 209.762 71.147,209.600 70.679,209.600 69.847 C 209.600 69.077,209.420 68.336,209.200 68.200 C 208.980 68.064,208.800 67.333,208.800 66.576 C 208.800 65.819,208.620 65.200,208.400 65.200 C 208.180 65.200,208.000 64.906,208.000 64.546 C 208.000 61.082,204.585 58.427,200.100 58.406 C 199.385 58.403,198.800 58.220,198.800 58.000 C 198.800 57.780,198.091 57.600,197.224 57.600 C 196.357 57.600,195.536 57.420,195.400 57.200 C 195.264 56.980,194.533 56.800,193.776 56.800 C 193.019 56.800,192.400 56.620,192.400 56.400 C 192.400 56.180,191.680 56.000,190.800 56.000 C 189.920 56.000,189.200 55.820,189.200 55.600 C 189.200 55.380,188.581 55.200,187.824 55.200 C 187.067 55.200,186.336 55.020,186.200 54.800 C 186.064 54.580,185.233 54.400,184.353 54.400 C 183.473 54.400,182.842 54.256,182.951 54.080 C 183.059 53.904,182.485 53.716,181.674 53.663 C 180.863 53.609,180.140 53.393,180.067 53.182 C 179.993 52.972,179.228 52.800,178.367 52.800 C 177.505 52.800,176.800 52.620,176.800 52.400 C 176.800 52.180,176.080 52.000,175.200 52.000 C 174.320 52.000,173.600 51.820,173.600 51.600 C 173.600 51.380,172.891 51.200,172.024 51.200 C 171.157 51.200,170.336 51.020,170.200 50.800 C 170.064 50.580,169.344 50.400,168.600 50.400 C 167.856 50.400,167.148 50.240,167.027 50.044 C 166.906 49.849,166.131 49.573,165.304 49.433 C 161.651 48.811,161.200 48.693,161.200 48.356 C 161.200 48.160,160.480 48.000,159.600 48.000 C 158.720 48.000,158.000 47.820,158.000 47.600 C 158.000 47.380,157.280 47.200,156.400 47.200 C 155.520 47.200,154.800 47.020,154.800 46.800 C 154.800 46.580,154.206 46.400,153.480 46.400 C 152.754 46.400,151.918 46.175,151.621 45.900 C 151.184 45.494,151.142 45.512,151.400 46.000 C 151.658 46.488,151.616 46.506,151.179 46.100 C 150.882 45.825,150.237 45.600,149.744 45.600 C 149.251 45.600,148.760 45.459,148.654 45.287 C 148.548 45.115,147.887 44.931,147.186 44.878 C 146.485 44.824,145.605 44.617,145.232 44.417 C 144.858 44.217,144.058 44.108,143.453 44.174 C 142.847 44.241,142.137 44.079,141.873 43.816 C 141.404 43.347,139.098 42.761,137.300 42.654 C 136.805 42.624,136.400 42.465,136.400 42.300 C 136.400 42.135,135.680 42.000,134.800 42.000 C 133.920 42.000,133.200 41.820,133.200 41.600 C 133.200 41.380,132.491 41.200,131.624 41.200 C 130.757 41.200,129.936 41.020,129.800 40.800 C 129.664 40.580,128.933 40.400,128.176 40.400 C 127.419 40.400,126.800 40.220,126.800 40.000 C 126.800 39.780,126.080 39.600,125.200 39.600 C 124.320 39.600,123.600 39.458,123.600 39.285 C 123.600 39.112,123.040 38.927,122.355 38.875 C 121.671 38.823,120.783 38.605,120.382 38.390 C 119.981 38.176,119.101 38.000,118.428 38.000 L 117.203 38.000 117.102 134.166 M197.623 101.176 C 202.243 102.034,207.800 103.768,211.804 105.602 C 213.243 106.261,214.503 106.800,214.604 106.800 C 215.075 106.800,221.925 111.052,222.915 111.958 C 228.842 117.383,222.456 127.185,215.281 123.676 C 213.393 122.753,211.856 121.868,211.600 121.557 C 210.472 120.189,199.723 116.101,195.400 115.396 C 186.730 113.981,183.286 109.141,186.978 103.561 C 189.027 100.465,191.187 99.981,197.623 101.176 M81.905 101.083 C 82.402 101.179,83.122 101.175,83.505 101.075 C 83.887 100.975,83.480 100.896,82.600 100.901 C 81.720 100.905,81.407 100.987,81.905 101.083 M85.200 101.311 C 85.200 101.387,85.785 101.878,86.500 102.401 C 87.304 102.990,87.584 103.087,87.233 102.655 C 86.700 101.999,85.200 101.007,85.200 101.311 M169.546 106.019 C 174.877 109.019,174.163 115.093,167.985 119.310 C 164.170 121.913,161.023 124.724,159.599 126.800 C 159.071 127.570,158.537 128.290,158.414 128.400 C 158.170 128.617,156.516 132.041,155.949 133.500 C 154.604 136.966,153.344 138.335,150.707 139.197 C 147.931 140.104,144.271 139.002,143.159 136.923 C 142.887 136.416,142.515 136.000,142.332 136.000 C 142.150 136.000,142.000 135.586,142.000 135.080 C 142.000 134.574,141.794 133.954,141.542 133.702 C 139.055 131.215,148.483 115.986,156.218 109.994 C 162.265 105.311,166.201 104.136,169.546 106.019 M59.291 116.191 C 65.509 122.489,66.868 123.686,67.291 123.231 C 67.706 122.784,67.699 122.740,67.255 122.993 C 66.875 123.209,64.460 121.084,59.255 115.953 L 51.800 108.603 59.291 116.191 M238.533 130.430 C 243.674 131.858,248.123 143.992,248.127 156.600 C 248.131 167.399,246.237 171.200,240.854 171.200 C 235.096 171.200,233.362 168.514,233.765 160.216 C 234.112 153.079,232.722 144.622,230.804 142.200 C 230.630 141.980,230.186 140.905,229.818 139.811 C 227.795 133.796,232.482 128.750,238.533 130.430 M85.600 142.600 C 90.326 147.330,94.283 151.200,94.393 151.200 C 94.503 151.200,90.726 147.330,86.000 142.600 C 81.274 137.870,77.317 134.000,77.207 134.000 C 77.097 134.000,80.874 137.870,85.600 142.600 M148.600 153.303 C 151.099 154.544,152.112 156.404,152.791 161.000 C 153.051 162.760,153.421 165.010,153.613 166.000 C 153.805 166.990,154.164 168.880,154.411 170.200 C 154.856 172.580,155.409 174.875,156.000 176.800 C 156.169 177.350,156.529 178.610,156.800 179.600 C 157.071 180.590,157.478 181.905,157.704 182.523 C 160.619 190.475,152.446 197.362,146.660 191.828 C 145.052 190.291,144.471 189.043,143.200 184.400 C 142.929 183.410,142.569 182.150,142.400 181.600 C 141.185 177.645,139.812 171.010,138.457 162.542 C 137.327 155.478,142.850 150.447,148.600 153.303 M54.300 168.682 C 54.795 168.778,55.605 168.778,56.100 168.682 C 56.595 168.587,56.190 168.509,55.200 168.509 C 54.210 168.509,53.805 168.587,54.300 168.682 M233.346 183.352 C 236.107 184.505,238.905 190.346,237.200 191.400 C 236.980 191.536,236.800 191.893,236.800 192.194 C 236.800 195.210,222.212 213.437,216.930 217.022 C 212.554 219.991,206.000 216.516,206.000 211.226 C 206.000 208.895,206.762 207.646,210.797 203.360 C 215.230 198.651,218.521 194.568,222.028 189.424 C 223.537 187.211,225.003 185.114,225.286 184.764 C 226.770 182.926,230.686 182.240,233.346 183.352 M192.390 217.901 C 196.953 220.197,197.482 226.714,193.361 229.857 C 192.028 230.874,184.057 232.998,178.000 233.951 C 172.375 234.836,169.730 235.287,168.123 235.636 C 159.063 237.602,152.986 232.996,155.790 226.287 C 157.069 223.224,158.898 222.380,166.800 221.203 C 171.223 220.545,180.165 218.846,183.600 218.012 C 187.552 217.052,190.626 217.013,192.390 217.901 M195.450 250.995 C 196.311 251.355,199.588 254.331,203.737 258.520 C 207.512 262.331,212.040 266.518,213.800 267.825 C 220.457 272.766,221.730 276.066,218.691 280.509 C 215.915 284.568,211.601 284.198,205.315 279.361 C 195.915 272.128,186.777 262.428,185.954 258.809 C 184.799 253.731,190.591 248.965,195.450 250.995 M268.640 280.762 C 272.095 282.332,273.558 286.166,272.046 289.693 C 270.653 292.944,268.616 294.055,262.627 294.832 C 260.881 295.058,259.310 295.332,259.134 295.441 C 258.502 295.831,244.289 295.634,242.071 295.204 C 234.624 293.758,233.281 293.033,231.793 289.651 C 230.576 286.884,231.378 284.144,234.088 281.806 L 235.800 280.330 240.000 280.612 C 246.317 281.037,258.656 280.984,261.600 280.520 C 265.523 279.901,266.843 279.946,268.640 280.762 " stroke="none" fill="#b49344" fill-rule="evenodd"></path><path id="path1" d="M189.703 101.359 C 186.099 103.415,184.864 107.816,186.959 111.135 C 188.453 113.501,189.578 114.024,195.800 115.242 C 201.460 116.350,206.379 118.324,213.088 122.181 C 220.262 126.306,227.593 121.631,224.663 114.800 C 221.890 108.335,195.357 98.134,189.703 101.359 M79.600 101.913 C 78.271 102.805,76.801 104.478,76.800 105.100 C 76.800 105.375,76.620 105.600,76.400 105.600 C 76.180 105.600,76.000 105.960,76.000 106.400 C 76.000 106.840,75.820 107.200,75.600 107.200 C 75.380 107.200,75.200 107.560,75.200 108.000 C 75.200 108.440,75.020 108.800,74.800 108.800 C 74.580 108.800,74.400 109.160,74.400 109.600 C 74.400 110.040,74.220 110.400,74.000 110.400 C 73.780 110.400,73.600 110.625,73.601 110.900 C 73.603 111.667,68.032 122.676,67.360 123.233 C 66.864 123.645,65.482 122.448,58.843 115.862 L 50.917 108.000 48.453 108.000 C 45.252 108.000,42.402 109.731,42.400 111.676 C 42.400 112.048,42.220 112.464,42.000 112.600 C 41.481 112.921,41.481 115.079,42.000 115.400 C 42.220 115.536,42.400 115.989,42.400 116.407 C 42.400 116.863,46.151 120.935,51.800 126.613 C 60.634 135.490,61.791 136.800,60.800 136.800 C 60.580 136.800,60.400 137.160,60.400 137.600 C 60.400 138.040,60.220 138.400,60.000 138.400 C 59.780 138.400,59.600 138.760,59.600 139.200 C 59.600 139.640,59.420 140.000,59.200 140.000 C 58.980 140.000,58.800 140.360,58.800 140.800 C 58.800 141.240,58.620 141.600,58.400 141.600 C 58.180 141.600,58.000 141.960,58.000 142.400 C 58.000 142.840,57.820 143.200,57.600 143.200 C 57.380 143.200,57.200 143.560,57.200 144.000 C 57.200 144.440,57.020 144.800,56.800 144.800 C 56.580 144.800,56.400 145.024,56.400 145.298 C 56.400 145.682,51.361 156.259,49.161 160.495 C 47.462 163.764,50.840 168.395,54.926 168.398 C 59.165 168.402,59.329 168.207,65.568 155.782 C 68.270 150.402,70.641 146.000,70.837 146.000 C 71.034 146.000,74.301 149.106,78.097 152.902 C 86.507 161.311,86.889 161.600,89.588 161.600 C 92.742 161.600,94.756 160.115,95.665 157.120 C 96.639 153.913,96.037 153.030,86.165 143.165 C 79.978 136.982,77.200 133.937,77.200 133.338 C 77.200 132.860,79.810 127.280,83.000 120.938 C 89.177 108.658,89.655 107.170,88.323 104.348 C 87.018 101.584,82.125 100.218,79.600 101.913 M163.556 105.767 C 151.406 110.416,138.349 129.688,142.900 136.255 C 146.748 141.808,152.957 140.178,155.992 132.820 C 158.272 127.290,161.582 123.385,167.200 119.595 C 171.852 116.458,172.800 115.199,172.800 112.160 C 172.800 107.377,168.009 104.063,163.556 105.767 M232.519 131.325 C 229.886 133.124,228.768 137.341,230.156 140.239 C 231.236 142.492,231.939 144.218,232.423 145.800 C 232.692 146.680,233.056 147.850,233.233 148.400 C 234.069 151.002,234.483 156.659,234.045 159.488 C 233.227 164.754,233.582 166.763,235.747 169.135 C 239.966 173.759,247.539 170.041,247.624 163.304 C 247.637 162.257,247.792 160.521,247.968 159.447 C 249.000 153.167,245.370 137.682,241.744 132.900 C 239.750 130.269,235.202 129.492,232.519 131.325 M143.400 153.065 C 140.263 153.913,138.155 157.544,138.585 161.359 C 139.065 165.616,141.207 176.445,142.431 180.800 C 143.080 183.110,143.812 185.720,144.057 186.600 C 144.753 189.095,145.468 190.536,146.480 191.487 C 150.836 195.580,157.513 193.080,157.912 187.206 C 158.047 185.219,157.830 184.048,156.388 179.000 C 155.161 174.704,154.461 171.625,153.571 166.600 C 153.337 165.280,152.978 163.445,152.773 162.523 C 152.568 161.600,152.391 160.250,152.381 159.523 C 152.320 155.361,147.563 151.940,143.400 153.065 M227.032 183.732 C 225.857 184.382,224.592 185.888,221.991 189.734 C 220.082 192.558,218.198 195.258,217.805 195.734 C 215.091 199.024,212.688 201.713,210.711 203.669 C 204.003 210.307,205.473 218.000,213.448 218.000 C 218.996 218.000,237.026 196.184,236.986 189.520 C 236.956 184.426,231.506 181.257,227.032 183.732 M185.400 217.854 C 184.080 218.156,182.100 218.600,181.000 218.842 C 179.900 219.083,178.280 219.444,177.400 219.644 C 176.520 219.845,172.380 220.552,168.200 221.216 C 159.281 222.633,159.539 222.566,157.983 223.875 C 154.852 226.511,154.691 231.666,157.662 234.200 C 159.855 236.070,162.297 236.461,166.680 235.641 C 167.736 235.443,169.860 235.077,171.400 234.826 C 192.984 231.311,196.000 229.985,196.000 224.013 C 196.000 218.966,191.631 216.427,185.400 217.854 M131.600 226.787 C 131.050 226.964,129.520 227.331,128.200 227.601 C 126.880 227.871,125.260 228.231,124.600 228.400 C 123.940 228.569,122.320 228.925,121.000 229.189 C 117.153 229.960,117.414 229.400,117.291 237.143 C 117.189 243.482,117.235 244.000,117.891 244.001 C 118.716 244.003,132.802 240.965,135.905 240.116 C 144.449 237.779,143.227 226.282,134.451 226.432 C 133.433 226.449,132.150 226.609,131.600 226.787 M189.589 251.637 C 183.515 255.160,184.696 259.487,194.384 269.212 C 207.849 282.728,213.876 285.715,218.050 280.941 C 221.545 276.942,220.344 273.111,214.093 268.327 C 211.732 266.520,206.830 262.041,203.200 258.374 C 195.033 250.125,193.502 249.367,189.589 251.637 M235.600 280.895 C 230.479 283.314,230.369 290.781,235.417 293.322 C 240.425 295.843,260.283 295.991,267.874 293.563 C 273.043 291.909,273.818 284.112,269.104 281.182 C 267.641 280.274,265.771 280.276,256.315 281.196 C 252.276 281.590,250.259 281.590,246.515 281.197 C 239.350 280.446,236.705 280.373,235.600 280.895 " stroke="none" fill="#9f5336" fill-rule="evenodd"></path><path id="path2" d="M191.900 100.682 C 192.395 100.778,193.205 100.778,193.700 100.682 C 194.195 100.587,193.790 100.509,192.800 100.509 C 191.810 100.509,191.405 100.587,191.900 100.682 M185.709 107.600 C 185.709 108.590,185.787 108.995,185.882 108.500 C 185.978 108.005,185.978 107.195,185.882 106.700 C 185.787 106.205,185.709 106.610,185.709 107.600 M222.800 112.200 C 223.546 112.970,224.247 113.600,224.357 113.600 C 224.467 113.600,223.946 112.970,223.200 112.200 C 222.454 111.430,221.753 110.800,221.643 110.800 C 221.533 110.800,222.054 111.430,222.800 112.200 M235.505 130.283 C 236.002 130.379,236.722 130.375,237.105 130.275 C 237.487 130.175,237.080 130.096,236.200 130.101 C 235.320 130.105,235.007 130.187,235.505 130.283 M141.391 132.040 C 141.242 132.721,141.272 133.430,141.460 133.615 C 141.647 133.800,141.827 133.242,141.860 132.376 C 141.932 130.481,141.761 130.358,141.391 132.040 M327.791 136.172 C 323.189 138.931,323.370 143.580,328.246 147.857 C 329.716 149.145,332.480 151.653,334.389 153.428 C 340.656 159.258,345.636 158.813,347.778 152.231 C 348.819 149.031,344.809 143.896,336.198 137.400 C 332.811 134.845,330.555 134.515,327.791 136.172 M229.293 137.200 C 229.293 137.970,229.375 138.285,229.476 137.900 C 229.576 137.515,229.576 136.885,229.476 136.500 C 229.375 136.115,229.293 136.430,229.293 137.200 M247.714 150.600 C 247.717 151.700,247.795 152.103,247.887 151.495 C 247.979 150.886,247.977 149.986,247.882 149.495 C 247.787 149.003,247.711 149.500,247.714 150.600 M140.887 154.300 C 139.930 155.235,139.914 155.281,140.781 154.606 C 142.488 153.276,142.569 153.200,142.286 153.200 C 142.136 153.200,141.506 153.695,140.887 154.300 M148.600 153.454 C 148.820 153.648,149.629 154.345,150.399 155.003 L 151.797 156.200 150.799 155.063 C 150.249 154.438,149.440 153.741,149.000 153.514 C 148.560 153.288,148.380 153.261,148.600 153.454 M248.101 155.400 C 248.105 156.280,248.187 156.593,248.283 156.095 C 248.379 155.598,248.375 154.878,248.275 154.495 C 248.175 154.113,248.096 154.520,248.101 155.400 M234.120 156.400 C 234.120 157.610,234.195 158.105,234.287 157.500 C 234.378 156.895,234.378 155.905,234.287 155.300 C 234.195 154.695,234.120 155.190,234.120 156.400 M247.709 162.400 C 247.709 163.390,247.787 163.795,247.882 163.300 C 247.978 162.805,247.978 161.995,247.882 161.500 C 247.787 161.005,247.709 161.410,247.709 162.400 M353.310 168.437 C 349.617 170.265,349.044 173.355,351.093 180.400 C 352.917 186.675,353.189 189.974,352.597 198.618 C 352.249 203.704,352.579 204.780,355.068 206.679 C 357.569 208.587,361.645 208.113,363.850 205.659 C 366.884 202.283,367.190 187.016,364.406 178.000 C 362.462 171.708,362.124 170.925,360.763 169.563 C 358.644 167.444,356.095 167.059,353.310 168.437 M139.628 169.633 C 139.644 170.165,139.819 170.960,140.019 171.400 C 140.271 171.958,140.307 171.715,140.138 170.600 C 139.855 168.743,139.587 168.236,139.628 169.633 M236.998 189.595 C 236.999 190.654,237.135 191.438,237.300 191.337 C 237.685 191.101,237.679 188.744,237.292 188.135 C 237.129 187.879,236.997 188.536,236.998 189.595 M29.600 190.739 C 25.396 191.837,23.378 196.325,25.404 200.072 C 25.842 200.882,28.180 203.650,30.600 206.225 C 33.020 208.799,35.090 211.025,35.200 211.172 C 38.663 215.791,46.800 212.998,46.800 207.189 C 46.800 204.180,46.516 203.738,40.407 197.221 C 34.362 190.773,32.878 189.883,29.600 190.739 M214.175 199.700 L 213.000 201.000 214.300 199.825 C 215.015 199.179,215.600 198.594,215.600 198.525 C 215.600 198.216,215.270 198.488,214.175 199.700 M206.120 211.200 C 206.120 212.410,206.195 212.905,206.287 212.300 C 206.378 211.695,206.378 210.705,206.287 210.100 C 206.195 209.495,206.120 209.990,206.120 211.200 M344.350 220.423 C 342.940 221.139,342.185 221.986,337.600 228.001 C 335.483 230.777,330.300 237.069,326.445 241.541 C 321.937 246.771,322.750 252.482,328.213 253.950 C 331.516 254.838,333.609 253.714,337.690 248.860 C 339.289 246.957,340.691 245.310,340.805 245.200 C 340.982 245.028,343.564 241.898,345.089 240.006 C 348.031 236.356,352.725 229.963,353.111 229.081 C 355.602 223.385,349.804 217.655,344.350 220.423 M56.600 220.886 C 53.583 222.628,52.337 226.548,53.842 229.564 C 55.069 232.023,63.598 238.245,68.900 240.548 C 69.725 240.907,70.985 241.457,71.700 241.771 C 73.144 242.405,75.670 243.234,78.400 243.969 C 79.390 244.236,80.753 244.622,81.428 244.827 C 88.012 246.825,93.325 239.848,89.311 234.475 C 88.174 232.953,87.591 232.688,82.400 231.330 C 76.742 229.849,70.016 226.679,67.400 224.260 C 63.660 220.802,59.173 219.400,56.600 220.886 M168.100 221.076 C 168.485 221.176,169.115 221.176,169.500 221.076 C 169.885 220.975,169.570 220.893,168.800 220.893 C 168.030 220.893,167.715 220.975,168.100 221.076 M162.900 221.876 C 163.285 221.976,163.915 221.976,164.300 221.876 C 164.685 221.775,164.370 221.693,163.600 221.693 C 162.830 221.693,162.515 221.775,162.900 221.876 M196.101 224.200 C 196.105 225.080,196.187 225.393,196.283 224.895 C 196.379 224.398,196.375 223.678,196.275 223.295 C 196.175 222.913,196.096 223.320,196.101 224.200 M157.004 224.396 C 156.374 225.054,155.935 225.656,156.029 225.734 C 156.123 225.812,156.713 225.274,157.339 224.538 C 158.754 222.877,158.545 222.788,157.004 224.396 M155.320 229.200 C 155.320 230.410,155.395 230.905,155.487 230.300 C 155.578 229.695,155.578 228.705,155.487 228.100 C 155.395 227.495,155.320 227.990,155.320 229.200 M117.380 229.969 C 117.171 230.172,114.660 230.900,111.800 231.586 C 102.810 233.744,100.239 236.145,101.581 241.130 C 102.748 245.465,106.573 246.856,112.800 245.211 C 113.790 244.949,115.500 244.595,116.600 244.424 C 117.700 244.253,118.285 244.087,117.900 244.056 C 117.020 243.986,116.815 230.945,117.680 230.080 C 117.944 229.816,118.070 229.600,117.960 229.600 C 117.850 229.600,117.589 229.766,117.380 229.969 M141.693 233.200 C 141.693 233.970,141.775 234.285,141.876 233.900 C 141.976 233.515,141.976 232.885,141.876 232.500 C 141.775 232.115,141.693 232.430,141.693 233.200 M131.200 241.200 C 130.376 241.464,130.341 241.526,131.000 241.554 C 131.440 241.573,132.070 241.413,132.400 241.200 C 133.101 240.747,132.614 240.747,131.200 241.200 M127.600 242.000 C 126.776 242.264,126.741 242.326,127.400 242.354 C 127.840 242.373,128.470 242.213,128.800 242.000 C 129.501 241.547,129.014 241.547,127.600 242.000 M124.000 242.800 C 123.176 243.064,123.141 243.126,123.800 243.154 C 124.240 243.173,124.870 243.013,125.200 242.800 C 125.901 242.347,125.414 242.347,124.000 242.800 M192.305 250.683 C 192.802 250.779,193.522 250.775,193.905 250.675 C 194.287 250.575,193.880 250.496,193.000 250.501 C 192.120 250.505,191.807 250.587,192.305 250.683 M198.600 253.600 C 199.683 254.700,200.660 255.600,200.770 255.600 C 200.880 255.600,200.083 254.700,199.000 253.600 C 197.917 252.500,196.940 251.600,196.830 251.600 C 196.720 251.600,197.517 252.500,198.600 253.600 M204.600 260.000 C 206.350 261.760,207.871 263.200,207.981 263.200 C 208.091 263.200,206.750 261.760,205.000 260.000 C 203.250 258.240,201.729 256.800,201.619 256.800 C 201.509 256.800,202.850 258.240,204.600 260.000 M307.558 261.929 C 306.310 262.733,303.863 264.850,300.600 267.947 C 299.280 269.201,296.760 271.458,295.000 272.963 C 291.641 275.835,291.220 276.194,287.469 279.374 C 282.469 283.613,282.345 289.002,287.189 291.594 C 290.860 293.559,294.384 291.564,306.211 280.826 C 317.063 270.973,317.292 270.700,317.292 267.594 C 317.292 262.653,311.589 259.334,307.558 261.929 M188.800 263.800 C 189.546 264.570,190.247 265.200,190.357 265.200 C 190.467 265.200,189.946 264.570,189.200 263.800 C 188.454 263.030,187.753 262.400,187.643 262.400 C 187.533 262.400,188.054 263.030,188.800 263.800 M194.600 270.000 C 196.571 271.980,198.273 273.600,198.383 273.600 C 198.493 273.600,196.971 271.980,195.000 270.000 C 193.029 268.020,191.327 266.400,191.217 266.400 C 191.107 266.400,192.629 268.020,194.600 270.000 M219.829 276.629 C 219.681 277.215,219.638 277.772,219.732 277.866 C 219.827 277.960,220.024 277.558,220.171 276.971 C 220.319 276.385,220.362 275.828,220.268 275.734 C 220.173 275.640,219.976 276.042,219.829 276.629 M264.700 280.282 C 265.195 280.378,266.005 280.378,266.500 280.282 C 266.995 280.187,266.590 280.109,265.600 280.109 C 264.610 280.109,264.205 280.187,264.700 280.282 M259.400 280.800 C 258.381 281.238,259.432 281.238,260.800 280.800 C 261.604 280.543,261.643 280.477,261.000 280.468 C 260.560 280.462,259.840 280.611,259.400 280.800 M249.712 281.495 C 250.764 281.577,252.384 281.576,253.312 281.492 C 254.240 281.408,253.380 281.341,251.400 281.342 C 249.420 281.343,248.660 281.412,249.712 281.495 M231.443 285.433 C 231.110 286.301,231.148 288.499,231.506 289.062 C 231.668 289.316,231.800 288.461,231.800 287.162 C 231.800 284.561,231.792 284.523,231.443 285.433 M272.282 286.421 C 272.408 287.399,272.575 288.275,272.655 288.367 C 272.981 288.742,272.760 285.755,272.421 285.221 C 272.184 284.846,272.135 285.270,272.282 286.421 M270.175 292.100 L 269.000 293.400 270.300 292.225 C 271.015 291.579,271.600 290.994,271.600 290.925 C 271.600 290.616,271.270 290.888,270.175 292.100 M238.900 294.676 C 239.285 294.776,239.915 294.776,240.300 294.676 C 240.685 294.575,240.370 294.493,239.600 294.493 C 238.830 294.493,238.515 294.575,238.900 294.676 M262.900 294.676 C 263.285 294.776,263.915 294.776,264.300 294.676 C 264.685 294.575,264.370 294.493,263.600 294.493 C 262.830 294.493,262.515 294.575,262.900 294.676 M244.291 295.489 C 245.001 295.577,246.261 295.579,247.091 295.492 C 247.921 295.405,247.340 295.333,245.800 295.331 C 244.260 295.329,243.581 295.400,244.291 295.489 M255.091 295.489 C 255.801 295.577,257.061 295.579,257.891 295.492 C 258.721 295.405,258.140 295.333,256.600 295.331 C 255.060 295.329,254.381 295.400,255.091 295.489 M158.681 317.787 C 159.077 318.331,159.566 318.781,159.770 318.787 C 159.973 318.794,159.717 318.350,159.200 317.800 C 158.001 316.523,157.757 316.518,158.681 317.787 " stroke="none" fill="#ab8461" fill-rule="evenodd"></path><path id="path3" d="M114.600 38.400 C 114.464 38.620,113.924 38.800,113.400 38.800 C 112.876 38.800,112.336 38.980,112.200 39.200 C 112.064 39.420,111.503 39.600,110.953 39.600 C 110.388 39.600,110.060 39.774,110.200 40.000 C 110.340 40.226,110.012 40.400,109.447 40.400 C 108.897 40.400,108.336 40.580,108.200 40.800 C 108.064 41.020,107.524 41.200,107.000 41.200 C 106.476 41.200,105.936 41.380,105.800 41.600 C 105.664 41.820,105.143 42.000,104.643 42.000 C 104.143 42.000,103.601 42.133,103.438 42.295 C 103.276 42.457,102.931 42.600,102.672 42.611 C 101.708 42.656,98.826 43.635,98.604 43.993 C 98.478 44.198,98.110 44.264,97.787 44.140 C 97.464 44.016,97.200 44.078,97.200 44.277 C 97.200 44.605,94.731 45.698,94.194 45.609 C 93.737 45.532,92.678 46.890,92.541 47.730 C 92.463 48.208,92.203 49.500,91.965 50.600 C 91.726 51.700,91.440 53.545,91.329 54.700 C 91.217 55.855,90.963 56.800,90.763 56.800 C 90.563 56.800,90.400 57.348,90.400 58.018 C 90.400 60.136,87.125 62.297,86.196 60.793 C 86.058 60.570,85.773 60.493,85.562 60.623 C 85.352 60.753,85.222 60.711,85.273 60.530 C 85.422 60.003,78.905 53.600,78.220 53.600 C 77.879 53.600,77.600 53.420,77.600 53.200 C 77.600 52.974,76.459 52.800,74.976 52.800 C 73.329 52.800,72.445 52.949,72.600 53.200 C 72.747 53.439,72.263 53.600,71.400 53.600 C 70.537 53.600,70.053 53.761,70.200 54.000 C 70.344 54.233,69.945 54.400,69.247 54.400 C 68.587 54.400,67.936 54.580,67.800 54.800 C 67.664 55.020,67.203 55.200,66.776 55.200 C 66.349 55.200,66.000 55.380,66.000 55.600 C 66.000 55.820,65.460 56.000,64.800 56.000 C 64.140 56.000,63.600 56.180,63.600 56.400 C 63.600 56.620,63.049 56.800,62.376 56.800 C 61.663 56.800,61.256 56.967,61.400 57.200 C 61.544 57.433,61.137 57.600,60.424 57.600 C 59.751 57.600,59.200 57.780,59.200 58.000 C 59.200 58.220,58.816 58.400,58.346 58.400 C 57.050 58.400,54.400 59.277,54.400 59.706 C 54.400 59.915,54.099 59.970,53.732 59.829 C 53.365 59.688,52.935 59.782,52.777 60.036 C 52.620 60.291,52.021 60.500,51.445 60.500 C 50.870 60.500,50.400 60.634,50.400 60.798 C 50.400 61.050,47.155 62.161,46.333 62.190 C 46.187 62.196,45.932 62.335,45.767 62.500 C 45.602 62.665,45.036 62.800,44.510 62.800 C 43.974 62.800,43.662 62.976,43.800 63.200 C 43.940 63.427,43.602 63.600,43.018 63.600 C 42.452 63.600,41.632 63.780,41.195 64.000 C 40.758 64.220,40.042 64.580,39.605 64.800 C 39.168 65.020,38.463 65.200,38.039 65.200 C 37.614 65.200,37.207 65.363,37.133 65.562 C 37.060 65.761,36.550 65.986,36.000 66.062 C 35.450 66.138,34.900 66.334,34.778 66.498 C 34.655 66.662,34.070 66.836,33.478 66.885 C 32.885 66.934,32.400 67.115,32.400 67.287 C 32.400 67.459,32.061 67.600,31.646 67.600 C 31.231 67.600,30.389 67.861,29.774 68.180 C 29.160 68.498,28.509 68.668,28.329 68.556 C 28.148 68.444,28.000 68.543,28.000 68.776 C 28.000 69.009,27.539 69.200,26.976 69.200 C 26.396 69.200,26.060 69.373,26.200 69.600 C 26.344 69.833,25.937 70.000,25.224 70.000 C 24.551 70.000,24.000 70.180,24.000 70.400 C 24.000 70.620,23.460 70.800,22.800 70.800 C 22.140 70.800,21.600 70.980,21.600 71.200 C 21.600 71.420,21.060 71.600,20.400 71.600 C 19.740 71.600,19.200 71.780,19.200 72.000 C 19.200 72.220,18.660 72.400,18.000 72.400 C 17.340 72.400,16.800 72.547,16.800 72.728 C 16.800 72.908,15.889 73.304,14.775 73.607 C 13.661 73.910,12.660 74.303,12.551 74.479 C 12.442 74.656,12.003 74.800,11.576 74.800 C 11.149 74.800,10.800 74.974,10.800 75.187 C 10.800 75.401,10.546 75.478,10.236 75.359 C 9.926 75.239,9.139 75.418,8.487 75.755 C 7.835 76.092,7.206 76.273,7.090 76.156 C 6.973 76.040,6.545 76.117,6.139 76.329 C 5.733 76.540,4.516 77.135,3.436 77.652 C 2.331 78.181,1.150 79.119,0.737 79.796 C 0.030 80.956,0.003 84.929,0.001 189.084 L -0.000 297.169 0.875 297.984 C 1.357 298.433,1.987 298.800,2.275 298.800 C 2.564 298.800,2.800 298.980,2.800 299.200 C 2.800 299.420,3.160 299.600,3.600 299.600 C 4.040 299.600,4.400 299.780,4.400 300.000 C 4.400 300.220,4.760 300.400,5.200 300.400 C 5.640 300.400,6.000 300.580,6.000 300.800 C 6.000 301.020,6.360 301.200,6.800 301.200 C 7.240 301.200,7.600 301.346,7.600 301.525 C 7.600 301.704,8.230 302.098,9.000 302.400 C 9.770 302.702,10.400 303.096,10.400 303.275 C 10.400 303.454,10.760 303.600,11.200 303.600 C 11.640 303.600,12.000 303.791,12.000 304.024 C 12.000 304.257,12.165 304.345,12.368 304.220 C 12.570 304.095,12.977 304.234,13.272 304.529 C 13.567 304.824,14.301 305.189,14.904 305.340 C 15.507 305.491,16.000 305.882,16.000 306.208 C 16.000 306.533,16.180 306.800,16.400 306.800 C 16.620 306.800,16.800 307.232,16.800 307.760 C 16.800 308.808,14.165 311.749,13.561 311.376 C 13.362 311.253,13.200 311.343,13.200 311.576 C 13.200 311.809,12.949 312.000,12.643 312.000 C 12.336 312.000,11.999 312.225,11.893 312.500 C 11.787 312.775,10.643 313.717,9.350 314.593 C 8.058 315.469,6.709 316.504,6.353 316.893 C 5.997 317.282,5.547 317.601,5.353 317.602 C 5.159 317.603,4.460 318.098,3.800 318.702 C 3.140 319.306,2.120 320.047,1.534 320.350 C -0.001 321.140,0.011 320.990,0.005 339.500 L 0.000 356.401 1.648 358.000 C 2.633 358.957,3.679 359.600,4.248 359.600 C 4.772 359.600,5.200 359.780,5.200 360.000 C 5.200 360.220,5.819 360.400,6.576 360.400 C 7.333 360.400,8.064 360.220,8.200 360.000 C 8.336 359.780,9.067 359.600,9.824 359.600 C 10.581 359.600,11.200 359.420,11.200 359.200 C 11.200 358.980,11.562 358.800,12.005 358.800 C 12.448 358.800,13.123 358.642,13.505 358.449 C 14.353 358.021,16.549 357.357,18.295 357.002 C 19.008 356.857,19.694 356.572,19.819 356.369 C 19.945 356.166,20.363 356.000,20.748 356.000 C 21.134 356.000,22.159 355.658,23.025 355.241 C 23.891 354.823,25.050 354.418,25.600 354.341 C 26.150 354.263,26.700 354.066,26.822 353.902 C 26.945 353.738,27.530 353.564,28.122 353.515 C 28.715 353.466,29.200 353.285,29.200 353.113 C 29.200 352.941,29.526 352.800,29.925 352.800 C 30.324 352.800,31.395 352.440,32.306 352.000 C 33.216 351.560,34.330 351.200,34.781 351.200 C 35.231 351.200,35.600 351.020,35.600 350.800 C 35.600 350.580,36.140 350.400,36.800 350.400 C 37.460 350.400,38.000 350.220,38.000 350.000 C 38.000 349.780,38.362 349.600,38.805 349.600 C 39.248 349.600,39.923 349.441,40.305 349.247 C 42.137 348.315,43.087 347.959,43.907 347.897 C 44.398 347.860,44.800 347.688,44.800 347.515 C 44.800 347.342,45.239 347.200,45.776 347.200 C 46.313 347.200,46.864 347.020,47.000 346.800 C 47.136 346.580,47.582 346.400,47.990 346.400 C 48.399 346.400,48.793 346.222,48.867 346.003 C 48.940 345.785,49.495 345.566,50.100 345.516 C 50.705 345.466,51.200 345.285,51.200 345.113 C 51.200 344.941,51.740 344.800,52.400 344.800 C 53.060 344.800,53.600 344.620,53.600 344.400 C 53.600 344.180,53.939 344.000,54.354 344.000 C 54.769 344.000,55.611 343.739,56.226 343.420 C 56.840 343.102,57.491 342.932,57.671 343.044 C 57.852 343.156,58.000 343.057,58.000 342.824 C 58.000 342.591,58.439 342.400,58.976 342.400 C 59.513 342.400,60.051 342.240,60.172 342.045 C 60.293 341.850,61.049 341.567,61.854 341.416 C 62.659 341.265,63.733 340.869,64.241 340.536 C 64.749 340.203,65.334 340.036,65.541 340.163 C 65.748 340.291,66.430 340.128,67.058 339.800 C 67.686 339.472,68.787 339.093,69.504 338.957 C 70.222 338.821,70.907 338.550,71.028 338.355 C 71.149 338.160,71.676 338.000,72.200 338.000 C 72.724 338.000,73.264 337.820,73.400 337.600 C 73.536 337.380,73.997 337.200,74.424 337.200 C 74.851 337.200,75.200 337.020,75.200 336.800 C 75.200 336.580,75.740 336.400,76.400 336.400 C 77.060 336.400,77.600 336.220,77.600 336.000 C 77.600 335.780,77.949 335.600,78.376 335.600 C 78.803 335.600,79.264 335.420,79.400 335.200 C 79.536 334.980,80.277 334.800,81.047 334.800 C 81.879 334.800,82.347 334.638,82.200 334.400 C 82.060 334.173,82.398 334.000,82.982 334.000 C 83.548 334.000,84.368 333.820,84.805 333.600 C 85.242 333.380,85.958 333.020,86.395 332.800 C 86.832 332.580,87.562 332.400,88.018 332.400 C 88.474 332.400,88.736 332.220,88.600 332.000 C 88.460 331.774,88.788 331.600,89.353 331.600 C 89.903 331.600,90.464 331.420,90.600 331.200 C 90.736 330.980,91.276 330.800,91.800 330.800 C 92.324 330.800,92.864 330.620,93.000 330.400 C 93.136 330.180,93.676 330.000,94.200 330.000 C 94.724 330.000,95.264 329.820,95.400 329.600 C 95.536 329.380,96.187 329.200,96.847 329.200 C 97.545 329.200,97.944 329.033,97.800 328.800 C 97.656 328.567,98.063 328.400,98.776 328.400 C 99.449 328.400,100.000 328.220,100.000 328.000 C 100.000 327.780,100.450 327.600,101.000 327.600 C 101.550 327.600,102.000 327.420,102.000 327.200 C 102.000 326.980,102.439 326.800,102.976 326.800 C 103.513 326.800,104.064 326.620,104.200 326.400 C 104.336 326.180,104.876 326.000,105.400 326.000 C 105.924 326.000,106.464 325.820,106.600 325.600 C 106.736 325.380,107.287 325.200,107.824 325.200 C 108.361 325.200,108.800 325.009,108.800 324.776 C 108.800 324.543,108.988 324.469,109.218 324.611 C 109.447 324.753,109.897 324.651,110.218 324.385 C 110.538 324.120,110.800 324.036,110.800 324.200 C 110.800 324.364,111.074 324.270,111.410 323.992 C 111.745 323.714,112.129 323.595,112.262 323.729 C 112.396 323.862,112.862 323.722,113.298 323.416 C 113.735 323.110,114.341 322.956,114.646 323.073 C 114.951 323.190,115.200 323.086,115.200 322.843 C 115.200 322.599,115.541 322.400,115.957 322.400 C 117.204 322.400,117.200 322.520,117.200 282.921 L 117.200 244.707 116.100 244.971 C 115.495 245.117,114.280 245.418,113.400 245.640 C 107.030 247.248,104.303 246.679,101.954 243.250 C 98.966 238.890,102.013 233.254,108.070 231.933 C 108.912 231.750,110.320 231.420,111.200 231.200 C 112.080 230.980,113.517 230.645,114.393 230.455 C 115.269 230.265,116.259 229.883,116.593 229.606 C 117.216 229.089,117.576 40.246,116.957 38.633 C 116.689 37.935,114.991 37.767,114.600 38.400 M391.200 40.800 C 391.200 41.020,390.748 41.200,390.195 41.200 C 389.642 41.200,388.877 41.365,388.495 41.567 C 387.823 41.921,383.751 43.179,382.711 43.353 C 382.430 43.400,381.783 43.667,381.274 43.947 C 380.765 44.227,379.955 44.544,379.474 44.651 C 378.993 44.759,378.420 44.888,378.200 44.938 C 377.980 44.988,377.187 45.337,376.439 45.714 C 375.690 46.091,374.655 46.400,374.139 46.400 C 373.622 46.400,373.200 46.580,373.200 46.800 C 373.200 47.020,372.761 47.200,372.224 47.200 C 371.687 47.200,371.136 47.380,371.000 47.600 C 370.864 47.820,370.213 48.000,369.553 48.000 C 368.855 48.000,368.456 48.167,368.600 48.400 C 368.740 48.626,368.412 48.800,367.847 48.800 C 367.297 48.800,366.736 48.980,366.600 49.200 C 366.464 49.420,366.001 49.600,365.571 49.600 C 365.141 49.600,364.432 49.780,363.995 50.000 C 363.558 50.220,362.842 50.580,362.405 50.800 C 361.968 51.020,361.259 51.200,360.829 51.200 C 360.399 51.200,359.936 51.380,359.800 51.600 C 359.664 51.820,359.113 52.000,358.576 52.000 C 358.039 52.000,357.600 52.136,357.600 52.303 C 357.600 52.669,354.733 53.600,353.606 53.600 C 353.163 53.600,352.800 53.780,352.800 54.000 C 352.800 54.220,352.361 54.400,351.824 54.400 C 351.287 54.400,350.736 54.580,350.600 54.800 C 350.464 55.020,350.003 55.200,349.576 55.200 C 349.149 55.200,348.800 55.380,348.800 55.600 C 348.800 55.820,348.361 56.000,347.824 56.000 C 347.287 56.000,346.736 56.180,346.600 56.400 C 346.464 56.620,345.823 56.800,345.176 56.800 C 344.529 56.800,344.000 56.980,344.000 57.200 C 344.000 57.420,343.550 57.600,343.000 57.600 C 342.450 57.600,342.000 57.780,342.000 58.000 C 342.000 58.220,341.616 58.400,341.146 58.400 C 339.872 58.400,337.200 59.274,337.200 59.690 C 337.200 59.890,336.861 59.946,336.447 59.815 C 335.980 59.667,335.609 59.800,335.469 60.165 C 335.322 60.548,334.884 60.690,334.221 60.570 C 333.660 60.468,333.200 60.529,333.200 60.705 C 333.200 60.881,332.345 61.257,331.300 61.539 C 330.255 61.822,329.087 62.221,328.705 62.427 C 328.323 62.632,327.638 62.800,327.182 62.800 C 326.726 62.800,326.464 62.980,326.600 63.200 C 326.736 63.420,326.564 63.600,326.217 63.600 C 325.229 63.600,322.400 64.561,322.400 64.897 C 322.400 65.064,321.860 65.200,321.200 65.200 C 320.540 65.200,320.000 65.380,320.000 65.600 C 320.000 65.820,319.561 66.000,319.024 66.000 C 318.487 66.000,317.936 66.180,317.800 66.400 C 317.664 66.620,317.023 66.800,316.376 66.800 C 315.729 66.800,315.200 66.936,315.200 67.103 C 315.200 67.434,312.376 68.400,311.406 68.400 C 311.073 68.400,310.800 68.580,310.800 68.800 C 310.800 69.020,310.451 69.200,310.024 69.200 C 309.597 69.200,309.136 69.380,309.000 69.600 C 308.864 69.820,308.313 70.000,307.776 70.000 C 307.239 70.000,306.800 70.180,306.800 70.400 C 306.800 70.620,306.260 70.800,305.600 70.800 C 304.940 70.800,304.400 70.980,304.400 71.200 C 304.400 71.420,303.860 71.600,303.200 71.600 C 302.540 71.600,302.000 71.780,302.000 72.000 C 302.000 72.220,301.460 72.400,300.800 72.400 C 300.140 72.400,299.600 72.580,299.600 72.800 C 299.600 73.020,299.150 73.200,298.600 73.200 C 298.050 73.200,297.600 73.380,297.600 73.600 C 297.600 73.820,297.161 74.000,296.624 74.000 C 296.087 74.000,295.536 74.180,295.400 74.400 C 295.264 74.620,294.703 74.800,294.153 74.800 C 293.491 74.800,293.251 74.958,293.442 75.268 C 293.634 75.579,293.516 75.653,293.088 75.489 C 292.734 75.353,291.350 75.671,290.012 76.195 C 288.674 76.720,287.449 77.162,287.290 77.179 C 286.667 77.245,285.342 77.690,284.100 78.251 L 282.800 78.838 282.800 181.219 C 282.800 239.782,282.950 283.600,283.151 283.600 C 283.345 283.600,283.726 283.062,283.998 282.404 C 284.513 281.161,286.130 279.628,292.011 274.805 C 293.215 273.819,294.290 272.919,294.400 272.805 C 294.510 272.692,296.578 270.800,298.995 268.600 C 301.412 266.400,303.842 264.179,304.395 263.665 C 309.118 259.272,314.750 259.598,317.204 264.407 C 319.067 268.060,317.929 270.841,312.532 275.828 C 300.550 286.897,294.229 292.066,291.914 292.685 C 288.772 293.525,285.800 292.152,283.943 289.000 L 283.000 287.400 282.890 324.200 C 282.769 364.685,282.694 362.800,284.431 362.800 C 285.140 362.800,285.544 362.633,285.400 362.400 C 285.190 362.060,286.309 361.796,287.300 361.953 C 287.465 361.979,287.600 361.820,287.600 361.600 C 287.600 361.380,288.039 361.200,288.576 361.200 C 289.113 361.200,289.664 361.020,289.800 360.800 C 289.936 360.580,290.397 360.400,290.824 360.400 C 291.251 360.400,291.600 360.220,291.600 360.000 C 291.600 359.780,292.140 359.600,292.800 359.600 C 293.460 359.600,294.000 359.420,294.000 359.200 C 294.000 358.980,294.540 358.800,295.200 358.800 C 295.860 358.800,296.400 358.620,296.400 358.400 C 296.400 358.180,296.718 358.000,297.106 358.000 C 297.494 358.000,298.799 357.620,300.006 357.155 C 301.213 356.690,302.697 356.219,303.305 356.109 C 303.913 355.998,304.508 355.749,304.629 355.554 C 304.749 355.359,305.276 355.200,305.800 355.200 C 306.324 355.200,306.864 355.020,307.000 354.800 C 307.136 354.580,307.777 354.400,308.424 354.400 C 309.071 354.400,309.600 354.220,309.600 354.000 C 309.600 353.780,309.955 353.600,310.388 353.600 C 310.821 353.600,311.817 353.240,312.600 352.800 C 313.383 352.360,314.469 352.000,315.012 352.000 C 315.555 352.000,316.000 351.820,316.000 351.600 C 316.000 351.380,316.450 351.200,317.000 351.200 C 317.550 351.200,318.000 351.020,318.000 350.800 C 318.000 350.580,318.641 350.400,319.424 350.400 C 320.271 350.400,320.747 350.238,320.600 350.000 C 320.461 349.775,320.781 349.600,321.331 349.600 C 321.869 349.600,322.811 349.339,323.426 349.020 C 324.040 348.702,324.691 348.532,324.871 348.644 C 325.052 348.756,325.200 348.657,325.200 348.424 C 325.200 348.191,325.639 348.000,326.176 348.000 C 326.713 348.000,327.264 347.820,327.400 347.600 C 327.536 347.380,327.997 347.200,328.424 347.200 C 328.851 347.200,329.200 347.020,329.200 346.800 C 329.200 346.580,329.740 346.400,330.400 346.400 C 331.060 346.400,331.600 346.220,331.600 346.000 C 331.600 345.780,332.140 345.600,332.800 345.600 C 333.460 345.600,334.000 345.420,334.000 345.200 C 334.000 344.980,334.540 344.800,335.200 344.800 C 335.860 344.800,336.400 344.620,336.400 344.400 C 336.400 344.180,336.760 344.000,337.200 344.000 C 337.640 344.000,338.000 343.820,338.000 343.600 C 338.000 343.380,338.529 343.200,339.176 343.200 C 339.823 343.200,340.464 343.020,340.600 342.800 C 340.736 342.580,341.197 342.400,341.624 342.400 C 342.051 342.400,342.400 342.220,342.400 342.000 C 342.400 341.780,342.940 341.600,343.600 341.600 C 344.260 341.600,344.800 341.426,344.800 341.213 C 344.800 340.999,345.046 340.919,345.346 341.035 C 346.147 341.342,348.000 338.940,348.000 337.593 C 348.000 336.963,348.180 336.336,348.400 336.200 C 348.620 336.064,348.800 334.693,348.800 333.153 C 348.800 331.388,348.948 330.444,349.200 330.600 C 349.452 330.756,349.600 329.804,349.600 328.024 C 349.600 326.471,349.760 325.200,349.956 325.200 C 350.152 325.200,350.422 323.895,350.556 322.300 C 351.003 316.981,351.274 315.200,351.639 315.200 C 351.837 315.200,352.000 314.840,352.000 314.400 C 352.000 313.859,352.267 313.600,352.824 313.600 C 353.277 313.600,353.536 313.420,353.400 313.200 C 353.058 312.647,353.836 312.699,354.880 313.300 C 355.971 313.927,358.417 316.283,358.403 316.693 C 358.398 316.862,358.665 317.317,358.997 317.705 C 359.329 318.092,359.600 318.544,359.600 318.708 C 359.600 318.873,359.960 319.232,360.400 319.507 C 360.840 319.782,361.200 320.275,361.200 320.603 C 361.200 320.932,361.384 321.200,361.609 321.200 C 361.833 321.200,362.220 321.644,362.467 322.187 C 362.715 322.731,363.044 323.097,363.198 323.001 C 363.353 322.906,363.732 323.315,364.040 323.910 C 364.348 324.505,365.095 325.415,365.700 325.932 C 366.305 326.448,366.800 327.136,366.800 327.459 C 366.800 327.783,366.980 327.936,367.200 327.800 C 367.420 327.664,367.600 327.779,367.600 328.055 C 367.600 328.730,369.617 330.800,370.275 330.800 C 370.564 330.800,370.800 330.968,370.800 331.173 C 370.800 331.636,373.150 331.605,373.438 331.139 C 373.553 330.952,374.177 330.800,374.824 330.800 C 375.471 330.800,376.000 330.620,376.000 330.400 C 376.000 330.180,376.551 330.000,377.224 330.000 C 377.937 330.000,378.344 329.833,378.200 329.600 C 377.992 329.263,379.428 328.983,380.500 329.153 C 380.665 329.179,380.800 329.020,380.800 328.800 C 380.800 328.580,381.261 328.400,381.824 328.400 C 382.404 328.400,382.740 328.227,382.600 328.000 C 382.456 327.767,382.863 327.600,383.576 327.600 C 384.249 327.600,384.800 327.420,384.800 327.200 C 384.800 326.980,385.340 326.800,386.000 326.800 C 386.660 326.800,387.200 326.620,387.200 326.400 C 387.200 326.180,387.751 326.000,388.424 326.000 C 389.137 326.000,389.544 325.833,389.400 325.600 C 389.255 325.366,389.670 325.200,390.400 325.200 C 391.120 325.200,391.544 325.033,391.403 324.805 C 391.262 324.577,391.424 324.511,391.784 324.649 C 392.129 324.781,392.663 324.680,392.972 324.423 C 393.281 324.167,393.954 323.899,394.467 323.828 C 395.927 323.626,397.200 323.138,397.200 322.780 C 397.200 322.601,397.521 322.352,397.913 322.227 C 400.159 321.515,399.995 332.564,399.999 181.861 L 400.002 44.039 399.020 43.119 C 397.303 41.511,396.848 41.200,396.217 41.200 C 395.878 41.200,395.600 41.020,395.600 40.800 C 395.600 40.580,394.610 40.400,393.400 40.400 C 392.190 40.400,391.200 40.580,391.200 40.800 M84.362 100.389 C 86.639 101.042,88.330 102.472,89.192 104.474 C 90.567 107.665,90.560 107.688,83.403 121.994 C 80.431 127.934,78.000 133.022,78.000 133.301 C 78.000 133.579,81.962 137.765,86.804 142.603 C 96.345 152.136,97.148 153.263,96.644 156.415 C 96.051 160.121,93.181 162.600,89.528 162.562 C 86.918 162.535,85.733 161.645,77.930 153.857 C 74.262 150.196,71.158 147.200,71.032 147.200 C 70.906 147.200,68.711 151.385,66.153 156.500 C 59.485 169.837,57.439 171.598,51.980 168.700 C 46.478 165.779,46.739 163.327,54.144 148.375 C 57.365 141.872,60.000 136.431,60.000 136.285 C 60.000 136.139,56.108 132.100,51.352 127.309 C 39.824 115.700,38.954 113.829,43.000 109.355 C 47.154 104.762,49.824 105.719,59.414 115.239 C 63.381 119.177,66.757 122.400,66.915 122.400 C 67.073 122.400,69.269 118.215,71.794 113.100 C 77.193 102.166,77.742 101.422,81.177 100.379 C 82.599 99.948,82.825 99.948,84.362 100.389 M334.708 135.601 C 341.440 139.705,348.400 147.432,348.400 150.800 C 348.400 158.737,340.772 160.323,334.010 153.792 C 332.575 152.406,330.321 150.400,329.002 149.336 C 324.264 145.511,322.935 142.437,324.497 138.919 C 326.150 135.196,331.299 133.522,334.708 135.601 M359.486 167.868 C 366.568 171.228,369.746 201.368,363.566 206.567 C 360.900 208.810,358.682 209.251,356.175 208.037 C 352.203 206.111,351.372 203.923,351.997 197.022 C 352.573 190.651,352.151 186.096,350.409 179.896 C 348.937 174.657,348.883 172.731,350.146 170.644 C 352.039 167.516,356.163 166.291,359.486 167.868 M34.224 190.638 C 35.563 191.274,44.595 200.527,46.246 202.955 C 49.864 208.276,45.033 215.426,38.828 213.936 C 36.752 213.438,26.555 203.510,24.863 200.341 C 21.641 194.304,28.019 187.694,34.224 190.638 M350.568 219.944 C 353.825 221.856,355.233 226.259,353.604 229.437 C 353.093 230.434,345.861 240.231,345.216 240.800 C 345.091 240.910,344.181 241.988,343.195 243.196 C 341.300 245.515,341.110 245.741,337.237 250.268 C 332.571 255.723,327.808 256.308,324.236 251.863 C 322.941 250.251,322.408 245.157,323.463 244.471 C 323.692 244.322,323.952 243.991,324.040 243.736 C 324.128 243.481,325.037 242.311,326.059 241.136 C 329.691 236.964,334.636 230.944,337.183 227.596 C 338.604 225.728,339.865 224.110,339.985 224.000 C 340.106 223.890,340.708 223.124,341.324 222.299 C 343.466 219.425,347.802 218.320,350.568 219.944 M63.081 220.500 C 63.999 220.995,65.166 221.763,65.675 222.206 C 66.184 222.649,67.230 223.450,68.000 223.986 C 68.770 224.523,69.490 225.060,69.600 225.181 C 70.063 225.688,73.967 227.712,76.800 228.913 C 79.049 229.866,80.422 230.303,83.400 231.013 C 87.381 231.962,88.560 232.533,89.688 234.058 C 94.307 240.299,88.397 247.585,80.628 245.227 C 79.953 245.022,78.590 244.641,77.600 244.381 C 75.411 243.805,73.790 243.271,72.200 242.601 C 67.265 240.521,67.899 240.834,62.755 237.938 C 62.230 237.642,61.710 237.295,61.600 237.166 C 61.490 237.037,61.109 236.767,60.754 236.566 C 59.906 236.086,57.440 234.145,55.499 232.430 C 48.884 226.587,55.389 216.352,63.081 220.500 " stroke="none" fill="#e3c35c" fill-rule="evenodd"></path><path id="path4" d="M81.177 100.379 C 77.742 101.422,77.193 102.166,71.794 113.100 C 69.269 118.215,67.073 122.400,66.915 122.400 C 66.757 122.400,63.381 119.177,59.414 115.239 C 49.824 105.719,47.154 104.762,43.000 109.355 C 38.954 113.829,39.824 115.700,51.352 127.309 C 56.108 132.100,60.000 136.139,60.000 136.285 C 60.000 136.431,57.365 141.872,54.144 148.375 C 46.739 163.327,46.478 165.779,51.980 168.700 C 57.439 171.598,59.485 169.837,66.153 156.500 C 68.711 151.385,70.906 147.200,71.032 147.200 C 71.158 147.200,74.262 150.196,77.930 153.857 C 85.733 161.645,86.918 162.535,89.528 162.562 C 93.181 162.600,96.051 160.121,96.644 156.415 C 97.148 153.263,96.345 152.136,86.804 142.603 C 81.962 137.765,78.000 133.579,78.000 133.301 C 78.000 133.022,80.431 127.934,83.403 121.994 C 90.560 107.688,90.567 107.665,89.192 104.474 C 87.834 101.321,84.196 99.463,81.177 100.379 M85.972 101.585 C 90.653 104.090,90.230 106.925,83.022 121.336 C 79.773 127.831,77.179 133.333,77.258 133.563 C 77.336 133.793,81.360 137.991,86.200 142.891 C 95.941 152.753,96.000 152.828,96.000 155.414 C 96.000 159.636,92.536 162.415,88.142 161.719 C 86.801 161.507,85.603 160.492,78.959 153.937 C 74.756 149.792,71.126 146.400,70.892 146.400 C 70.658 146.400,68.268 150.812,65.582 156.203 C 59.098 169.218,56.148 171.502,51.197 167.336 C 47.427 164.164,47.643 163.049,54.827 148.571 C 59.158 139.845,60.756 136.251,60.505 135.802 C 60.313 135.459,56.195 131.178,51.354 126.289 C 46.513 121.400,42.337 116.897,42.076 116.281 C 41.496 114.919,41.452 112.539,42.000 112.200 C 42.220 112.064,42.400 111.661,42.400 111.305 C 42.400 110.249,45.037 108.131,46.684 107.864 C 50.401 107.261,50.770 107.494,59.034 115.671 C 63.991 120.576,66.867 123.144,67.234 122.992 C 67.545 122.864,69.867 118.584,72.394 113.480 C 78.646 100.849,80.903 98.872,85.972 101.585 M327.800 135.425 C 322.130 138.353,322.635 144.195,329.002 149.336 C 330.321 150.400,332.575 152.406,334.010 153.792 C 339.208 158.812,342.977 159.393,346.485 155.715 C 350.634 151.367,348.895 147.287,339.508 139.350 C 333.895 134.605,331.162 133.688,327.800 135.425 M333.658 135.700 C 340.950 139.540,348.885 148.829,347.778 152.231 C 345.636 158.813,340.656 159.258,334.389 153.428 C 332.480 151.653,329.716 149.145,328.246 147.857 C 324.363 144.450,323.572 142.027,325.291 138.806 C 326.885 135.819,330.991 134.295,333.658 135.700 M352.644 168.146 C 349.038 170.329,348.506 173.122,350.409 179.896 C 352.151 186.096,352.573 190.651,351.997 197.022 C 351.315 204.558,353.703 208.800,358.626 208.800 C 364.660 208.800,367.194 202.878,366.669 190.000 C 365.962 172.654,360.153 163.601,352.644 168.146 M358.013 167.863 C 358.734 168.007,359.972 168.772,360.763 169.563 C 362.124 170.925,362.462 171.708,364.406 178.000 C 367.190 187.016,366.884 202.283,363.850 205.659 C 361.645 208.113,357.569 208.587,355.068 206.679 C 352.579 204.780,352.249 203.704,352.597 198.618 C 353.189 189.974,352.917 186.675,351.093 180.400 C 348.460 171.346,351.141 166.488,358.013 167.863 M29.396 190.116 C 21.415 193.326,21.948 198.090,31.363 207.727 C 38.791 215.331,41.343 216.067,45.459 211.794 C 49.424 207.677,48.586 205.095,40.492 196.497 C 34.593 190.231,32.336 188.933,29.396 190.116 M34.807 191.610 C 36.110 192.532,44.727 201.720,45.900 203.439 C 50.327 209.925,39.909 217.454,35.200 211.172 C 35.090 211.025,33.020 208.799,30.600 206.225 C 24.487 199.722,23.565 197.584,25.322 193.982 C 26.870 190.808,31.896 189.551,34.807 191.610 M343.921 220.016 C 343.108 220.446,341.939 221.473,341.324 222.299 C 340.708 223.124,340.106 223.890,339.985 224.000 C 339.865 224.110,338.604 225.728,337.183 227.596 C 334.636 230.944,329.691 236.964,326.059 241.136 C 325.037 242.311,324.128 243.481,324.040 243.736 C 323.952 243.991,323.692 244.322,323.463 244.471 C 322.408 245.157,322.941 250.251,324.236 251.863 C 327.808 256.308,332.571 255.723,337.237 250.268 C 341.110 245.741,341.300 245.515,343.195 243.196 C 344.181 241.988,345.091 240.910,345.216 240.800 C 345.861 240.231,353.093 230.434,353.604 229.437 C 356.660 223.475,349.875 216.872,343.921 220.016 M57.376 219.940 C 53.710 221.098,51.546 226.414,53.333 229.871 C 54.070 231.296,58.491 235.284,60.754 236.566 C 61.109 236.767,61.490 237.037,61.600 237.166 C 61.710 237.295,62.230 237.642,62.755 237.938 C 67.899 240.834,67.265 240.521,72.200 242.601 C 73.790 243.271,75.411 243.805,77.600 244.381 C 78.590 244.641,79.953 245.022,80.628 245.227 C 88.397 247.585,94.307 240.299,89.688 234.058 C 88.560 232.533,87.381 231.962,83.400 231.013 C 80.422 230.303,79.049 229.866,76.800 228.913 C 73.967 227.712,70.063 225.688,69.600 225.181 C 69.490 225.060,68.770 224.523,68.000 223.986 C 67.230 223.450,66.184 222.649,65.675 222.206 C 63.136 219.994,59.955 219.125,57.376 219.940 M349.651 220.165 C 353.005 221.570,354.599 225.678,353.111 229.081 C 352.725 229.963,348.031 236.356,345.089 240.006 C 343.564 241.898,340.982 245.028,340.805 245.200 C 340.691 245.310,339.289 246.957,337.690 248.860 C 333.609 253.714,331.516 254.838,328.213 253.950 C 322.750 252.482,321.937 246.771,326.445 241.541 C 330.300 237.069,335.483 230.777,337.600 228.001 C 342.185 221.986,342.940 221.139,344.350 220.423 C 346.144 219.512,347.890 219.427,349.651 220.165 M64.322 221.960 C 65.575 222.818,66.960 223.853,67.400 224.260 C 70.016 226.679,76.742 229.849,82.400 231.330 C 87.591 232.688,88.174 232.953,89.311 234.475 C 93.325 239.848,88.012 246.825,81.428 244.827 C 80.753 244.622,79.390 244.236,78.400 243.969 C 75.670 243.234,73.144 242.405,71.700 241.771 C 70.985 241.457,69.725 240.907,68.900 240.548 C 63.598 238.245,55.069 232.023,53.842 229.564 C 52.576 227.027,53.164 224.066,55.387 221.774 C 57.336 219.765,61.235 219.846,64.322 221.960 M116.506 229.654 C 116.263 229.897,115.375 230.246,114.532 230.430 C 113.689 230.613,112.235 230.952,111.300 231.182 C 110.365 231.412,108.912 231.750,108.070 231.933 C 103.496 232.930,101.000 235.555,101.000 239.366 C 101.000 244.882,106.037 247.944,112.033 246.074 C 112.785 245.839,114.300 245.378,115.400 245.049 C 116.929 244.591,117.140 244.444,116.295 244.425 C 115.687 244.411,114.877 244.559,114.495 244.753 C 112.161 245.938,106.654 246.376,105.105 245.500 C 100.493 242.890,100.109 236.399,104.416 233.854 C 105.538 233.191,113.927 230.800,115.130 230.800 C 115.963 230.800,117.506 229.772,117.173 229.439 C 117.048 229.315,116.748 229.412,116.506 229.654 M309.234 260.687 C 308.133 260.899,305.875 262.289,304.395 263.665 C 303.842 264.179,301.412 266.400,298.995 268.600 C 296.578 270.800,294.510 272.692,294.400 272.805 C 294.290 272.919,293.215 273.819,292.011 274.805 C 286.130 279.628,284.513 281.161,283.998 282.404 C 283.726 283.062,283.345 283.600,283.151 283.600 C 282.958 283.600,282.800 284.414,282.800 285.408 C 282.800 290.014,287.593 293.841,291.914 292.685 C 294.229 292.066,300.550 286.897,312.532 275.828 C 314.802 273.731,316.729 271.572,317.199 270.601 C 319.786 265.259,315.191 259.539,309.234 260.687 M314.419 262.101 C 319.211 265.331,318.413 269.676,311.938 275.600 C 296.308 289.902,293.396 292.114,290.200 292.114 C 282.961 292.114,281.343 284.567,287.469 279.374 C 291.220 276.194,291.641 275.835,295.000 272.963 C 296.760 271.458,299.280 269.201,300.600 267.947 C 308.080 260.846,310.830 259.683,314.419 262.101 " stroke="none" fill="#cca464" fill-rule="evenodd"></path></g></svg>