<svg id="svg" version="1.1" xmlns="http://www.w3.org/2000/svg" xmlns:xlink="http://www.w3.org/1999/xlink" width="400" height="400" viewBox="0, 0, 400,400"><g id="svgg"><path id="path0" d="M134.000 75.088 C 133.450 75.187,132.843 75.419,132.651 75.603 C 132.459 75.787,132.968 75.788,133.783 75.604 C 134.597 75.420,135.369 75.164,135.498 75.035 C 135.743 74.790,135.643 74.794,134.000 75.088 M268.833 76.146 C 269.640 76.851,270.952 77.273,270.451 76.665 C 270.149 76.299,269.624 76.000,269.284 76.000 C 268.945 76.000,268.742 76.066,268.833 76.146 M93.681 101.219 C 93.181 102.019,93.193 102.023,94.185 101.373 C 95.318 100.631,95.439 100.400,94.696 100.400 C 94.419 100.400,93.962 100.769,93.681 101.219 M318.406 121.900 C 318.424 122.777,319.188 123.359,319.194 122.500 C 319.197 122.005,319.020 121.600,318.800 121.600 C 318.580 121.600,318.403 121.735,318.406 121.900 M187.600 127.664 C 186.170 127.817,182.390 128.034,179.200 128.147 C 173.556 128.346,165.435 128.918,162.200 129.344 C 161.320 129.460,158.980 129.753,157.000 129.995 C 150.587 130.779,133.921 133.406,131.600 133.999 C 130.830 134.195,127.860 134.838,125.000 135.427 C 118.625 136.739,110.243 138.770,106.200 139.982 C 105.540 140.180,103.650 140.742,102.000 141.232 C 100.350 141.721,96.903 142.814,94.341 143.661 C 91.778 144.507,89.391 145.200,89.035 145.200 C 88.680 145.200,88.077 145.359,87.695 145.553 C 86.525 146.148,85.084 146.685,83.200 147.226 C 82.210 147.511,81.220 147.868,81.000 148.020 C 80.780 148.172,79.880 148.523,79.000 148.800 C 78.120 149.077,77.220 149.439,77.000 149.605 C 76.780 149.770,75.894 149.858,75.031 149.802 C 73.941 149.730,73.215 149.928,72.655 150.449 C 72.212 150.862,71.521 151.200,71.120 151.200 C 70.719 151.200,69.538 151.602,68.496 152.092 C 67.453 152.583,66.285 152.932,65.900 152.867 C 65.515 152.803,65.200 152.941,65.200 153.175 C 65.200 153.409,64.840 153.600,64.400 153.600 C 63.960 153.600,63.600 153.737,63.600 153.904 C 63.600 154.071,63.221 154.444,62.758 154.733 C 62.194 155.086,62.012 155.104,62.207 154.788 C 62.368 154.529,62.057 154.606,61.517 154.960 C 60.978 155.314,60.416 155.482,60.268 155.335 C 60.121 155.187,60.000 155.277,60.000 155.533 C 60.000 155.790,59.640 156.000,59.200 156.000 C 58.760 156.000,58.399 156.135,58.397 156.300 C 58.393 156.665,56.451 157.600,55.697 157.600 C 55.398 157.600,55.264 157.780,55.400 158.000 C 55.547 158.239,55.063 158.400,54.200 158.400 C 53.277 158.400,52.848 158.554,53.017 158.827 C 53.162 159.062,53.038 159.199,52.740 159.133 C 52.015 158.971,49.600 160.001,49.600 160.472 C 49.600 160.678,49.445 160.752,49.256 160.635 C 48.875 160.399,44.937 162.255,44.575 162.841 C 44.448 163.046,44.177 163.109,43.972 162.983 C 43.768 162.856,43.600 162.943,43.600 163.176 C 43.600 163.409,43.319 163.600,42.976 163.600 C 42.633 163.600,42.445 163.750,42.559 163.933 C 42.672 164.117,42.512 164.267,42.203 164.267 C 41.470 164.267,38.000 166.110,38.000 166.499 C 38.000 166.665,37.816 166.800,37.591 166.800 C 37.367 166.800,36.447 167.287,35.548 167.882 C 34.648 168.477,33.527 169.021,33.056 169.090 C 32.585 169.159,32.002 169.479,31.760 169.801 C 31.519 170.124,31.204 170.270,31.060 170.127 C 30.917 169.984,30.800 170.077,30.800 170.333 C 30.800 170.590,30.429 170.800,29.976 170.800 C 29.523 170.800,29.264 170.980,29.400 171.200 C 29.540 171.427,29.204 171.600,28.624 171.600 C 28.061 171.600,27.600 171.780,27.600 172.000 C 27.600 172.220,27.412 172.400,27.183 172.400 C 26.953 172.400,26.278 172.859,25.683 173.421 C 25.087 173.982,23.745 174.815,22.700 175.270 C 21.655 175.726,20.800 176.256,20.800 176.449 C 20.800 176.642,20.665 176.779,20.500 176.753 C 19.639 176.617,19.250 176.865,19.462 177.416 C 19.610 177.803,19.500 177.989,19.167 177.916 C 18.875 177.852,18.606 178.025,18.568 178.300 C 18.531 178.575,18.477 178.991,18.450 179.224 C 18.422 179.457,18.246 179.552,18.058 179.436 C 17.474 179.075,17.493 185.188,18.078 185.909 C 18.466 186.388,18.472 186.477,18.100 186.253 C 17.825 186.088,17.600 186.128,17.600 186.343 C 17.600 186.558,17.766 186.793,17.968 186.867 C 18.171 186.940,18.383 187.990,18.441 189.200 C 18.498 190.410,18.681 191.494,18.848 191.609 C 19.015 191.724,19.191 193.022,19.238 194.494 C 19.286 195.966,19.477 197.076,19.663 196.961 C 19.848 196.847,20.000 197.717,20.000 198.896 C 20.000 200.075,20.225 201.282,20.500 201.579 C 20.906 202.016,20.888 202.058,20.400 201.800 C 19.912 201.542,19.894 201.584,20.300 202.021 C 20.575 202.318,20.800 203.323,20.800 204.256 C 20.800 205.189,20.980 206.064,21.200 206.200 C 21.420 206.336,21.600 207.325,21.600 208.398 C 21.600 209.470,21.779 210.820,21.999 211.397 C 22.264 212.094,22.264 212.363,21.999 212.199 C 21.779 212.064,21.600 212.143,21.600 212.376 C 21.600 212.609,21.780 212.800,22.000 212.800 C 22.222 212.800,22.400 213.859,22.400 215.176 C 22.400 216.483,22.580 217.664,22.800 217.800 C 23.020 217.936,23.200 218.836,23.200 219.800 C 23.200 220.764,23.355 221.649,23.545 221.766 C 23.735 221.884,23.922 223.379,23.961 225.090 C 24.000 226.800,24.205 228.260,24.416 228.333 C 24.627 228.407,24.800 229.532,24.800 230.833 C 24.800 232.135,24.940 233.200,25.111 233.200 C 25.283 233.200,25.376 233.965,25.318 234.900 C 25.260 235.835,25.328 236.870,25.467 237.200 C 25.959 238.364,26.081 239.020,26.175 241.000 C 26.306 243.797,26.358 244.073,26.713 243.854 C 26.885 243.747,26.980 244.674,26.924 245.913 C 26.868 247.152,27.006 248.280,27.232 248.420 C 27.458 248.559,27.714 249.827,27.802 251.237 C 27.890 252.646,28.145 254.780,28.369 255.978 C 28.593 257.176,28.699 258.234,28.604 258.329 C 28.509 258.424,28.662 258.974,28.944 259.551 C 29.225 260.128,29.410 261.458,29.354 262.507 C 29.296 263.611,29.411 264.317,29.627 264.183 C 29.952 263.983,30.232 267.191,30.023 268.730 C 29.984 269.021,30.140 269.486,30.370 269.764 C 30.600 270.041,30.816 271.153,30.850 272.234 C 30.884 273.315,31.051 274.380,31.222 274.600 C 31.393 274.821,31.579 276.081,31.635 277.400 C 31.692 278.720,31.895 279.905,32.086 280.034 C 32.277 280.163,32.459 281.387,32.490 282.756 C 32.521 284.124,32.693 285.334,32.873 285.445 C 33.053 285.556,33.200 286.345,33.200 287.198 C 33.200 288.050,33.370 289.196,33.578 289.743 C 33.786 290.290,33.997 291.750,34.047 292.988 C 34.097 294.226,34.287 295.330,34.469 295.443 C 34.651 295.555,34.800 296.771,34.800 298.144 C 34.800 299.517,34.970 300.811,35.178 301.020 C 35.385 301.229,35.599 302.255,35.652 303.300 C 35.706 304.345,35.896 305.200,36.075 305.200 C 36.254 305.200,36.400 306.370,36.400 307.800 C 36.400 309.267,36.574 310.400,36.800 310.400 C 37.032 310.400,37.212 311.785,37.228 313.700 C 37.247 315.916,37.369 316.737,37.600 316.200 C 37.846 315.627,37.969 316.138,38.033 318.000 C 38.149 321.406,38.160 321.494,38.505 321.838 C 38.667 322.001,38.800 322.643,38.800 323.267 C 38.800 323.890,38.980 324.400,39.200 324.400 C 39.420 324.400,39.600 324.630,39.600 324.911 C 39.600 326.301,41.875 327.468,44.767 327.562 C 46.565 327.620,47.600 327.498,47.600 327.227 C 47.600 326.992,48.230 326.800,49.000 326.800 C 49.770 326.800,50.400 326.662,50.400 326.493 C 50.400 326.324,51.390 325.758,52.600 325.236 C 53.810 324.713,54.800 324.121,54.800 323.919 C 54.800 323.718,54.980 323.664,55.200 323.800 C 55.420 323.936,55.600 323.846,55.600 323.600 C 55.600 323.354,55.775 323.261,55.989 323.393 C 56.203 323.526,56.674 323.289,57.036 322.867 C 57.399 322.442,58.010 322.182,58.401 322.284 C 58.791 322.386,59.231 322.274,59.378 322.035 C 59.526 321.796,59.919 321.600,60.252 321.600 C 60.585 321.600,61.129 321.328,61.461 320.996 C 61.793 320.664,62.211 320.483,62.390 320.594 C 62.570 320.705,62.818 320.529,62.943 320.204 C 63.083 319.839,63.429 319.713,63.850 319.875 C 64.311 320.052,64.438 319.985,64.242 319.668 C 64.056 319.368,64.253 319.200,64.790 319.200 C 65.251 319.200,66.064 318.914,66.596 318.566 C 67.129 318.217,67.781 318.064,68.044 318.227 C 68.322 318.399,68.419 318.355,68.275 318.121 C 68.040 317.742,71.058 316.491,71.700 316.701 C 71.865 316.756,72.000 316.620,72.000 316.400 C 72.000 316.180,72.338 316.000,72.751 316.000 C 73.164 316.000,73.724 315.732,73.996 315.404 C 74.268 315.077,74.635 314.898,74.811 315.007 C 74.987 315.116,75.192 315.025,75.266 314.806 C 75.340 314.586,75.882 314.367,76.471 314.319 C 77.060 314.270,77.455 314.088,77.348 313.915 C 77.240 313.742,77.693 313.600,78.353 313.600 C 79.013 313.600,79.664 313.420,79.800 313.200 C 79.936 312.980,80.397 312.800,80.824 312.800 C 81.251 312.800,81.600 312.620,81.600 312.400 C 81.600 312.180,82.125 312.000,82.767 312.000 C 83.408 312.000,83.993 311.836,84.067 311.637 C 84.140 311.437,84.560 311.212,85.000 311.137 C 85.440 311.061,85.906 310.856,86.036 310.680 C 86.166 310.504,86.648 310.332,87.108 310.297 C 87.568 310.262,87.856 310.091,87.749 309.917 C 87.641 309.743,88.204 309.600,89.000 309.600 C 89.796 309.600,90.348 309.440,90.228 309.245 C 90.107 309.049,90.501 308.788,91.104 308.663 C 94.765 307.906,96.660 307.363,97.093 306.946 C 97.364 306.685,97.968 306.571,98.434 306.693 C 98.900 306.815,99.414 306.700,99.576 306.438 C 99.738 306.176,100.305 305.912,100.835 305.850 C 101.366 305.788,102.070 305.619,102.400 305.474 C 102.730 305.328,103.360 305.157,103.800 305.093 C 104.240 305.029,104.793 304.856,105.028 304.709 C 105.263 304.562,105.893 304.359,106.428 304.258 C 106.963 304.156,107.910 303.876,108.534 303.634 C 109.157 303.392,109.817 303.287,109.999 303.400 C 110.182 303.513,110.400 303.401,110.483 303.152 C 110.565 302.904,111.166 302.703,111.817 302.706 C 112.468 302.709,113.214 302.538,113.476 302.327 C 113.738 302.115,114.498 301.900,115.165 301.849 C 115.832 301.798,116.502 301.631,116.655 301.478 C 116.808 301.325,117.353 301.200,117.867 301.200 C 118.380 301.200,118.800 301.020,118.800 300.800 C 118.800 300.580,118.991 300.400,119.224 300.400 C 119.457 300.400,119.541 300.572,119.410 300.783 C 119.280 300.994,119.651 300.918,120.235 300.615 C 120.819 300.312,121.635 300.130,122.049 300.209 C 122.462 300.289,122.800 300.184,122.800 299.977 C 122.800 299.770,123.419 299.600,124.176 299.600 C 124.933 299.600,125.664 299.420,125.800 299.200 C 125.936 298.980,126.947 298.800,128.047 298.800 C 129.279 298.800,129.952 298.646,129.800 298.400 C 129.653 298.162,130.121 298.000,130.953 298.000 C 131.723 298.000,132.464 297.820,132.600 297.600 C 132.962 297.014,133.698 297.110,133.365 297.700 C 133.139 298.100,133.190 298.100,133.621 297.700 C 133.918 297.425,135.024 297.200,136.080 297.200 C 137.136 297.200,138.000 297.020,138.000 296.800 C 138.000 296.580,138.799 296.400,139.776 296.400 C 140.753 296.400,141.664 296.220,141.800 296.000 C 141.936 295.780,143.207 295.600,144.624 295.600 C 146.075 295.600,147.200 295.425,147.200 295.200 C 147.200 294.978,148.256 294.800,149.567 294.800 C 150.868 294.800,151.993 294.633,152.067 294.428 C 152.140 294.223,153.492 294.004,155.070 293.942 C 156.649 293.879,157.853 293.686,157.747 293.514 C 157.575 293.236,162.485 292.967,164.600 293.138 C 165.259 293.191,165.294 293.133,164.800 292.807 C 164.296 292.476,171.017 292.093,172.542 292.367 C 172.730 292.400,173.104 292.246,173.372 292.024 C 173.650 291.793,176.554 291.602,180.130 291.578 C 183.578 291.556,186.400 291.417,186.400 291.269 C 186.400 291.121,192.520 291.000,200.000 291.000 C 207.480 291.000,213.600 291.135,213.600 291.300 C 213.600 291.465,216.469 291.600,219.976 291.600 C 223.906 291.600,226.450 291.758,226.607 292.011 C 226.746 292.236,227.072 292.395,227.330 292.363 C 228.981 292.159,235.708 292.471,235.296 292.732 C 235.016 292.910,236.346 293.095,238.282 293.148 C 240.201 293.201,241.958 293.389,242.186 293.566 C 242.414 293.743,243.770 293.923,245.200 293.966 C 246.630 294.009,247.860 294.215,247.933 294.422 C 248.007 294.630,249.132 294.800,250.433 294.800 C 251.744 294.800,252.800 294.978,252.800 295.200 C 252.800 295.425,253.925 295.600,255.376 295.600 C 256.793 295.600,258.064 295.780,258.200 296.000 C 258.336 296.220,259.211 296.400,260.144 296.400 C 261.077 296.400,262.082 296.625,262.379 296.900 C 262.810 297.300,262.861 297.300,262.635 296.900 C 262.480 296.625,262.543 296.400,262.776 296.400 C 263.009 296.400,263.200 296.580,263.200 296.800 C 263.200 297.020,263.794 297.200,264.520 297.200 C 265.246 297.200,266.082 297.425,266.379 297.700 C 266.810 298.100,266.861 298.100,266.635 297.700 C 266.302 297.110,267.038 297.014,267.400 297.600 C 267.536 297.820,268.177 298.000,268.824 298.000 C 269.471 298.000,270.000 298.151,270.000 298.335 C 270.000 298.519,270.846 298.702,271.880 298.741 C 272.914 298.781,273.859 298.949,273.980 299.115 C 274.101 299.281,274.830 299.476,275.600 299.549 C 276.370 299.621,277.113 299.863,277.252 300.085 C 277.406 300.333,277.587 300.279,277.720 299.945 C 277.874 299.558,277.946 299.545,277.968 299.900 C 277.986 300.175,278.405 300.402,278.900 300.404 C 279.395 300.407,280.700 300.691,281.800 301.036 C 282.900 301.381,284.340 301.756,285.000 301.869 C 285.660 301.982,286.412 302.249,286.670 302.462 C 286.929 302.675,287.379 302.816,287.670 302.777 C 289.207 302.569,290.583 302.823,290.000 303.208 C 289.547 303.507,289.708 303.583,290.660 303.520 C 291.353 303.474,292.243 303.698,292.637 304.018 C 293.268 304.530,293.311 304.528,293.000 304.000 C 292.695 303.482,292.739 303.475,293.323 303.949 C 293.695 304.251,294.000 304.358,294.000 304.187 C 294.000 304.016,294.337 304.181,294.750 304.555 C 295.162 304.928,295.657 305.205,295.850 305.169 C 297.041 304.951,298.417 305.249,298.158 305.668 C 297.959 305.990,298.094 306.050,298.591 305.859 C 299.005 305.700,299.706 305.840,300.235 306.186 C 300.743 306.519,301.414 306.693,301.727 306.572 C 302.041 306.452,302.547 306.604,302.853 306.910 C 303.159 307.216,303.902 307.400,304.504 307.319 C 305.107 307.239,305.600 307.359,305.600 307.586 C 305.600 307.814,305.949 308.000,306.376 308.000 C 306.803 308.000,307.264 308.180,307.400 308.400 C 307.536 308.620,308.087 308.800,308.624 308.800 C 309.161 308.800,309.600 308.960,309.600 309.156 C 309.600 309.351,309.825 309.503,310.100 309.493 C 311.564 309.438,312.419 309.645,312.200 310.000 C 312.060 310.227,312.396 310.400,312.976 310.400 C 313.539 310.400,314.000 310.542,314.000 310.715 C 314.000 310.888,314.402 311.060,314.894 311.097 C 315.386 311.134,315.851 311.352,315.927 311.582 C 316.004 311.812,316.692 312.000,317.457 312.000 C 318.282 312.000,318.747 312.163,318.600 312.400 C 318.464 312.620,318.713 312.800,319.153 312.800 C 319.593 312.800,320.064 312.980,320.200 313.200 C 320.336 313.420,321.112 313.603,321.924 313.606 C 323.024 313.611,323.247 313.711,322.800 314.000 C 322.345 314.294,322.514 314.389,323.500 314.394 C 324.215 314.397,324.800 314.580,324.800 314.800 C 324.800 315.020,324.935 315.179,325.100 315.153 C 326.004 315.010,326.815 315.252,326.600 315.600 C 326.390 315.940,327.509 316.204,328.500 316.047 C 328.665 316.021,328.800 316.180,328.800 316.400 C 328.800 316.620,329.070 316.800,329.400 316.800 C 329.730 316.800,330.000 316.991,330.000 317.224 C 330.000 317.457,330.165 317.545,330.368 317.420 C 330.570 317.295,331.029 317.486,331.387 317.844 C 331.745 318.202,332.145 318.389,332.275 318.258 C 332.406 318.128,332.982 318.270,333.556 318.575 C 334.130 318.880,335.185 319.347,335.900 319.613 C 336.615 319.879,337.200 320.255,337.200 320.449 C 337.200 320.642,337.661 320.800,338.224 320.800 C 338.903 320.800,339.150 320.957,338.958 321.268 C 338.764 321.583,338.887 321.652,339.334 321.481 C 340.091 321.190,341.286 321.537,341.019 321.969 C 340.837 322.264,343.566 323.426,344.100 323.281 C 344.265 323.237,344.400 323.354,344.400 323.543 C 344.400 323.731,345.570 324.406,346.999 325.043 C 348.429 325.679,349.599 326.335,349.599 326.500 C 349.600 326.665,349.960 326.800,350.400 326.800 C 350.840 326.800,351.200 326.999,351.200 327.243 C 351.200 327.486,351.425 327.600,351.700 327.495 C 351.975 327.391,352.650 327.486,353.200 327.708 C 354.640 328.288,356.727 328.442,357.007 327.989 C 357.139 327.775,357.531 327.600,357.877 327.600 C 358.589 327.600,360.399 325.663,360.400 324.900 C 360.400 324.625,360.580 324.400,360.800 324.400 C 361.020 324.400,361.200 323.860,361.200 323.200 C 361.200 322.540,361.380 322.000,361.600 322.000 C 361.826 322.000,362.000 320.867,362.000 319.400 C 362.000 317.933,362.174 316.800,362.400 316.800 C 362.631 316.800,362.800 315.533,362.800 313.800 C 362.800 312.067,362.969 310.800,363.200 310.800 C 363.420 310.800,363.600 309.821,363.600 308.624 C 363.600 307.427,363.737 306.362,363.905 306.259 C 364.073 306.155,364.257 305.025,364.313 303.747 C 364.370 302.469,364.593 301.247,364.808 301.032 C 365.024 300.816,365.200 299.536,365.200 298.187 C 365.200 296.837,365.326 295.607,365.480 295.453 C 365.635 295.299,365.831 294.234,365.917 293.086 C 366.002 291.939,366.281 290.740,366.536 290.423 C 366.895 289.977,366.887 289.914,366.500 290.147 C 366.225 290.312,366.000 290.257,366.000 290.024 C 366.000 289.791,366.163 289.600,366.363 289.600 C 366.563 289.600,366.818 288.655,366.931 287.500 C 367.509 281.578,367.709 280.145,368.039 279.527 C 368.238 279.156,368.400 278.041,368.400 277.050 C 368.400 276.058,368.556 275.151,368.747 275.033 C 368.938 274.915,369.103 273.831,369.114 272.624 C 369.125 271.418,369.284 270.199,369.467 269.915 C 369.804 269.393,369.875 268.779,369.955 265.676 C 369.980 264.728,370.137 264.037,370.304 264.141 C 370.472 264.244,370.664 263.320,370.731 262.087 C 370.799 260.855,371.040 259.499,371.267 259.074 C 371.495 258.650,371.577 257.784,371.450 257.151 C 371.324 256.518,371.421 255.505,371.666 254.900 C 371.911 254.295,372.159 252.652,372.217 251.248 C 372.274 249.844,372.507 248.581,372.735 248.440 C 372.967 248.297,373.092 247.183,373.021 245.898 C 372.951 244.640,373.040 243.701,373.218 243.811 C 373.698 244.108,373.960 242.839,373.840 240.800 C 373.782 239.810,373.894 238.893,374.091 238.762 C 374.449 238.523,374.621 237.250,375.071 231.500 C 375.205 229.795,375.439 228.400,375.592 228.400 C 375.744 228.400,375.909 227.275,375.957 225.900 C 376.006 224.525,376.216 223.229,376.423 223.020 C 376.630 222.811,376.800 221.607,376.800 220.344 C 376.800 219.081,376.980 217.936,377.200 217.800 C 377.420 217.664,377.600 216.383,377.600 214.953 C 377.600 213.523,377.736 212.437,377.902 212.540 C 378.069 212.642,378.251 211.708,378.307 210.463 C 378.364 209.218,378.576 207.390,378.779 206.400 C 379.545 202.659,380.000 199.709,380.000 198.476 C 380.000 197.774,380.180 197.200,380.400 197.200 C 380.620 197.200,380.800 197.009,380.800 196.776 C 380.800 196.543,380.575 196.480,380.300 196.635 C 379.900 196.861,379.900 196.810,380.300 196.379 C 380.582 196.075,380.800 194.817,380.800 193.496 C 380.800 192.207,380.950 191.245,381.132 191.358 C 381.315 191.471,381.506 190.541,381.557 189.290 C 381.607 188.040,381.797 186.923,381.979 186.809 C 382.640 186.391,382.481 179.317,381.805 179.057 C 381.465 178.927,381.008 178.348,380.788 177.770 C 380.526 177.080,380.185 176.797,379.794 176.947 C 379.450 177.079,379.200 176.948,379.200 176.636 C 379.200 176.340,378.645 175.867,377.966 175.586 C 377.287 175.305,376.515 174.878,376.250 174.637 C 375.733 174.167,374.676 173.530,372.300 172.256 C 371.475 171.814,370.800 171.305,370.800 171.126 C 370.800 170.947,370.468 170.800,370.062 170.800 C 369.656 170.800,368.998 170.440,368.600 170.000 C 368.202 169.560,367.464 169.200,366.961 169.200 C 366.457 169.200,365.765 168.800,365.423 168.311 C 365.080 167.822,364.800 167.553,364.800 167.713 C 364.800 168.094,360.975 166.022,359.995 165.110 C 359.576 164.719,358.956 164.400,358.617 164.400 C 358.278 164.400,358.000 164.220,358.000 164.000 C 358.000 163.780,357.607 163.600,357.126 163.600 C 356.645 163.600,355.858 163.231,355.378 162.779 C 354.897 162.328,354.133 161.930,353.680 161.896 C 353.226 161.862,352.931 161.712,353.023 161.562 C 353.115 161.413,352.788 161.160,352.296 160.999 C 351.071 160.601,350.832 160.516,350.600 160.400 C 350.280 160.240,349.649 160.104,348.976 160.050 C 348.633 160.023,348.464 159.820,348.600 159.600 C 348.736 159.380,348.612 159.173,348.324 159.141 C 348.036 159.108,347.530 159.056,347.200 159.025 C 346.424 158.951,343.440 157.491,343.267 157.100 C 343.193 156.935,342.788 156.800,342.367 156.800 C 341.945 156.800,341.600 156.609,341.600 156.376 C 341.600 156.143,341.435 156.055,341.232 156.180 C 341.030 156.305,340.580 156.123,340.232 155.775 C 339.885 155.427,339.600 155.266,339.600 155.417 C 339.600 155.568,339.156 155.401,338.614 155.046 C 338.072 154.691,337.296 154.400,336.889 154.400 C 336.483 154.400,335.770 154.045,335.305 153.612 C 334.710 153.057,334.400 152.968,334.261 153.312 C 334.109 153.688,334.056 153.685,334.032 153.300 C 334.014 153.025,333.766 152.800,333.480 152.800 C 332.650 152.800,330.807 151.838,330.797 151.400 C 330.792 151.180,330.613 151.270,330.400 151.600 C 330.142 152.000,330.010 152.033,330.006 151.700 C 330.003 151.425,329.640 151.200,329.200 151.200 C 328.760 151.200,328.400 151.058,328.400 150.885 C 328.400 150.712,328.011 150.541,327.536 150.505 C 327.061 150.469,326.566 150.280,326.436 150.083 C 326.306 149.887,325.660 149.739,325.000 149.753 C 323.949 149.777,321.549 149.064,319.000 147.973 C 315.228 146.357,296.878 140.734,286.600 138.044 C 281.964 136.831,269.220 134.042,265.400 133.405 C 264.520 133.258,262.900 132.987,261.800 132.801 C 255.820 131.794,254.356 131.557,251.800 131.181 C 239.624 129.391,232.023 128.652,218.800 127.971 C 208.819 127.458,191.157 127.284,187.600 127.664 M75.450 141.650 C 75.102 143.391,75.214 144.462,75.591 143.000 C 75.762 142.340,76.033 141.485,76.193 141.100 C 76.356 140.710,76.312 140.400,76.093 140.400 C 75.877 140.400,75.588 140.963,75.450 141.650 M202.974 145.997 C 206.450 147.699,206.400 147.412,206.400 165.594 L 206.400 181.600 222.320 181.600 L 238.240 181.600 239.879 182.663 C 242.408 184.303,244.740 190.800,242.800 190.800 C 242.580 190.800,242.396 191.115,242.391 191.500 C 242.380 192.441,240.055 194.385,238.147 195.050 C 236.958 195.463,233.109 195.589,221.500 195.594 L 206.400 195.600 206.400 211.426 C 206.400 222.410,206.262 227.511,205.949 228.096 C 203.427 232.808,196.573 232.808,194.051 228.096 C 193.738 227.511,193.600 222.410,193.600 211.426 L 193.600 195.600 178.500 195.594 C 166.891 195.589,163.042 195.463,161.853 195.050 C 159.945 194.385,157.620 192.441,157.609 191.500 C 157.604 191.115,157.420 190.800,157.200 190.800 C 155.260 190.800,157.592 184.303,160.121 182.663 L 161.760 181.600 177.680 181.600 L 193.600 181.600 193.600 165.594 C 193.600 149.676,193.605 149.581,194.500 148.195 C 196.276 145.443,199.916 144.499,202.974 145.997 " stroke="none" fill="#e7e4e4" fill-rule="evenodd"></path><path id="path1" d="M197.400 146.467 C 193.833 148.440,193.831 148.450,193.602 166.400 L 193.400 182.200 177.400 182.400 C 160.680 182.609,160.628 182.615,158.949 184.463 C 155.992 187.719,157.578 193.179,161.823 194.358 C 162.836 194.639,168.798 194.796,178.500 194.798 L 193.600 194.800 193.600 209.623 C 193.600 225.662,193.758 227.192,195.616 229.092 C 198.142 231.675,201.858 231.675,204.384 229.092 C 206.242 227.192,206.400 225.662,206.400 209.623 L 206.400 194.800 221.500 194.798 C 231.202 194.796,237.164 194.639,238.177 194.358 C 243.317 192.931,244.092 185.780,239.400 183.063 C 238.847 182.743,233.659 182.538,222.600 182.400 L 206.600 182.200 206.400 166.400 C 206.177 148.751,206.203 148.912,203.219 146.901 C 201.749 145.910,198.804 145.690,197.400 146.467 " stroke="none" fill="#ed1c24" fill-rule="evenodd"></path><path id="path2" d="M147.600 72.798 C 147.270 73.012,145.890 73.191,144.533 73.194 C 143.177 73.197,142.007 73.370,141.933 73.579 C 141.860 73.787,140.955 74.000,139.922 74.052 C 138.889 74.104,138.135 74.294,138.245 74.474 C 138.356 74.653,137.885 74.800,137.197 74.800 C 136.510 74.800,135.619 74.976,135.218 75.190 C 134.817 75.405,133.915 75.624,133.214 75.678 C 132.513 75.731,131.850 75.918,131.742 76.094 C 131.633 76.269,131.377 76.309,131.172 76.183 C 130.968 76.056,130.800 76.143,130.800 76.376 C 130.800 76.609,130.665 76.779,130.500 76.753 C 130.335 76.727,130.110 76.740,130.000 76.783 C 129.890 76.826,129.471 76.924,129.069 77.000 C 128.667 77.076,128.037 77.269,127.669 77.430 C 127.301 77.590,126.733 77.774,126.407 77.839 C 126.081 77.903,125.755 78.136,125.681 78.356 C 125.608 78.575,125.281 78.653,124.955 78.527 C 124.629 78.402,124.145 78.596,123.880 78.958 C 123.615 79.321,122.859 79.711,122.199 79.826 C 121.540 79.940,120.802 80.294,120.560 80.611 C 120.319 80.928,120.021 81.088,119.899 80.966 C 119.702 80.769,118.120 81.480,117.600 82.000 C 117.134 82.466,115.567 83.200,115.039 83.200 C 114.724 83.200,114.407 83.345,114.333 83.523 C 114.260 83.701,113.300 84.454,112.200 85.196 C 111.100 85.938,110.054 86.786,109.875 87.081 C 109.697 87.376,109.382 87.512,109.175 87.385 C 108.969 87.257,108.800 87.343,108.800 87.576 C 108.800 87.809,108.596 88.000,108.347 88.000 C 108.098 88.000,107.603 88.316,107.247 88.703 C 106.891 89.089,106.102 89.661,105.492 89.974 C 104.883 90.287,104.559 90.651,104.772 90.783 C 104.986 90.915,104.628 91.258,103.978 91.546 C 103.327 91.834,102.897 92.234,103.021 92.435 C 103.146 92.636,102.967 92.800,102.624 92.800 C 102.281 92.800,102.000 92.991,102.000 93.224 C 102.000 93.457,101.847 93.553,101.660 93.437 C 101.473 93.322,101.086 93.665,100.800 94.200 C 100.514 94.735,100.172 95.122,100.040 95.061 C 99.908 94.999,99.401 95.365,98.914 95.874 C 98.427 96.383,98.157 96.801,98.314 96.803 C 98.471 96.804,98.104 97.133,97.497 97.533 C 96.890 97.933,96.515 98.382,96.663 98.530 C 96.812 98.679,96.623 98.800,96.243 98.800 C 95.863 98.800,95.652 98.961,95.774 99.158 C 95.896 99.355,95.715 99.624,95.372 99.755 C 95.030 99.887,94.854 100.164,94.982 100.370 C 95.110 100.577,94.681 101.062,94.029 101.447 C 93.377 101.832,92.910 102.254,92.991 102.385 C 93.072 102.516,92.522 103.336,91.769 104.207 C 91.016 105.078,90.400 105.936,90.400 106.114 C 90.400 106.291,89.964 106.872,89.431 107.405 C 88.898 107.938,88.346 108.740,88.204 109.187 C 88.062 109.634,87.778 110.000,87.573 110.000 C 87.368 110.000,87.200 110.270,87.200 110.600 C 87.200 110.930,87.056 111.200,86.880 111.200 C 86.705 111.200,86.332 111.833,86.052 112.606 C 85.773 113.380,85.376 113.909,85.172 113.783 C 84.967 113.656,84.800 114.013,84.800 114.576 C 84.800 115.139,84.612 115.600,84.382 115.600 C 84.153 115.600,84.018 115.915,84.082 116.300 C 84.151 116.711,83.981 116.955,83.670 116.890 C 83.379 116.830,83.246 116.950,83.374 117.158 C 83.502 117.366,83.329 117.814,82.989 118.153 C 82.650 118.493,82.378 118.868,82.386 118.986 C 82.456 120.040,82.339 120.409,82.000 120.200 C 81.780 120.064,81.600 120.313,81.600 120.753 C 81.600 121.193,81.420 121.664,81.200 121.800 C 80.980 121.936,80.800 122.487,80.800 123.024 C 80.800 123.561,80.653 124.000,80.472 124.000 C 80.292 124.000,79.896 124.911,79.593 126.025 C 79.290 127.139,78.897 128.140,78.721 128.249 C 78.544 128.358,78.400 128.941,78.400 129.544 C 78.400 130.147,78.223 130.817,78.007 131.033 C 77.790 131.250,77.565 132.078,77.507 132.874 C 77.448 133.671,77.261 134.237,77.091 134.132 C 76.922 134.028,76.804 134.450,76.829 135.071 C 76.854 135.692,76.741 136.650,76.577 137.200 C 76.412 137.750,76.249 138.830,76.214 139.600 C 76.178 140.370,76.030 141.360,75.885 141.800 C 75.740 142.240,75.540 143.631,75.440 144.890 C 75.341 146.150,75.146 147.365,75.006 147.590 C 74.867 147.816,74.950 148.000,75.190 148.000 C 75.499 148.000,75.506 148.228,75.214 148.773 C 74.736 149.667,76.053 150.371,76.919 149.685 C 77.184 149.476,78.120 149.077,79.000 148.800 C 79.880 148.523,80.780 148.172,81.000 148.020 C 81.220 147.868,82.210 147.511,83.200 147.226 C 85.084 146.685,86.525 146.148,87.695 145.553 C 88.077 145.359,88.680 145.200,89.035 145.200 C 89.391 145.200,91.778 144.507,94.341 143.661 C 96.903 142.814,100.350 141.721,102.000 141.232 C 103.650 140.742,105.540 140.180,106.200 139.982 C 110.243 138.770,118.625 136.739,125.000 135.427 C 127.860 134.838,130.830 134.195,131.600 133.999 C 133.921 133.406,150.587 130.779,157.000 129.995 C 158.980 129.753,161.320 129.460,162.200 129.344 C 165.466 128.914,173.575 128.346,179.200 128.152 C 182.390 128.043,186.260 127.818,187.800 127.652 C 193.593 127.029,218.281 127.665,231.600 128.780 C 237.599 129.282,244.307 130.079,251.800 131.181 C 254.356 131.557,255.820 131.794,261.800 132.801 C 262.900 132.987,264.520 133.258,265.400 133.405 C 269.220 134.042,281.964 136.831,286.600 138.044 C 296.749 140.701,314.689 146.190,319.000 147.958 C 322.633 149.449,324.136 149.923,324.627 149.734 C 325.230 149.503,325.404 148.337,324.909 147.842 C 324.749 147.682,324.567 146.274,324.505 144.712 C 324.443 143.151,324.231 141.677,324.035 141.437 C 323.838 141.196,323.746 140.417,323.830 139.704 C 323.914 138.992,323.780 137.912,323.531 137.304 C 323.282 136.697,323.117 135.808,323.164 135.328 C 323.211 134.849,322.964 133.904,322.615 133.228 C 322.265 132.553,322.070 132.000,322.180 132.000 C 322.290 132.000,322.184 131.505,321.945 130.900 C 321.706 130.295,321.473 129.530,321.427 129.200 C 321.310 128.357,320.916 127.367,319.571 124.534 C 318.927 123.178,318.400 121.622,318.400 121.077 C 318.400 120.532,318.111 119.975,317.758 119.839 C 317.381 119.694,317.214 119.340,317.354 118.976 C 317.489 118.623,317.422 118.463,317.195 118.603 C 316.974 118.740,316.800 118.396,316.800 117.824 C 316.800 117.261,316.646 116.800,316.457 116.800 C 316.268 116.800,315.687 115.810,315.164 114.600 C 314.642 113.390,314.076 112.400,313.907 112.400 C 313.738 112.400,313.600 112.130,313.600 111.800 C 313.600 111.470,313.420 111.200,313.200 111.200 C 312.980 111.200,312.800 111.012,312.800 110.783 C 312.800 110.554,312.440 109.980,312.000 109.508 C 311.560 109.036,311.200 108.456,311.200 108.220 C 311.200 107.983,310.762 107.461,310.226 107.059 C 309.682 106.650,309.348 106.079,309.469 105.764 C 309.591 105.447,309.444 105.200,309.134 105.200 C 308.830 105.200,308.227 104.540,307.793 103.734 C 307.359 102.928,306.299 101.578,305.438 100.734 C 304.577 99.890,303.982 99.200,304.116 99.200 C 304.397 99.200,298.769 93.635,296.531 91.700 C 295.704 90.985,294.816 90.400,294.559 90.400 C 294.301 90.400,293.665 89.862,293.145 89.204 C 292.625 88.546,291.975 88.006,291.700 88.004 C 291.425 88.002,291.200 87.820,291.200 87.600 C 291.200 87.380,290.930 87.200,290.600 87.200 C 290.270 87.200,290.000 87.039,290.000 86.843 C 290.000 86.646,289.721 86.378,289.379 86.247 C 288.971 86.091,288.844 86.178,289.009 86.505 C 289.147 86.777,289.001 86.685,288.686 86.300 C 288.370 85.915,287.896 85.600,287.632 85.600 C 287.369 85.600,287.247 85.447,287.363 85.260 C 287.478 85.073,287.129 84.683,286.586 84.393 C 286.044 84.102,285.600 83.715,285.600 83.532 C 285.600 83.350,285.390 83.200,285.134 83.200 C 284.458 83.200,281.600 81.893,281.600 81.584 C 281.600 81.323,278.684 80.000,276.800 79.406 C 276.043 79.167,274.158 78.158,273.963 77.887 C 273.833 77.706,273.563 77.606,273.363 77.664 C 273.164 77.722,272.580 77.537,272.066 77.253 C 271.552 76.968,271.034 76.833,270.915 76.952 C 270.796 77.071,270.176 76.898,269.538 76.568 C 268.899 76.237,268.202 76.075,267.988 76.207 C 267.775 76.339,267.600 76.257,267.600 76.024 C 267.600 75.791,267.060 75.600,266.400 75.600 C 265.740 75.600,265.200 75.420,265.200 75.200 C 265.200 74.980,264.480 74.800,263.600 74.800 C 262.720 74.800,262.000 74.620,262.000 74.400 C 262.000 74.180,261.100 74.000,260.000 74.000 C 258.900 74.000,258.000 73.835,258.000 73.633 C 258.000 72.688,149.038 71.865,147.600 72.798 M197.000 146.001 C 195.144 146.928,193.584 149.105,193.636 150.694 C 193.670 151.730,193.697 151.712,194.069 150.400 C 195.723 144.560,203.752 144.474,205.820 150.274 C 206.319 151.672,206.366 151.708,206.382 150.694 C 206.445 146.766,200.958 144.022,197.000 146.001 M160.121 182.663 C 157.592 184.303,155.260 190.800,157.200 190.800 C 157.420 190.800,157.604 191.115,157.609 191.500 C 157.620 192.441,159.945 194.385,161.853 195.050 C 163.776 195.719,193.600 195.860,193.600 195.200 C 193.600 194.940,188.299 194.799,178.500 194.798 C 168.798 194.796,162.836 194.639,161.823 194.358 C 157.574 193.178,156.000 187.748,158.949 184.448 C 160.727 182.460,161.278 182.400,177.764 182.400 C 187.592 182.400,193.242 182.255,193.400 182.000 C 193.563 181.736,188.231 181.600,177.704 181.600 L 161.760 181.600 160.121 182.663 M206.600 182.000 C 206.758 182.255,212.408 182.400,222.236 182.400 C 234.380 182.400,237.897 182.516,238.913 182.948 C 244.082 185.151,243.585 192.856,238.177 194.358 C 237.164 194.639,231.202 194.796,221.500 194.798 C 211.701 194.799,206.400 194.940,206.400 195.200 C 206.400 195.860,236.224 195.719,238.147 195.050 C 240.055 194.385,242.380 192.441,242.391 191.500 C 242.396 191.115,242.580 190.800,242.800 190.800 C 244.740 190.800,242.408 184.303,239.879 182.663 L 238.240 181.600 222.296 181.600 C 211.769 181.600,206.437 181.736,206.600 182.000 M193.631 226.126 C 193.551 229.043,196.527 231.600,200.000 231.600 C 203.473 231.600,206.449 229.043,206.369 226.126 C 206.341 225.084,206.303 225.113,205.869 226.506 C 204.009 232.477,195.991 232.477,194.131 226.506 C 193.697 225.113,193.659 225.084,193.631 226.126 M196.105 291.087 C 196.714 291.179,197.614 291.177,198.105 291.082 C 198.597 290.987,198.100 290.911,197.000 290.914 C 195.900 290.917,195.497 290.995,196.105 291.087 M202.105 291.087 C 202.714 291.179,203.614 291.177,204.105 291.082 C 204.597 290.987,204.100 290.911,203.000 290.914 C 201.900 290.917,201.497 290.995,202.105 291.087 " stroke="none" fill="#dcdbdb" fill-rule="evenodd"></path></g></svg>