<svg id="svg" version="1.1" xmlns="http://www.w3.org/2000/svg" xmlns:xlink="http://www.w3.org/1999/xlink" width="400" height="400" viewBox="0, 0, 400,400"><g id="svgg"><path id="path0" d="M178.300 0.278 C 176.375 0.362,174.800 0.604,174.800 0.816 C 174.800 1.027,173.540 1.200,172.000 1.200 C 170.400 1.200,169.200 1.371,169.200 1.600 C 169.200 1.820,168.221 2.000,167.024 2.000 C 165.827 2.000,164.736 2.180,164.600 2.400 C 164.464 2.620,163.373 2.800,162.176 2.800 C 160.979 2.800,160.000 2.980,160.000 3.200 C 160.000 3.420,159.201 3.600,158.224 3.600 C 157.247 3.600,156.336 3.780,156.200 4.000 C 156.064 4.220,155.344 4.400,154.600 4.400 C 153.856 4.400,153.136 4.580,153.000 4.800 C 152.864 5.020,152.043 5.200,151.176 5.200 C 150.309 5.200,149.600 5.380,149.600 5.600 C 149.600 5.820,148.981 6.000,148.224 6.000 C 147.467 6.000,146.736 6.180,146.600 6.400 C 146.464 6.620,145.924 6.800,145.400 6.800 C 144.876 6.800,144.336 6.980,144.200 7.200 C 144.064 7.420,143.333 7.600,142.576 7.600 C 141.819 7.600,141.200 7.760,141.200 7.956 C 141.200 8.152,140.615 8.406,139.900 8.520 C 137.426 8.916,130.276 11.228,130.067 11.700 C 129.993 11.865,129.509 12.000,128.990 12.000 C 128.472 12.000,127.936 12.180,127.800 12.400 C 127.664 12.620,127.113 12.800,126.576 12.800 C 126.039 12.800,125.600 12.980,125.600 13.200 C 125.600 13.420,125.240 13.600,124.800 13.600 C 124.360 13.600,124.000 13.780,124.000 14.000 C 124.000 14.220,123.550 14.400,123.000 14.400 C 122.450 14.400,122.000 14.580,122.000 14.800 C 122.000 15.020,121.550 15.200,121.000 15.200 C 120.450 15.200,120.000 15.380,120.000 15.600 C 120.000 15.820,119.640 16.000,119.200 16.000 C 118.760 16.000,118.400 16.180,118.400 16.400 C 118.400 16.620,118.128 16.800,117.795 16.800 C 117.462 16.800,116.877 16.961,116.495 17.158 C 116.113 17.355,114.540 18.119,113.000 18.856 C 111.460 19.593,110.140 20.332,110.067 20.498 C 109.993 20.664,109.588 20.800,109.167 20.800 C 108.745 20.800,108.400 20.980,108.400 21.200 C 108.400 21.420,108.040 21.600,107.600 21.600 C 107.160 21.600,106.800 21.780,106.800 22.000 C 106.800 22.220,106.440 22.400,106.000 22.400 C 105.560 22.400,105.200 22.558,105.200 22.751 C 105.200 22.945,104.660 23.327,104.000 23.600 C 103.340 23.873,102.800 24.255,102.800 24.449 C 102.800 24.642,102.440 24.800,102.000 24.800 C 101.560 24.800,101.200 24.980,101.200 25.200 C 101.200 25.420,100.885 25.601,100.500 25.603 C 100.115 25.604,99.260 25.970,98.600 26.415 C 97.940 26.861,96.815 27.510,96.100 27.858 C 95.385 28.206,94.800 28.651,94.800 28.846 C 94.800 29.041,94.530 29.200,94.200 29.200 C 93.870 29.200,93.600 29.380,93.600 29.600 C 93.600 29.820,93.364 30.000,93.075 30.000 C 92.787 30.000,92.164 30.360,91.692 30.800 C 91.220 31.240,90.596 31.600,90.305 31.600 C 90.014 31.600,89.517 31.960,89.200 32.400 C 88.883 32.840,88.343 33.200,88.000 33.200 C 87.657 33.200,87.117 33.560,86.800 34.000 C 86.483 34.440,85.991 34.800,85.708 34.800 C 85.425 34.800,84.628 35.340,83.937 36.000 C 83.246 36.660,82.478 37.200,82.229 37.200 C 81.980 37.200,81.517 37.560,81.200 38.000 C 80.883 38.440,80.293 38.800,79.888 38.800 C 79.484 38.800,79.264 38.980,79.400 39.200 C 79.536 39.420,79.406 39.600,79.112 39.600 C 78.817 39.600,78.317 39.960,78.000 40.400 C 77.683 40.840,77.183 41.200,76.888 41.200 C 76.594 41.200,76.464 41.380,76.600 41.600 C 76.736 41.820,76.649 42.000,76.407 42.000 C 76.164 42.000,75.749 42.183,75.483 42.407 C 73.646 43.957,73.038 44.400,72.749 44.400 C 72.569 44.400,71.651 45.167,70.711 46.105 C 69.770 47.043,68.370 48.255,67.600 48.799 C 66.830 49.342,64.439 51.590,62.287 53.793 C 57.582 58.611,58.611 57.582,53.793 62.287 C 51.590 64.439,49.342 66.830,48.799 67.600 C 48.255 68.370,47.043 69.770,46.105 70.711 C 45.167 71.651,44.400 72.569,44.400 72.749 C 44.400 73.038,43.957 73.646,42.407 75.483 C 42.183 75.749,42.000 76.164,42.000 76.407 C 42.000 76.649,41.820 76.736,41.600 76.600 C 41.380 76.464,41.200 76.594,41.200 76.888 C 41.200 77.183,40.840 77.683,40.400 78.000 C 39.960 78.317,39.600 78.817,39.600 79.112 C 39.600 79.406,39.420 79.536,39.200 79.400 C 38.980 79.264,38.800 79.484,38.800 79.888 C 38.800 80.293,38.440 80.883,38.000 81.200 C 37.560 81.517,37.200 81.980,37.200 82.229 C 37.200 82.478,36.660 83.246,36.000 83.937 C 35.340 84.628,34.800 85.425,34.800 85.708 C 34.800 85.991,34.440 86.483,34.000 86.800 C 33.560 87.117,33.200 87.697,33.200 88.088 C 33.200 88.480,33.050 88.800,32.868 88.800 C 32.685 88.800,32.280 89.295,31.968 89.900 C 31.655 90.505,31.085 91.349,30.700 91.775 C 30.315 92.202,30.000 92.772,30.000 93.042 C 30.000 93.312,29.865 93.593,29.700 93.667 C 29.343 93.825,27.600 96.264,27.600 96.605 C 27.600 96.736,27.150 97.505,26.600 98.314 C 26.050 99.123,25.600 100.104,25.600 100.493 C 25.600 100.882,25.420 101.200,25.200 101.200 C 24.980 101.200,24.800 101.560,24.800 102.000 C 24.800 102.440,24.642 102.800,24.449 102.800 C 24.255 102.800,23.873 103.340,23.600 104.000 C 23.327 104.660,22.945 105.200,22.751 105.200 C 22.558 105.200,22.400 105.560,22.400 106.000 C 22.400 106.440,22.220 106.800,22.000 106.800 C 21.780 106.800,21.600 107.160,21.600 107.600 C 21.600 108.040,21.420 108.400,21.200 108.400 C 20.980 108.400,20.800 108.760,20.800 109.200 C 20.800 109.640,20.665 110.001,20.500 110.003 C 20.141 110.007,19.200 111.944,19.200 112.680 C 19.200 112.966,19.065 113.201,18.900 113.203 C 18.494 113.207,17.600 115.186,17.600 116.080 C 17.600 116.476,17.420 116.800,17.200 116.800 C 16.980 116.800,16.800 117.160,16.800 117.600 C 16.800 118.040,16.620 118.400,16.400 118.400 C 16.180 118.400,16.000 118.760,16.000 119.200 C 16.000 119.640,15.820 120.000,15.600 120.000 C 15.380 120.000,15.200 120.349,15.200 120.776 C 15.200 121.203,15.020 121.664,14.800 121.800 C 14.580 121.936,14.400 122.487,14.400 123.024 C 14.400 123.561,14.220 124.000,14.000 124.000 C 13.780 124.000,13.600 124.360,13.600 124.800 C 13.600 125.240,13.420 125.600,13.200 125.600 C 12.980 125.600,12.800 126.039,12.800 126.576 C 12.800 127.113,12.620 127.664,12.400 127.800 C 12.180 127.936,12.000 128.487,12.000 129.024 C 12.000 129.561,11.820 130.000,11.600 130.000 C 11.380 130.000,11.200 130.362,11.200 130.805 C 11.200 131.248,11.024 131.923,10.809 132.305 C 10.132 133.508,8.400 139.174,8.400 140.185 C 8.400 140.717,8.220 141.264,8.000 141.400 C 7.780 141.536,7.600 142.166,7.600 142.800 C 7.600 143.434,7.420 144.064,7.200 144.200 C 6.980 144.336,6.800 144.876,6.800 145.400 C 6.800 145.924,6.620 146.464,6.400 146.600 C 6.180 146.736,6.000 147.467,6.000 148.224 C 6.000 148.981,5.820 149.600,5.600 149.600 C 5.380 149.600,5.200 150.320,5.200 151.200 C 5.200 152.080,5.020 152.800,4.800 152.800 C 4.580 152.800,4.400 153.599,4.400 154.576 C 4.400 155.553,4.220 156.464,4.000 156.600 C 3.780 156.736,3.600 157.546,3.600 158.400 C 3.600 159.254,3.420 160.064,3.200 160.200 C 2.980 160.336,2.800 161.337,2.800 162.424 C 2.800 163.511,2.620 164.400,2.400 164.400 C 2.178 164.400,2.000 165.467,2.000 166.800 C 2.000 168.133,1.822 169.200,1.600 169.200 C 1.376 169.200,1.200 170.307,1.200 171.720 C 1.200 173.203,0.994 174.446,0.700 174.740 C 0.313 175.127,0.200 179.902,0.200 195.886 C 0.200 212.048,0.309 216.569,0.700 216.700 C 0.998 216.799,1.200 217.571,1.200 218.610 C 1.200 219.568,1.380 220.464,1.600 220.600 C 1.820 220.736,2.000 221.467,2.000 222.224 C 2.000 222.981,2.180 223.600,2.400 223.600 C 2.620 223.600,2.800 224.142,2.800 224.805 C 2.800 225.964,2.915 226.316,3.938 228.295 C 4.192 228.787,4.400 229.541,4.400 229.971 C 4.400 230.401,4.580 230.864,4.800 231.000 C 5.020 231.136,5.200 231.687,5.200 232.224 C 5.200 232.761,5.380 233.200,5.600 233.200 C 5.820 233.200,6.000 233.472,6.000 233.805 C 6.000 234.138,6.180 234.768,6.400 235.205 C 6.620 235.642,6.980 236.358,7.200 236.795 C 7.420 237.232,7.600 237.872,7.600 238.218 C 7.600 238.564,7.780 238.736,8.000 238.600 C 8.220 238.464,8.400 238.600,8.400 238.901 C 8.400 239.979,12.530 247.591,13.300 247.933 C 13.465 248.007,13.600 248.330,13.600 248.652 C 13.600 248.973,14.050 249.686,14.600 250.236 C 15.150 250.786,15.600 251.400,15.600 251.600 C 15.600 251.800,16.050 252.414,16.600 252.964 C 17.150 253.514,17.600 254.137,17.600 254.348 C 17.600 254.560,18.320 255.415,19.200 256.249 C 20.080 257.083,20.800 257.910,20.800 258.088 C 20.800 258.858,33.382 270.800,34.194 270.800 C 34.430 270.800,34.883 271.160,35.200 271.600 C 35.517 272.040,36.031 272.400,36.341 272.400 C 36.652 272.400,37.197 272.728,37.553 273.128 C 37.909 273.529,39.235 274.377,40.500 275.012 C 41.765 275.647,42.800 276.310,42.800 276.484 C 42.800 276.658,43.070 276.800,43.400 276.800 C 43.730 276.800,44.000 276.980,44.000 277.200 C 44.000 277.420,44.360 277.600,44.800 277.600 C 45.240 277.600,45.600 277.780,45.600 278.000 C 45.600 278.220,45.960 278.400,46.400 278.400 C 46.840 278.400,47.201 278.535,47.203 278.700 C 47.207 279.059,49.144 280.000,49.880 280.000 C 50.166 280.000,50.400 280.180,50.400 280.400 C 50.400 280.620,50.760 280.800,51.200 280.800 C 51.640 280.800,52.000 280.980,52.000 281.200 C 52.000 281.420,52.360 281.600,52.800 281.600 C 53.240 281.600,53.600 281.780,53.600 282.000 C 53.600 282.220,54.125 282.400,54.767 282.400 C 55.408 282.400,55.993 282.578,56.067 282.797 C 56.140 283.015,56.695 283.234,57.300 283.284 C 57.905 283.334,58.400 283.515,58.400 283.687 C 58.400 283.859,58.749 284.000,59.176 284.000 C 59.603 284.000,60.064 284.180,60.200 284.400 C 60.336 284.620,60.977 284.800,61.624 284.800 C 62.271 284.800,62.800 284.980,62.800 285.200 C 62.800 285.420,63.419 285.600,64.176 285.600 C 64.933 285.600,65.664 285.780,65.800 286.000 C 65.936 286.220,66.656 286.400,67.400 286.400 C 68.144 286.400,68.864 286.580,69.000 286.800 C 69.136 287.020,70.137 287.200,71.224 287.200 C 72.311 287.200,73.200 287.380,73.200 287.600 C 73.200 287.833,74.533 288.000,76.400 288.000 C 78.267 288.000,79.600 288.167,79.600 288.400 C 79.600 288.649,81.859 288.800,85.576 288.800 C 89.129 288.800,91.653 288.962,91.800 289.200 C 91.936 289.420,92.579 289.600,93.229 289.600 C 93.879 289.600,94.723 289.769,95.105 289.976 C 95.487 290.183,96.655 290.658,97.700 291.031 C 98.745 291.404,99.600 291.864,99.600 292.054 C 99.600 292.244,99.883 292.400,100.229 292.400 C 101.032 292.400,107.600 298.989,107.600 299.794 C 107.600 300.127,107.765 300.400,107.967 300.400 C 108.169 300.400,108.635 301.255,109.002 302.300 C 109.370 303.345,109.835 304.513,110.035 304.895 C 110.236 305.277,110.400 306.132,110.400 306.795 C 110.400 307.458,110.563 308.000,110.762 308.000 C 110.962 308.000,111.149 310.726,111.179 314.058 C 111.209 317.390,111.406 320.438,111.617 320.831 C 111.828 321.225,112.000 322.729,112.000 324.174 C 112.000 325.658,112.174 326.800,112.400 326.800 C 112.620 326.800,112.800 327.689,112.800 328.776 C 112.800 329.863,112.980 330.864,113.200 331.000 C 113.420 331.136,113.600 331.957,113.600 332.824 C 113.600 333.691,113.780 334.400,114.000 334.400 C 114.220 334.400,114.400 335.030,114.400 335.800 C 114.400 336.570,114.580 337.200,114.800 337.200 C 115.020 337.200,115.200 337.729,115.200 338.376 C 115.200 339.023,115.380 339.664,115.600 339.800 C 115.820 339.936,116.000 340.397,116.000 340.824 C 116.000 341.251,116.141 341.600,116.313 341.600 C 116.485 341.600,116.666 342.095,116.716 342.700 C 116.766 343.305,116.985 343.860,117.203 343.933 C 117.422 344.007,117.600 344.592,117.600 345.233 C 117.600 345.875,117.780 346.400,118.000 346.400 C 118.220 346.400,118.400 346.760,118.400 347.200 C 118.400 347.640,118.580 348.000,118.800 348.000 C 119.020 348.000,119.200 348.360,119.200 348.800 C 119.200 349.240,119.380 349.600,119.600 349.600 C 119.820 349.600,120.000 349.834,120.000 350.120 C 120.000 350.856,120.941 352.793,121.300 352.797 C 121.465 352.799,121.600 353.160,121.600 353.600 C 121.600 354.040,121.780 354.400,122.000 354.400 C 122.220 354.400,122.400 354.760,122.400 355.200 C 122.400 355.640,122.580 356.000,122.800 356.000 C 123.020 356.000,123.200 356.270,123.200 356.600 C 123.200 356.930,123.358 357.200,123.551 357.200 C 123.745 357.200,124.127 357.740,124.400 358.400 C 124.673 359.060,125.055 359.600,125.249 359.600 C 125.442 359.600,125.600 359.952,125.600 360.382 C 125.600 360.812,126.050 361.614,126.600 362.164 C 127.150 362.714,127.600 363.402,127.600 363.694 C 127.600 363.985,127.960 364.483,128.400 364.800 C 128.840 365.117,129.200 365.572,129.200 365.810 C 129.200 366.625,141.141 379.200,141.914 379.200 C 142.091 379.200,142.917 379.920,143.751 380.800 C 144.585 381.680,145.434 382.400,145.637 382.400 C 145.841 382.400,146.572 382.940,147.263 383.600 C 147.954 384.260,148.722 384.800,148.971 384.800 C 149.220 384.800,149.683 385.160,150.000 385.600 C 150.317 386.040,150.897 386.400,151.288 386.400 C 151.680 386.400,152.000 386.558,152.000 386.751 C 152.000 386.945,152.540 387.327,153.200 387.600 C 153.860 387.873,154.400 388.255,154.400 388.449 C 154.400 388.642,154.760 388.800,155.200 388.800 C 155.640 388.800,156.000 388.945,156.000 389.122 C 156.000 389.300,157.845 390.303,160.100 391.352 C 162.355 392.401,164.513 393.426,164.895 393.630 C 165.277 393.833,165.862 394.000,166.195 394.000 C 166.528 394.000,166.800 394.180,166.800 394.400 C 166.800 394.620,167.239 394.800,167.776 394.800 C 168.313 394.800,168.864 394.980,169.000 395.200 C 169.136 395.420,169.676 395.600,170.200 395.600 C 170.724 395.600,171.264 395.780,171.400 396.000 C 171.536 396.220,172.076 396.400,172.600 396.400 C 173.124 396.400,173.664 396.580,173.800 396.800 C 173.936 397.020,174.577 397.200,175.224 397.200 C 175.871 397.200,176.400 397.380,176.400 397.600 C 176.400 397.820,177.120 398.000,178.000 398.000 C 178.880 398.000,179.600 398.180,179.600 398.400 C 179.600 398.620,180.374 398.800,181.320 398.800 C 182.266 398.800,183.265 399.025,183.540 399.300 C 184.393 400.154,224.523 399.972,225.054 399.112 C 225.160 398.941,226.101 398.800,227.144 398.800 C 228.187 398.800,229.282 398.575,229.579 398.300 C 230.013 397.897,230.058 397.905,229.810 398.340 C 229.566 398.770,229.666 398.793,230.303 398.452 C 230.743 398.216,232.132 397.990,233.388 397.949 C 234.779 397.903,235.748 397.680,235.864 397.377 C 235.986 397.060,236.655 396.929,237.718 397.014 C 238.633 397.088,239.565 396.997,239.791 396.813 C 240.016 396.628,240.740 396.416,241.400 396.340 C 242.060 396.265,242.702 396.065,242.827 395.896 C 242.952 395.727,243.987 395.568,245.127 395.542 C 246.469 395.512,247.200 395.323,247.200 395.006 C 247.200 394.699,247.729 394.543,248.620 394.588 C 249.401 394.627,250.132 394.511,250.244 394.329 C 250.356 394.148,250.797 394.000,251.224 394.000 C 251.651 394.000,252.000 393.801,252.000 393.557 C 252.000 393.314,252.248 393.209,252.550 393.326 C 252.853 393.442,253.593 393.281,254.196 392.968 C 254.798 392.656,255.721 392.400,256.246 392.400 C 256.771 392.400,257.200 392.184,257.200 391.920 C 257.200 391.547,257.307 391.547,257.680 391.920 C 258.362 392.602,258.995 392.517,258.417 391.821 C 258.014 391.335,258.104 391.272,258.968 391.429 C 259.536 391.531,260.000 391.447,260.000 391.241 C 260.000 391.035,260.617 390.915,261.370 390.975 C 262.124 391.035,262.979 390.913,263.270 390.704 C 263.659 390.426,263.608 390.387,263.079 390.558 C 262.640 390.700,262.458 390.630,262.613 390.379 C 262.753 390.153,263.228 390.082,263.669 390.222 C 264.222 390.397,264.650 390.221,265.047 389.655 C 265.363 389.203,265.873 388.930,266.180 389.048 C 266.486 389.165,267.133 389.050,267.617 388.791 C 268.101 388.532,268.390 388.492,268.260 388.702 C 268.125 388.921,268.434 389.006,268.984 388.901 C 269.651 388.773,269.871 388.529,269.706 388.099 C 269.515 387.600,269.676 387.532,270.537 387.748 C 271.295 387.939,271.576 387.869,271.503 387.508 C 271.446 387.229,271.695 387.048,272.055 387.107 C 272.415 387.166,273.225 387.001,273.855 386.741 C 274.485 386.480,275.142 386.252,275.315 386.234 C 275.488 386.215,275.774 385.965,275.951 385.679 C 276.128 385.392,276.437 385.189,276.637 385.226 C 277.418 385.374,278.037 385.183,277.836 384.858 C 277.719 384.670,278.114 384.535,278.712 384.558 C 279.310 384.581,279.764 384.401,279.719 384.157 C 279.674 383.909,280.070 383.762,280.619 383.822 C 281.227 383.889,281.600 383.725,281.600 383.392 C 281.600 382.757,283.027 382.208,284.300 382.354 C 284.997 382.434,285.207 382.248,285.232 381.529 C 285.249 381.018,285.354 380.825,285.465 381.100 C 285.576 381.375,285.842 381.600,286.057 381.600 C 286.272 381.600,286.336 381.420,286.200 381.200 C 286.064 380.980,286.239 380.800,286.589 380.800 C 286.939 380.800,287.330 380.525,287.459 380.190 C 287.634 379.736,287.828 379.691,288.219 380.016 C 288.617 380.346,288.856 380.244,289.203 379.595 C 289.455 379.124,289.903 378.831,290.198 378.944 C 290.492 379.057,290.841 378.870,290.972 378.529 C 291.123 378.135,291.508 377.987,292.029 378.124 C 292.507 378.249,292.933 378.119,293.050 377.813 C 293.163 377.520,293.593 377.378,294.026 377.491 C 294.737 377.677,295.010 377.266,294.837 376.270 C 294.806 376.089,294.952 376.047,295.162 376.177 C 295.373 376.307,295.665 376.218,295.813 375.979 C 295.960 375.741,296.342 375.646,296.661 375.768 C 296.980 375.891,297.154 375.849,297.047 375.675 C 296.939 375.502,297.219 375.131,297.668 374.851 C 298.232 374.498,298.394 374.486,298.194 374.810 C 297.978 375.160,298.134 375.157,298.806 374.797 C 299.522 374.414,299.594 374.242,299.154 373.963 C 298.770 373.720,298.999 373.610,299.900 373.606 C 300.615 373.603,301.200 373.440,301.200 373.244 C 301.200 373.049,301.515 372.914,301.900 372.944 C 302.285 372.975,302.552 372.766,302.494 372.481 C 302.435 372.196,302.615 371.992,302.894 372.028 C 303.919 372.163,304.441 371.989,304.197 371.595 C 304.058 371.370,304.500 371.080,305.195 370.941 C 306.052 370.770,306.376 370.514,306.227 370.125 C 306.092 369.774,306.181 369.664,306.459 369.837 C 306.707 369.990,307.261 369.684,307.690 369.158 C 308.119 368.631,308.353 368.425,308.211 368.700 C 308.069 368.975,308.124 369.200,308.334 369.200 C 308.543 369.200,308.822 368.919,308.954 368.575 C 309.086 368.231,309.377 368.062,309.600 368.200 C 309.823 368.338,310.113 368.170,310.245 367.828 C 310.376 367.485,310.645 367.304,310.842 367.426 C 311.173 367.631,311.373 367.048,311.237 366.270 C 311.206 366.089,311.352 366.047,311.562 366.177 C 311.773 366.307,312.060 366.227,312.200 366.000 C 312.340 365.773,312.624 365.691,312.831 365.819 C 313.278 366.095,314.472 365.005,314.114 364.648 C 313.978 364.511,314.275 364.400,314.773 364.400 C 315.695 364.400,318.400 362.043,318.400 361.240 C 318.400 360.998,318.574 360.800,318.787 360.800 C 319.001 360.800,319.063 361.115,318.926 361.500 C 318.783 361.901,319.149 361.688,319.785 361.000 C 320.395 360.340,320.748 360.070,320.570 360.400 C 320.292 360.916,320.341 360.923,320.919 360.455 C 321.289 360.155,321.494 359.752,321.375 359.559 C 321.256 359.367,321.467 359.328,321.845 359.473 C 322.311 359.651,322.438 359.585,322.242 359.268 C 322.083 359.011,322.154 358.800,322.400 358.800 C 322.646 358.800,322.736 358.620,322.600 358.400 C 322.464 358.180,322.689 358.000,323.101 358.000 C 323.512 358.000,324.224 357.651,324.682 357.224 C 325.140 356.797,325.624 356.557,325.757 356.691 C 325.891 356.824,326.000 356.623,326.000 356.243 C 326.000 355.863,326.147 355.644,326.327 355.755 C 326.507 355.866,327.093 355.550,327.629 355.053 C 328.165 354.556,328.963 353.922,329.402 353.645 C 330.053 353.232,330.067 353.181,329.479 353.365 C 329.059 353.497,328.860 353.426,329.003 353.195 C 329.137 352.978,329.597 352.800,330.024 352.800 C 330.451 352.800,330.800 352.607,330.800 352.371 C 330.800 351.727,331.941 350.716,332.369 350.981 C 332.576 351.109,332.858 351.030,332.996 350.807 C 333.134 350.583,333.012 350.386,332.724 350.368 C 332.436 350.351,332.703 350.154,333.317 349.930 C 334.182 349.614,334.334 349.403,333.994 348.993 C 333.648 348.576,333.726 348.508,334.358 348.673 C 334.957 348.830,335.369 348.542,335.979 347.542 C 336.429 346.804,336.798 346.438,336.799 346.729 C 336.800 347.126,336.956 347.101,337.426 346.632 C 337.770 346.288,337.939 345.824,337.801 345.602 C 337.664 345.380,338.002 345.027,338.552 344.818 C 339.101 344.609,339.751 344.065,339.996 343.608 C 340.240 343.151,340.598 342.875,340.791 342.995 C 340.984 343.114,341.255 342.858,341.392 342.426 C 341.529 341.994,342.001 341.527,342.442 341.387 C 343.054 341.193,343.138 341.008,342.802 340.602 C 342.478 340.213,342.489 339.992,342.842 339.774 C 343.147 339.585,343.219 339.645,343.038 339.938 C 342.644 340.576,343.139 340.518,343.810 339.848 C 344.113 339.544,344.250 339.184,344.114 339.048 C 343.978 338.911,344.279 338.800,344.782 338.800 C 345.590 338.800,345.633 338.721,345.149 338.131 C 344.660 337.534,344.698 337.487,345.501 337.693 C 345.996 337.821,346.301 337.763,346.178 337.564 C 346.055 337.366,346.415 336.994,346.977 336.737 C 347.540 336.481,348.000 336.003,348.000 335.674 C 348.000 335.192,347.825 335.224,347.100 335.838 L 346.200 336.600 346.938 335.727 C 347.343 335.247,347.936 334.954,348.254 335.076 C 348.572 335.198,348.780 335.114,348.716 334.889 C 348.652 334.664,348.750 334.507,348.932 334.540 C 349.115 334.573,349.506 334.150,349.800 333.600 C 350.094 333.050,350.485 332.633,350.668 332.674 C 350.850 332.714,350.947 332.489,350.882 332.173 C 350.818 331.857,351.223 331.390,351.782 331.135 C 352.342 330.880,352.800 330.475,352.800 330.236 C 352.801 329.996,353.518 329.104,354.395 328.253 C 355.272 327.403,355.891 326.548,355.771 326.353 C 355.651 326.159,355.878 325.997,356.276 325.994 C 356.890 325.989,356.909 325.929,356.400 325.600 C 355.891 325.271,355.910 325.211,356.524 325.206 C 356.922 325.203,357.136 325.020,357.000 324.800 C 356.864 324.580,357.033 324.400,357.376 324.400 C 357.719 324.400,358.000 324.117,358.000 323.771 C 358.000 323.145,358.972 321.910,359.252 322.180 C 359.334 322.258,359.747 321.858,360.172 321.291 C 360.859 320.372,360.868 320.288,360.251 320.525 C 359.838 320.683,359.657 320.631,359.803 320.395 C 359.937 320.178,360.225 320.000,360.442 320.000 C 361.142 320.000,362.674 318.187,362.571 317.481 C 362.515 317.104,362.634 316.898,362.835 317.022 C 363.036 317.146,363.200 316.987,363.200 316.668 C 363.200 316.349,363.515 315.750,363.900 315.336 C 364.285 314.922,364.465 314.758,364.300 314.972 C 364.135 315.185,364.000 315.538,364.000 315.756 C 364.000 315.975,364.250 315.811,364.556 315.393 C 364.861 314.975,365.022 314.401,364.913 314.117 C 364.801 313.827,364.996 313.600,365.357 313.600 C 366.075 313.600,366.220 312.983,365.593 312.596 C 365.370 312.458,365.292 312.174,365.421 311.966 C 365.550 311.757,365.814 311.685,366.008 311.805 C 366.201 311.924,366.555 311.657,366.794 311.211 C 367.033 310.765,367.492 310.400,367.814 310.400 C 368.136 310.400,368.400 310.209,368.400 309.976 C 368.400 309.743,368.220 309.664,368.000 309.800 C 367.780 309.936,367.600 309.869,367.600 309.651 C 367.600 309.432,367.941 309.146,368.357 309.014 C 369.018 308.804,369.524 307.937,369.764 306.600 C 369.804 306.380,370.053 306.245,370.318 306.300 C 370.943 306.430,370.934 305.905,370.300 305.221 C 369.900 304.790,369.900 304.739,370.303 304.967 C 370.593 305.131,370.907 304.987,371.046 304.625 C 371.178 304.281,371.557 304.000,371.889 304.000 C 372.293 304.000,372.425 303.739,372.288 303.214 C 372.175 302.781,372.199 302.443,372.341 302.461 C 373.068 302.556,373.188 302.326,372.797 301.594 C 372.560 301.151,372.508 300.812,372.683 300.842 C 373.437 300.968,374.000 300.769,374.000 300.376 C 374.000 300.143,373.775 300.069,373.500 300.211 C 373.225 300.353,373.410 300.134,373.910 299.725 C 374.657 299.115,374.729 298.882,374.310 298.432 C 373.888 297.977,373.925 297.926,374.521 298.137 C 374.952 298.289,375.143 298.231,374.995 297.993 C 374.860 297.774,375.046 297.481,375.408 297.342 C 375.935 297.139,375.960 297.021,375.534 296.750 C 375.134 296.497,375.126 296.411,375.500 296.406 C 375.775 296.403,376.000 296.029,376.000 295.576 C 376.000 295.123,376.180 294.864,376.400 295.000 C 376.620 295.136,376.800 295.046,376.800 294.800 C 376.800 294.554,376.963 294.454,377.163 294.577 C 377.362 294.700,377.431 294.441,377.316 294.001 C 377.162 293.412,377.305 293.198,377.853 293.194 C 378.434 293.189,378.477 293.110,378.049 292.839 C 377.369 292.408,377.806 291.602,378.724 291.594 C 379.307 291.589,379.317 291.534,378.800 291.200 C 378.400 290.942,378.367 290.810,378.700 290.806 C 378.975 290.803,379.200 290.519,379.200 290.176 C 379.200 289.806,379.388 289.669,379.663 289.839 C 379.980 290.035,380.055 289.853,379.900 289.262 C 379.776 288.787,379.838 288.500,380.038 288.624 C 380.374 288.831,381.172 287.354,381.435 286.040 C 381.496 285.732,381.784 285.330,382.073 285.146 C 382.491 284.882,382.475 284.810,382.000 284.800 C 381.647 284.793,381.565 284.667,381.800 284.494 C 382.786 283.769,383.346 282.769,382.607 283.053 C 381.814 283.357,382.599 281.876,384.118 280.202 C 384.516 279.763,384.759 279.088,384.658 278.702 C 384.538 278.243,384.704 277.998,385.137 277.994 C 385.711 277.989,385.720 277.936,385.200 277.600 C 384.764 277.318,384.743 277.211,385.124 277.206 C 385.412 277.203,385.535 277.019,385.398 276.797 C 385.261 276.576,385.446 276.281,385.808 276.142 C 386.335 275.939,386.360 275.821,385.934 275.550 C 385.502 275.277,385.500 275.211,385.924 275.206 C 386.212 275.203,386.336 275.020,386.200 274.800 C 386.064 274.580,386.129 274.400,386.345 274.400 C 386.560 274.400,386.855 273.860,387.000 273.200 C 387.145 272.540,387.429 272.000,387.632 272.000 C 387.834 272.000,388.000 271.809,388.000 271.576 C 388.000 271.343,387.846 271.248,387.658 271.364 C 387.470 271.481,387.401 271.129,387.506 270.582 C 387.610 270.035,387.882 269.473,388.110 269.332 C 388.349 269.184,388.403 269.271,388.238 269.538 C 388.081 269.792,388.122 270.000,388.330 270.000 C 388.886 270.000,389.149 268.109,388.661 267.621 C 388.366 267.326,388.458 267.200,388.963 267.200 C 389.541 267.200,389.635 266.992,389.427 266.166 C 389.270 265.540,389.320 265.227,389.555 265.372 C 390.046 265.675,390.549 264.164,390.164 263.542 C 389.985 263.252,390.051 263.184,390.338 263.362 C 390.640 263.548,390.800 263.301,390.800 262.647 C 390.800 262.097,390.985 261.533,391.211 261.393 C 391.436 261.254,391.595 260.928,391.563 260.670 C 391.406 259.399,391.637 258.376,392.027 258.617 C 392.261 258.762,392.420 258.637,392.379 258.340 C 392.201 257.043,392.431 255.572,392.779 255.787 C 392.989 255.917,393.084 255.637,392.992 255.160 C 392.901 254.686,393.018 253.939,393.253 253.501 C 393.559 252.929,393.557 252.780,393.244 252.973 C 392.973 253.140,392.899 253.008,393.047 252.621 C 393.178 252.279,393.446 252.000,393.643 252.000 C 393.839 252.000,394.000 251.580,394.000 251.067 C 394.000 250.553,394.120 250.014,394.266 249.867 C 394.412 249.721,394.583 249.122,394.646 248.537 C 394.708 247.952,394.920 247.366,395.117 247.236 C 395.315 247.106,395.507 246.109,395.544 245.020 C 395.582 243.931,395.811 242.917,396.053 242.767 C 396.301 242.614,396.426 241.790,396.339 240.875 C 396.208 239.505,396.273 239.328,396.758 239.727 C 397.249 240.133,397.259 240.065,396.826 239.252 C 396.509 238.658,396.485 238.405,396.760 238.575 C 397.312 238.916,397.340 237.925,396.797 237.283 C 396.575 237.021,396.512 236.892,396.657 236.997 C 397.183 237.377,397.923 235.211,397.938 233.245 C 397.947 232.139,398.162 230.844,398.417 230.368 C 398.794 229.665,398.779 229.564,398.340 229.829 C 397.890 230.099,397.888 230.044,398.328 229.502 C 398.623 229.138,398.773 228.325,398.668 227.659 C 398.565 227.003,398.705 226.033,398.980 225.504 C 399.255 224.974,399.501 223.032,399.526 221.188 C 399.552 219.344,399.688 217.310,399.829 216.668 C 400.001 215.886,399.906 215.386,399.543 215.156 C 399.183 214.928,399.160 214.810,399.474 214.806 C 400.179 214.797,400.201 185.203,399.496 185.194 C 399.135 185.189,399.147 185.094,399.541 184.845 C 399.975 184.570,399.987 184.322,399.601 183.603 C 399.260 182.965,399.253 182.786,399.576 182.985 C 399.886 183.177,399.965 182.968,399.824 182.334 C 399.710 181.820,399.548 180.209,399.465 178.754 C 399.382 177.299,399.181 175.893,399.019 175.630 C 398.856 175.368,398.731 174.225,398.740 173.091 C 398.748 171.956,398.541 170.762,398.278 170.437 C 397.896 169.965,397.908 169.912,398.340 170.171 C 398.774 170.433,398.794 170.336,398.440 169.675 C 398.198 169.222,398.000 167.885,398.000 166.702 C 398.000 165.090,397.796 164.331,397.184 163.675 C 396.736 163.194,396.554 162.800,396.781 162.800 C 397.350 162.800,397.085 160.854,396.303 159.286 C 395.946 158.571,395.784 158.066,395.942 158.164 C 396.099 158.261,396.229 158.004,396.229 157.593 C 396.229 157.103,396.080 156.968,395.797 157.203 C 395.498 157.451,395.415 157.135,395.527 156.175 C 395.621 155.372,395.460 154.507,395.144 154.118 C 394.769 153.655,394.755 153.540,395.100 153.747 C 395.706 154.111,395.765 153.525,395.181 152.941 C 394.950 152.710,394.711 152.089,394.650 151.561 C 394.545 150.662,394.436 150.300,393.723 148.500 C 393.381 147.635,393.305 147.250,393.246 146.076 C 393.221 145.568,393.020 145.264,392.800 145.400 C 392.233 145.750,392.303 145.064,392.900 144.421 C 393.200 144.098,393.217 143.985,392.943 144.139 C 392.410 144.437,391.834 142.593,392.250 141.920 C 392.415 141.652,392.341 141.589,392.062 141.762 C 391.772 141.941,391.600 141.750,391.600 141.247 C 391.600 140.807,391.401 140.324,391.157 140.174 C 390.848 139.983,390.878 139.799,391.254 139.567 C 391.684 139.301,391.692 139.132,391.297 138.737 C 391.023 138.463,390.787 137.781,390.772 137.220 C 390.746 136.277,390.715 136.260,390.364 137.000 C 390.066 137.628,390.028 137.517,390.186 136.480 C 390.310 135.669,390.236 135.254,389.994 135.404 C 389.597 135.649,389.434 135.093,389.588 134.021 C 389.634 133.702,389.428 133.252,389.131 133.021 C 388.107 132.224,387.519 130.400,388.285 130.400 C 388.874 130.400,388.866 130.337,388.215 129.861 C 387.751 129.521,387.597 129.128,387.801 128.799 C 388.009 128.462,387.967 128.373,387.682 128.549 C 387.439 128.700,387.033 128.436,386.780 127.963 C 386.461 127.367,386.455 127.187,386.760 127.375 C 387.008 127.529,387.200 127.375,387.200 127.024 C 387.200 126.681,386.885 126.397,386.500 126.394 C 385.955 126.389,385.920 126.312,386.343 126.044 C 386.746 125.788,386.764 125.625,386.415 125.410 C 386.157 125.250,386.042 124.867,386.160 124.560 C 386.278 124.252,386.207 124.000,386.002 124.000 C 385.796 124.000,385.424 123.618,385.174 123.152 C 384.855 122.556,384.851 122.384,385.160 122.575 C 385.402 122.725,385.600 122.657,385.600 122.424 C 385.600 122.191,385.361 122.000,385.068 122.000 C 384.774 122.000,384.551 121.598,384.568 121.100 C 384.586 120.596,384.386 120.242,384.114 120.295 C 383.834 120.350,383.725 120.139,383.857 119.795 C 384.009 119.401,383.835 119.198,383.343 119.194 C 382.717 119.189,382.694 119.127,383.200 118.800 C 383.536 118.583,383.596 118.410,383.337 118.406 C 383.073 118.403,382.964 118.058,383.084 117.600 C 383.199 117.160,383.099 116.800,382.861 116.800 C 382.623 116.800,382.224 116.418,381.974 115.952 C 381.625 115.299,381.631 115.172,382.002 115.401 C 382.266 115.565,382.149 115.189,381.741 114.567 C 381.334 113.944,381.000 113.337,381.000 113.218 C 381.000 113.098,380.769 113.026,380.486 113.058 C 380.074 113.104,380.071 112.997,380.471 112.515 C 380.879 112.023,380.832 111.813,380.214 111.361 C 379.798 111.057,379.561 110.705,379.687 110.580 C 379.812 110.454,379.475 109.911,378.936 109.372 C 378.398 108.834,378.067 108.215,378.202 107.997 C 378.337 107.778,378.212 107.597,377.924 107.594 C 377.553 107.590,377.533 107.502,377.856 107.294 C 378.276 107.023,377.422 105.800,376.813 105.800 C 376.699 105.800,376.657 105.575,376.720 105.300 C 376.783 105.025,376.647 104.800,376.418 104.800 C 376.188 104.800,376.000 104.530,376.000 104.200 C 376.000 103.870,375.820 103.600,375.600 103.600 C 375.380 103.600,375.200 103.270,375.200 102.867 C 375.200 102.463,375.065 101.998,374.900 101.833 C 374.735 101.668,374.584 101.413,374.565 101.267 C 374.464 100.483,373.870 99.633,373.558 99.826 C 373.361 99.948,373.200 99.677,373.200 99.224 C 373.200 98.771,373.020 98.400,372.800 98.400 C 372.580 98.400,372.400 98.130,372.400 97.800 C 372.400 97.470,372.175 97.197,371.900 97.194 C 371.514 97.189,371.518 97.113,371.917 96.860 C 372.319 96.605,372.245 96.315,371.587 95.566 C 371.121 95.035,370.846 94.813,370.976 95.072 C 371.106 95.332,371.011 95.670,370.764 95.822 C 370.448 96.018,370.396 95.729,370.589 94.850 C 370.764 94.052,370.707 93.600,370.432 93.600 C 370.194 93.600,370.000 93.317,370.000 92.971 C 370.000 92.323,369.022 91.111,368.732 91.401 C 368.643 91.490,368.338 91.193,368.055 90.740 C 367.632 90.062,367.635 89.964,368.070 90.188 C 368.362 90.337,368.251 90.176,367.824 89.830 C 367.396 89.483,366.926 89.200,366.779 89.200 C 366.632 89.200,366.597 88.705,366.702 88.100 C 366.887 87.034,366.873 87.024,366.259 87.800 C 365.911 88.240,365.606 88.510,365.582 88.400 C 365.558 88.290,365.476 87.871,365.400 87.469 C 365.149 86.142,364.014 84.091,363.402 83.856 C 363.071 83.729,362.800 83.169,362.800 82.613 C 362.800 81.831,362.595 81.599,361.900 81.594 C 361.172 81.589,361.115 81.514,361.600 81.200 C 362.106 80.873,362.083 80.811,361.457 80.806 C 360.971 80.802,360.792 80.598,360.939 80.215 C 361.069 79.877,360.755 79.308,360.195 78.868 C 359.663 78.449,359.311 77.992,359.414 77.853 C 359.516 77.714,359.482 77.688,359.337 77.797 C 358.899 78.124,358.000 77.152,358.000 76.351 C 358.000 75.937,357.720 75.600,357.376 75.600 C 357.033 75.600,356.864 75.420,357.000 75.200 C 357.136 74.980,357.046 74.800,356.800 74.800 C 356.554 74.800,356.481 74.592,356.638 74.338 C 356.804 74.070,356.749 73.984,356.507 74.134 C 356.278 74.275,355.845 74.089,355.545 73.719 C 355.092 73.159,355.091 73.101,355.541 73.372 C 355.899 73.587,355.849 73.341,355.395 72.649 C 355.017 72.072,354.549 71.600,354.354 71.600 C 353.748 71.600,352.542 70.175,352.712 69.663 C 352.802 69.394,352.720 69.226,352.530 69.288 C 352.340 69.349,351.738 68.969,351.192 68.441 C 350.647 67.914,350.448 67.624,350.752 67.797 C 351.130 68.012,351.240 67.936,351.102 67.556 C 350.991 67.250,350.698 67.045,350.450 67.100 C 350.203 67.155,350.000 67.009,350.000 66.776 C 350.000 66.543,349.820 66.464,349.600 66.600 C 349.380 66.736,349.200 66.487,349.200 66.047 C 349.200 65.607,348.992 65.119,348.738 64.962 C 348.425 64.768,348.385 64.857,348.615 65.238 C 348.899 65.710,348.849 65.715,348.301 65.271 C 347.941 64.980,347.746 64.485,347.867 64.171 C 348.012 63.792,347.813 63.600,347.276 63.600 C 346.762 63.600,346.274 63.163,345.936 62.400 C 345.427 61.251,345.080 61.008,344.200 61.186 C 343.980 61.230,343.934 61.133,344.097 60.969 C 344.261 60.806,344.033 60.418,343.591 60.109 C 343.148 59.799,342.890 59.378,343.017 59.173 C 343.144 58.968,342.963 58.800,342.615 58.800 C 342.267 58.800,341.778 58.350,341.527 57.800 C 341.277 57.250,340.850 56.800,340.579 56.800 C 340.307 56.800,339.980 56.526,339.852 56.190 C 339.723 55.855,339.209 55.417,338.709 55.216 C 338.209 55.015,338.032 54.839,338.316 54.825 C 338.737 54.805,338.737 54.698,338.316 54.244 C 337.942 53.842,337.719 53.814,337.506 54.144 C 337.333 54.414,337.210 54.232,337.206 53.700 C 337.203 53.196,336.980 52.844,336.700 52.900 C 336.425 52.955,336.252 52.753,336.316 52.451 C 336.388 52.112,336.208 51.988,335.846 52.127 C 335.523 52.251,335.020 52.059,334.729 51.699 C 334.279 51.144,334.289 51.099,334.800 51.400 C 335.316 51.704,335.324 51.660,334.855 51.081 C 334.555 50.711,334.119 50.526,333.887 50.670 C 333.621 50.834,333.561 50.677,333.726 50.250 C 333.917 49.751,333.801 49.599,333.294 49.684 C 332.884 49.752,332.646 49.580,332.712 49.263 C 332.774 48.967,332.594 48.805,332.312 48.902 C 332.031 48.999,331.508 48.641,331.150 48.106 C 330.793 47.572,330.388 47.149,330.250 47.167 C 330.113 47.185,329.968 47.065,329.929 46.900 C 329.758 46.185,328.802 45.621,328.130 45.839 C 327.609 46.008,327.549 45.969,327.919 45.702 C 328.332 45.406,328.296 45.214,327.742 44.765 C 327.360 44.454,327.174 44.413,327.330 44.672 C 327.486 44.932,327.430 45.258,327.207 45.396 C 326.830 45.629,326.619 45.075,326.769 44.251 C 326.804 44.059,326.565 44.005,326.237 44.131 C 325.808 44.295,325.709 44.169,325.884 43.680 C 326.018 43.306,325.985 43.129,325.811 43.286 C 325.372 43.683,323.922 42.849,324.219 42.370 C 324.351 42.156,324.221 42.030,323.930 42.090 C 323.638 42.151,323.445 41.975,323.500 41.700 C 323.555 41.425,323.285 41.194,322.900 41.187 C 322.108 41.173,320.706 40.228,321.016 39.917 C 321.128 39.806,320.945 39.486,320.610 39.208 C 320.199 38.867,320.000 38.847,320.000 39.147 C 320.000 39.394,319.644 39.287,319.200 38.907 C 318.760 38.530,318.400 37.982,318.400 37.687 C 318.400 37.393,318.236 37.254,318.036 37.378 C 317.519 37.697,316.360 37.188,316.626 36.758 C 316.827 36.433,316.266 36.232,315.500 36.353 C 315.335 36.379,315.200 36.209,315.200 35.976 C 315.200 35.743,315.020 35.664,314.800 35.800 C 314.580 35.936,314.400 35.754,314.400 35.397 C 314.400 34.935,314.175 34.818,313.624 34.992 C 312.708 35.283,311.631 33.816,312.503 33.464 C 312.776 33.353,312.548 33.249,311.996 33.232 C 311.444 33.214,310.768 32.840,310.493 32.400 C 310.218 31.960,309.807 31.600,309.580 31.600 C 309.353 31.600,308.775 31.236,308.297 30.790 C 307.819 30.345,307.202 30.067,306.925 30.173 C 306.648 30.280,306.161 29.995,305.843 29.540 C 305.524 29.085,305.065 28.836,304.822 28.986 C 304.577 29.138,304.429 29.034,304.490 28.753 C 304.551 28.475,304.244 28.171,303.810 28.077 C 303.375 27.983,302.818 27.630,302.571 27.292 C 302.324 26.954,301.926 26.799,301.687 26.947 C 301.447 27.094,300.782 26.746,300.208 26.172 C 299.602 25.566,298.911 25.225,298.561 25.359 C 298.219 25.491,298.064 25.420,298.203 25.195 C 298.337 24.978,298.066 24.800,297.600 24.800 C 297.061 24.800,296.857 24.632,297.038 24.338 C 297.214 24.053,297.148 23.985,296.865 24.160 C 296.611 24.317,295.940 23.976,295.359 23.396 C 294.783 22.820,294.077 22.439,293.789 22.549 C 293.501 22.659,293.168 22.494,293.048 22.181 C 292.927 21.864,292.559 21.718,292.215 21.850 C 291.819 22.002,291.600 21.857,291.600 21.443 C 291.600 21.024,291.252 20.800,290.600 20.800 C 290.050 20.800,289.600 20.590,289.600 20.333 C 289.600 20.077,289.483 19.984,289.340 20.127 C 289.196 20.270,288.825 20.075,288.514 19.694 C 288.113 19.201,287.891 19.141,287.745 19.488 C 287.585 19.873,287.429 19.873,287.013 19.488 C 286.722 19.220,286.568 18.861,286.672 18.690 C 286.775 18.520,286.711 18.423,286.530 18.475 C 286.348 18.527,285.795 18.345,285.300 18.071 C 284.805 17.796,284.400 17.696,284.400 17.848 C 284.400 18.000,284.009 17.781,283.531 17.362 C 283.053 16.943,282.805 16.843,282.980 17.140 C 283.236 17.577,283.135 17.593,282.448 17.226 C 281.982 16.976,281.600 16.628,281.600 16.453 C 281.600 16.277,281.330 16.103,281.000 16.067 C 280.670 16.030,280.130 15.970,279.800 15.933 C 279.470 15.897,279.200 15.687,279.200 15.467 C 279.200 15.247,279.086 15.180,278.947 15.319 C 278.809 15.458,278.338 15.322,277.902 15.016 C 277.465 14.710,276.859 14.556,276.554 14.673 C 276.237 14.795,276.000 14.634,276.000 14.298 C 276.000 13.908,275.663 13.747,274.998 13.820 C 274.447 13.880,274.098 13.766,274.222 13.565 C 274.423 13.240,273.847 13.044,273.442 13.300 C 273.355 13.355,272.874 13.040,272.373 12.600 C 271.847 12.138,271.608 12.053,271.808 12.400 C 272.081 12.873,272.032 12.911,271.577 12.577 C 271.260 12.344,270.605 12.184,270.121 12.221 C 269.638 12.258,269.150 12.047,269.037 11.751 C 268.923 11.455,268.562 11.316,268.234 11.442 C 267.422 11.754,266.537 11.210,267.194 10.804 C 267.500 10.615,267.302 10.436,266.649 10.311 C 265.971 10.182,265.711 10.265,265.881 10.558 C 266.022 10.801,265.785 10.692,265.354 10.315 C 264.872 9.894,264.230 9.719,263.685 9.862 C 263.006 10.039,262.799 9.919,262.794 9.347 C 262.789 8.801,262.699 8.740,262.459 9.119 C 262.196 9.533,262.025 9.512,261.612 9.014 C 261.189 8.505,260.980 8.483,260.470 8.895 C 259.979 9.292,259.910 9.293,260.147 8.900 C 260.344 8.572,260.192 8.400,259.704 8.400 C 259.295 8.400,258.737 8.177,258.463 7.903 C 258.068 7.508,257.890 7.528,257.589 8.003 C 257.382 8.332,257.208 8.420,257.203 8.200 C 257.193 7.756,255.345 6.800,254.497 6.800 C 254.190 6.800,254.066 7.019,254.211 7.300 C 254.353 7.575,254.120 7.371,253.692 6.846 C 253.092 6.109,252.632 5.934,251.673 6.075 C 250.939 6.182,250.357 6.066,250.252 5.790 C 250.153 5.534,249.504 5.308,248.809 5.288 C 248.113 5.268,247.332 5.079,247.072 4.867 C 246.813 4.655,245.700 4.395,244.600 4.288 C 241.815 4.019,240.067 3.689,239.491 3.326 C 239.221 3.156,238.117 2.967,237.037 2.905 C 235.958 2.844,234.865 2.620,234.608 2.407 C 234.352 2.194,233.210 1.987,232.071 1.946 C 230.932 1.906,230.000 1.764,230.000 1.631 C 230.000 1.498,229.415 1.376,228.700 1.361 C 225.166 1.284,224.368 1.175,224.600 0.800 C 224.736 0.580,224.556 0.400,224.200 0.400 C 223.844 0.400,223.664 0.580,223.800 0.800 C 223.936 1.020,223.857 1.200,223.624 1.200 C 223.391 1.200,223.200 1.050,223.200 0.867 C 223.200 0.332,187.723 -0.133,178.300 0.278 M205.427 24.405 C 220.608 26.996,231.206 36.867,235.483 52.400 C 236.211 55.044,236.354 65.479,235.692 67.600 C 235.451 68.370,235.028 69.810,234.752 70.800 C 229.868 88.321,213.342 96.773,201.840 87.632 C 199.944 86.125,200.056 86.125,198.160 87.632 C 180.072 102.007,157.052 74.344,165.679 48.600 C 171.129 32.338,188.818 21.570,205.427 24.405 M302.684 65.218 C 316.615 67.088,329.457 77.280,332.957 89.245 C 337.900 106.144,333.000 121.310,319.479 130.959 C 303.475 142.379,282.937 137.814,280.974 122.399 C 280.611 119.554,280.424 119.360,277.730 119.043 C 271.006 118.253,264.951 112.548,262.981 105.148 C 261.652 100.153,263.304 90.575,266.474 84.900 C 266.873 84.185,267.578 82.925,268.040 82.100 C 271.275 76.321,280.514 68.906,286.800 67.042 C 289.883 66.128,290.940 65.903,294.400 65.421 C 299.374 64.729,299.089 64.736,302.684 65.218 M91.600 149.200 C 91.600 149.429,92.800 149.600,94.400 149.600 C 96.000 149.600,97.200 149.771,97.200 150.000 C 97.200 150.220,97.772 150.400,98.472 150.400 C 99.735 150.400,101.965 150.978,103.295 151.649 C 103.677 151.842,104.264 152.000,104.600 152.000 C 104.936 152.000,105.523 152.168,105.905 152.374 C 106.287 152.579,107.185 152.983,107.900 153.271 C 108.615 153.560,109.200 153.931,109.200 154.098 C 109.200 154.264,109.560 154.400,110.000 154.400 C 110.440 154.400,110.800 154.580,110.800 154.800 C 110.800 155.020,111.160 155.200,111.600 155.200 C 112.040 155.200,112.400 155.380,112.400 155.600 C 112.400 155.820,112.631 156.000,112.913 156.000 C 113.641 156.000,117.563 158.515,119.061 159.943 C 119.754 160.604,120.400 161.066,120.496 160.970 C 120.732 160.735,124.705 164.637,126.200 166.572 C 126.860 167.426,127.805 168.618,128.300 169.220 C 128.795 169.823,129.200 170.500,129.200 170.724 C 129.200 170.949,129.345 171.193,129.523 171.267 C 129.991 171.459,132.400 175.065,132.400 175.572 C 132.400 175.807,132.580 176.000,132.800 176.000 C 133.020 176.000,133.200 176.360,133.200 176.800 C 133.200 177.240,133.380 177.600,133.600 177.600 C 133.820 177.600,134.000 177.960,134.000 178.400 C 134.000 178.840,134.180 179.200,134.400 179.200 C 134.620 179.200,134.800 179.740,134.800 180.400 C 134.800 181.060,134.980 181.600,135.200 181.600 C 135.420 181.600,135.600 181.960,135.600 182.400 C 135.600 182.840,135.780 183.200,136.000 183.200 C 136.220 183.200,136.400 183.729,136.400 184.376 C 136.400 185.023,136.580 185.664,136.800 185.800 C 137.020 185.936,137.200 186.667,137.200 187.424 C 137.200 188.181,137.380 188.800,137.600 188.800 C 137.820 188.800,138.000 189.610,138.000 190.600 C 138.000 191.590,138.180 192.400,138.400 192.400 C 138.653 192.400,138.800 195.200,138.800 200.000 C 138.800 204.800,138.653 207.600,138.400 207.600 C 138.180 207.600,138.000 208.410,138.000 209.400 C 138.000 210.390,137.820 211.200,137.600 211.200 C 137.380 211.200,137.200 211.819,137.200 212.576 C 137.200 213.333,137.020 214.064,136.800 214.200 C 136.580 214.336,136.400 214.977,136.400 215.624 C 136.400 216.271,136.220 216.800,136.000 216.800 C 135.780 216.800,135.600 217.160,135.600 217.600 C 135.600 218.040,135.420 218.400,135.200 218.400 C 134.980 218.400,134.800 218.940,134.800 219.600 C 134.800 220.260,134.620 220.800,134.400 220.800 C 134.180 220.800,134.000 221.160,134.000 221.600 C 134.000 222.040,133.820 222.400,133.600 222.400 C 133.380 222.400,133.200 222.760,133.200 223.200 C 133.200 223.640,133.064 224.000,132.898 224.000 C 132.731 224.000,132.374 224.495,132.103 225.100 C 131.832 225.705,131.069 226.830,130.406 227.600 C 129.744 228.370,129.201 229.156,129.201 229.347 C 129.200 229.538,128.705 230.282,128.100 231.000 C 127.495 231.719,126.550 232.908,126.000 233.643 C 124.726 235.346,120.727 239.260,120.496 239.030 C 120.400 238.934,119.754 239.396,119.061 240.057 C 117.563 241.485,113.641 244.000,112.913 244.000 C 112.631 244.000,112.400 244.180,112.400 244.400 C 112.400 244.620,112.040 244.800,111.600 244.800 C 111.160 244.800,110.800 244.980,110.800 245.200 C 110.800 245.420,110.440 245.600,110.000 245.600 C 109.560 245.600,109.200 245.780,109.200 246.000 C 109.200 246.220,108.840 246.400,108.400 246.400 C 107.960 246.400,107.600 246.580,107.600 246.800 C 107.600 247.020,107.240 247.200,106.800 247.200 C 106.360 247.200,106.000 247.341,106.000 247.513 C 106.000 247.685,105.513 247.866,104.918 247.915 C 104.322 247.964,103.656 248.184,103.438 248.402 C 103.219 248.621,102.547 248.800,101.944 248.800 C 101.341 248.800,100.736 248.980,100.600 249.200 C 100.464 249.420,99.643 249.600,98.776 249.600 C 97.909 249.600,97.200 249.780,97.200 250.000 C 97.200 250.228,96.008 250.400,94.424 250.400 C 92.897 250.400,91.536 250.580,91.400 250.800 C 91.264 251.020,89.734 251.200,88.000 251.200 C 86.266 251.200,84.736 251.020,84.600 250.800 C 84.464 250.580,83.013 250.400,81.376 250.400 C 79.659 250.400,78.400 250.231,78.400 250.000 C 78.400 249.780,77.691 249.600,76.824 249.600 C 75.957 249.600,75.136 249.420,75.000 249.200 C 74.864 248.980,74.395 248.800,73.957 248.800 C 73.519 248.800,72.416 248.440,71.506 248.000 C 70.595 247.560,69.524 247.200,69.125 247.200 C 68.726 247.200,68.400 247.020,68.400 246.800 C 68.400 246.580,68.188 246.400,67.928 246.400 C 67.173 246.400,63.600 244.690,63.600 244.329 C 63.600 244.148,63.240 244.000,62.800 244.000 C 62.360 244.000,62.000 243.840,62.000 243.643 C 62.000 243.447,61.591 243.184,61.092 243.059 C 60.593 242.934,59.790 242.464,59.309 242.015 C 58.827 241.567,58.328 241.200,58.199 241.200 C 58.069 241.200,57.544 240.795,57.032 240.300 C 55.734 239.046,54.432 238.000,54.169 238.000 C 53.828 238.000,50.133 234.125,48.900 232.474 C 48.295 231.664,47.485 230.652,47.100 230.225 C 46.715 229.798,46.400 229.253,46.400 229.013 C 46.400 228.773,46.040 228.317,45.600 228.000 C 45.160 227.683,44.800 227.271,44.800 227.084 C 44.800 226.897,44.260 225.959,43.600 225.000 C 42.940 224.041,42.400 223.063,42.400 222.828 C 42.400 222.593,42.220 222.400,42.000 222.400 C 41.780 222.400,41.600 222.133,41.600 221.806 C 41.600 221.301,40.900 219.017,38.401 211.372 C 38.181 210.696,38.000 209.492,38.000 208.695 C 38.000 207.899,37.820 207.136,37.600 207.000 C 37.095 206.688,37.058 193.509,37.561 192.980 C 37.760 192.771,38.022 191.790,38.143 190.800 C 38.539 187.565,38.882 185.996,39.244 185.773 C 39.440 185.652,39.600 185.023,39.600 184.376 C 39.600 183.729,39.740 183.200,39.911 183.200 C 40.219 183.200,41.600 179.012,41.600 178.080 C 41.600 177.816,41.780 177.600,42.000 177.600 C 42.220 177.600,42.400 177.364,42.400 177.075 C 42.400 176.787,42.715 176.202,43.100 175.775 C 43.485 175.349,44.069 174.460,44.397 173.800 C 44.726 173.140,45.311 172.309,45.697 171.953 C 46.084 171.597,46.400 171.136,46.400 170.929 C 46.400 170.721,46.717 170.202,47.104 169.775 C 47.491 169.349,48.436 168.190,49.204 167.201 C 50.800 165.144,53.849 162.000,54.246 162.000 C 54.393 162.000,55.029 161.460,55.660 160.800 C 56.291 160.140,56.903 159.600,57.020 159.600 C 57.137 159.600,57.594 159.264,58.035 158.853 C 58.476 158.442,59.504 157.767,60.319 157.353 C 61.133 156.939,61.890 156.502,62.000 156.382 C 62.419 155.925,67.295 153.600,67.834 153.600 C 68.146 153.600,68.400 153.420,68.400 153.200 C 68.400 152.980,68.749 152.800,69.176 152.800 C 69.603 152.800,70.064 152.620,70.200 152.400 C 70.336 152.180,70.887 152.000,71.424 152.000 C 71.961 152.000,72.400 151.820,72.400 151.600 C 72.400 151.380,73.030 151.200,73.800 151.200 C 74.570 151.200,75.200 151.020,75.200 150.800 C 75.200 150.580,75.920 150.400,76.800 150.400 C 77.680 150.400,78.400 150.220,78.400 150.000 C 78.400 149.769,79.667 149.600,81.400 149.600 C 83.133 149.600,84.400 149.431,84.400 149.200 C 84.400 148.963,85.867 148.800,88.000 148.800 C 90.133 148.800,91.600 148.963,91.600 149.200 M346.200 164.462 C 359.793 166.875,371.191 177.479,374.573 190.857 C 375.066 192.807,375.588 194.522,375.734 194.668 C 376.081 195.014,376.081 204.986,375.734 205.332 C 375.588 205.478,375.066 207.193,374.573 209.143 C 368.449 233.367,339.684 243.908,318.800 229.581 C 308.587 222.575,305.736 210.748,312.214 202.263 C 313.933 200.012,313.938 200.118,311.992 197.340 C 300.351 180.722,321.780 160.126,346.200 164.462 M304.400 262.986 C 319.664 265.886,329.750 275.178,333.939 290.200 C 340.959 315.375,316.280 340.177,290.400 333.956 C 281.643 331.851,272.018 324.902,267.973 317.764 C 267.548 317.014,266.840 315.764,266.400 314.987 C 258.168 300.457,264.071 282.682,277.688 280.994 C 280.419 280.656,280.627 280.442,280.996 277.600 C 282.326 267.337,292.818 260.785,304.400 262.986 M190.600 308.955 C 193.724 309.640,195.669 310.487,198.059 312.204 L 200.004 313.602 201.702 312.369 C 214.774 302.878,229.956 311.521,235.483 331.600 C 239.211 345.142,231.288 363.905,219.000 370.636 C 218.560 370.877,217.570 371.429,216.800 371.862 C 207.936 376.844,195.394 377.296,185.588 372.986 C 166.035 364.392,157.991 341.143,168.087 322.400 C 173.697 311.986,181.949 307.057,190.600 308.955 " stroke="none" fill="#ffd19c" fill-rule="evenodd"></path><path id="path1" d="M192.800 24.970 C 169.007 30.252,156.942 55.798,168.134 77.196 C 175.130 90.571,187.560 95.051,197.621 87.823 C 200.034 86.089,199.861 86.091,202.354 87.769 C 222.980 101.649,244.727 70.167,232.312 44.400 C 225.392 30.038,208.155 21.562,192.800 24.970 " stroke="none" fill="#09a1e5" fill-rule="evenodd"></path><path id="path2" d="M198.313 24.295 C 199.476 24.376,201.276 24.376,202.313 24.293 C 203.351 24.211,202.400 24.145,200.200 24.146 C 198.000 24.147,197.151 24.214,198.313 24.295 M225.200 34.600 C 226.617 36.030,227.867 37.200,227.977 37.200 C 228.087 37.200,227.017 36.030,225.600 34.600 C 224.183 33.170,222.933 32.000,222.823 32.000 C 222.713 32.000,223.783 33.170,225.200 34.600 M172.975 36.100 L 171.800 37.400 173.100 36.225 C 174.312 35.130,174.584 34.800,174.275 34.800 C 174.206 34.800,173.621 35.385,172.975 36.100 M235.462 53.800 C 235.596 54.680,235.772 55.475,235.853 55.567 C 236.156 55.910,235.929 53.768,235.581 53.000 C 235.329 52.442,235.293 52.685,235.462 53.800 M236.120 60.400 C 236.120 61.610,236.195 62.105,236.287 61.500 C 236.378 60.895,236.378 59.905,236.287 59.300 C 236.195 58.695,236.120 59.190,236.120 60.400 M163.701 60.600 C 163.705 61.480,163.787 61.793,163.883 61.295 C 163.979 60.798,163.975 60.078,163.875 59.695 C 163.775 59.313,163.696 59.720,163.701 60.600 M294.400 65.421 C 290.940 65.903,289.883 66.128,286.800 67.042 C 280.514 68.906,271.275 76.321,268.040 82.100 C 267.578 82.925,266.873 84.185,266.474 84.900 C 263.304 90.575,261.652 100.153,262.981 105.148 C 264.951 112.548,271.006 118.253,277.730 119.043 C 280.424 119.360,280.611 119.554,280.974 122.399 C 282.937 137.814,303.475 142.379,319.479 130.959 C 333.000 121.310,337.900 106.144,332.957 89.245 C 329.457 77.280,316.615 67.088,302.684 65.218 C 299.089 64.736,299.374 64.729,294.400 65.421 M235.654 65.867 C 235.625 66.344,235.496 67.064,235.370 67.467 C 235.152 68.161,235.164 68.162,235.596 67.488 C 235.847 67.097,235.975 66.377,235.881 65.888 C 235.709 65.001,235.709 65.001,235.654 65.867 M228.800 82.000 C 228.330 82.660,228.036 83.200,228.146 83.200 C 228.256 83.200,228.730 82.660,229.200 82.000 C 229.670 81.340,229.964 80.800,229.854 80.800 C 229.744 80.800,229.270 81.340,228.800 82.000 M211.905 91.483 C 212.402 91.579,213.122 91.575,213.505 91.475 C 213.887 91.375,213.480 91.296,212.600 91.301 C 211.720 91.305,211.407 91.387,211.905 91.483 " stroke="none" fill="#89c247" fill-rule="evenodd"></path><path id="path3" d="M267.000 11.200 C 267.136 11.420,267.517 11.600,267.847 11.600 C 268.177 11.600,268.336 11.420,268.200 11.200 C 268.064 10.980,267.683 10.800,267.353 10.800 C 267.023 10.800,266.864 10.980,267.000 11.200 M312.400 34.100 C 312.400 34.459,312.592 34.871,312.827 35.016 C 313.513 35.440,313.580 35.061,312.967 34.223 C 312.493 33.574,312.400 33.554,312.400 34.100 M349.200 66.236 C 349.200 66.572,349.365 66.745,349.566 66.621 C 349.767 66.497,350.023 66.621,350.134 66.898 C 350.263 67.218,350.348 67.162,350.368 66.743 C 350.386 66.381,350.130 65.982,349.800 65.855 C 349.428 65.713,349.200 65.857,349.200 66.236 M365.317 87.136 C 365.388 87.600,365.600 88.119,365.787 88.290 C 365.975 88.460,366.008 88.390,365.862 88.134 C 365.715 87.878,365.796 87.601,366.041 87.520 C 366.322 87.426,366.247 87.171,365.838 86.832 C 365.271 86.361,365.205 86.399,365.317 87.136 M373.200 99.424 C 373.200 99.767,373.380 99.936,373.600 99.800 C 373.820 99.664,374.000 99.773,374.000 100.043 C 374.000 100.313,374.094 100.439,374.209 100.324 C 374.508 100.025,373.984 98.800,373.557 98.800 C 373.361 98.800,373.200 99.081,373.200 99.424 M375.878 103.977 C 375.996 104.430,376.252 104.800,376.447 104.800 C 376.986 104.800,376.868 104.154,376.231 103.626 C 375.765 103.239,375.702 103.302,375.878 103.977 M387.437 129.000 C 388.201 130.167,388.611 130.342,388.028 129.253 C 387.808 128.842,387.742 128.392,387.881 128.253 C 388.020 128.114,387.829 128.000,387.457 128.000 C 386.828 128.000,386.827 128.069,387.437 129.000 M388.122 131.600 C 388.372 132.260,388.700 132.800,388.853 132.800 C 389.006 132.800,388.927 132.260,388.678 131.600 C 388.428 130.940,388.100 130.400,387.947 130.400 C 387.794 130.400,387.873 130.940,388.122 131.600 M337.600 163.867 C 316.193 165.085,302.205 183.369,311.992 197.340 C 313.938 200.118,313.933 200.012,312.214 202.263 C 301.583 216.186,316.723 235.661,338.486 236.056 L 342.010 236.120 343.660 234.385 C 346.447 231.456,349.188 224.576,350.349 217.600 C 350.587 216.170,350.984 213.830,351.232 212.400 C 351.816 209.019,351.816 190.981,351.232 187.600 C 350.984 186.170,350.591 183.830,350.358 182.400 C 349.274 175.743,346.381 168.468,343.706 165.672 C 342.067 163.959,341.085 163.669,337.600 163.867 M393.060 252.587 C 392.936 252.910,393.035 253.298,393.279 253.449 C 393.548 253.615,393.611 253.541,393.438 253.262 C 393.281 253.008,393.343 252.800,393.576 252.800 C 393.809 252.800,394.000 252.620,394.000 252.400 C 394.000 251.788,393.315 251.924,393.060 252.587 M387.787 269.800 C 387.684 270.130,387.499 270.715,387.376 271.100 C 387.216 271.601,387.276 271.678,387.586 271.371 C 388.036 270.924,388.496 269.200,388.164 269.200 C 388.060 269.200,387.891 269.470,387.787 269.800 M382.719 282.003 C 381.842 283.543,382.102 283.542,383.200 282.000 C 383.670 281.340,383.907 280.801,383.727 280.803 C 383.547 280.804,383.093 281.344,382.719 282.003 M376.145 295.068 C 376.289 295.325,376.123 295.820,375.775 296.168 C 375.427 296.515,375.314 296.800,375.522 296.800 C 376.342 296.800,376.960 295.597,376.404 295.083 C 376.034 294.741,375.959 294.736,376.145 295.068 M262.524 299.000 C 262.526 300.320,262.601 300.812,262.690 300.093 C 262.779 299.374,262.777 298.294,262.686 297.693 C 262.595 297.092,262.522 297.680,262.524 299.000 M365.406 311.990 C 365.083 312.513,366.004 312.956,366.462 312.498 C 366.718 312.242,366.641 312.024,366.240 311.871 C 365.902 311.741,365.527 311.795,365.406 311.990 M346.938 335.727 C 346.211 336.587,346.211 336.591,347.000 335.952 C 347.440 335.596,348.025 335.386,348.300 335.486 C 348.993 335.736,348.933 335.336,348.238 335.070 C 347.928 334.951,347.343 335.247,346.938 335.727 M282.399 382.619 C 281.820 382.939,281.652 383.175,282.000 383.180 C 282.714 383.189,283.857 382.524,283.588 382.254 C 283.484 382.151,282.949 382.314,282.399 382.619 " stroke="none" fill="#ffb24a" fill-rule="evenodd"></path><path id="path4" d="M342.400 164.166 C 342.400 164.257,343.028 164.978,343.796 165.768 C 346.355 168.404,349.291 175.843,350.358 182.400 C 350.591 183.830,350.984 186.170,351.232 187.600 C 351.816 190.981,351.816 209.019,351.232 212.400 C 350.984 213.830,350.587 216.170,350.349 217.600 C 349.216 224.407,346.418 231.531,343.829 234.197 C 342.016 236.064,342.110 236.156,345.258 235.608 C 359.864 233.065,371.415 222.324,374.601 208.322 C 374.967 206.715,375.431 204.987,375.633 204.481 C 375.835 203.976,376.000 201.959,376.000 200.000 C 376.000 198.041,375.835 196.024,375.633 195.519 C 375.431 195.013,374.961 193.262,374.589 191.627 C 373.035 184.806,369.917 179.401,364.419 174.000 C 361.084 170.723,359.981 169.955,355.200 167.577 C 351.330 165.652,342.400 163.272,342.400 164.166 M296.000 262.961 C 288.290 264.188,282.523 269.936,281.094 277.819 L 280.591 280.591 277.819 281.094 C 271.845 282.176,267.315 285.539,264.470 291.000 L 263.012 293.800 263.016 299.400 C 263.030 317.391,276.475 332.430,294.336 334.433 C 296.241 334.646,298.124 334.921,298.519 335.043 C 299.250 335.270,303.223 334.758,307.200 333.925 C 323.967 330.412,336.717 312.562,334.780 295.313 C 333.091 280.278,322.490 267.467,308.800 263.919 C 303.055 262.429,300.531 262.241,296.000 262.961 M184.400 308.802 C 183.800 308.995,184.440 309.037,186.000 308.906 C 187.430 308.786,188.675 308.623,188.767 308.544 C 189.089 308.265,185.388 308.484,184.400 308.802 M211.900 308.682 C 212.395 308.778,213.205 308.778,213.700 308.682 C 214.195 308.587,213.790 308.509,212.800 308.509 C 211.810 308.509,211.405 308.587,211.900 308.682 M180.800 309.689 C 179.024 310.461,175.600 312.560,175.600 312.876 C 175.600 313.045,176.365 312.647,177.300 311.992 C 178.235 311.337,179.990 310.447,181.200 310.015 C 182.410 309.582,183.040 309.235,182.600 309.242 C 182.160 309.248,181.350 309.450,180.800 309.689 M193.200 310.014 C 194.410 310.446,196.438 311.527,197.706 312.417 L 200.012 314.036 202.271 312.418 C 203.514 311.528,204.387 310.800,204.213 310.800 C 204.038 310.800,203.019 311.430,201.948 312.199 L 200.000 313.599 198.080 312.220 C 195.994 310.721,192.730 309.191,191.667 309.214 C 191.300 309.222,191.990 309.582,193.200 310.014 M206.100 309.834 C 204.307 310.618,204.460 310.921,206.300 310.229 C 207.125 309.919,208.070 309.574,208.400 309.464 C 208.800 309.330,208.734 309.264,208.200 309.264 C 207.760 309.265,206.815 309.521,206.100 309.834 M218.800 310.015 C 220.010 310.447,221.765 311.337,222.700 311.992 C 223.635 312.647,224.400 313.052,224.399 312.892 C 224.397 312.157,218.619 309.184,217.251 309.214 C 216.893 309.222,217.590 309.582,218.800 310.015 M174.001 314.198 C 173.486 314.748,173.139 315.264,173.232 315.346 C 173.324 315.428,173.819 314.978,174.330 314.347 C 175.476 312.935,175.274 312.844,174.001 314.198 M225.433 314.003 C 225.892 314.551,226.674 315.450,227.171 316.000 C 228.641 317.625,230.490 320.410,232.085 323.400 C 232.907 324.940,233.581 326.020,233.584 325.800 C 233.602 324.300,227.902 315.795,225.544 313.803 L 224.600 313.006 225.433 314.003 M171.160 317.546 C 170.367 318.565,169.507 319.850,169.248 320.400 L 168.777 321.400 169.488 320.410 C 169.880 319.866,170.797 318.633,171.527 317.671 C 172.257 316.709,172.797 315.870,172.727 315.806 C 172.657 315.743,171.952 316.526,171.160 317.546 M167.072 324.219 C 166.132 326.189,166.264 326.524,167.247 324.662 C 167.693 323.816,167.987 323.054,167.901 322.967 C 167.814 322.881,167.441 323.444,167.072 324.219 M164.276 332.410 C 164.130 332.955,164.027 333.850,164.046 334.400 C 164.071 335.118,164.184 334.957,164.449 333.827 C 164.855 332.095,164.700 330.825,164.276 332.410 M235.275 332.200 C 235.286 332.640,235.432 333.540,235.600 334.200 L 235.905 335.400 235.925 334.200 C 235.935 333.540,235.789 332.640,235.600 332.200 L 235.256 331.400 235.275 332.200 M163.724 339.800 C 163.726 341.120,163.801 341.612,163.890 340.893 C 163.979 340.174,163.977 339.094,163.886 338.493 C 163.795 337.892,163.722 338.480,163.724 339.800 M236.124 339.800 C 236.126 341.120,236.201 341.612,236.290 340.893 C 236.379 340.174,236.377 339.094,236.286 338.493 C 236.195 337.892,236.122 338.480,236.124 339.800 M164.075 345.000 C 164.065 345.660,164.211 346.560,164.400 347.000 L 164.744 347.800 164.725 347.000 C 164.714 346.560,164.568 345.660,164.400 345.000 L 164.095 343.800 164.075 345.000 M235.454 345.554 C 235.300 346.518,235.258 347.391,235.361 347.494 C 235.630 347.763,236.115 344.945,235.907 344.322 C 235.812 344.036,235.608 344.590,235.454 345.554 M164.856 348.800 C 164.856 349.130,165.011 349.760,165.200 350.200 C 165.417 350.704,165.544 350.778,165.544 350.400 C 165.544 350.070,165.389 349.440,165.200 349.000 C 164.983 348.496,164.856 348.422,164.856 348.800 M234.629 349.429 C 234.481 350.015,234.438 350.572,234.532 350.666 C 234.627 350.760,234.824 350.358,234.971 349.771 C 235.119 349.185,235.162 348.628,235.068 348.534 C 234.973 348.440,234.776 348.842,234.629 349.429 M168.441 357.700 C 169.914 360.528,174.987 366.433,177.400 368.129 C 178.060 368.592,177.060 367.448,175.179 365.586 C 173.297 363.724,170.977 360.985,170.023 359.500 C 168.314 356.839,167.525 355.942,168.441 357.700 M229.976 359.500 C 229.021 360.985,226.701 363.729,224.820 365.598 C 222.939 367.467,221.940 368.610,222.600 368.139 C 225.239 366.257,229.933 360.783,231.555 357.700 C 232.486 355.930,231.681 356.847,229.976 359.500 M220.000 369.600 C 219.450 370.030,219.197 370.386,219.438 370.391 C 219.679 370.396,220.202 370.040,220.600 369.600 C 221.512 368.592,221.288 368.592,220.000 369.600 M181.974 371.108 C 183.338 372.077,188.691 374.403,189.516 374.386 C 189.892 374.378,189.300 374.046,188.200 373.649 C 187.100 373.251,185.030 372.361,183.600 371.671 C 182.170 370.981,181.438 370.728,181.974 371.108 M217.400 371.200 C 216.740 371.637,216.380 371.992,216.600 371.988 C 217.001 371.982,219.176 370.423,218.800 370.412 C 218.690 370.408,218.060 370.763,217.400 371.200 M213.432 373.017 C 212.130 373.558,210.780 374.014,210.432 374.032 C 209.993 374.054,209.958 374.127,210.318 374.271 C 210.832 374.477,215.053 372.983,215.780 372.338 C 216.332 371.847,216.061 371.926,213.432 373.017 M190.800 374.768 C 191.130 374.951,192.300 375.206,193.400 375.336 C 194.640 375.481,195.020 375.449,194.400 375.250 C 192.855 374.755,190.116 374.388,190.800 374.768 M207.400 374.862 C 206.520 375.065,203.550 375.376,200.800 375.552 L 195.800 375.871 199.600 375.935 C 203.068 375.993,208.903 375.230,209.492 374.642 C 209.784 374.349,209.476 374.382,207.400 374.862 " stroke="none" fill="#ff855f" fill-rule="evenodd"></path><path id="path5" d="M183.339 309.343 C 168.938 313.012,160.090 334.069,165.826 351.023 C 176.188 381.650,219.207 384.080,232.677 354.800 C 244.424 329.265,222.291 298.380,202.300 312.413 L 200.000 314.028 197.700 312.413 C 193.461 309.437,187.755 308.218,183.339 309.343 " stroke="none" fill="#ff3187" fill-rule="evenodd"></path></g></svg>