<svg id="svg" version="1.1" xmlns="http://www.w3.org/2000/svg" xmlns:xlink="http://www.w3.org/1999/xlink" width="400" height="400" viewBox="0, 0, 400,400"><g id="svgg"><path id="path0" d="M204.143 194.900 C 204.044 202.735,201.029 211.668,195.426 220.723 C 192.574 225.334,192.185 226.588,193.002 228.543 C 193.337 229.345,193.482 230.000,193.325 230.000 C 193.168 230.000,193.256 230.216,193.520 230.480 C 193.784 230.744,194.000 231.386,194.000 231.906 C 194.000 232.427,194.181 233.191,194.403 233.605 C 194.624 234.019,194.843 234.817,194.890 235.379 C 194.936 235.940,195.115 236.400,195.287 236.400 C 195.459 236.400,195.600 237.019,195.600 237.776 C 195.600 238.533,195.780 239.264,196.000 239.400 C 196.220 239.536,196.400 240.166,196.400 240.800 C 196.400 241.434,196.561 242.052,196.758 242.174 C 197.099 242.385,197.262 243.142,197.835 247.200 C 197.975 248.190,198.240 249.187,198.424 249.415 C 198.607 249.644,198.803 250.600,198.859 251.541 C 198.914 252.482,199.104 253.340,199.280 253.449 C 199.456 253.558,199.600 254.346,199.600 255.200 C 199.600 256.054,199.780 256.864,200.000 257.000 C 200.220 257.136,200.400 258.137,200.400 259.224 C 200.400 260.311,200.580 261.200,200.800 261.200 C 201.022 261.200,201.200 262.267,201.200 263.600 C 201.200 264.933,201.378 266.000,201.600 266.000 C 201.822 266.000,202.000 267.067,202.000 268.400 C 202.000 269.733,202.178 270.800,202.400 270.800 C 202.631 270.800,202.800 272.067,202.800 273.800 C 202.800 275.533,202.969 276.800,203.200 276.800 C 203.430 276.800,203.600 278.040,203.600 279.720 C 203.600 281.502,203.795 282.850,204.100 283.179 C 204.506 283.616,204.488 283.658,204.000 283.400 C 203.512 283.142,203.494 283.184,203.900 283.621 C 204.233 283.980,204.400 285.538,204.400 288.280 C 204.400 290.760,204.559 292.400,204.800 292.400 C 205.054 292.400,205.200 295.392,205.200 300.576 C 205.200 305.596,205.354 308.848,205.600 309.000 C 205.835 309.145,206.000 311.471,206.000 314.624 C 206.000 317.941,205.847 320.000,205.600 320.000 C 205.380 320.000,205.200 320.191,205.200 320.424 C 205.200 320.657,205.425 320.720,205.700 320.565 C 206.100 320.339,206.100 320.390,205.700 320.821 C 204.795 321.797,205.036 331.795,206.038 334.848 C 209.312 344.823,208.520 352.617,203.745 357.392 C 202.264 358.873,202.000 359.380,202.000 360.745 C 202.000 361.629,201.820 362.464,201.600 362.600 C 201.380 362.736,201.200 363.726,201.200 364.800 C 201.200 365.874,201.020 366.864,200.800 367.000 C 200.580 367.136,200.400 368.227,200.400 369.424 C 200.400 370.621,200.220 371.600,200.000 371.600 C 199.780 371.600,199.600 372.489,199.600 373.576 C 199.600 374.663,199.420 375.664,199.200 375.800 C 198.980 375.936,198.800 376.656,198.800 377.400 C 198.800 378.144,198.620 378.864,198.400 379.000 C 198.180 379.136,198.000 379.957,198.000 380.824 C 198.000 381.691,197.820 382.400,197.600 382.400 C 197.380 382.400,197.200 383.221,197.200 384.224 C 197.200 385.337,197.044 385.951,196.800 385.800 C 196.555 385.649,196.400 386.270,196.400 387.400 C 196.400 388.530,196.245 389.151,196.000 389.000 C 195.758 388.851,195.600 389.396,195.600 390.376 C 195.600 391.269,195.415 392.000,195.190 392.000 C 194.951 392.000,194.810 392.917,194.852 394.200 C 194.891 395.410,195.076 396.400,195.262 396.400 C 195.448 396.400,195.600 396.688,195.600 397.040 C 195.600 399.820,206.737 401.538,209.692 399.213 C 210.243 398.780,210.777 398.510,210.880 398.613 C 211.239 398.972,213.600 393.878,213.600 392.744 C 213.600 392.115,213.780 391.600,214.000 391.600 C 214.220 391.600,214.400 390.790,214.400 389.800 C 214.400 388.810,214.555 388.000,214.744 388.000 C 214.933 388.000,215.123 386.515,215.166 384.700 C 215.209 382.885,215.414 381.229,215.622 381.020 C 215.830 380.811,216.000 378.977,216.000 376.944 C 216.000 374.911,216.180 373.136,216.400 373.000 C 216.620 372.864,216.800 371.334,216.800 369.600 C 216.800 367.866,216.980 366.336,217.200 366.200 C 217.423 366.062,217.600 364.196,217.600 361.976 C 217.600 359.789,217.763 358.000,217.961 358.000 C 218.160 358.000,218.347 355.535,218.377 352.522 C 218.407 349.509,218.592 346.850,218.789 346.614 C 219.081 346.262,219.449 330.762,219.288 325.613 C 219.257 324.627,219.350 324.395,219.609 324.813 C 220.130 325.653,220.009 305.618,219.486 304.600 C 219.260 304.160,218.511 303.080,217.821 302.200 C 213.634 296.861,213.376 287.582,217.178 279.050 C 217.583 278.143,218.034 277.042,218.181 276.604 C 218.598 275.365,218.432 256.267,218.002 256.001 C 217.788 255.869,217.608 252.105,217.584 247.278 C 217.559 242.166,217.395 238.879,217.171 239.018 C 216.947 239.156,216.800 235.915,216.800 230.847 C 216.800 225.679,216.646 222.352,216.400 222.200 C 216.156 222.049,216.000 219.023,216.000 214.456 C 216.000 209.013,215.863 206.812,215.500 206.421 C 215.094 205.984,215.112 205.942,215.600 206.200 C 216.088 206.458,216.106 206.416,215.700 205.979 C 215.365 205.617,215.200 204.028,215.200 201.150 C 215.200 196.947,215.178 196.844,214.100 195.997 C 213.039 195.164,204.808 190.420,204.400 190.407 C 204.290 190.403,204.174 192.425,204.143 194.900 " stroke="none" fill="#2c943b" fill-rule="evenodd"></path><path id="path1" d="M236.253 167.885 C 235.842 167.990,233.877 169.146,231.886 170.453 C 223.459 175.987,214.901 179.091,203.400 180.787 C 200.760 181.176,197.340 181.945,195.800 182.496 C 185.325 186.239,170.417 186.889,161.200 184.006 C 160.650 183.834,159.390 183.474,158.400 183.207 C 157.410 182.940,156.287 182.560,155.905 182.361 C 155.523 182.162,154.983 181.998,154.705 181.997 C 152.514 181.982,142.190 175.515,137.429 171.176 C 134.503 168.509,131.600 167.325,131.600 168.800 C 131.600 169.020,131.240 169.200,130.800 169.200 C 130.360 169.200,130.000 169.380,130.000 169.600 C 130.000 169.820,129.640 170.000,129.200 170.000 C 128.760 170.000,128.400 170.180,128.400 170.400 C 128.400 170.620,128.130 170.800,127.800 170.800 C 127.470 170.800,127.200 170.950,127.200 171.132 C 127.200 171.315,126.705 171.720,126.100 172.032 C 125.495 172.345,124.523 173.095,123.940 173.700 C 123.356 174.305,122.668 174.800,122.411 174.800 C 122.153 174.800,121.710 175.025,121.425 175.300 C 120.453 176.238,119.002 177.410,117.600 178.390 C 116.830 178.929,115.723 179.871,115.140 180.485 C 114.556 181.098,113.908 181.600,113.699 181.600 C 113.490 181.600,112.754 182.140,112.063 182.800 C 111.372 183.460,110.626 184.000,110.404 184.000 C 110.182 184.000,110.000 184.180,110.000 184.400 C 110.000 184.620,109.764 184.800,109.475 184.800 C 109.187 184.800,108.564 185.160,108.092 185.600 C 107.620 186.040,106.956 186.400,106.617 186.400 C 106.278 186.400,106.000 186.580,106.000 186.800 C 106.000 187.020,105.640 187.200,105.200 187.200 C 104.760 187.200,104.400 187.380,104.400 187.600 C 104.400 187.820,103.961 188.000,103.424 188.000 C 102.887 188.000,102.336 188.180,102.200 188.400 C 102.064 188.620,101.524 188.800,101.000 188.800 C 100.476 188.800,99.936 188.980,99.800 189.200 C 99.661 189.425,97.729 189.600,95.376 189.600 C 91.931 189.600,91.200 189.705,91.200 190.200 C 91.200 190.530,91.380 190.800,91.600 190.800 C 91.820 190.800,92.000 191.055,92.000 191.366 C 92.000 191.678,92.639 192.533,93.420 193.266 C 94.201 194.000,95.417 195.140,96.123 195.800 C 96.828 196.460,97.900 197.255,98.503 197.568 C 99.106 197.880,99.600 198.285,99.600 198.468 C 99.600 198.650,99.960 198.800,100.400 198.800 C 100.840 198.800,101.200 198.980,101.200 199.200 C 101.200 199.420,101.560 199.600,102.000 199.600 C 102.440 199.600,102.800 199.736,102.800 199.902 C 102.800 200.069,103.385 200.444,104.100 200.736 C 106.850 201.859,107.422 202.104,108.095 202.447 C 108.477 202.641,109.141 202.800,109.571 202.800 C 110.001 202.800,110.452 202.961,110.574 203.158 C 110.785 203.500,112.056 203.756,116.000 204.251 C 116.990 204.376,117.971 204.640,118.180 204.839 C 118.710 205.342,132.687 205.306,133.000 204.800 C 133.136 204.580,134.216 204.400,135.400 204.400 C 136.584 204.400,137.664 204.220,137.800 204.000 C 137.936 203.780,138.746 203.600,139.600 203.600 C 140.454 203.600,141.264 203.420,141.400 203.200 C 141.536 202.980,142.029 202.800,142.495 202.800 C 143.396 202.800,145.739 202.135,146.895 201.551 C 147.277 201.358,147.864 201.200,148.200 201.200 C 148.536 201.200,149.123 201.035,149.505 200.833 C 151.207 199.933,154.044 198.800,154.596 198.800 C 154.928 198.800,155.200 198.654,155.200 198.475 C 155.200 198.296,155.830 197.902,156.600 197.600 C 157.370 197.298,158.000 196.904,158.000 196.725 C 158.000 196.546,158.360 196.400,158.800 196.400 C 159.240 196.400,159.600 196.220,159.600 196.000 C 159.600 195.780,159.960 195.600,160.400 195.600 C 160.840 195.600,161.200 195.420,161.200 195.200 C 161.200 194.980,161.560 194.800,162.000 194.800 C 162.440 194.800,162.800 194.620,162.800 194.400 C 162.800 194.180,163.160 194.000,163.600 194.000 C 164.040 194.000,164.400 193.820,164.400 193.600 C 164.400 193.380,164.580 193.200,164.800 193.200 C 165.020 193.200,165.200 193.729,165.200 194.376 C 165.200 195.023,165.380 195.664,165.600 195.800 C 165.820 195.936,166.000 196.667,166.000 197.424 C 166.000 198.181,166.180 198.800,166.400 198.800 C 166.620 198.800,166.800 199.239,166.800 199.776 C 166.800 200.313,166.980 200.864,167.200 201.000 C 167.420 201.136,167.600 201.597,167.600 202.024 C 167.600 202.451,167.780 202.800,168.000 202.800 C 168.220 202.800,168.400 203.160,168.400 203.600 C 168.400 204.040,168.546 204.400,168.725 204.400 C 168.904 204.400,169.298 205.030,169.600 205.800 C 169.902 206.570,170.296 207.200,170.475 207.200 C 170.654 207.200,170.800 207.520,170.800 207.912 C 170.800 208.303,171.160 208.883,171.600 209.200 C 172.040 209.517,172.400 210.097,172.400 210.488 C 172.400 210.880,172.580 211.200,172.800 211.200 C 173.020 211.200,173.200 211.520,173.200 211.912 C 173.200 212.303,173.560 212.883,174.000 213.200 C 174.440 213.517,174.800 214.082,174.800 214.455 C 174.800 214.828,174.935 215.193,175.100 215.267 C 175.265 215.340,175.808 216.210,176.308 217.200 C 176.807 218.190,177.756 219.900,178.417 221.000 C 179.078 222.100,179.717 223.270,179.838 223.600 C 179.959 223.930,180.225 224.513,180.429 224.895 C 180.633 225.277,180.800 225.862,180.800 226.195 C 180.800 226.528,180.980 226.800,181.200 226.800 C 181.420 226.800,181.600 227.340,181.600 228.000 C 181.600 228.660,181.780 229.200,182.000 229.200 C 182.220 229.200,182.400 229.999,182.400 230.976 C 182.400 231.953,182.580 232.864,182.800 233.000 C 183.020 233.136,183.200 234.317,183.200 235.624 C 183.200 237.545,183.324 238.000,183.846 238.000 C 184.494 238.000,187.200 235.341,187.200 234.704 C 187.200 234.517,187.605 233.940,188.100 233.422 C 188.595 232.904,189.540 231.547,190.200 230.407 C 190.860 229.266,191.608 228.108,191.863 227.832 C 192.118 227.556,192.505 226.682,192.724 225.889 C 192.943 225.096,194.159 222.771,195.426 220.723 C 201.029 211.668,204.044 202.735,204.143 194.900 C 204.174 192.425,204.293 190.400,204.406 190.400 C 204.520 190.400,205.870 191.137,207.406 192.038 C 208.943 192.940,211.010 194.099,212.000 194.614 C 212.990 195.130,214.375 196.103,215.078 196.776 C 215.781 197.449,216.636 198.000,216.978 198.000 C 217.320 198.000,217.600 198.180,217.600 198.400 C 217.600 198.620,217.949 198.800,218.376 198.800 C 218.803 198.800,219.264 198.980,219.400 199.200 C 219.536 199.420,220.087 199.600,220.624 199.600 C 221.161 199.600,221.600 199.747,221.600 199.928 C 221.600 200.108,222.511 200.504,223.625 200.807 C 224.739 201.110,225.740 201.503,225.849 201.679 C 225.958 201.856,226.577 202.000,227.224 202.000 C 227.871 202.000,228.400 202.180,228.400 202.400 C 228.400 202.620,229.120 202.800,230.000 202.800 C 230.880 202.800,231.600 202.980,231.600 203.200 C 231.600 203.420,232.309 203.600,233.176 203.600 C 234.043 203.600,234.864 203.780,235.000 204.000 C 235.136 204.220,236.306 204.400,237.600 204.400 C 238.894 204.400,240.064 204.580,240.200 204.800 C 240.513 205.307,254.092 205.342,254.620 204.837 C 254.829 204.637,255.900 204.377,257.000 204.258 C 260.216 203.912,261.992 203.537,262.227 203.156 C 262.348 202.960,262.966 202.800,263.600 202.800 C 264.234 202.800,264.864 202.620,265.000 202.400 C 265.136 202.180,265.597 202.000,266.024 202.000 C 266.451 202.000,266.800 201.820,266.800 201.600 C 266.800 201.380,267.162 201.200,267.605 201.200 C 268.323 201.200,269.860 200.540,270.400 200.000 C 270.510 199.890,271.005 199.575,271.500 199.300 C 273.732 198.060,274.212 197.734,275.330 196.700 C 275.984 196.095,276.676 195.600,276.868 195.600 C 277.580 195.600,281.600 191.190,281.600 190.409 C 281.600 189.649,281.348 189.600,277.424 189.600 C 275.071 189.600,273.139 189.425,273.000 189.200 C 272.864 188.980,272.401 188.800,271.971 188.800 C 271.541 188.800,270.832 188.620,270.395 188.400 C 269.958 188.180,269.242 187.820,268.805 187.600 C 268.368 187.380,267.738 187.200,267.405 187.200 C 267.072 187.200,266.800 187.020,266.800 186.800 C 266.800 186.580,266.564 186.400,266.275 186.400 C 265.987 186.400,265.364 186.040,264.892 185.600 C 264.420 185.160,263.796 184.800,263.505 184.800 C 263.214 184.800,262.717 184.440,262.400 184.000 C 262.083 183.560,261.587 183.200,261.298 183.200 C 261.010 183.200,260.171 182.615,259.434 181.900 C 258.698 181.185,256.589 179.433,254.748 178.008 C 252.906 176.582,251.340 175.277,251.267 175.108 C 251.193 174.938,250.878 174.800,250.567 174.800 C 250.255 174.800,250.000 174.620,250.000 174.400 C 250.000 174.180,249.730 174.000,249.400 174.000 C 249.070 174.000,248.800 173.850,248.800 173.668 C 248.800 173.485,248.305 173.081,247.700 172.770 C 247.095 172.460,246.309 171.889,245.953 171.503 C 245.597 171.116,245.012 170.800,244.653 170.800 C 244.294 170.800,244.000 170.620,244.000 170.400 C 244.000 170.180,243.640 170.000,243.200 170.000 C 242.760 170.000,242.400 169.820,242.400 169.600 C 242.400 169.380,242.040 169.200,241.600 169.200 C 241.160 169.200,240.800 169.020,240.800 168.800 C 240.800 168.580,240.440 168.400,240.000 168.400 C 239.560 168.400,239.200 168.220,239.200 168.000 C 239.200 167.595,237.621 167.533,236.253 167.885 M270.116 251.200 C 270.000 251.643,269.570 252.000,269.153 252.000 C 268.739 252.000,268.400 252.180,268.400 252.400 C 268.400 252.620,268.040 252.800,267.600 252.800 C 267.160 252.800,266.800 252.980,266.800 253.200 C 266.800 253.420,266.361 253.600,265.824 253.600 C 265.287 253.600,264.736 253.780,264.600 254.000 C 264.464 254.220,263.823 254.400,263.176 254.400 C 262.529 254.400,262.000 254.580,262.000 254.800 C 262.000 255.020,261.370 255.200,260.600 255.200 C 259.830 255.200,259.200 255.380,259.200 255.600 C 259.200 255.820,258.401 256.000,257.424 256.000 C 256.447 256.000,255.536 256.180,255.400 256.400 C 255.264 256.620,254.364 256.800,253.400 256.800 C 252.436 256.800,251.536 256.980,251.400 257.200 C 251.264 257.420,250.263 257.600,249.176 257.600 C 248.089 257.600,247.200 257.780,247.200 258.000 C 247.200 258.220,246.435 258.404,245.500 258.410 C 244.565 258.415,243.080 258.607,242.200 258.837 C 241.320 259.067,240.150 259.347,239.600 259.458 C 238.600 259.660,237.212 260.182,235.905 260.847 C 235.523 261.041,234.938 261.200,234.605 261.200 C 234.272 261.200,234.000 261.380,234.000 261.600 C 234.000 261.820,233.640 262.000,233.200 262.000 C 232.760 262.000,232.400 262.180,232.400 262.400 C 232.400 262.620,232.040 262.800,231.600 262.800 C 231.160 262.800,230.800 262.980,230.800 263.200 C 230.800 263.420,230.564 263.600,230.275 263.600 C 229.987 263.600,229.364 263.960,228.892 264.400 C 228.420 264.840,227.931 265.200,227.805 265.200 C 227.269 265.200,219.200 273.624,219.200 274.184 C 219.200 274.523,219.040 274.800,218.845 274.800 C 218.649 274.800,218.376 275.402,218.238 276.139 C 218.100 276.875,217.645 278.184,217.228 279.047 C 213.267 287.247,213.615 296.778,218.088 302.552 C 218.920 303.626,219.600 304.661,219.600 304.852 C 219.600 305.044,219.949 305.200,220.376 305.200 C 220.803 305.200,221.264 305.380,221.400 305.600 C 221.544 305.833,223.796 306.000,226.800 306.000 C 229.804 306.000,232.056 305.833,232.200 305.600 C 232.336 305.380,233.056 305.200,233.800 305.200 C 234.544 305.200,235.264 305.020,235.400 304.800 C 235.536 304.580,235.999 304.400,236.429 304.400 C 236.859 304.400,237.568 304.220,238.005 304.000 C 238.442 303.780,239.158 303.420,239.595 303.200 C 240.032 302.980,240.662 302.800,240.995 302.800 C 241.328 302.800,241.600 302.620,241.600 302.400 C 241.600 302.180,241.960 302.000,242.400 302.000 C 242.840 302.000,243.200 301.820,243.200 301.600 C 243.200 301.380,243.560 301.200,244.000 301.200 C 244.440 301.200,244.800 301.020,244.800 300.800 C 244.800 300.580,245.160 300.400,245.600 300.400 C 246.040 300.400,246.400 300.220,246.400 300.000 C 246.400 299.780,246.760 299.600,247.200 299.600 C 247.640 299.600,248.000 299.420,248.000 299.200 C 248.000 298.980,248.360 298.800,248.800 298.800 C 249.240 298.800,249.600 298.620,249.600 298.400 C 249.600 298.180,249.960 298.000,250.400 298.000 C 250.840 298.000,251.200 297.820,251.200 297.600 C 251.200 297.380,251.425 297.197,251.700 297.193 C 252.899 297.175,261.200 289.137,261.200 287.993 C 261.200 287.777,261.380 287.600,261.600 287.600 C 261.820 287.600,262.000 287.330,262.000 287.000 C 262.000 286.670,262.180 286.400,262.400 286.400 C 262.620 286.400,262.800 286.130,262.800 285.800 C 262.800 285.470,262.980 285.200,263.200 285.200 C 263.420 285.200,263.600 284.930,263.600 284.600 C 263.600 284.270,263.780 284.000,264.000 284.000 C 264.220 284.000,264.400 283.640,264.400 283.200 C 264.400 282.760,264.580 282.400,264.800 282.400 C 265.020 282.400,265.200 282.040,265.200 281.600 C 265.200 281.160,265.380 280.800,265.600 280.800 C 265.820 280.800,266.000 280.440,266.000 280.000 C 266.000 279.560,266.180 279.200,266.400 279.200 C 266.620 279.200,266.800 278.840,266.800 278.400 C 266.800 277.960,266.947 277.600,267.128 277.600 C 267.308 277.600,267.700 276.700,268.000 275.600 C 268.300 274.500,268.692 273.600,268.872 273.600 C 269.053 273.600,269.200 273.161,269.200 272.624 C 269.200 272.087,269.380 271.536,269.600 271.400 C 269.820 271.264,270.000 270.533,270.000 269.776 C 270.000 269.019,270.180 268.400,270.400 268.400 C 270.620 268.400,270.800 267.716,270.800 266.880 C 270.800 266.044,270.965 265.189,271.168 264.980 C 271.370 264.771,271.642 263.340,271.772 261.800 C 271.902 260.260,272.112 257.876,272.238 256.502 C 272.568 252.922,270.812 248.537,270.116 251.200 M150.400 310.376 C 150.400 313.396,150.567 315.656,150.800 315.800 C 151.020 315.936,151.200 317.027,151.200 318.224 C 151.200 319.421,151.380 320.400,151.600 320.400 C 151.820 320.400,152.000 321.120,152.000 322.000 C 152.000 322.880,152.180 323.600,152.400 323.600 C 152.620 323.600,152.800 324.140,152.800 324.800 C 152.800 325.460,152.980 326.000,153.200 326.000 C 153.420 326.000,153.600 326.540,153.600 327.200 C 153.600 327.860,153.780 328.400,154.000 328.400 C 154.220 328.400,154.400 328.940,154.400 329.600 C 154.400 330.260,154.580 330.800,154.800 330.800 C 155.020 330.800,155.200 331.160,155.200 331.600 C 155.200 332.040,155.380 332.400,155.600 332.400 C 155.820 332.400,156.000 332.760,156.000 333.200 C 156.000 333.640,156.180 334.000,156.400 334.000 C 156.620 334.000,156.800 334.360,156.800 334.800 C 156.800 335.240,156.980 335.600,157.200 335.600 C 157.420 335.600,157.600 335.960,157.600 336.400 C 157.600 336.840,157.780 337.200,158.000 337.200 C 158.220 337.200,158.400 337.450,158.400 337.755 C 158.400 338.060,159.030 339.226,159.800 340.345 C 160.570 341.465,161.200 342.475,161.200 342.590 C 161.200 342.705,161.944 343.564,162.854 344.500 C 163.763 345.435,164.774 346.605,165.100 347.100 C 165.425 347.595,165.869 348.000,166.086 348.000 C 166.302 348.000,166.983 348.540,167.600 349.200 C 168.217 349.860,168.969 350.400,169.272 350.400 C 169.575 350.400,170.083 350.760,170.400 351.200 C 170.717 351.640,171.282 352.000,171.655 352.000 C 172.028 352.000,172.393 352.159,172.467 352.354 C 172.686 352.935,182.625 357.622,184.171 357.873 C 184.957 358.000,185.600 358.261,185.600 358.452 C 185.600 358.644,186.219 358.800,186.976 358.800 C 187.733 358.800,188.464 358.980,188.600 359.200 C 188.736 359.420,189.557 359.600,190.424 359.600 C 191.291 359.600,192.000 359.780,192.000 360.000 C 192.000 360.238,193.525 360.400,195.776 360.400 C 197.863 360.400,199.663 360.221,199.800 360.000 C 199.936 359.780,200.402 359.600,200.836 359.600 C 201.881 359.600,205.319 356.014,206.311 353.888 C 208.675 348.827,208.586 342.609,206.038 334.848 C 205.577 333.444,205.198 331.914,205.196 331.448 C 205.190 330.075,198.394 321.600,197.299 321.600 C 197.090 321.600,196.354 321.060,195.663 320.400 C 194.972 319.740,194.175 319.200,193.892 319.200 C 193.609 319.200,193.117 318.840,192.800 318.400 C 192.483 317.960,191.918 317.600,191.545 317.600 C 191.172 317.600,190.807 317.465,190.733 317.300 C 190.502 316.781,186.114 314.788,183.400 313.971 C 182.520 313.706,181.440 313.345,181.000 313.169 C 180.240 312.865,179.347 312.712,175.200 312.175 C 174.210 312.047,173.040 311.786,172.600 311.596 C 172.160 311.405,171.170 311.156,170.400 311.041 C 168.559 310.768,165.396 310.146,163.400 309.665 C 162.520 309.452,160.720 309.056,159.400 308.783 C 158.080 308.510,156.829 308.133,156.620 307.944 C 156.411 307.755,155.916 307.600,155.520 307.600 C 155.124 307.600,154.800 307.420,154.800 307.200 C 154.800 306.980,154.570 306.800,154.288 306.800 C 154.007 306.800,153.517 306.440,153.200 306.000 C 152.861 305.530,152.165 305.200,151.512 305.200 L 150.400 305.200 150.400 310.376 " stroke="none" fill="#63b34b" fill-rule="evenodd"></path><path id="path2" d="M212.800 14.761 C 212.800 14.960,211.945 15.223,210.900 15.346 C 207.101 15.792,205.591 16.092,205.374 16.442 C 205.252 16.639,204.734 16.800,204.222 16.800 C 203.710 16.800,202.789 17.061,202.174 17.380 C 201.560 17.698,200.909 17.868,200.729 17.756 C 200.548 17.644,200.400 17.743,200.400 17.976 C 200.400 18.209,200.051 18.400,199.624 18.400 C 199.197 18.400,198.736 18.580,198.600 18.800 C 198.464 19.020,198.037 19.200,197.652 19.200 C 197.266 19.200,196.576 19.549,196.118 19.976 C 195.660 20.403,195.176 20.643,195.043 20.509 C 194.909 20.376,194.800 20.551,194.800 20.899 C 194.800 21.261,193.696 22.148,192.218 22.975 C 189.901 24.271,183.303 28.618,182.800 29.181 C 182.690 29.304,181.880 29.938,181.000 30.590 C 178.958 32.103,175.600 35.220,175.600 35.602 C 175.600 35.763,176.275 36.000,177.100 36.130 C 177.925 36.259,179.770 36.561,181.200 36.800 C 184.452 37.344,188.338 37.968,191.200 38.405 C 197.875 39.423,199.126 39.627,205.700 40.763 C 216.450 42.621,220.221 43.673,225.364 46.248 C 230.749 48.945,234.566 53.147,236.856 58.902 C 238.440 62.883,238.804 71.832,237.510 75.000 L 236.856 76.600 236.828 74.520 C 236.696 64.766,229.040 56.942,216.800 54.051 C 210.729 52.618,201.444 51.834,197.600 52.430 C 196.170 52.652,193.200 53.006,191.000 53.217 C 185.179 53.775,184.707 53.999,190.000 53.690 C 195.995 53.341,209.246 53.375,211.800 53.746 C 216.066 54.366,220.294 55.595,223.800 57.234 C 237.124 63.463,239.999 79.108,230.725 94.918 C 230.106 95.972,229.600 96.903,229.600 96.986 C 229.600 97.069,228.735 98.636,227.677 100.468 C 219.126 115.286,217.671 122.587,220.518 136.400 C 223.726 151.962,222.472 159.523,215.980 163.764 C 201.048 173.520,180.994 174.854,164.530 167.188 C 149.821 160.338,141.163 147.316,139.588 129.673 C 139.069 123.865,139.750 114.756,141.238 107.600 C 141.444 106.610,141.901 104.360,142.253 102.600 C 142.606 100.840,143.043 98.680,143.224 97.800 C 143.738 95.297,146.739 83.427,147.976 79.000 C 150.489 70.006,151.600 62.544,151.600 54.655 C 151.600 52.095,151.686 50.000,151.792 50.000 C 151.897 50.000,152.662 50.271,153.492 50.601 C 157.613 52.245,165.463 54.034,168.200 53.952 C 169.692 53.908,169.652 53.881,167.600 53.556 C 162.170 52.694,160.131 52.261,159.200 51.772 C 158.650 51.484,156.670 50.765,154.800 50.175 C 150.619 48.855,144.869 46.143,142.212 44.240 C 139.713 42.449,139.589 42.606,140.009 47.000 C 140.710 54.316,141.235 63.899,141.119 67.266 L 141.000 70.732 138.766 69.416 C 134.490 66.895,129.335 65.523,124.627 65.653 C 122.828 65.703,121.153 65.618,120.905 65.465 C 120.658 65.312,120.342 65.370,120.204 65.593 C 120.066 65.817,119.620 66.000,119.214 66.000 C 118.325 66.000,115.200 67.615,115.200 68.074 C 115.200 68.253,114.840 68.400,114.400 68.400 C 113.960 68.400,113.645 68.561,113.700 68.758 C 113.755 68.955,112.990 69.869,112.000 70.789 C 111.010 71.709,110.200 72.618,110.200 72.808 C 110.200 72.998,109.795 73.532,109.300 73.993 C 108.805 74.454,108.397 75.229,108.394 75.716 C 108.389 76.433,108.315 76.487,108.000 76.000 C 107.685 75.512,107.611 75.563,107.606 76.273 C 107.602 76.791,107.275 77.249,106.800 77.400 C 106.360 77.540,106.000 77.945,106.000 78.300 C 106.000 79.182,102.086 82.901,101.524 82.553 C 101.252 82.385,101.188 82.457,101.362 82.738 C 101.531 83.012,101.393 83.200,101.024 83.200 C 100.681 83.200,100.400 83.346,100.400 83.525 C 100.400 83.903,97.610 85.053,97.091 84.890 C 96.898 84.830,96.855 84.965,96.994 85.190 C 97.142 85.429,96.821 85.600,96.224 85.600 C 95.661 85.600,95.200 85.780,95.200 86.000 C 95.200 86.220,94.917 86.400,94.571 86.400 C 94.226 86.400,93.673 86.670,93.343 87.000 C 92.930 87.413,92.895 87.600,93.233 87.600 C 93.502 87.600,93.325 87.945,92.839 88.366 C 92.353 88.788,91.927 89.508,91.893 89.966 C 91.858 90.425,91.688 90.800,91.515 90.800 C 91.342 90.800,91.200 91.621,91.200 92.624 C 91.200 93.627,91.335 94.364,91.500 94.262 C 91.665 94.160,91.828 94.549,91.863 95.126 C 91.898 95.703,92.123 96.241,92.363 96.321 C 92.603 96.401,92.800 96.652,92.800 96.880 C 92.800 97.348,96.028 100.400,96.523 100.400 C 96.702 100.400,96.737 100.578,96.603 100.795 C 96.467 101.015,96.613 101.093,96.931 100.971 C 97.248 100.850,97.842 101.164,98.262 101.676 C 98.678 102.184,99.224 102.640,99.475 102.688 C 100.289 102.846,102.773 104.694,102.516 104.950 C 102.379 105.088,102.556 105.200,102.911 105.200 C 103.265 105.200,103.835 105.600,104.177 106.089 C 104.520 106.578,104.800 106.855,104.800 106.705 C 104.800 106.554,105.498 107.136,106.351 107.998 C 107.204 108.860,108.014 109.453,108.151 109.316 C 108.288 109.179,108.400 109.367,108.400 109.733 C 108.400 110.100,108.610 110.400,108.867 110.400 C 109.123 110.400,109.232 110.501,109.109 110.625 C 108.985 110.748,109.312 111.311,109.834 111.875 C 110.357 112.439,110.688 113.058,110.569 113.250 C 110.450 113.443,110.543 113.600,110.776 113.600 C 111.009 113.600,111.200 113.851,111.200 114.157 C 111.200 114.464,111.481 114.822,111.825 114.954 C 112.169 115.086,112.339 115.376,112.202 115.597 C 112.065 115.819,112.143 116.000,112.376 116.000 C 112.609 116.000,112.800 116.270,112.800 116.600 C 112.800 116.930,112.980 117.200,113.200 117.200 C 113.420 117.200,113.600 117.432,113.600 117.715 C 113.600 117.999,113.960 118.937,114.400 119.800 C 114.840 120.663,115.200 121.581,115.200 121.839 C 115.200 122.097,115.461 122.811,115.780 123.426 C 116.098 124.040,116.250 124.718,116.118 124.933 C 115.984 125.150,116.082 125.196,116.338 125.038 C 116.655 124.843,116.800 125.208,116.800 126.200 C 116.800 127.063,116.961 127.547,117.200 127.400 C 117.433 127.256,117.600 127.655,117.600 128.353 C 117.600 129.013,117.780 129.664,118.000 129.800 C 118.220 129.936,118.400 130.577,118.400 131.224 C 118.400 131.871,118.580 132.400,118.800 132.400 C 119.020 132.400,119.203 133.345,119.206 134.500 C 119.211 136.003,119.322 136.430,119.600 136.000 C 119.884 135.561,119.989 135.855,119.994 137.100 C 119.997 138.035,120.143 138.800,120.318 138.800 C 120.493 138.800,120.681 139.475,120.736 140.300 C 120.790 141.125,121.007 141.860,121.218 141.933 C 121.428 142.007,121.600 142.761,121.600 143.610 C 121.600 144.458,121.780 145.264,122.000 145.400 C 122.220 145.536,122.400 146.256,122.400 147.000 C 122.400 147.744,122.580 148.464,122.800 148.600 C 123.020 148.736,123.200 149.197,123.200 149.624 C 123.200 150.051,123.341 150.400,123.513 150.400 C 123.685 150.400,123.866 150.885,123.915 151.478 C 123.964 152.070,124.228 152.698,124.502 152.871 C 124.776 153.045,124.861 153.191,124.691 153.194 C 124.521 153.197,124.663 153.629,125.006 154.153 C 125.350 154.678,125.587 155.263,125.533 155.453 C 125.480 155.644,125.747 156.385,126.128 157.100 C 126.509 157.815,126.713 158.400,126.582 158.400 C 126.450 158.400,126.627 158.685,126.975 159.032 C 127.323 159.380,127.505 159.830,127.380 160.032 C 127.255 160.235,127.340 160.400,127.569 160.400 C 127.798 160.400,128.100 160.858,128.240 161.419 C 128.381 161.979,128.598 162.335,128.723 162.211 C 128.847 162.086,129.281 162.708,129.686 163.592 C 130.092 164.476,130.609 165.200,130.835 165.200 C 131.062 165.200,131.136 165.380,131.000 165.600 C 130.864 165.820,130.955 166.000,131.202 166.000 C 131.449 166.000,132.106 166.540,132.661 167.200 C 133.217 167.860,133.940 168.400,134.270 168.400 C 134.752 168.400,137.991 170.999,141.105 173.886 C 141.393 174.153,142.163 174.687,142.815 175.072 C 143.467 175.457,144.000 175.914,144.000 176.086 C 144.000 176.259,144.193 176.400,144.428 176.400 C 144.663 176.400,145.608 176.908,146.528 177.528 C 158.657 185.714,181.218 187.651,196.588 181.826 C 198.122 181.245,200.462 180.678,201.788 180.567 C 204.412 180.347,208.185 179.752,210.400 179.209 C 214.243 178.268,216.857 177.496,218.700 176.760 C 219.195 176.562,220.005 176.239,220.500 176.042 C 224.156 174.590,229.882 171.488,233.217 169.152 C 234.495 168.258,235.904 167.600,236.541 167.600 C 237.149 167.600,237.550 167.443,237.432 167.251 C 237.313 167.059,238.498 165.762,240.066 164.369 C 246.313 158.818,252.543 150.013,255.257 142.900 C 255.445 142.405,255.759 141.595,255.954 141.100 C 256.278 140.278,256.774 138.590,257.630 135.400 C 258.456 132.321,259.609 124.355,259.599 121.800 C 259.586 118.755,260.887 107.776,261.849 102.800 C 262.921 97.258,265.595 88.318,267.473 84.000 C 267.808 83.230,268.227 82.240,268.404 81.800 C 270.752 75.983,275.874 65.964,276.849 65.281 C 277.262 64.991,277.600 64.495,277.600 64.177 C 277.600 63.860,277.791 63.600,278.024 63.600 C 278.257 63.600,278.345 63.435,278.221 63.234 C 278.096 63.032,278.446 62.332,278.997 61.676 C 279.549 61.021,280.000 60.285,280.000 60.042 C 280.000 59.799,280.180 59.600,280.400 59.600 C 280.620 59.600,280.779 59.465,280.753 59.300 C 280.610 58.396,280.852 57.585,281.200 57.800 C 281.420 57.936,281.600 57.767,281.600 57.424 C 281.600 57.081,281.780 56.800,282.000 56.800 C 282.220 56.800,282.400 56.530,282.400 56.200 C 282.400 55.870,282.580 55.600,282.800 55.600 C 283.020 55.600,283.200 55.229,283.200 54.776 C 283.200 54.256,283.370 54.058,283.662 54.238 C 283.954 54.419,284.015 54.348,283.827 54.044 C 283.664 53.781,283.809 53.140,284.150 52.621 C 285.092 51.182,284.373 46.400,283.214 46.400 C 282.992 46.400,282.456 46.097,282.024 45.728 C 281.592 45.358,280.833 44.993,280.337 44.917 C 279.841 44.842,279.337 44.644,279.217 44.479 C 279.098 44.314,278.482 44.192,277.848 44.208 C 277.214 44.225,276.471 44.014,276.196 43.738 C 275.920 43.463,275.589 43.344,275.460 43.473 C 275.331 43.603,274.779 43.416,274.233 43.059 C 273.688 42.701,272.986 42.507,272.673 42.627 C 272.361 42.747,271.446 42.475,270.640 42.023 C 269.835 41.570,268.926 41.200,268.621 41.200 C 268.316 41.200,268.007 41.065,267.933 40.900 C 267.860 40.735,266.900 40.153,265.800 39.607 C 264.700 39.061,263.509 38.296,263.153 37.907 C 262.797 37.518,262.252 37.200,261.941 37.200 C 261.631 37.200,261.117 36.840,260.800 36.400 C 260.483 35.960,259.993 35.600,259.712 35.600 C 259.430 35.600,259.200 35.420,259.200 35.200 C 259.200 34.980,258.930 34.800,258.600 34.800 C 258.270 34.800,258.000 34.500,258.000 34.133 C 258.000 33.767,257.891 33.576,257.757 33.709 C 257.440 34.026,256.429 33.091,256.666 32.700 C 256.765 32.535,256.556 32.400,256.200 32.400 C 255.844 32.400,255.664 32.220,255.800 32.000 C 255.936 31.780,255.789 31.600,255.472 31.600 C 255.156 31.600,254.597 31.195,254.230 30.700 C 253.863 30.205,253.684 30.070,253.832 30.400 C 253.979 30.730,253.387 30.280,252.514 29.400 C 251.642 28.520,250.674 27.743,250.364 27.673 C 250.054 27.603,249.440 27.140,249.000 26.644 C 248.560 26.149,247.526 25.290,246.702 24.736 C 245.878 24.182,245.338 23.581,245.502 23.400 C 245.666 23.220,245.598 23.187,245.352 23.327 C 245.106 23.468,244.386 23.137,243.752 22.592 C 243.118 22.047,242.390 21.601,242.133 21.600 C 241.877 21.600,241.607 21.434,241.533 21.230 C 241.460 21.027,241.137 20.802,240.816 20.730 C 240.004 20.549,239.247 19.860,239.466 19.500 C 239.565 19.335,239.372 19.200,239.036 19.200 C 238.699 19.200,237.783 18.840,237.000 18.400 C 236.217 17.960,235.301 17.600,234.964 17.600 C 234.628 17.600,234.440 17.458,234.548 17.285 C 234.655 17.112,234.268 16.930,233.689 16.883 C 233.109 16.835,232.456 16.616,232.238 16.398 C 232.019 16.179,231.462 16.000,231.000 16.000 C 230.538 16.000,229.918 15.775,229.621 15.500 C 229.183 15.093,229.145 15.112,229.418 15.600 C 229.691 16.088,229.644 16.111,229.164 15.724 C 228.840 15.462,227.636 15.205,226.488 15.152 C 225.339 15.100,224.400 14.909,224.400 14.729 C 224.400 14.548,221.790 14.400,218.600 14.400 C 215.410 14.400,212.800 14.563,212.800 14.761 M173.659 54.484 C 175.803 54.716,178.542 54.716,180.859 54.484 C 184.426 54.128,184.264 54.110,177.400 54.110 C 170.737 54.111,170.458 54.138,173.659 54.484 M257.398 154.402 C 256.998 154.844,256.790 155.324,256.936 155.469 C 257.081 155.614,257.200 155.513,257.200 155.243 C 257.200 154.973,257.380 154.864,257.600 155.000 C 257.820 155.136,258.000 154.956,258.000 154.600 C 258.000 154.244,258.180 154.064,258.400 154.200 C 258.620 154.336,258.800 154.257,258.800 154.024 C 258.800 153.360,258.192 153.525,257.398 154.402 " stroke="none" fill="#da2c44" fill-rule="evenodd"></path><path id="path3" d="M151.600 54.655 C 151.600 62.537,150.507 69.864,147.969 79.000 C 146.719 83.502,143.725 95.361,143.224 97.800 C 143.043 98.680,142.606 100.840,142.253 102.600 C 141.901 104.360,141.444 106.610,141.238 107.600 C 138.310 121.687,138.907 134.749,142.921 144.400 C 148.901 158.777,159.138 166.935,176.400 171.080 C 181.498 172.304,195.336 172.068,200.600 170.667 C 210.237 168.104,218.962 163.084,220.404 159.274 C 222.660 153.312,222.692 146.945,220.518 136.400 C 217.671 122.587,219.126 115.286,227.677 100.468 C 228.735 98.636,229.600 97.069,229.600 96.986 C 229.600 96.903,230.106 95.972,230.725 94.918 C 236.738 84.667,237.729 71.624,233.011 64.816 C 229.849 60.253,224.804 56.910,218.600 55.267 C 217.720 55.034,216.550 54.724,216.000 54.579 C 211.582 53.407,200.536 52.910,193.200 53.553 C 176.883 54.982,173.824 54.982,164.600 53.556 C 161.630 53.097,155.560 51.477,153.350 50.553 C 152.622 50.249,151.930 50.000,151.813 50.000 C 151.696 50.000,151.600 52.095,151.600 54.655 " stroke="none" fill="#e33c4c" fill-rule="evenodd"></path><path id="path4" d="M143.800 0.270 C 142.920 0.371,142.029 0.621,141.820 0.827 C 141.611 1.032,140.947 1.200,140.344 1.200 C 139.741 1.200,139.136 1.380,139.000 1.600 C 138.864 1.820,138.238 2.000,137.610 2.000 C 136.981 2.000,136.407 2.178,136.333 2.397 C 136.260 2.615,135.705 2.834,135.100 2.884 C 134.495 2.934,134.000 3.115,134.000 3.287 C 134.000 3.459,133.640 3.600,133.200 3.600 C 132.760 3.600,132.400 3.736,132.400 3.902 C 132.400 4.200,129.875 5.200,128.900 5.288 C 128.625 5.313,128.400 5.483,128.400 5.667 C 128.400 5.850,128.040 6.000,127.600 6.000 C 127.160 6.000,126.800 6.180,126.800 6.400 C 126.800 6.620,126.615 6.800,126.389 6.800 C 125.728 6.800,122.612 10.142,122.467 11.008 C 122.393 11.443,122.168 11.971,121.967 12.180 C 121.470 12.695,121.499 17.890,122.000 18.200 C 122.220 18.336,122.400 18.797,122.400 19.224 C 122.400 19.651,122.580 20.000,122.800 20.000 C 123.020 20.000,123.200 20.360,123.200 20.800 C 123.200 21.240,123.380 21.600,123.600 21.600 C 123.820 21.600,124.000 22.050,124.000 22.600 C 124.000 23.150,124.180 23.600,124.400 23.600 C 124.620 23.600,124.800 24.140,124.800 24.800 C 124.800 25.460,124.951 26.000,125.137 26.000 C 125.951 26.000,125.930 38.949,125.115 39.453 C 124.942 39.560,124.800 40.447,124.800 41.424 C 124.800 42.401,124.620 43.200,124.400 43.200 C 124.180 43.200,124.000 43.909,124.000 44.776 C 124.000 45.643,123.820 46.464,123.600 46.600 C 123.380 46.736,123.200 47.467,123.200 48.224 C 123.200 48.981,123.020 49.600,122.800 49.600 C 122.580 49.600,122.400 50.399,122.400 51.376 C 122.400 52.353,122.220 53.264,122.000 53.400 C 121.780 53.536,121.600 54.616,121.600 55.800 C 121.600 56.984,121.420 58.064,121.200 58.200 C 120.980 58.336,120.800 60.057,120.800 62.024 C 120.800 66.079,120.395 65.733,125.000 65.612 C 129.247 65.500,134.660 66.996,138.766 69.416 L 141.000 70.732 141.119 67.266 C 141.235 63.899,140.710 54.316,140.009 47.000 C 139.589 42.606,139.713 42.449,142.212 44.240 C 144.869 46.143,150.619 48.855,154.800 50.175 C 156.670 50.765,158.650 51.481,159.200 51.765 C 164.131 54.316,183.520 54.655,197.600 52.437 C 201.434 51.832,210.705 52.612,216.800 54.051 C 229.040 56.942,236.696 64.766,236.828 74.520 L 236.856 76.600 237.510 75.000 C 238.804 71.832,238.440 62.883,236.856 58.902 C 234.566 53.147,230.749 48.945,225.364 46.248 C 220.221 43.673,216.450 42.621,205.700 40.763 C 199.126 39.627,197.875 39.423,191.200 38.405 C 188.338 37.968,184.452 37.344,181.200 36.800 C 179.770 36.561,177.925 36.259,177.100 36.130 C 176.275 36.000,175.600 35.763,175.600 35.602 C 175.600 35.220,178.958 32.103,181.000 30.590 C 181.880 29.938,182.690 29.304,182.800 29.181 C 183.303 28.618,189.901 24.271,192.218 22.975 C 194.557 21.667,195.780 20.000,194.400 20.000 C 194.180 20.000,194.000 19.732,194.000 19.403 C 194.000 19.075,193.460 18.291,192.800 17.660 C 192.140 17.029,191.600 16.297,191.600 16.033 C 191.600 15.769,191.447 15.647,191.260 15.763 C 191.073 15.878,190.668 15.493,190.360 14.907 C 189.681 13.614,187.776 11.600,187.233 11.600 C 187.017 11.600,186.656 11.285,186.432 10.900 C 186.208 10.515,186.019 10.314,186.012 10.454 C 186.005 10.593,185.235 10.008,184.300 9.154 C 183.365 8.299,182.375 7.600,182.100 7.600 C 181.825 7.600,181.600 7.420,181.600 7.200 C 181.600 6.980,181.364 6.800,181.075 6.800 C 180.787 6.800,180.164 6.440,179.692 6.000 C 179.220 5.560,178.682 5.200,178.496 5.200 C 177.903 5.200,176.006 4.211,176.003 3.900 C 176.001 3.735,175.640 3.600,175.200 3.600 C 174.760 3.600,174.400 3.420,174.400 3.200 C 174.400 2.980,174.038 2.800,173.595 2.800 C 173.152 2.800,172.477 2.642,172.095 2.449 C 170.944 1.868,168.597 1.200,167.705 1.200 C 167.244 1.200,166.795 0.985,166.707 0.722 C 166.546 0.237,147.381 -0.142,143.800 0.270 M276.650 65.411 C 275.827 66.015,270.506 76.593,268.404 81.800 C 268.227 82.240,267.808 83.230,267.473 84.000 C 265.595 88.318,262.921 97.258,261.849 102.800 C 260.887 107.776,259.586 118.755,259.599 121.800 C 259.610 124.528,258.466 132.218,257.516 135.800 C 256.095 141.161,255.655 142.325,253.218 147.171 C 249.920 153.731,245.424 159.607,240.046 164.387 C 238.080 166.134,237.306 167.066,237.588 167.348 C 237.871 167.631,238.151 167.609,238.480 167.280 C 238.744 167.016,239.308 166.800,239.733 166.800 C 240.158 166.800,240.842 166.412,241.253 165.939 C 241.664 165.465,242.000 165.292,242.000 165.554 C 242.000 165.820,242.387 165.670,242.875 165.216 C 243.357 164.767,244.088 164.400,244.499 164.400 C 244.911 164.400,245.136 164.220,245.000 164.000 C 244.778 163.640,245.303 163.427,246.100 163.553 C 246.265 163.579,246.400 163.420,246.400 163.200 C 246.400 162.980,246.771 162.800,247.224 162.800 C 247.677 162.800,247.936 162.620,247.800 162.400 C 247.664 162.180,247.833 162.000,248.176 162.000 C 248.519 162.000,248.800 161.820,248.800 161.600 C 248.800 161.380,249.171 161.200,249.624 161.200 C 250.077 161.200,250.336 161.020,250.200 160.800 C 250.064 160.580,250.153 160.400,250.398 160.400 C 250.643 160.400,251.419 159.861,252.122 159.202 C 252.825 158.543,253.619 158.003,253.886 158.002 C 254.153 158.001,254.558 157.652,254.786 157.227 C 255.013 156.802,255.559 156.340,256.000 156.200 C 256.440 156.060,256.800 155.716,256.800 155.435 C 256.800 154.734,258.117 153.600,258.931 153.600 C 259.299 153.600,259.600 153.414,259.600 153.187 C 259.600 152.959,260.140 152.245,260.800 151.600 C 261.460 150.955,262.000 150.267,262.000 150.071 C 262.000 149.876,262.575 149.240,263.277 148.658 C 263.980 148.076,264.422 147.600,264.261 147.600 C 264.100 147.600,264.159 147.375,264.392 147.100 C 266.258 144.897,266.799 144.134,266.800 143.700 C 266.800 143.425,266.968 143.200,267.174 143.200 C 267.380 143.200,267.773 142.580,268.047 141.821 C 268.321 141.063,268.693 140.534,268.873 140.645 C 269.053 140.756,269.200 140.477,269.200 140.024 C 269.200 139.571,269.335 139.199,269.500 139.197 C 269.857 139.193,270.800 137.258,270.800 136.530 C 270.800 136.249,271.159 135.430,271.599 134.710 C 272.038 133.989,272.398 132.984,272.399 132.476 C 272.399 131.968,272.569 131.657,272.776 131.785 C 272.982 131.913,273.144 131.698,273.135 131.309 C 273.125 130.919,273.488 129.676,273.939 128.547 C 274.391 127.418,274.650 126.383,274.514 126.247 C 274.378 126.111,274.487 126.000,274.757 126.000 C 275.027 126.000,275.156 125.852,275.044 125.671 C 274.932 125.491,275.102 124.840,275.420 124.226 C 275.739 123.611,276.000 122.859,276.000 122.554 C 276.000 122.249,276.180 122.000,276.400 122.000 C 276.620 122.000,276.800 121.550,276.800 121.000 C 276.800 120.450,276.980 120.000,277.200 120.000 C 277.420 120.000,277.600 119.460,277.600 118.800 C 277.600 118.140,277.780 117.600,278.000 117.600 C 278.220 117.600,278.400 117.240,278.400 116.800 C 278.400 116.360,278.580 116.000,278.800 116.000 C 279.020 116.000,279.200 115.640,279.200 115.200 C 279.200 114.760,279.380 114.400,279.600 114.400 C 279.820 114.400,280.000 114.048,280.000 113.618 C 280.000 113.187,280.540 111.919,281.200 110.800 C 281.860 109.681,282.400 108.593,282.400 108.382 C 282.400 108.172,282.550 108.000,282.732 108.000 C 282.915 108.000,283.320 107.518,283.632 106.929 C 283.945 106.340,285.043 104.953,286.073 103.848 C 287.104 102.742,287.855 101.689,287.744 101.509 C 287.632 101.328,287.689 101.206,287.870 101.237 C 288.680 101.378,289.227 101.167,289.000 100.800 C 288.864 100.580,288.945 100.400,289.180 100.400 C 289.415 100.400,290.172 99.860,290.863 99.200 C 291.554 98.540,292.347 98.000,292.626 98.000 C 292.905 98.000,293.193 97.858,293.267 97.685 C 293.493 97.150,297.079 95.213,297.347 95.481 C 297.486 95.620,297.600 95.523,297.600 95.267 C 297.600 95.010,297.949 94.800,298.376 94.800 C 298.803 94.800,299.264 94.620,299.400 94.400 C 299.536 94.180,300.076 94.000,300.600 94.000 C 301.124 94.000,301.664 93.820,301.800 93.600 C 301.936 93.380,302.473 93.200,302.994 93.200 C 304.314 93.200,308.000 89.512,308.000 88.192 C 308.000 87.646,308.139 87.200,308.308 87.200 C 308.478 87.200,308.668 85.940,308.731 84.400 C 308.804 82.626,308.691 81.600,308.423 81.600 C 308.190 81.600,308.000 81.092,308.000 80.472 C 308.000 79.252,305.536 76.000,304.612 76.000 C 304.322 76.000,303.982 75.730,303.855 75.400 C 303.729 75.070,303.416 74.800,303.159 74.800 C 302.903 74.800,302.403 74.484,302.047 74.097 C 301.691 73.711,300.911 73.144,300.314 72.837 C 299.716 72.530,299.322 72.127,299.437 71.940 C 299.553 71.753,299.277 71.600,298.824 71.600 C 298.371 71.600,298.000 71.409,298.000 71.176 C 298.000 70.943,297.843 70.850,297.652 70.968 C 297.460 71.087,296.877 70.814,296.357 70.363 C 295.837 69.911,294.913 69.443,294.305 69.321 C 293.697 69.199,293.200 68.942,293.200 68.750 C 293.200 68.558,292.750 68.400,292.200 68.400 C 291.650 68.400,291.200 68.220,291.200 68.000 C 291.200 67.780,290.851 67.600,290.424 67.600 C 289.997 67.600,289.536 67.420,289.400 67.200 C 289.264 66.980,288.634 66.800,288.000 66.800 C 287.366 66.800,286.736 66.620,286.600 66.400 C 286.464 66.180,285.543 66.000,284.553 66.000 C 283.558 66.000,282.855 65.835,282.980 65.632 C 283.300 65.114,277.337 64.906,276.650 65.411 M233.200 169.155 C 230.557 171.023,228.250 172.374,224.900 174.016 C 223.525 174.690,222.400 175.316,222.400 175.408 C 222.400 175.951,228.839 172.538,232.595 170.003 C 234.153 168.952,235.782 168.002,236.214 167.892 C 236.984 167.697,236.984 167.692,236.200 167.646 C 235.760 167.621,234.410 168.300,233.200 169.155 M137.347 171.100 C 140.638 174.100,144.000 176.632,144.000 176.111 C 144.000 175.925,143.467 175.457,142.815 175.072 C 142.163 174.687,141.393 174.153,141.105 173.886 C 139.017 171.950,134.824 168.400,134.626 168.400 C 134.493 168.400,135.717 169.615,137.347 171.100 M145.000 177.043 C 145.956 177.782,148.000 178.885,148.000 178.663 C 148.000 178.423,144.859 176.398,144.509 176.413 C 144.339 176.420,144.560 176.703,145.000 177.043 M213.600 178.400 C 212.805 178.914,213.804 178.914,215.000 178.400 L 215.800 178.056 215.000 178.034 C 214.560 178.022,213.930 178.187,213.600 178.400 M210.400 179.200 C 209.605 179.714,210.604 179.714,211.800 179.200 L 212.600 178.856 211.800 178.834 C 211.360 178.822,210.730 178.987,210.400 179.200 M206.400 180.000 L 205.400 180.320 206.400 180.320 C 206.950 180.320,207.850 180.176,208.400 180.000 L 209.400 179.680 208.400 179.680 C 207.850 179.680,206.950 179.824,206.400 180.000 M151.600 180.595 C 151.600 180.861,154.390 182.007,154.949 181.970 C 155.197 181.954,154.680 181.607,153.800 181.200 C 152.109 180.417,151.600 180.277,151.600 180.595 M199.200 180.974 C 198.210 181.259,196.590 181.802,195.600 182.180 C 187.431 185.295,173.420 186.098,163.235 184.035 C 162.045 183.794,160.988 183.678,160.888 183.779 C 160.561 184.106,165.696 184.968,171.879 185.625 C 179.322 186.415,188.007 185.279,195.800 182.496 C 197.340 181.946,199.950 181.271,201.600 180.996 C 204.170 180.567,204.342 180.493,202.800 180.475 C 201.810 180.463,200.190 180.688,199.200 180.974 M155.800 182.400 C 155.936 182.620,156.442 182.787,156.924 182.772 C 157.769 182.745,157.771 182.731,157.000 182.400 C 155.899 181.927,155.508 181.927,155.800 182.400 M158.400 183.200 C 158.730 183.413,159.360 183.578,159.800 183.566 L 160.600 183.544 159.800 183.200 C 158.604 182.686,157.605 182.686,158.400 183.200 " stroke="none" fill="#bb233c" fill-rule="evenodd"></path></g></svg>