<svg id="svg" version="1.1" xmlns="http://www.w3.org/2000/svg" xmlns:xlink="http://www.w3.org/1999/xlink" width="400" height="400" viewBox="0, 0, 400,400"><g id="svgg"><path id="path0" d="M56.944 46.671 C 56.645 47.388,56.400 48.192,56.400 48.459 C 56.400 50.453,53.282 56.890,50.790 60.038 C 47.382 64.345,45.996 65.622,43.031 67.187 C 41.914 67.777,40.640 68.466,40.200 68.719 C 39.026 69.392,33.890 70.800,32.610 70.800 C 31.605 70.800,31.532 70.898,31.786 71.900 C 31.939 72.505,32.159 73.675,32.274 74.500 C 32.390 75.325,32.645 76.000,32.842 76.000 C 33.039 76.000,33.200 76.619,33.200 77.376 C 33.200 78.133,33.380 78.864,33.600 79.000 C 33.820 79.136,34.000 79.942,34.000 80.790 C 34.000 81.639,34.172 82.393,34.382 82.467 C 34.593 82.540,34.809 83.263,34.863 84.074 C 34.916 84.885,35.104 85.459,35.280 85.351 C 35.456 85.242,35.600 85.958,35.600 86.943 C 35.600 87.928,35.774 88.793,35.987 88.867 C 36.200 88.940,36.419 89.585,36.472 90.300 C 36.526 91.015,36.712 91.600,36.885 91.600 C 37.058 91.600,37.200 92.331,37.200 93.224 C 37.200 94.204,37.358 94.749,37.600 94.600 C 37.844 94.449,38.000 95.063,38.000 96.176 C 38.000 97.179,38.180 98.000,38.400 98.000 C 38.620 98.000,38.800 98.705,38.800 99.567 C 38.800 100.428,38.972 101.193,39.182 101.267 C 39.393 101.340,39.609 102.063,39.663 102.874 C 39.716 103.685,39.904 104.259,40.080 104.151 C 40.256 104.042,40.400 104.481,40.400 105.128 C 40.400 107.454,42.778 111.200,44.255 111.200 C 44.555 111.200,44.800 111.380,44.800 111.600 C 44.800 111.820,45.081 112.000,45.424 112.000 C 45.767 112.000,45.936 112.180,45.800 112.400 C 45.664 112.620,45.923 112.800,46.376 112.800 C 46.829 112.800,47.200 112.980,47.200 113.200 C 47.200 113.420,47.481 113.600,47.824 113.600 C 48.167 113.600,48.336 113.780,48.200 114.000 C 48.063 114.222,48.364 114.403,48.876 114.406 C 49.619 114.411,49.683 114.488,49.200 114.800 C 48.704 115.120,48.741 115.189,49.412 115.194 C 49.858 115.197,50.483 115.560,50.800 116.000 C 51.117 116.440,51.697 116.800,52.088 116.800 C 52.480 116.800,52.800 116.980,52.800 117.200 C 52.800 118.363,54.819 116.554,66.194 105.200 C 73.026 98.380,78.793 92.799,79.008 92.799 C 79.224 92.798,84.954 87.240,91.742 80.447 C 105.539 66.642,105.258 67.069,102.349 64.352 C 101.717 63.762,101.200 63.073,101.200 62.821 C 101.200 62.570,100.764 61.928,100.231 61.395 C 99.698 60.862,99.149 60.069,99.011 59.633 C 98.872 59.197,98.408 58.730,97.980 58.594 C 97.551 58.457,97.200 58.064,97.200 57.720 C 97.200 57.376,96.873 56.803,96.472 56.447 C 96.072 56.091,95.628 55.485,95.485 55.100 C 95.305 54.615,94.792 54.400,93.813 54.400 C 93.036 54.400,92.400 54.220,92.400 54.000 C 92.400 53.780,91.680 53.600,90.800 53.600 C 89.920 53.600,89.200 53.420,89.200 53.200 C 89.200 52.980,88.480 52.800,87.600 52.800 C 86.720 52.800,86.000 52.620,86.000 52.400 C 86.000 52.180,85.381 52.000,84.624 52.000 C 83.867 52.000,83.136 51.820,83.000 51.600 C 82.864 51.380,82.133 51.200,81.376 51.200 C 80.619 51.200,80.000 51.020,80.000 50.800 C 80.000 50.580,79.280 50.400,78.400 50.400 C 77.520 50.400,76.800 50.220,76.800 50.000 C 76.800 49.780,76.080 49.600,75.200 49.600 C 74.320 49.600,73.600 49.420,73.600 49.200 C 73.600 48.980,72.981 48.800,72.224 48.800 C 71.467 48.800,70.736 48.620,70.600 48.400 C 70.464 48.180,69.744 48.000,69.000 48.000 C 68.256 48.000,67.536 47.820,67.400 47.600 C 67.264 47.380,66.544 47.200,65.800 47.200 C 65.056 47.200,64.336 47.020,64.200 46.800 C 64.064 46.580,63.344 46.400,62.600 46.400 C 61.856 46.400,61.148 46.239,61.026 46.042 C 60.336 44.925,57.491 45.364,56.944 46.671 M340.800 45.519 C 340.030 45.595,339.229 45.824,339.020 46.029 C 338.811 46.233,338.057 46.400,337.344 46.400 C 336.631 46.400,335.936 46.580,335.800 46.800 C 335.664 47.020,334.944 47.200,334.200 47.200 C 333.456 47.200,332.736 47.380,332.600 47.600 C 332.464 47.820,331.744 48.000,331.000 48.000 C 330.256 48.000,329.536 48.180,329.400 48.400 C 329.264 48.620,328.533 48.800,327.776 48.800 C 327.019 48.800,326.400 48.980,326.400 49.200 C 326.400 49.420,325.680 49.600,324.800 49.600 C 323.920 49.600,323.200 49.780,323.200 50.000 C 323.200 50.220,322.480 50.400,321.600 50.400 C 320.720 50.400,320.000 50.580,320.000 50.800 C 320.000 51.020,319.381 51.200,318.624 51.200 C 317.867 51.200,317.136 51.380,317.000 51.600 C 316.864 51.820,316.133 52.000,315.376 52.000 C 314.619 52.000,314.000 52.180,314.000 52.400 C 314.000 52.620,313.280 52.800,312.400 52.800 C 311.520 52.800,310.800 52.980,310.800 53.200 C 310.800 53.420,310.080 53.600,309.200 53.600 C 308.320 53.600,307.600 53.780,307.600 54.000 C 307.600 54.220,306.964 54.400,306.187 54.400 C 305.208 54.400,304.695 54.615,304.515 55.100 C 304.372 55.485,303.928 56.091,303.528 56.447 C 303.127 56.803,302.800 57.376,302.800 57.720 C 302.800 58.064,302.449 58.457,302.020 58.594 C 301.592 58.730,301.128 59.197,300.989 59.633 C 300.851 60.069,300.302 60.862,299.769 61.395 C 299.236 61.928,298.800 62.602,298.800 62.894 C 298.800 63.185,298.440 63.683,298.000 64.000 C 297.560 64.317,297.200 64.817,297.200 65.112 C 297.200 65.406,297.050 65.555,296.867 65.441 C 296.683 65.328,296.516 65.452,296.496 65.718 C 296.475 65.983,296.330 66.619,296.174 67.130 C 295.894 68.049,319.820 92.797,320.991 92.801 C 321.216 92.802,326.800 98.216,333.400 104.832 C 345.376 116.836,346.819 118.144,347.114 117.257 C 347.198 117.006,347.572 116.800,347.945 116.800 C 348.318 116.800,348.883 116.440,349.200 116.000 C 349.517 115.560,350.142 115.197,350.588 115.194 C 351.259 115.189,351.296 115.120,350.800 114.800 C 350.317 114.488,350.381 114.411,351.124 114.406 C 351.636 114.403,351.937 114.222,351.800 114.000 C 351.664 113.780,351.833 113.600,352.176 113.600 C 352.519 113.600,352.800 113.420,352.800 113.200 C 352.800 112.980,353.171 112.800,353.624 112.800 C 354.077 112.800,354.336 112.620,354.200 112.400 C 354.064 112.180,354.233 112.000,354.576 112.000 C 354.919 112.000,355.200 111.820,355.200 111.600 C 355.200 111.380,355.445 111.200,355.745 111.200 C 357.222 111.200,359.600 107.454,359.600 105.128 C 359.600 104.481,359.744 104.042,359.920 104.151 C 360.096 104.259,360.284 103.685,360.337 102.874 C 360.391 102.063,360.607 101.340,360.818 101.267 C 361.028 101.193,361.200 100.428,361.200 99.567 C 361.200 98.705,361.380 98.000,361.600 98.000 C 361.820 98.000,362.000 97.179,362.000 96.176 C 362.000 95.063,362.156 94.449,362.400 94.600 C 362.642 94.749,362.800 94.204,362.800 93.224 C 362.800 92.331,362.942 91.600,363.115 91.600 C 363.288 91.600,363.474 91.015,363.528 90.300 C 363.581 89.585,363.800 88.940,364.013 88.867 C 364.226 88.793,364.400 87.928,364.400 86.943 C 364.400 85.958,364.544 85.242,364.720 85.351 C 364.896 85.459,365.084 84.885,365.137 84.074 C 365.191 83.263,365.407 82.540,365.618 82.467 C 365.828 82.393,366.000 81.639,366.000 80.790 C 366.000 79.942,366.180 79.136,366.400 79.000 C 366.620 78.864,366.800 78.133,366.800 77.376 C 366.800 76.619,366.961 76.000,367.158 76.000 C 367.355 76.000,367.610 75.325,367.726 74.500 C 367.841 73.675,368.061 72.505,368.214 71.900 C 368.480 70.853,368.424 70.800,367.065 70.800 C 366.280 70.800,365.224 70.639,364.719 70.442 C 364.213 70.245,362.990 69.852,362.000 69.570 C 361.010 69.287,360.016 68.920,359.791 68.754 C 359.566 68.589,358.382 67.927,357.160 67.284 C 355.120 66.211,353.149 64.715,351.780 63.200 C 348.197 59.237,345.078 53.983,344.062 50.200 C 342.695 45.105,342.843 45.317,340.800 45.519 M186.180 126.369 C 185.971 126.572,184.540 126.839,183.000 126.963 C 175.777 127.543,174.574 127.689,174.220 128.032 C 174.011 128.235,173.167 128.400,172.344 128.400 C 171.521 128.400,170.736 128.580,170.600 128.800 C 170.464 129.020,169.679 129.200,168.856 129.200 C 168.033 129.200,167.189 129.362,166.980 129.559 C 166.771 129.756,165.880 130.012,165.000 130.127 C 162.934 130.396,161.204 130.778,160.200 131.185 C 159.760 131.363,158.590 131.734,157.600 132.008 C 154.431 132.888,153.461 133.180,150.400 134.176 C 144.284 136.166,138.361 138.356,134.504 140.054 C 133.572 140.464,132.537 140.800,132.204 140.800 C 131.872 140.800,131.600 140.980,131.600 141.200 C 131.600 141.420,131.375 141.599,131.100 141.598 C 130.603 141.596,119.182 147.150,118.800 147.580 C 118.690 147.704,117.520 148.366,116.200 149.051 C 114.880 149.736,113.027 150.725,112.082 151.249 L 110.364 152.200 110.579 158.400 C 111.055 172.168,112.229 184.670,114.374 198.800 C 115.076 203.429,116.594 211.617,117.582 216.100 C 119.152 223.231,119.335 223.998,120.993 230.400 C 121.819 233.590,122.584 236.697,122.693 237.305 C 122.803 237.913,123.051 238.508,123.246 238.629 C 123.441 238.749,123.600 239.366,123.600 240.000 C 123.600 240.634,123.780 241.264,124.000 241.400 C 124.220 241.536,124.400 242.076,124.400 242.600 C 124.400 243.124,124.580 243.664,124.800 243.800 C 125.020 243.936,125.200 244.577,125.200 245.224 C 125.200 245.871,125.380 246.400,125.600 246.400 C 125.820 246.400,126.000 246.762,126.000 247.205 C 126.000 247.648,126.180 248.368,126.400 248.805 C 126.620 249.242,126.980 249.958,127.200 250.395 C 127.420 250.832,127.600 251.552,127.600 251.995 C 127.600 252.438,127.780 252.800,128.000 252.800 C 128.220 252.800,128.400 253.162,128.400 253.605 C 128.400 254.048,128.580 254.768,128.800 255.205 C 129.020 255.642,129.380 256.358,129.600 256.795 C 129.820 257.232,130.000 257.952,130.000 258.395 C 130.000 258.838,130.180 259.200,130.400 259.200 C 130.620 259.200,130.800 259.562,130.800 260.005 C 130.800 260.448,130.959 261.123,131.153 261.505 C 131.348 261.887,131.689 262.650,131.913 263.200 C 133.153 266.257,134.244 268.725,136.571 273.745 C 137.577 275.915,138.400 277.778,138.400 277.884 C 138.400 278.184,141.725 284.974,141.983 285.200 C 142.108 285.310,142.658 286.300,143.205 287.400 C 143.752 288.500,144.335 289.460,144.500 289.533 C 144.665 289.607,144.800 290.012,144.800 290.433 C 144.800 290.855,144.935 291.201,145.100 291.203 C 145.265 291.205,145.598 291.610,145.840 292.103 C 147.022 294.511,148.230 296.613,148.500 296.733 C 148.665 296.807,148.800 297.026,148.800 297.221 C 148.800 297.416,149.635 298.886,150.657 300.488 C 151.678 302.089,153.023 304.210,153.646 305.200 C 154.269 306.190,154.919 307.180,155.089 307.400 C 155.260 307.620,155.655 308.295,155.968 308.900 C 156.280 309.505,156.685 310.000,156.868 310.000 C 157.050 310.000,157.200 310.193,157.200 310.428 C 157.200 310.819,159.434 314.332,159.981 314.800 C 160.109 314.910,161.554 316.800,163.190 319.000 C 164.827 321.200,167.340 324.440,168.775 326.200 C 170.210 327.960,171.657 329.738,171.992 330.151 C 172.326 330.564,173.500 331.893,174.600 333.105 C 175.700 334.316,177.140 335.953,177.800 336.743 C 179.563 338.851,187.274 346.400,187.665 346.400 C 187.849 346.400,188.000 334.698,188.000 320.395 C 188.000 293.245,188.034 293.816,186.300 291.845 C 185.915 291.407,185.600 290.828,185.600 290.558 C 185.600 290.288,185.455 290.007,185.277 289.933 C 184.927 289.789,182.400 286.195,182.400 285.842 C 182.400 285.724,181.439 284.137,180.264 282.314 C 179.089 280.491,177.514 277.830,176.764 276.400 C 176.014 274.970,175.265 273.740,175.100 273.667 C 174.935 273.593,174.800 273.188,174.800 272.767 C 174.800 272.345,174.620 272.000,174.400 272.000 C 174.180 272.000,174.000 271.640,174.000 271.200 C 174.000 270.760,173.865 270.399,173.700 270.399 C 173.535 270.398,172.950 269.408,172.400 268.200 C 171.850 266.992,171.265 266.002,171.100 266.001 C 170.935 266.001,170.800 265.640,170.800 265.200 C 170.800 264.760,170.620 264.400,170.400 264.400 C 170.180 264.400,170.000 264.155,170.000 263.856 C 170.000 263.557,169.482 262.252,168.850 260.956 C 168.217 259.660,167.317 257.745,166.850 256.700 C 166.382 255.655,165.655 254.035,165.233 253.100 C 164.376 251.202,161.150 242.675,160.352 240.200 C 160.069 239.320,159.693 238.429,159.518 238.220 C 159.343 238.011,159.200 237.347,159.200 236.744 C 159.200 236.141,159.020 235.536,158.800 235.400 C 158.580 235.264,158.400 234.724,158.400 234.200 C 158.400 233.676,158.220 233.136,158.000 233.000 C 157.780 232.864,157.600 232.324,157.600 231.800 C 157.600 231.276,157.420 230.736,157.200 230.600 C 156.980 230.464,156.800 229.924,156.800 229.400 C 156.800 228.876,156.620 228.336,156.400 228.200 C 156.180 228.064,156.000 227.434,156.000 226.800 C 156.000 226.166,155.840 225.548,155.644 225.427 C 155.449 225.306,155.179 224.576,155.044 223.804 C 154.910 223.032,154.690 221.768,154.556 220.996 C 154.421 220.224,154.151 219.494,153.956 219.373 C 153.760 219.252,153.600 218.544,153.600 217.800 C 153.600 217.056,153.420 216.336,153.200 216.200 C 152.980 216.064,152.800 215.344,152.800 214.600 C 152.800 213.856,152.620 213.136,152.400 213.000 C 152.180 212.864,152.000 212.079,152.000 211.256 C 152.000 210.433,151.837 209.589,151.639 209.380 C 151.440 209.171,151.181 208.190,151.062 207.200 C 150.944 206.210,150.656 204.455,150.424 203.300 C 149.538 198.908,149.182 196.906,148.772 194.000 C 148.539 192.350,148.198 190.010,148.015 188.800 C 146.209 176.906,145.937 172.400,147.024 172.400 C 147.341 172.400,147.600 172.220,147.600 172.000 C 147.600 171.780,147.962 171.600,148.405 171.600 C 148.848 171.600,149.523 171.441,149.905 171.247 C 150.287 171.052,151.140 170.671,151.800 170.400 C 152.460 170.129,153.313 169.748,153.695 169.553 C 154.077 169.359,154.741 169.200,155.171 169.200 C 155.601 169.200,156.064 169.020,156.200 168.800 C 156.336 168.580,156.876 168.400,157.400 168.400 C 157.924 168.400,158.464 168.220,158.600 168.000 C 158.736 167.780,159.199 167.600,159.629 167.600 C 160.059 167.600,160.723 167.441,161.105 167.247 C 162.412 166.582,163.800 166.060,164.800 165.858 C 165.350 165.747,166.430 165.473,167.200 165.250 C 170.680 164.243,171.906 163.917,173.400 163.604 C 175.810 163.099,183.942 161.689,186.100 161.403 L 188.000 161.151 188.000 143.575 C 188.000 124.917,187.970 124.632,186.180 126.369 M212.000 143.761 L 212.000 161.523 213.900 161.755 C 214.945 161.882,216.790 162.088,218.000 162.213 C 219.210 162.337,220.560 162.599,221.000 162.794 C 221.440 162.990,222.430 163.242,223.200 163.353 C 224.995 163.613,227.788 164.222,229.700 164.770 C 231.334 165.238,233.165 165.762,235.500 166.428 C 236.325 166.663,237.408 166.955,237.906 167.076 C 238.404 167.197,238.910 167.454,239.030 167.648 C 239.149 167.841,239.676 168.000,240.200 168.000 C 240.724 168.000,241.264 168.180,241.400 168.400 C 241.536 168.620,241.999 168.800,242.429 168.800 C 242.859 168.800,243.523 168.971,243.905 169.181 C 244.287 169.391,245.770 169.952,247.200 170.428 C 248.630 170.905,250.628 171.643,251.639 172.070 L 253.478 172.846 253.329 174.923 C 253.247 176.065,253.079 177.810,252.955 178.800 C 252.209 184.766,251.986 186.463,251.637 188.800 C 250.784 194.526,250.360 197.484,250.146 199.200 C 250.023 200.190,249.760 201.171,249.561 201.380 C 249.363 201.589,249.200 202.498,249.200 203.400 C 249.200 204.302,249.037 205.211,248.839 205.420 C 248.640 205.629,248.383 206.610,248.268 207.600 C 248.067 209.321,247.709 211.095,246.853 214.600 C 245.179 221.460,243.930 226.356,243.641 227.200 C 243.452 227.750,242.717 230.090,242.007 232.400 C 241.298 234.710,240.556 236.913,240.359 237.295 C 240.161 237.677,240.000 238.264,240.000 238.600 C 240.000 238.936,239.841 239.523,239.647 239.905 C 239.171 240.840,238.582 242.307,238.000 244.000 C 237.448 245.609,237.092 246.550,236.454 248.100 C 236.204 248.705,235.843 249.605,235.651 250.100 C 235.459 250.595,234.937 251.810,234.492 252.800 C 234.047 253.790,233.373 255.320,232.995 256.200 C 232.324 257.759,230.692 261.344,229.160 264.626 C 227.736 267.675,222.678 276.995,221.537 278.672 C 220.912 279.592,220.400 280.459,220.400 280.600 C 220.400 280.741,219.860 281.641,219.200 282.600 C 218.540 283.559,218.000 284.537,218.000 284.772 C 218.000 285.007,217.820 285.200,217.600 285.200 C 217.380 285.200,217.200 285.381,217.200 285.603 C 217.200 285.825,216.029 287.766,214.597 289.916 L 211.994 293.825 212.097 320.608 L 212.200 347.390 216.000 343.551 C 220.455 339.050,226.267 332.715,228.800 329.600 C 229.784 328.390,230.681 327.310,230.795 327.200 C 233.207 324.852,246.000 307.029,246.000 306.015 C 246.000 305.787,246.150 305.600,246.332 305.600 C 246.515 305.600,246.916 305.105,247.223 304.500 C 247.529 303.895,248.634 302.111,249.678 300.537 C 251.729 297.441,252.279 296.477,255.805 289.800 C 257.083 287.380,258.528 284.666,259.018 283.768 C 260.419 281.199,260.662 280.714,261.506 278.800 C 261.943 277.810,262.885 275.740,263.600 274.200 C 264.315 272.660,265.219 270.680,265.610 269.800 C 266.000 268.920,266.878 266.996,267.560 265.525 C 268.242 264.054,268.800 262.683,268.800 262.479 C 268.800 262.154,269.801 259.438,270.820 257.000 C 271.004 256.560,271.805 254.310,272.600 252.000 C 273.395 249.690,274.192 247.440,274.370 247.000 C 274.741 246.086,276.046 241.865,276.781 239.200 C 277.054 238.210,277.440 237.087,277.639 236.705 C 277.838 236.323,278.000 235.569,278.000 235.029 C 278.000 234.489,278.160 233.948,278.356 233.827 C 278.551 233.706,278.809 233.021,278.927 232.304 C 279.285 230.141,279.642 228.644,280.000 227.800 C 280.400 226.857,280.783 225.183,281.074 223.097 C 281.190 222.271,281.445 221.495,281.642 221.374 C 281.839 221.252,282.000 220.454,282.000 219.600 C 282.000 218.746,282.180 217.936,282.400 217.800 C 282.620 217.664,282.800 216.854,282.800 216.000 C 282.800 215.146,282.980 214.336,283.200 214.200 C 283.420 214.064,283.600 213.164,283.600 212.200 C 283.600 211.236,283.757 210.350,283.950 210.231 C 284.142 210.112,284.408 209.066,284.541 207.907 C 284.674 206.748,284.968 204.810,285.194 203.600 C 285.420 202.390,285.796 200.050,286.030 198.400 C 286.265 196.750,286.622 194.230,286.826 192.800 C 288.175 183.306,289.603 165.078,289.601 157.377 L 289.600 151.753 287.100 150.405 C 285.725 149.664,283.340 148.363,281.800 147.515 C 278.353 145.616,269.566 141.397,267.000 140.409 C 266.560 140.240,265.300 139.696,264.200 139.200 C 263.100 138.704,261.750 138.120,261.200 137.903 C 260.650 137.685,259.887 137.348,259.505 137.153 C 259.123 136.959,258.484 136.800,258.085 136.800 C 257.686 136.800,257.189 136.651,256.980 136.470 C 256.771 136.288,255.790 135.895,254.800 135.598 C 253.810 135.300,252.820 134.941,252.600 134.800 C 252.380 134.659,251.390 134.311,250.400 134.026 C 249.410 133.742,248.240 133.370,247.800 133.200 C 247.360 133.030,246.190 132.666,245.200 132.392 C 242.593 131.668,240.740 131.133,239.600 130.774 C 239.050 130.600,237.610 130.249,236.400 129.993 C 235.190 129.737,233.570 129.375,232.800 129.189 C 230.088 128.535,224.960 127.640,221.400 127.200 C 219.420 126.955,216.825 126.585,215.633 126.377 C 211.569 125.669,212.000 123.605,212.000 143.761 M78.193 128.407 C 77.337 129.283,76.770 130.000,76.932 130.000 C 77.340 130.000,80.119 127.186,79.914 126.981 C 79.823 126.889,79.048 127.531,78.193 128.407 M193.800 185.623 C 187.708 186.014,182.439 186.847,176.647 188.335 C 173.003 189.272,172.549 189.584,173.163 190.731 C 173.403 191.180,173.600 192.359,173.600 193.350 C 173.600 194.342,173.780 195.264,174.000 195.400 C 174.220 195.536,174.400 196.526,174.400 197.600 C 174.400 198.674,174.580 199.664,174.800 199.800 C 175.020 199.936,175.200 200.847,175.200 201.824 C 175.200 202.801,175.380 203.600,175.600 203.600 C 175.820 203.600,176.000 204.309,176.000 205.176 C 176.000 206.043,176.180 206.864,176.400 207.000 C 176.620 207.136,176.800 208.047,176.800 209.024 C 176.800 210.001,176.980 210.800,177.200 210.800 C 177.420 210.800,177.600 211.419,177.600 212.176 C 177.600 212.933,177.780 213.664,178.000 213.800 C 178.220 213.936,178.400 214.566,178.400 215.200 C 178.400 215.834,178.580 216.464,178.800 216.600 C 179.020 216.736,179.200 217.366,179.200 218.000 C 179.200 218.634,179.380 219.264,179.600 219.400 C 179.820 219.536,180.000 220.166,180.000 220.800 C 180.000 221.434,180.180 222.064,180.400 222.200 C 180.620 222.336,180.800 222.876,180.800 223.400 C 180.800 223.924,180.980 224.464,181.200 224.600 C 181.420 224.736,181.600 225.377,181.600 226.024 C 181.600 226.671,181.780 227.200,182.000 227.200 C 182.220 227.200,182.400 227.652,182.400 228.205 C 182.400 228.758,182.559 229.523,182.753 229.905 C 183.229 230.840,183.818 232.307,184.400 234.000 C 184.948 235.597,184.770 235.140,187.837 242.800 C 189.114 245.990,190.483 249.190,190.880 249.912 C 191.276 250.634,191.600 251.474,191.600 251.779 C 191.600 252.084,191.737 252.393,191.905 252.467 C 192.073 252.540,193.193 254.580,194.394 257.000 C 195.596 259.420,196.673 261.490,196.789 261.600 C 196.996 261.796,198.492 264.530,199.360 266.297 C 199.946 267.492,200.193 267.436,201.118 265.900 C 203.201 262.443,208.692 251.743,210.201 248.200 C 210.576 247.320,211.206 245.880,211.601 245.000 C 213.598 240.548,214.000 239.576,214.000 239.199 C 214.000 238.974,214.159 238.477,214.353 238.095 C 214.950 236.922,215.524 235.474,216.055 233.800 C 216.335 232.920,216.707 232.029,216.882 231.820 C 217.057 231.611,217.200 231.037,217.200 230.544 C 217.200 230.051,217.380 229.536,217.600 229.400 C 217.820 229.264,218.000 228.801,218.000 228.371 C 218.000 227.941,218.163 227.277,218.363 226.895 C 218.938 225.795,219.874 222.671,221.809 215.400 C 222.926 211.201,223.336 209.495,224.020 206.200 C 224.248 205.100,224.616 203.390,224.839 202.400 C 225.242 200.600,225.684 198.248,226.359 194.300 C 226.557 193.145,226.844 191.562,226.998 190.782 C 227.304 189.232,226.328 188.400,224.205 188.400 C 223.678 188.400,223.136 188.220,223.000 188.000 C 222.864 187.780,222.169 187.600,221.456 187.600 C 220.743 187.600,219.989 187.437,219.780 187.239 C 219.571 187.040,218.590 186.775,217.600 186.650 C 216.610 186.525,214.540 186.220,213.000 185.973 C 209.420 185.399,199.978 185.226,193.800 185.623 " stroke="none" fill="#b83010" fill-rule="evenodd"></path><path id="path1" d="M24.000 13.200 C 24.000 13.420,23.190 13.600,22.200 13.600 C 21.210 13.600,20.400 13.780,20.400 14.000 C 20.400 14.220,19.871 14.400,19.224 14.400 C 18.577 14.400,17.936 14.580,17.800 14.800 C 17.664 15.020,17.203 15.200,16.776 15.200 C 16.349 15.200,16.000 15.380,16.000 15.600 C 16.000 15.820,15.655 16.000,15.233 16.000 C 14.812 16.000,14.407 16.135,14.333 16.300 C 14.260 16.465,13.390 17.039,12.400 17.575 C 11.410 18.112,10.077 19.102,9.439 19.775 C 8.800 20.449,8.112 20.951,7.909 20.890 C 7.706 20.830,7.649 20.955,7.781 21.169 C 7.913 21.383,7.206 22.373,6.211 23.368 C 5.215 24.364,4.400 25.349,4.400 25.556 C 4.400 25.764,4.265 25.993,4.100 26.067 C 3.724 26.234,2.425 28.364,2.129 29.300 C 2.007 29.685,1.748 30.000,1.553 30.000 C 1.359 30.000,1.200 30.641,1.200 31.424 C 1.200 32.207,1.045 32.751,0.855 32.634 C 0.028 32.123,-0.353 46.497,0.400 49.800 C 0.600 50.680,0.889 51.940,1.041 52.600 C 1.194 53.260,1.832 54.552,2.459 55.472 C 3.087 56.392,3.600 57.297,3.600 57.484 C 3.600 57.671,3.960 58.083,4.400 58.400 C 4.840 58.717,5.200 59.208,5.200 59.491 C 5.200 60.136,10.912 66.000,11.539 66.000 C 11.793 66.000,12.000 66.180,12.000 66.400 C 12.000 66.620,12.270 66.800,12.600 66.800 C 12.930 66.800,13.200 66.980,13.200 67.200 C 13.200 67.420,13.470 67.600,13.800 67.600 C 14.130 67.600,14.400 67.780,14.400 68.000 C 14.400 68.220,14.672 68.400,15.005 68.400 C 15.338 68.400,15.968 68.580,16.405 68.800 C 16.842 69.020,17.558 69.380,17.995 69.600 C 18.432 69.820,19.227 70.000,19.761 70.000 C 20.296 70.000,20.793 70.170,20.867 70.378 C 20.940 70.585,22.044 70.796,23.319 70.847 C 24.595 70.897,25.730 71.087,25.843 71.269 C 26.237 71.907,31.600 71.664,31.600 71.008 C 31.600 70.682,32.095 70.305,32.700 70.169 C 43.124 67.841,49.205 63.250,53.916 54.155 C 54.963 52.132,56.000 48.839,56.000 47.534 C 56.000 46.978,56.360 46.198,56.800 45.800 C 57.690 44.994,58.038 36.318,57.200 35.800 C 56.980 35.664,56.800 35.023,56.800 34.376 C 56.800 33.729,56.620 33.200,56.400 33.200 C 56.180 33.200,56.000 32.684,56.000 32.054 C 56.000 31.424,55.640 30.450,55.200 29.891 C 54.760 29.331,54.400 28.587,54.400 28.237 C 54.400 27.887,54.220 27.600,54.000 27.600 C 53.780 27.600,53.600 27.330,53.600 27.000 C 53.600 26.670,53.420 26.400,53.200 26.400 C 52.980 26.400,52.800 26.120,52.800 25.777 C 52.800 25.004,45.345 17.600,44.567 17.600 C 44.255 17.600,44.000 17.420,44.000 17.200 C 44.000 16.980,43.655 16.800,43.233 16.800 C 42.812 16.800,42.407 16.665,42.333 16.500 C 42.061 15.886,38.684 14.400,37.562 14.400 C 36.923 14.400,36.400 14.220,36.400 14.000 C 36.400 13.780,35.590 13.600,34.600 13.600 C 33.610 13.600,32.800 13.420,32.800 13.200 C 32.800 12.958,31.067 12.800,28.400 12.800 C 25.733 12.800,24.000 12.958,24.000 13.200 M367.200 13.200 C 367.200 13.420,366.390 13.600,365.400 13.600 C 364.410 13.600,363.600 13.780,363.600 14.000 C 363.600 14.220,363.077 14.400,362.438 14.400 C 361.316 14.400,357.939 15.886,357.667 16.500 C 357.593 16.665,357.188 16.800,356.767 16.800 C 356.345 16.800,356.000 16.980,356.000 17.200 C 356.000 17.420,355.745 17.600,355.433 17.600 C 354.760 17.600,347.458 24.770,347.270 25.615 C 347.198 25.937,346.973 26.260,346.770 26.333 C 346.566 26.407,346.400 26.722,346.400 27.033 C 346.400 27.345,346.220 27.600,346.000 27.600 C 345.780 27.600,345.600 27.887,345.600 28.237 C 345.600 28.587,345.240 29.331,344.800 29.891 C 344.360 30.450,344.000 31.424,344.000 32.054 C 344.000 32.684,343.820 33.200,343.600 33.200 C 343.380 33.200,343.200 33.729,343.200 34.376 C 343.200 35.023,343.020 35.664,342.800 35.800 C 341.962 36.318,342.310 44.994,343.200 45.800 C 343.640 46.198,344.000 46.978,344.000 47.534 C 344.000 48.839,345.037 52.132,346.084 54.155 C 350.795 63.250,356.876 67.841,367.300 70.169 C 367.905 70.305,368.400 70.682,368.400 71.008 C 368.400 71.664,373.763 71.907,374.157 71.269 C 374.270 71.087,375.405 70.897,376.681 70.847 C 377.956 70.796,379.060 70.585,379.133 70.378 C 379.207 70.170,379.704 70.000,380.239 70.000 C 380.773 70.000,381.568 69.820,382.005 69.600 C 382.442 69.380,383.158 69.020,383.595 68.800 C 384.032 68.580,384.662 68.400,384.995 68.400 C 385.328 68.400,385.600 68.220,385.600 68.000 C 385.600 67.780,385.870 67.600,386.200 67.600 C 386.530 67.600,386.800 67.420,386.800 67.200 C 386.800 66.980,387.070 66.800,387.400 66.800 C 387.730 66.800,388.000 66.620,388.000 66.400 C 388.000 66.180,388.207 66.000,388.461 66.000 C 389.088 66.000,394.800 60.136,394.800 59.491 C 394.800 59.208,395.160 58.717,395.600 58.400 C 396.040 58.083,396.400 57.671,396.400 57.484 C 396.400 57.297,396.913 56.392,397.541 55.472 C 398.168 54.552,398.806 53.260,398.959 52.600 C 399.111 51.940,399.400 50.680,399.600 49.800 C 400.353 46.497,399.972 32.123,399.145 32.634 C 398.955 32.751,398.800 32.222,398.800 31.457 C 398.800 30.692,398.665 30.007,398.500 29.933 C 398.124 29.766,396.825 27.636,396.529 26.700 C 396.407 26.315,396.148 26.000,395.953 26.000 C 395.759 26.000,395.600 25.815,395.600 25.589 C 395.600 25.364,394.785 24.364,393.789 23.368 C 392.794 22.373,392.087 21.383,392.219 21.169 C 392.351 20.955,392.294 20.830,392.091 20.890 C 391.888 20.951,391.200 20.449,390.561 19.775 C 389.923 19.102,388.590 18.112,387.600 17.575 C 386.610 17.039,385.740 16.465,385.667 16.300 C 385.593 16.135,385.188 16.000,384.767 16.000 C 384.345 16.000,384.000 15.820,384.000 15.600 C 384.000 15.380,383.651 15.200,383.224 15.200 C 382.797 15.200,382.336 15.020,382.200 14.800 C 382.064 14.580,381.423 14.400,380.776 14.400 C 380.129 14.400,379.600 14.220,379.600 14.000 C 379.600 13.780,378.790 13.600,377.800 13.600 C 376.810 13.600,376.000 13.420,376.000 13.200 C 376.000 12.958,374.267 12.800,371.600 12.800 C 368.933 12.800,367.200 12.958,367.200 13.200 M110.493 60.386 C 106.449 64.405,104.387 66.750,104.218 67.520 C 103.883 69.045,55.247 117.600,54.055 117.600 C 52.981 117.600,41.200 129.341,41.200 130.410 C 41.200 131.573,41.268 131.646,54.207 144.300 C 56.287 146.335,58.127 147.999,58.295 147.997 C 58.609 147.994,71.879 134.794,77.200 129.191 C 78.850 127.454,80.425 126.025,80.700 126.016 C 80.975 126.007,81.179 125.865,81.153 125.700 C 81.127 125.535,81.127 125.166,81.153 124.879 C 81.215 124.199,110.567 94.800,111.185 94.800 C 111.445 94.800,111.927 94.530,112.257 94.200 C 112.587 93.870,112.763 93.600,112.648 93.600 C 112.532 93.600,112.870 93.134,113.399 92.564 C 113.927 91.994,114.548 91.644,114.779 91.787 C 115.011 91.930,115.200 91.782,115.200 91.457 C 115.200 91.132,115.342 90.807,115.514 90.733 C 115.687 90.660,116.240 90.015,116.742 89.300 C 117.244 88.585,117.916 88.000,118.235 88.000 C 118.738 88.000,124.808 82.255,124.656 81.923 C 124.625 81.855,126.265 80.168,128.300 78.173 C 130.335 76.178,132.000 74.631,132.000 74.735 C 132.000 74.839,132.450 74.401,133.000 73.762 C 133.549 73.123,133.999 72.280,134.000 71.888 C 134.000 71.189,117.550 54.400,116.865 54.400 C 116.673 54.400,113.805 57.094,110.493 60.386 M274.182 62.993 C 268.732 68.452,266.000 71.468,266.000 72.028 C 266.000 72.968,268.349 75.679,268.880 75.351 C 269.067 75.235,269.170 75.379,269.110 75.670 C 269.049 75.962,269.225 76.155,269.500 76.100 C 269.775 76.045,269.955 76.225,269.900 76.500 C 269.845 76.775,270.025 76.955,270.300 76.900 C 270.575 76.845,270.755 77.025,270.700 77.300 C 270.645 77.575,270.825 77.755,271.100 77.700 C 271.375 77.645,271.555 77.825,271.500 78.100 C 271.445 78.375,271.625 78.555,271.900 78.500 C 272.175 78.445,272.355 78.625,272.300 78.900 C 272.245 79.175,272.425 79.355,272.700 79.300 C 272.975 79.245,273.155 79.425,273.100 79.700 C 273.045 79.975,273.225 80.155,273.500 80.100 C 273.775 80.045,273.955 80.225,273.900 80.500 C 273.845 80.775,274.070 80.940,274.400 80.867 C 274.730 80.793,274.865 80.868,274.700 81.033 C 274.327 81.407,281.229 88.457,281.787 88.271 C 282.157 88.148,283.200 88.913,283.200 89.308 C 283.200 89.693,288.461 94.800,288.857 94.800 C 289.385 94.800,318.800 124.219,318.800 124.747 C 318.800 124.952,320.285 126.602,322.100 128.412 C 323.915 130.223,325.366 131.827,325.325 131.977 C 325.215 132.378,334.857 141.817,335.258 141.700 C 335.446 141.645,335.555 141.825,335.500 142.100 C 335.445 142.375,335.625 142.555,335.900 142.500 C 336.175 142.445,336.355 142.625,336.300 142.900 C 336.245 143.175,336.425 143.355,336.700 143.300 C 336.975 143.245,337.155 143.425,337.100 143.700 C 337.045 143.975,337.225 144.155,337.500 144.100 C 337.775 144.045,337.955 144.225,337.900 144.500 C 337.845 144.775,338.025 144.955,338.300 144.900 C 338.575 144.845,338.755 145.025,338.700 145.300 C 338.645 145.575,338.825 145.755,339.100 145.700 C 339.375 145.645,339.555 145.825,339.500 146.100 C 339.445 146.375,339.670 146.540,340.000 146.467 C 340.330 146.393,340.467 146.467,340.303 146.630 C 339.916 147.018,340.740 148.000,341.454 148.000 C 341.973 148.000,344.412 145.724,353.400 136.854 C 358.048 132.267,358.800 131.366,358.800 130.384 C 358.800 129.322,346.906 117.615,345.818 117.606 C 344.668 117.597,296.105 68.990,295.784 67.526 C 295.464 66.072,284.282 54.800,283.159 54.800 C 282.659 54.800,279.333 57.836,274.182 62.993 M185.000 101.600 C 184.864 101.821,183.070 102.000,181.000 102.000 C 178.930 102.000,177.136 102.179,177.000 102.400 C 176.864 102.620,175.809 102.800,174.656 102.800 C 173.503 102.800,172.389 102.964,172.180 103.165 C 171.971 103.365,170.810 103.627,169.600 103.747 C 165.894 104.113,164.005 104.468,163.774 104.842 C 163.652 105.039,162.753 105.200,161.776 105.200 C 160.799 105.200,160.000 105.380,160.000 105.600 C 160.000 105.820,159.280 106.000,158.400 106.000 C 157.520 106.000,156.800 106.180,156.800 106.400 C 156.800 106.620,156.080 106.800,155.200 106.800 C 154.320 106.800,153.600 106.980,153.600 107.200 C 153.600 107.420,153.071 107.600,152.424 107.600 C 151.777 107.600,151.148 107.761,151.026 107.958 C 150.905 108.155,150.129 108.408,149.303 108.520 C 146.596 108.889,145.820 109.077,144.251 109.743 C 143.399 110.104,142.285 110.400,141.775 110.400 C 141.265 110.400,140.736 110.580,140.600 110.800 C 140.464 111.020,140.009 111.200,139.589 111.200 C 139.168 111.200,138.183 111.560,137.400 112.000 C 136.617 112.440,135.531 112.800,134.988 112.800 C 134.445 112.800,134.000 112.980,134.000 113.200 C 134.000 113.420,133.643 113.600,133.208 113.600 C 132.702 113.600,132.327 113.952,132.172 114.571 C 132.037 115.105,131.629 115.662,131.264 115.807 C 130.899 115.953,129.170 116.605,127.423 117.255 C 125.675 117.905,122.885 119.077,121.223 119.860 C 119.560 120.642,116.670 121.999,114.800 122.873 C 112.930 123.748,111.040 124.663,110.600 124.905 C 110.160 125.148,108.540 126.005,107.000 126.809 C 102.858 128.972,100.620 130.261,96.424 132.897 C 93.527 134.717,92.403 135.221,91.595 135.059 C 90.845 134.909,90.381 135.072,89.983 135.624 C 89.675 136.051,89.238 136.400,89.012 136.400 C 88.785 136.401,88.082 136.847,87.448 137.392 C 86.814 137.937,86.139 138.286,85.948 138.168 C 85.753 138.048,85.600 143.785,85.600 151.176 C 85.600 159.725,85.741 164.400,86.000 164.400 C 86.249 164.400,86.400 166.659,86.400 170.376 C 86.400 173.929,86.562 176.453,86.800 176.600 C 87.027 176.740,87.200 178.726,87.200 181.190 C 87.200 183.579,87.371 185.593,87.579 185.667 C 87.787 185.740,87.993 187.280,88.035 189.089 C 88.077 190.898,88.267 192.282,88.456 192.165 C 88.645 192.048,88.800 193.313,88.800 194.976 C 88.800 196.725,88.969 198.000,89.200 198.000 C 89.429 198.000,89.600 199.200,89.600 200.800 C 89.600 202.400,89.771 203.600,90.000 203.600 C 90.220 203.600,90.400 204.590,90.400 205.800 C 90.400 207.010,90.580 208.000,90.800 208.000 C 91.020 208.000,91.200 208.963,91.200 210.140 C 91.200 211.317,91.361 212.802,91.558 213.440 C 91.754 214.078,92.220 216.490,92.592 218.800 C 92.964 221.110,93.425 223.299,93.616 223.665 C 93.807 224.031,94.007 225.066,94.060 225.965 C 94.113 226.864,94.301 227.600,94.478 227.600 C 94.655 227.600,94.800 228.219,94.800 228.976 C 94.800 229.733,94.980 230.464,95.200 230.600 C 95.420 230.736,95.600 231.557,95.600 232.424 C 95.600 233.291,95.780 234.000,96.000 234.000 C 96.220 234.000,96.400 234.529,96.400 235.176 C 96.400 235.823,96.580 236.464,96.800 236.600 C 97.020 236.736,97.200 237.456,97.200 238.200 C 97.200 238.944,97.380 239.664,97.600 239.800 C 97.820 239.936,98.000 240.577,98.000 241.224 C 98.000 241.871,98.141 242.400,98.313 242.400 C 98.585 242.400,98.793 243.353,98.902 245.100 C 98.919 245.375,99.083 245.600,99.267 245.600 C 99.450 245.600,99.600 246.039,99.600 246.576 C 99.600 247.113,99.780 247.664,100.000 247.800 C 100.220 247.936,100.400 248.577,100.400 249.224 C 100.400 249.871,100.580 250.400,100.800 250.400 C 101.020 250.400,101.200 251.030,101.200 251.800 C 101.200 252.570,101.380 253.200,101.600 253.200 C 101.820 253.200,102.000 253.639,102.000 254.176 C 102.000 254.713,102.180 255.264,102.400 255.400 C 102.620 255.536,102.800 255.997,102.800 256.424 C 102.800 256.851,102.980 257.200,103.200 257.200 C 103.420 257.200,103.600 257.740,103.600 258.400 C 103.600 259.060,103.780 259.600,104.000 259.600 C 104.220 259.600,104.400 260.140,104.400 260.800 C 104.400 261.460,104.580 262.000,104.800 262.000 C 105.020 262.000,105.200 262.439,105.200 262.976 C 105.200 263.513,105.380 264.064,105.600 264.200 C 105.820 264.336,106.000 264.797,106.000 265.224 C 106.000 265.651,106.180 266.000,106.400 266.000 C 106.620 266.000,106.800 266.540,106.800 267.200 C 106.800 267.860,106.980 268.400,107.200 268.400 C 107.420 268.400,107.606 268.805,107.613 269.300 C 107.627 270.302,108.466 271.600,109.099 271.600 C 109.324 271.600,109.819 272.275,110.197 273.100 C 110.576 273.925,111.336 275.590,111.886 276.800 C 112.436 278.010,113.218 279.720,113.625 280.600 C 115.251 284.118,117.288 288.657,118.099 290.575 C 118.910 292.490,119.233 293.117,121.410 297.000 C 121.903 297.880,122.983 299.860,123.808 301.400 C 126.245 305.945,127.423 308.107,128.338 309.712 C 128.812 310.544,129.200 311.873,129.200 312.665 C 129.200 313.528,129.482 314.366,129.903 314.753 C 130.289 315.109,130.860 315.895,131.170 316.500 C 131.481 317.105,131.885 317.600,132.068 317.600 C 132.250 317.600,132.400 317.960,132.400 318.400 C 132.400 318.840,132.580 319.200,132.800 319.200 C 133.020 319.200,133.200 319.481,133.200 319.824 C 133.200 320.167,133.380 320.336,133.600 320.200 C 133.820 320.064,134.000 320.323,134.000 320.776 C 134.000 321.229,134.180 321.600,134.400 321.600 C 134.620 321.600,134.800 321.870,134.800 322.200 C 134.800 322.530,134.980 322.800,135.200 322.800 C 135.420 322.800,135.600 322.978,135.600 323.195 C 135.600 323.567,136.360 324.615,137.500 325.816 C 137.775 326.106,138.000 326.560,138.000 326.825 C 138.000 327.089,138.349 327.609,138.775 327.978 C 139.201 328.348,139.606 328.908,139.675 329.222 C 139.744 329.535,140.250 330.245,140.800 330.799 C 141.350 331.353,142.140 332.414,142.555 333.158 C 142.971 333.902,143.601 334.833,143.955 335.227 C 145.027 336.417,145.600 337.156,145.600 337.349 C 145.600 337.576,147.036 339.329,148.500 340.889 C 149.105 341.534,149.600 342.228,149.600 342.431 C 149.600 342.634,149.780 342.800,150.000 342.800 C 150.220 342.800,150.400 342.979,150.400 343.197 C 150.400 343.416,151.480 344.692,152.800 346.032 C 154.120 347.373,155.200 348.627,155.200 348.820 C 155.200 349.159,157.152 351.330,161.500 355.828 C 162.655 357.023,163.600 358.180,163.600 358.400 C 163.600 358.620,163.900 358.800,164.267 358.800 C 164.633 358.800,164.837 358.897,164.719 359.015 C 164.455 359.279,169.191 364.057,170.934 365.287 C 171.630 365.777,173.392 367.399,174.848 368.890 C 176.304 370.380,177.633 371.600,177.801 371.600 C 177.969 371.600,178.397 371.916,178.753 372.302 C 179.606 373.226,183.069 376.000,183.371 376.000 C 183.501 376.000,184.172 376.540,184.863 377.200 C 185.554 377.860,186.322 378.400,186.571 378.400 C 186.820 378.400,187.283 378.760,187.600 379.200 C 187.917 379.640,188.417 380.000,188.712 380.000 C 189.015 380.000,189.123 380.201,188.962 380.462 C 188.798 380.727,188.851 380.816,189.086 380.670 C 189.311 380.531,190.014 380.863,190.648 381.408 C 191.282 381.953,191.933 382.399,192.095 382.400 C 192.380 382.400,193.519 383.259,194.616 384.300 C 194.906 384.575,195.343 384.800,195.588 384.800 C 195.833 384.800,196.420 385.160,196.892 385.600 C 197.364 386.040,197.987 386.400,198.275 386.400 C 198.564 386.400,198.800 386.580,198.800 386.800 C 198.800 387.020,199.340 387.200,200.000 387.200 C 200.660 387.200,201.200 387.020,201.200 386.800 C 201.200 386.580,201.494 386.400,201.853 386.400 C 202.212 386.400,202.797 386.082,203.153 385.693 C 203.509 385.304,204.655 384.556,205.700 384.030 C 206.745 383.504,207.600 382.923,207.600 382.737 C 207.600 382.552,207.830 382.400,208.112 382.400 C 208.393 382.400,208.883 382.040,209.200 381.600 C 209.517 381.160,210.025 380.800,210.328 380.800 C 210.631 380.800,211.383 380.260,212.000 379.600 C 212.617 378.940,213.337 378.400,213.600 378.400 C 213.863 378.400,214.560 377.905,215.147 377.300 C 215.734 376.695,216.692 375.930,217.274 375.600 C 218.667 374.811,221.380 372.493,225.233 368.800 C 228.771 365.409,229.600 364.682,229.600 364.968 C 229.600 365.263,237.937 356.763,239.800 354.568 C 240.680 353.532,242.345 351.724,243.500 350.551 C 244.655 349.377,245.600 348.224,245.600 347.987 C 245.600 347.750,246.680 346.496,248.000 345.200 C 249.320 343.904,250.400 342.661,250.400 342.438 C 250.400 342.214,251.120 341.318,252.000 340.447 C 252.880 339.576,253.600 338.679,253.600 338.454 C 253.600 338.229,253.933 337.810,254.340 337.523 C 254.748 337.235,255.362 336.460,255.706 335.800 C 256.051 335.140,256.707 334.203,257.166 333.717 C 257.625 333.231,258.000 332.673,258.000 332.476 C 258.000 332.279,258.540 331.554,259.200 330.863 C 259.860 330.172,260.400 329.375,260.400 329.092 C 260.400 328.809,260.760 328.317,261.200 328.000 C 261.640 327.683,262.000 327.143,262.000 326.800 C 262.000 326.457,262.360 325.917,262.800 325.600 C 263.240 325.283,263.600 324.821,263.600 324.574 C 263.600 324.326,263.960 323.798,264.400 323.400 C 264.840 323.002,265.200 322.434,265.200 322.138 C 265.200 321.842,265.380 321.600,265.600 321.600 C 265.820 321.600,266.000 321.330,266.000 321.000 C 266.000 320.670,266.180 320.400,266.400 320.400 C 266.620 320.400,266.800 320.212,266.800 319.983 C 266.800 319.754,267.160 319.180,267.600 318.708 C 268.040 318.236,268.400 317.613,268.400 317.325 C 268.400 317.036,268.580 316.800,268.800 316.800 C 269.020 316.800,269.200 316.480,269.200 316.088 C 269.200 315.697,269.550 315.125,269.977 314.817 C 270.412 314.503,270.872 313.540,271.022 312.628 C 271.170 311.733,271.426 310.820,271.593 310.600 C 271.759 310.380,272.701 308.670,273.687 306.800 C 274.672 304.930,275.934 302.590,276.490 301.600 C 277.046 300.610,278.019 298.810,278.651 297.600 C 279.283 296.390,279.894 295.310,280.008 295.200 C 280.229 294.988,282.293 290.760,283.339 288.379 C 284.244 286.318,286.353 281.665,289.663 274.430 C 290.310 273.017,291.190 271.555,291.619 271.183 C 292.049 270.811,292.400 270.032,292.400 269.453 C 292.400 268.874,292.580 268.400,292.800 268.400 C 293.020 268.400,293.200 267.860,293.200 267.200 C 293.200 266.540,293.380 266.000,293.600 266.000 C 293.820 266.000,294.000 265.640,294.000 265.200 C 294.000 264.760,294.180 264.400,294.400 264.400 C 294.620 264.400,294.800 263.860,294.800 263.200 C 294.800 262.540,294.980 262.000,295.200 262.000 C 295.420 262.000,295.600 261.460,295.600 260.800 C 295.600 260.140,295.780 259.600,296.000 259.600 C 296.220 259.600,296.400 259.150,296.400 258.600 C 296.400 258.050,296.580 257.600,296.800 257.600 C 297.020 257.600,297.200 257.251,297.200 256.824 C 297.200 256.397,297.380 255.936,297.600 255.800 C 297.820 255.664,298.000 255.023,298.000 254.376 C 298.000 253.729,298.180 253.200,298.400 253.200 C 298.620 253.200,298.800 252.570,298.800 251.800 C 298.800 251.030,298.980 250.400,299.200 250.400 C 299.420 250.400,299.600 249.860,299.600 249.200 C 299.600 248.540,299.780 248.000,300.000 248.000 C 300.220 248.000,300.400 247.460,300.400 246.800 C 300.400 246.140,300.580 245.600,300.800 245.600 C 301.020 245.600,301.200 245.071,301.200 244.424 C 301.200 243.777,301.380 243.136,301.600 243.000 C 301.820 242.864,302.000 242.234,302.000 241.600 C 302.000 240.966,302.180 240.336,302.400 240.200 C 302.620 240.064,302.800 239.333,302.800 238.576 C 302.800 237.819,302.980 237.200,303.200 237.200 C 303.420 237.200,303.600 236.480,303.600 235.600 C 303.600 234.720,303.780 234.000,304.000 234.000 C 304.220 234.000,304.400 233.280,304.400 232.400 C 304.400 231.520,304.580 230.800,304.800 230.800 C 305.020 230.800,305.200 230.080,305.200 229.200 C 305.200 228.320,305.380 227.600,305.600 227.600 C 305.820 227.600,306.000 226.891,306.000 226.024 C 306.000 225.157,306.180 224.336,306.400 224.200 C 306.620 224.064,306.800 223.254,306.800 222.400 C 306.800 221.546,306.941 220.760,307.113 220.654 C 307.285 220.548,307.469 219.862,307.522 219.130 C 307.575 218.399,307.884 216.503,308.209 214.917 C 308.534 213.331,308.800 211.126,308.800 210.017 C 308.800 208.908,308.980 208.000,309.200 208.000 C 309.420 208.000,309.600 207.010,309.600 205.800 C 309.600 204.590,309.780 203.600,310.000 203.600 C 310.229 203.600,310.400 202.400,310.400 200.800 C 310.400 199.200,310.571 198.000,310.800 198.000 C 311.029 198.000,311.200 196.800,311.200 195.200 C 311.200 193.600,311.371 192.400,311.600 192.400 C 311.835 192.400,312.000 191.000,312.000 189.000 C 312.000 187.000,312.165 185.600,312.400 185.600 C 312.642 185.600,312.800 183.867,312.800 181.200 C 312.800 178.533,312.958 176.800,313.200 176.800 C 313.449 176.800,313.600 174.467,313.600 170.600 C 313.600 166.733,313.751 164.400,314.000 164.400 C 314.813 164.400,314.516 138.418,313.700 138.115 C 313.315 137.972,312.709 137.528,312.353 137.128 C 311.997 136.727,311.452 136.400,311.141 136.400 C 310.831 136.400,310.317 136.040,310.001 135.601 C 309.666 135.136,309.149 134.889,308.765 135.011 C 308.374 135.135,306.002 133.937,302.933 132.066 C 294.999 127.228,288.493 123.847,277.800 119.003 C 275.071 117.767,274.704 117.617,271.400 116.379 C 270.080 115.884,268.670 115.057,268.267 114.540 C 267.863 114.023,267.188 113.600,266.767 113.600 C 266.345 113.600,266.000 113.420,266.000 113.200 C 266.000 112.980,265.460 112.800,264.800 112.800 C 264.140 112.800,263.600 112.620,263.600 112.400 C 263.600 112.180,263.240 112.000,262.800 112.000 C 262.360 112.000,262.000 111.820,262.000 111.600 C 262.000 111.380,261.460 111.200,260.800 111.200 C 260.140 111.200,259.600 111.020,259.600 110.800 C 259.600 110.580,259.148 110.400,258.595 110.400 C 258.042 110.400,257.277 110.240,256.895 110.043 C 255.711 109.436,251.785 108.400,250.665 108.400 C 250.079 108.400,249.600 108.220,249.600 108.000 C 249.600 107.780,248.880 107.600,248.000 107.600 C 247.120 107.600,246.400 107.420,246.400 107.200 C 246.400 106.980,245.680 106.800,244.800 106.800 C 243.920 106.800,243.200 106.620,243.200 106.400 C 243.200 106.180,242.581 106.000,241.824 106.000 C 241.067 106.000,240.336 105.820,240.200 105.600 C 240.064 105.380,239.153 105.200,238.176 105.200 C 237.199 105.200,236.400 105.020,236.400 104.800 C 236.400 104.580,235.680 104.400,234.800 104.400 C 233.920 104.400,233.200 104.220,233.200 104.000 C 233.200 103.778,232.141 103.600,230.824 103.600 C 229.517 103.600,228.336 103.420,228.200 103.200 C 228.064 102.980,226.883 102.800,225.576 102.800 C 224.259 102.800,223.200 102.622,223.200 102.400 C 223.200 102.163,221.741 102.000,219.624 102.000 C 217.657 102.000,215.936 101.820,215.800 101.600 C 215.642 101.345,210.070 101.200,200.400 101.200 C 190.730 101.200,185.158 101.345,185.000 101.600 M188.304 143.576 C 188.362 153.352,188.272 161.485,188.104 161.647 C 187.937 161.810,186.270 162.149,184.400 162.401 C 180.414 162.937,174.357 164.114,171.100 164.985 C 169.835 165.323,167.855 165.854,166.700 166.164 C 164.413 166.778,156.085 169.513,153.200 170.598 C 146.662 173.056,146.682 173.043,146.954 174.514 C 147.085 175.221,147.372 177.420,147.592 179.400 C 147.812 181.380,148.174 184.260,148.397 185.800 C 148.620 187.340,148.979 189.950,149.195 191.600 C 149.764 195.952,150.339 199.252,151.598 205.400 C 151.778 206.280,152.122 207.990,152.362 209.200 C 154.341 219.187,158.558 233.589,162.634 244.284 C 163.825 247.410,164.800 250.060,164.800 250.174 C 164.800 250.287,165.312 251.509,165.938 252.890 C 166.564 254.270,167.417 256.210,167.832 257.200 C 169.483 261.129,176.833 275.251,179.388 279.400 C 180.878 281.820,182.440 284.399,182.859 285.131 C 183.279 285.864,184.697 288.062,186.011 290.016 L 188.400 293.569 188.400 320.585 C 188.400 343.611,188.316 347.600,187.834 347.600 C 184.139 347.600,154.957 310.692,147.194 296.200 C 146.604 295.100,145.672 293.390,145.122 292.400 C 144.572 291.410,143.261 288.980,142.208 287.000 C 141.155 285.020,140.156 283.220,139.987 283.000 C 139.819 282.780,138.920 280.890,137.990 278.800 C 136.357 275.130,135.581 273.404,133.357 268.500 C 131.521 264.451,131.458 264.293,128.761 256.900 C 128.300 255.635,127.776 254.240,127.598 253.800 C 125.617 248.905,122.642 239.557,120.596 231.800 C 120.016 229.600,119.277 226.810,118.954 225.600 C 118.631 224.390,118.176 222.500,117.943 221.400 C 117.710 220.300,117.379 218.770,117.208 218.000 C 116.676 215.608,115.617 210.312,115.168 207.800 C 114.932 206.480,114.588 204.590,114.404 203.600 C 113.732 199.997,112.559 191.794,112.031 187.000 C 110.004 168.604,109.237 152.432,110.347 151.477 C 114.671 147.758,141.943 135.583,152.200 132.792 C 152.860 132.613,155.290 131.904,157.600 131.218 C 159.910 130.531,162.700 129.778,163.800 129.545 C 164.900 129.311,166.430 128.979,167.200 128.808 C 171.158 127.927,174.926 127.224,177.800 126.830 C 179.560 126.588,181.990 126.230,183.200 126.034 C 184.410 125.837,186.030 125.705,186.800 125.738 L 188.200 125.800 188.304 143.576 M218.600 126.385 C 220.140 126.591,222.570 126.879,224.000 127.023 C 225.430 127.168,226.771 127.447,226.980 127.643 C 227.189 127.840,227.896 128.000,228.552 128.000 C 229.207 128.000,230.296 128.169,230.972 128.376 C 231.647 128.583,233.280 128.967,234.600 129.230 C 238.732 130.054,252.100 133.805,253.000 134.394 C 253.220 134.538,254.210 134.900,255.200 135.198 C 256.190 135.495,257.171 135.888,257.380 136.070 C 257.589 136.251,258.174 136.400,258.680 136.400 C 259.186 136.400,259.600 136.580,259.600 136.800 C 259.600 137.020,259.943 137.200,260.362 137.200 C 260.781 137.200,261.906 137.586,262.862 138.057 C 263.818 138.528,264.960 139.045,265.400 139.206 C 266.516 139.614,269.763 141.086,272.556 142.450 C 273.852 143.082,275.157 143.600,275.456 143.600 C 275.755 143.600,276.000 143.780,276.000 144.000 C 276.000 144.220,276.360 144.400,276.800 144.400 C 277.240 144.400,277.600 144.580,277.600 144.800 C 277.600 145.020,277.945 145.200,278.367 145.200 C 278.788 145.200,279.193 145.335,279.267 145.500 C 279.340 145.665,280.660 146.461,282.200 147.268 C 283.740 148.075,286.138 149.335,287.530 150.068 L 290.059 151.400 289.827 160.000 C 289.527 171.088,288.952 178.800,287.633 189.400 C 286.609 197.633,286.338 199.574,285.763 202.771 C 285.424 204.657,284.978 207.190,284.772 208.400 C 284.053 212.616,282.571 219.713,281.640 223.400 C 281.418 224.280,281.124 225.540,280.988 226.200 C 280.851 226.860,280.587 227.760,280.400 228.200 C 280.042 229.044,279.685 230.541,279.327 232.704 C 279.209 233.421,278.951 234.106,278.756 234.227 C 278.560 234.348,278.400 234.889,278.400 235.429 C 278.400 235.969,278.238 236.723,278.039 237.105 C 277.840 237.487,277.463 238.610,277.200 239.600 C 276.937 240.590,276.560 241.713,276.361 242.095 C 276.162 242.477,276.000 243.242,276.000 243.795 C 276.000 244.348,275.820 244.800,275.600 244.800 C 275.380 244.800,275.200 245.340,275.200 246.000 C 275.200 246.660,275.020 247.200,274.800 247.200 C 274.580 247.200,274.400 247.562,274.400 248.005 C 274.400 248.448,274.220 249.168,274.000 249.605 C 273.780 250.042,273.420 250.758,273.200 251.195 C 272.980 251.632,272.800 252.316,272.800 252.715 C 272.800 253.114,272.657 253.611,272.482 253.820 C 272.307 254.029,271.935 254.920,271.655 255.800 C 271.376 256.680,270.989 257.760,270.796 258.200 C 270.603 258.640,270.004 260.260,269.465 261.800 C 268.553 264.405,267.933 265.872,265.319 271.600 C 264.766 272.810,263.996 274.520,263.606 275.400 C 262.006 279.013,259.387 284.209,259.104 284.333 C 258.937 284.407,258.800 284.797,258.800 285.200 C 258.800 285.603,258.665 285.993,258.500 286.067 C 258.205 286.198,257.509 287.433,255.045 292.200 C 254.363 293.520,253.713 294.690,253.602 294.800 C 253.490 294.910,253.134 295.540,252.811 296.200 C 252.487 296.860,250.912 299.434,249.311 301.920 C 247.710 304.406,246.400 306.611,246.400 306.820 C 246.400 307.029,246.242 307.200,246.049 307.200 C 245.855 307.200,245.473 307.740,245.200 308.400 C 244.927 309.060,244.545 309.600,244.351 309.600 C 244.158 309.600,244.000 309.836,244.000 310.125 C 244.000 310.413,243.640 311.036,243.200 311.508 C 242.760 311.980,242.400 312.520,242.400 312.708 C 242.400 312.896,242.083 313.398,241.696 313.825 C 241.308 314.251,239.929 316.040,238.632 317.800 C 234.895 322.868,232.721 325.703,230.999 327.752 C 230.120 328.798,229.130 329.977,228.800 330.371 C 223.918 336.197,212.424 348.062,211.948 347.768 C 211.756 347.649,211.600 335.431,211.600 320.593 L 211.600 293.634 214.600 289.013 C 216.250 286.472,217.600 284.296,217.600 284.178 C 217.600 284.060,218.500 282.630,219.600 281.000 C 220.700 279.370,221.600 277.863,221.600 277.651 C 221.600 277.440,221.735 277.207,221.900 277.133 C 222.065 277.060,222.762 275.920,223.448 274.600 C 224.135 273.280,225.304 271.030,226.046 269.600 C 226.788 268.170,227.496 266.910,227.618 266.800 C 227.856 266.587,228.228 265.789,230.600 260.400 C 231.424 258.530,232.705 255.700,233.449 254.111 C 234.192 252.523,234.800 251.035,234.800 250.806 C 234.800 250.577,234.959 250.077,235.153 249.695 C 235.517 248.979,236.211 247.354,236.900 245.600 C 237.116 245.050,237.422 244.330,237.579 244.000 C 237.737 243.670,238.115 242.545,238.420 241.500 C 238.725 240.455,239.115 239.600,239.287 239.600 C 239.459 239.600,239.600 239.060,239.600 238.400 C 239.600 237.740,239.780 237.200,240.000 237.200 C 240.220 237.200,240.400 236.671,240.400 236.024 C 240.400 235.377,240.580 234.736,240.800 234.600 C 241.020 234.464,241.200 233.924,241.200 233.400 C 241.200 232.876,241.380 232.336,241.600 232.200 C 241.820 232.064,242.000 231.423,242.000 230.776 C 242.000 230.129,242.180 229.600,242.400 229.600 C 242.620 229.600,242.800 229.148,242.800 228.595 C 242.800 228.042,242.962 227.277,243.161 226.895 C 243.360 226.513,243.720 225.435,243.961 224.500 C 244.370 222.916,244.609 221.970,245.574 218.100 C 245.780 217.275,246.224 215.520,246.561 214.200 C 246.897 212.880,247.469 210.180,247.830 208.200 C 248.191 206.220,248.631 203.880,248.807 203.000 C 249.713 198.462,250.088 196.348,250.440 193.800 C 250.653 192.260,251.015 189.650,251.244 188.000 C 252.241 180.815,252.430 179.221,252.647 176.157 C 252.854 173.241,252.803 172.889,252.139 172.674 C 251.732 172.543,250.410 172.055,249.200 171.591 C 246.452 170.536,236.679 167.238,234.800 166.732 C 234.030 166.525,232.815 166.185,232.100 165.977 C 228.542 164.945,227.663 164.710,226.000 164.351 C 221.237 163.324,217.612 162.682,213.700 162.172 L 211.600 161.898 211.600 143.711 L 211.600 125.523 213.700 125.767 C 214.855 125.901,217.060 126.179,218.600 126.385 M206.200 184.825 C 211.380 185.206,214.219 185.572,218.400 186.398 C 219.610 186.638,221.187 186.936,221.904 187.061 C 222.621 187.186,223.306 187.449,223.427 187.644 C 223.548 187.840,224.078 188.000,224.605 188.000 C 227.666 188.000,227.885 188.643,226.819 194.500 C 225.807 200.057,225.622 201.079,225.391 202.400 C 225.256 203.170,224.989 204.160,224.798 204.600 C 224.606 205.040,224.342 206.120,224.209 207.000 C 224.077 207.880,223.867 209.276,223.742 210.103 C 223.618 210.929,223.355 211.705,223.158 211.826 C 222.961 211.948,222.800 212.478,222.800 213.005 C 222.800 213.531,222.639 214.376,222.442 214.881 C 222.245 215.387,221.872 216.610,221.615 217.600 C 220.667 221.237,217.746 230.929,217.213 232.200 C 217.029 232.640,216.483 234.080,216.000 235.400 C 215.517 236.720,214.960 238.205,214.761 238.700 C 214.562 239.195,214.238 240.005,214.041 240.500 C 213.423 242.048,212.336 244.552,211.756 245.761 C 211.450 246.400,211.200 247.165,211.200 247.461 C 211.200 247.758,211.020 248.000,210.800 248.000 C 210.580 248.000,210.400 248.349,210.400 248.776 C 210.400 249.203,210.220 249.664,210.000 249.800 C 209.780 249.936,209.600 250.397,209.600 250.824 C 209.600 251.251,209.420 251.600,209.200 251.600 C 208.980 251.600,208.800 251.960,208.800 252.400 C 208.800 252.840,208.620 253.200,208.400 253.200 C 208.180 253.200,208.000 253.560,208.000 254.000 C 208.000 254.440,207.820 254.800,207.600 254.800 C 207.380 254.800,207.200 255.160,207.200 255.600 C 207.200 256.040,207.020 256.400,206.800 256.400 C 206.580 256.400,206.400 256.760,206.400 257.200 C 206.400 257.640,206.220 258.000,206.000 258.000 C 205.780 258.000,205.600 258.345,205.600 258.767 C 205.600 259.188,205.463 259.593,205.297 259.667 C 205.130 259.740,204.379 260.970,203.629 262.400 C 201.717 266.043,200.454 268.000,200.014 268.000 C 198.102 268.000,185.752 241.350,181.570 228.200 C 180.870 226.000,180.161 223.840,179.995 223.400 C 179.828 222.960,179.470 221.790,179.199 220.800 C 178.929 219.810,178.561 218.550,178.383 218.000 C 176.555 212.369,172.067 190.243,172.516 189.076 C 172.735 188.504,177.814 187.175,184.200 186.019 C 192.939 184.437,197.533 184.187,206.200 184.825 " stroke="none" fill="#fbb94f" fill-rule="evenodd"></path><path id="path2" d="M96.573 109.600 C 81.623 124.577,80.450 125.981,82.383 126.594 C 82.839 126.739,83.108 127.025,82.982 127.229 C 82.856 127.433,83.044 127.600,83.400 127.600 C 83.756 127.600,83.936 127.780,83.800 128.000 C 83.664 128.220,83.751 128.400,83.994 128.400 C 84.236 128.400,85.859 129.840,87.600 131.600 C 91.242 135.282,91.395 135.318,94.603 133.270 C 99.306 130.268,101.323 129.041,103.347 127.948 C 108.884 124.960,123.758 117.944,126.614 116.975 C 132.888 114.845,132.880 114.742,125.984 108.700 C 125.042 107.875,124.397 107.200,124.551 107.200 C 124.704 107.200,122.023 104.410,118.594 101.000 C 115.164 97.590,112.130 94.800,111.852 94.800 C 111.574 94.800,104.698 101.460,96.573 109.600 M281.406 101.000 C 277.977 104.410,275.296 107.200,275.449 107.200 C 275.603 107.200,274.958 107.875,274.016 108.700 C 268.906 113.177,268.254 113.975,269.017 114.818 C 269.406 115.248,269.969 115.600,270.267 115.600 C 270.566 115.600,271.123 115.759,271.505 115.953 C 272.356 116.386,273.693 116.937,275.800 117.722 C 277.373 118.308,281.689 120.300,289.200 123.907 C 291.290 124.911,293.060 125.882,293.133 126.066 C 293.207 126.250,293.597 126.400,294.000 126.400 C 294.403 126.400,294.793 126.540,294.867 126.711 C 294.940 126.882,295.900 127.469,297.000 128.016 C 298.100 128.563,300.581 129.998,302.514 131.205 C 304.447 132.412,306.517 133.702,307.114 134.071 C 308.801 135.113,309.031 135.005,312.400 131.600 C 314.141 129.840,315.764 128.400,316.006 128.400 C 316.249 128.400,316.336 128.220,316.200 128.000 C 316.064 127.780,316.244 127.600,316.600 127.600 C 316.956 127.600,317.144 127.433,317.018 127.229 C 316.892 127.025,317.151 126.743,317.594 126.602 C 319.573 125.974,318.584 124.788,303.502 109.702 C 295.308 101.506,288.388 94.800,288.123 94.800 C 287.859 94.800,284.836 97.590,281.406 101.000 M106.823 273.500 C 105.914 274.325,102.056 278.060,98.247 281.800 C 89.790 290.106,84.039 295.597,82.661 296.680 C 82.093 297.128,81.741 297.608,81.880 297.747 C 82.019 297.886,81.823 298.000,81.443 298.000 C 81.063 298.000,80.864 298.180,81.000 298.400 C 81.136 298.620,80.956 298.800,80.600 298.800 C 80.244 298.800,80.043 298.945,80.152 299.123 C 80.262 299.301,79.881 299.796,79.306 300.223 C 78.731 300.650,78.067 301.242,77.830 301.539 C 77.594 301.835,75.364 304.085,72.876 306.539 C 70.387 308.992,66.116 313.250,63.383 316.000 C 57.756 321.664,56.023 323.392,47.949 331.397 C 44.787 334.532,41.390 338.014,40.400 339.135 C 39.410 340.257,38.441 341.180,38.247 341.187 C 37.912 341.199,35.597 343.386,27.552 351.290 L 24.000 354.781 24.000 358.190 C 24.000 360.066,24.157 361.600,24.349 361.600 C 24.540 361.600,24.801 363.535,24.927 365.900 C 25.315 373.164,25.469 375.064,25.700 375.439 C 25.822 375.638,25.972 377.240,26.033 379.000 C 26.167 382.895,26.372 383.200,28.849 383.200 C 29.922 383.200,30.800 383.380,30.800 383.600 C 30.800 383.835,32.200 384.000,34.200 384.000 C 36.200 384.000,37.600 384.165,37.600 384.400 C 37.600 384.636,39.040 384.800,41.120 384.800 C 43.056 384.800,44.811 384.966,45.020 385.170 C 45.229 385.373,46.750 385.629,48.400 385.739 C 50.050 385.848,52.052 386.058,52.849 386.206 C 54.288 386.474,54.341 386.433,60.682 380.138 C 64.193 376.652,68.427 372.495,70.091 370.900 C 71.754 369.305,73.060 368.000,72.993 368.000 C 72.927 368.000,75.183 365.705,78.008 362.900 C 80.833 360.095,85.002 355.956,87.272 353.702 C 89.543 351.448,92.580 348.388,94.022 346.902 C 95.465 345.416,96.995 344.005,97.422 343.767 C 97.850 343.529,98.378 342.944,98.595 342.467 C 98.812 341.990,99.116 341.600,99.271 341.600 C 99.606 341.600,106.014 335.497,113.561 327.990 C 116.553 325.015,119.788 321.910,120.752 321.090 C 121.716 320.271,122.404 319.600,122.281 319.600 C 122.158 319.600,123.574 318.062,125.428 316.183 C 128.630 312.938,129.262 311.845,128.438 310.980 C 128.067 310.591,127.154 309.019,125.138 305.300 C 124.512 304.145,123.430 302.165,122.732 300.900 C 120.775 297.349,117.869 291.595,117.024 289.600 C 116.303 287.898,114.054 282.921,112.415 279.400 C 112.005 278.520,111.074 276.495,110.346 274.900 C 108.802 271.515,108.945 271.572,106.823 273.500 M290.800 272.562 C 290.800 272.871,290.461 273.816,290.046 274.662 C 289.173 276.440,287.023 281.073,285.990 283.400 C 285.600 284.280,284.567 286.530,283.695 288.400 C 282.824 290.270,281.972 292.250,281.803 292.800 C 281.634 293.350,281.196 294.250,280.830 294.800 C 280.464 295.350,279.725 296.700,279.188 297.800 C 278.650 298.900,278.118 299.890,278.005 300.000 C 277.802 300.198,276.289 302.969,275.440 304.697 C 275.198 305.190,274.865 305.595,274.700 305.597 C 274.535 305.599,274.400 305.945,274.400 306.367 C 274.400 306.788,274.265 307.193,274.100 307.267 C 273.577 307.499,271.600 311.560,271.600 312.403 C 271.600 312.879,272.909 314.525,274.781 316.406 C 276.531 318.163,277.858 319.600,277.729 319.600 C 277.601 319.600,278.284 320.271,279.248 321.090 C 280.212 321.910,283.447 325.015,286.439 327.990 C 293.986 335.497,300.394 341.600,300.729 341.600 C 300.884 341.600,301.188 341.990,301.405 342.467 C 301.622 342.944,302.150 343.529,302.578 343.767 C 303.005 344.005,304.535 345.416,305.978 346.902 C 307.420 348.388,310.457 351.448,312.728 353.702 C 314.998 355.956,319.167 360.095,321.992 362.900 C 324.817 365.705,327.073 368.000,327.007 368.000 C 326.940 368.000,328.246 369.305,329.909 370.900 C 331.573 372.495,335.807 376.652,339.318 380.138 C 345.659 386.433,345.712 386.474,347.151 386.206 C 347.948 386.058,349.950 385.848,351.600 385.739 C 353.250 385.629,354.771 385.373,354.980 385.170 C 355.189 384.966,356.944 384.800,358.880 384.800 C 360.960 384.800,362.400 384.636,362.400 384.400 C 362.400 384.165,363.800 384.000,365.800 384.000 C 367.800 384.000,369.200 383.835,369.200 383.600 C 369.200 383.380,370.078 383.200,371.151 383.200 C 373.628 383.200,373.833 382.895,373.967 379.000 C 374.028 377.240,374.178 375.638,374.300 375.439 C 374.531 375.064,374.685 373.164,375.073 365.900 C 375.199 363.535,375.460 361.600,375.651 361.600 C 375.843 361.600,376.000 360.066,376.000 358.190 L 376.000 354.781 372.448 351.290 C 364.403 343.386,362.088 341.199,361.753 341.187 C 361.559 341.180,360.590 340.257,359.600 339.135 C 358.610 338.014,355.213 334.532,352.051 331.397 C 343.977 323.392,342.244 321.664,336.617 316.000 C 333.884 313.250,329.613 308.992,327.124 306.539 C 324.636 304.085,322.406 301.835,322.170 301.539 C 321.933 301.242,321.269 300.650,320.694 300.223 C 320.119 299.796,319.738 299.301,319.848 299.123 C 319.957 298.945,319.756 298.800,319.400 298.800 C 319.044 298.800,318.864 298.620,319.000 298.400 C 319.136 298.180,318.937 298.000,318.557 298.000 C 318.177 298.000,317.981 297.886,318.120 297.747 C 318.259 297.608,317.907 297.128,317.339 296.680 C 315.961 295.597,310.210 290.106,301.753 281.800 C 291.540 271.771,290.800 271.146,290.800 272.562 " stroke="none" fill="#a3dbf7" fill-rule="evenodd"></path><path id="path3" d="M95.956 109.579 C 84.726 120.827,81.210 124.579,81.240 125.279 L 81.280 126.200 81.540 125.303 C 81.683 124.809,88.448 117.744,96.573 109.603 C 104.698 101.461,111.203 94.800,111.029 94.800 C 110.855 94.800,104.072 101.451,95.956 109.579 M303.469 109.700 C 311.645 117.895,318.418 124.960,318.521 125.400 C 318.686 126.110,318.712 126.098,318.754 125.287 C 318.798 124.405,289.854 94.800,288.948 94.800 C 288.759 94.800,295.293 101.505,303.469 109.700 M131.446 114.726 C 131.133 115.231,129.474 116.004,126.614 116.975 C 123.758 117.944,108.884 124.960,103.347 127.948 C 101.292 129.057,98.812 130.566,94.929 133.069 C 93.790 133.804,92.440 134.572,91.929 134.777 C 91.006 135.147,91.006 135.149,91.879 135.175 C 92.363 135.189,94.433 134.148,96.479 132.862 C 100.622 130.260,102.869 128.967,107.000 126.809 C 108.540 126.005,110.160 125.148,110.600 124.905 C 111.373 124.479,114.472 123.013,121.600 119.701 C 123.470 118.833,126.354 117.635,128.010 117.040 C 131.658 115.729,132.148 115.444,131.922 114.766 C 131.787 114.361,131.677 114.352,131.446 114.726 M276.400 118.190 C 276.400 118.295,277.255 118.760,278.300 119.224 C 287.151 123.156,295.217 127.361,302.939 132.070 C 305.787 133.806,308.301 135.166,308.526 135.091 C 308.751 135.016,308.319 134.647,307.567 134.271 C 306.815 133.895,304.580 132.555,302.599 131.294 C 300.618 130.032,298.098 128.550,296.999 128.000 C 295.900 127.450,294.940 126.865,294.867 126.700 C 294.793 126.535,294.403 126.400,294.000 126.400 C 293.597 126.400,293.207 126.250,293.133 126.066 C 292.882 125.438,276.400 117.680,276.400 118.190 M108.645 271.906 C 108.890 272.068,109.673 273.460,110.385 275.000 C 111.097 276.540,112.013 278.520,112.420 279.400 C 114.336 283.544,116.332 287.966,117.024 289.600 C 117.869 291.595,120.775 297.349,122.732 300.900 C 123.430 302.165,124.512 304.145,125.138 305.300 C 126.850 308.458,128.049 310.554,128.400 311.000 C 128.572 311.220,128.802 311.760,128.911 312.200 C 129.091 312.933,129.111 312.926,129.154 312.112 C 129.179 311.624,128.812 310.544,128.338 309.712 C 127.423 308.107,126.245 305.945,123.808 301.400 C 122.983 299.860,121.903 297.880,121.410 297.000 C 119.233 293.117,118.910 292.490,118.099 290.575 C 117.288 288.657,115.251 284.118,113.625 280.600 C 113.218 279.720,112.436 278.010,111.886 276.800 C 111.336 275.590,110.576 273.925,110.197 273.100 C 109.808 272.251,109.225 271.603,108.854 271.606 C 108.437 271.610,108.362 271.719,108.645 271.906 M289.608 274.503 C 287.881 278.393,287.068 280.199,286.910 280.500 C 286.824 280.665,286.840 280.800,286.947 280.800 C 287.054 280.800,287.624 279.765,288.213 278.500 C 288.803 277.235,289.655 275.434,290.107 274.498 C 290.559 273.561,290.841 272.708,290.734 272.601 C 290.627 272.494,290.121 273.350,289.608 274.503 M285.855 282.655 C 285.476 283.449,285.248 284.181,285.349 284.282 C 285.449 284.383,285.841 283.814,286.218 283.018 C 286.596 282.222,286.823 281.490,286.724 281.391 C 286.625 281.291,286.233 281.860,285.855 282.655 M284.255 286.255 C 283.876 287.049,283.648 287.781,283.749 287.882 C 283.849 287.983,284.241 287.414,284.618 286.618 C 284.996 285.822,285.223 285.090,285.124 284.991 C 285.025 284.891,284.633 285.460,284.255 286.255 M280.955 293.468 C 280.563 294.310,280.142 295.090,280.021 295.200 C 279.899 295.310,279.283 296.390,278.651 297.600 C 278.019 298.810,277.046 300.610,276.490 301.600 C 275.934 302.590,274.674 304.930,273.691 306.800 C 272.708 308.670,271.745 310.371,271.552 310.580 C 271.358 310.789,271.214 311.419,271.232 311.980 C 271.249 312.541,271.348 312.730,271.452 312.400 C 271.813 311.254,273.802 307.399,274.100 307.267 C 274.265 307.193,274.400 306.788,274.400 306.367 C 274.400 305.945,274.535 305.599,274.700 305.597 C 274.865 305.595,275.198 305.190,275.440 304.697 C 276.278 302.991,277.801 300.199,278.002 300.000 C 278.114 299.890,278.812 298.630,279.554 297.200 C 280.296 295.770,281.169 294.094,281.494 293.475 C 281.818 292.856,281.990 292.257,281.876 292.143 C 281.762 292.028,281.347 292.625,280.955 293.468 " stroke="none" fill="#d4cca5" fill-rule="evenodd"></path><path id="path4" d="M56.662 45.931 C 56.298 46.334,56.000 47.086,56.000 47.603 C 56.000 48.844,54.939 52.178,53.916 54.155 C 49.644 62.402,43.468 67.493,35.237 69.552 C 33.387 70.015,31.782 70.485,31.670 70.597 C 30.822 71.445,38.328 69.792,40.200 68.719 C 40.640 68.466,41.914 67.777,43.031 67.187 C 44.905 66.198,46.886 64.676,48.220 63.200 C 51.874 59.159,54.919 53.988,55.993 50.000 C 56.260 49.010,56.716 47.525,57.007 46.700 C 57.610 44.990,57.578 44.919,56.662 45.931 M342.973 46.649 C 343.275 47.502,343.740 49.010,344.007 50.000 C 345.081 53.988,348.126 59.159,351.780 63.200 C 353.149 64.715,355.120 66.211,357.160 67.284 C 358.382 67.927,359.566 68.589,359.791 68.754 C 360.016 68.920,361.010 69.287,362.000 69.570 C 362.990 69.852,364.213 70.245,364.719 70.442 C 365.684 70.818,368.680 70.947,368.330 70.597 C 368.218 70.485,366.613 70.015,364.763 69.552 C 356.532 67.493,350.356 62.402,346.084 54.155 C 345.037 52.132,344.000 48.839,344.000 47.534 C 344.000 46.978,343.645 46.203,343.212 45.811 C 342.434 45.107,342.431 45.117,342.973 46.649 M91.600 80.498 C 84.890 87.262,79.224 92.797,79.008 92.798 C 78.793 92.799,73.026 98.380,66.194 105.200 C 59.361 112.020,54.016 117.600,54.315 117.600 C 54.877 117.600,104.330 68.545,103.991 68.324 C 103.886 68.256,98.310 73.734,91.600 80.498 M296.000 68.390 C 296.000 68.960,345.118 117.600,345.694 117.600 C 346.113 117.600,345.597 116.884,344.276 115.631 C 343.134 114.547,337.520 108.967,331.801 103.231 C 326.082 97.494,321.218 92.800,320.992 92.800 C 320.767 92.800,315.052 87.258,308.291 80.485 C 301.531 73.712,296.000 68.269,296.000 68.390 M116.827 89.162 C 115.636 90.835,115.810 91.132,117.200 89.800 C 118.415 88.636,118.707 88.000,118.027 88.000 C 117.822 88.000,117.282 88.523,116.827 89.162 M281.858 88.275 C 281.727 88.406,283.002 89.921,284.691 91.642 C 286.380 93.364,287.842 94.692,287.940 94.593 C 288.038 94.495,287.012 93.312,285.659 91.963 C 284.307 90.615,283.200 89.429,283.200 89.327 C 283.200 88.929,282.081 88.052,281.858 88.275 M113.347 92.588 C 112.878 93.123,112.583 93.649,112.690 93.757 C 112.892 93.958,114.800 92.205,114.800 91.818 C 114.800 91.327,114.149 91.672,113.347 92.588 M183.200 126.034 C 181.990 126.230,179.560 126.588,177.800 126.830 C 174.926 127.224,171.158 127.927,167.200 128.808 C 166.430 128.979,164.900 129.311,163.800 129.545 C 162.700 129.778,159.910 130.531,157.600 131.218 C 155.290 131.904,152.860 132.613,152.200 132.792 C 141.943 135.583,114.671 147.758,110.347 151.477 C 109.237 152.432,110.004 168.604,112.031 187.000 C 112.559 191.794,113.732 199.997,114.404 203.600 C 114.588 204.590,114.932 206.480,115.168 207.800 C 115.617 210.312,116.676 215.608,117.208 218.000 C 117.379 218.770,117.710 220.300,117.943 221.400 C 118.176 222.500,118.631 224.390,118.954 225.600 C 119.277 226.810,120.016 229.600,120.596 231.800 C 122.642 239.557,125.617 248.905,127.598 253.800 C 127.776 254.240,128.300 255.635,128.761 256.900 C 131.458 264.293,131.521 264.451,133.357 268.500 C 135.581 273.404,136.357 275.130,137.990 278.800 C 138.920 280.890,139.819 282.780,139.987 283.000 C 140.156 283.220,141.155 285.020,142.208 287.000 C 143.261 288.980,144.572 291.410,145.122 292.400 C 145.672 293.390,146.604 295.100,147.194 296.200 C 154.957 310.692,184.139 347.600,187.834 347.600 C 188.316 347.600,188.400 343.611,188.400 320.585 L 188.400 293.569 186.011 290.016 C 184.697 288.062,183.279 285.864,182.859 285.131 C 182.440 284.399,180.878 281.820,179.388 279.400 C 176.833 275.251,169.483 261.129,167.832 257.200 C 167.417 256.210,166.564 254.270,165.938 252.890 C 165.312 251.509,164.800 250.287,164.800 250.174 C 164.800 250.060,163.825 247.410,162.634 244.284 C 158.558 233.589,154.341 219.187,152.362 209.200 C 152.122 207.990,151.778 206.280,151.598 205.400 C 150.339 199.252,149.764 195.952,149.195 191.600 C 148.979 189.950,148.620 187.340,148.397 185.800 C 148.174 184.260,147.812 181.380,147.592 179.400 C 147.372 177.420,147.085 175.221,146.954 174.514 C 146.682 173.043,146.662 173.056,153.200 170.598 C 156.085 169.513,164.413 166.778,166.700 166.164 C 167.855 165.854,169.835 165.323,171.100 164.985 C 174.357 164.114,180.414 162.937,184.400 162.401 C 186.270 162.149,187.937 161.810,188.104 161.647 C 188.272 161.485,188.362 153.352,188.304 143.576 L 188.200 125.800 186.800 125.738 C 186.030 125.705,184.410 125.837,183.200 126.034 M211.600 143.749 L 211.600 161.898 213.700 162.172 C 217.612 162.682,221.237 163.324,226.000 164.351 C 227.663 164.710,228.542 164.945,232.100 165.977 C 232.815 166.185,234.030 166.526,234.800 166.734 C 235.570 166.943,237.881 167.673,239.936 168.357 C 244.124 169.750,244.143 169.754,243.800 169.200 C 243.664 168.980,243.124 168.800,242.600 168.800 C 242.076 168.800,241.536 168.620,241.400 168.400 C 241.264 168.180,240.724 168.000,240.200 168.000 C 239.676 168.000,239.149 167.841,239.030 167.648 C 238.910 167.454,238.404 167.197,237.906 167.076 C 237.408 166.955,236.325 166.663,235.500 166.428 C 233.165 165.762,231.334 165.238,229.700 164.770 C 227.788 164.222,224.995 163.613,223.200 163.353 C 222.430 163.242,221.440 162.990,221.000 162.794 C 220.560 162.599,219.255 162.340,218.100 162.219 C 216.945 162.099,215.100 161.893,214.000 161.761 L 212.000 161.523 212.000 143.710 L 212.000 125.897 214.100 126.158 C 215.568 126.340,216.019 126.297,215.600 126.016 C 215.270 125.794,214.235 125.609,213.300 125.606 L 211.600 125.600 211.600 143.749 M188.000 143.575 L 188.000 161.151 186.100 161.403 C 183.942 161.689,175.810 163.099,173.400 163.604 C 171.906 163.917,170.680 164.243,167.200 165.250 C 166.430 165.473,165.350 165.747,164.800 165.858 C 163.800 166.060,162.412 166.582,161.105 167.247 C 160.723 167.441,160.059 167.600,159.629 167.600 C 159.199 167.600,158.736 167.780,158.600 168.000 C 158.464 168.220,157.924 168.400,157.400 168.400 C 156.876 168.400,156.336 168.580,156.200 168.800 C 156.064 169.020,155.601 169.200,155.171 169.200 C 154.741 169.200,154.077 169.359,153.695 169.553 C 153.313 169.748,152.460 170.129,151.800 170.400 C 151.140 170.671,150.287 171.052,149.905 171.247 C 149.523 171.441,148.848 171.600,148.405 171.600 C 147.962 171.600,147.600 171.780,147.600 172.000 C 147.600 172.220,147.341 172.400,147.024 172.400 C 145.937 172.400,146.209 176.906,148.015 188.800 C 148.198 190.010,148.539 192.350,148.772 194.000 C 149.182 196.906,149.538 198.908,150.424 203.300 C 150.656 204.455,150.944 206.210,151.062 207.200 C 151.181 208.190,151.440 209.171,151.639 209.380 C 151.837 209.589,152.000 210.433,152.000 211.256 C 152.000 212.079,152.180 212.864,152.400 213.000 C 152.620 213.136,152.800 213.856,152.800 214.600 C 152.800 215.344,152.980 216.064,153.200 216.200 C 153.420 216.336,153.600 217.056,153.600 217.800 C 153.600 218.544,153.760 219.252,153.956 219.373 C 154.151 219.494,154.421 220.224,154.556 220.996 C 154.690 221.768,154.910 223.032,155.044 223.804 C 155.179 224.576,155.449 225.306,155.644 225.427 C 155.840 225.548,156.000 226.166,156.000 226.800 C 156.000 227.434,156.180 228.064,156.400 228.200 C 156.620 228.336,156.800 228.876,156.800 229.400 C 156.800 229.924,156.980 230.464,157.200 230.600 C 157.420 230.736,157.600 231.276,157.600 231.800 C 157.600 232.324,157.780 232.864,158.000 233.000 C 158.220 233.136,158.400 233.676,158.400 234.200 C 158.400 234.724,158.580 235.264,158.800 235.400 C 159.020 235.536,159.200 236.141,159.200 236.744 C 159.200 237.347,159.343 238.011,159.518 238.220 C 159.693 238.429,160.069 239.320,160.352 240.200 C 161.150 242.675,164.376 251.202,165.233 253.100 C 165.655 254.035,166.382 255.655,166.850 256.700 C 167.317 257.745,168.217 259.660,168.850 260.956 C 169.482 262.252,170.000 263.557,170.000 263.856 C 170.000 264.155,170.180 264.400,170.400 264.400 C 170.620 264.400,170.800 264.760,170.800 265.200 C 170.800 265.640,170.935 266.001,171.100 266.001 C 171.265 266.002,171.850 266.992,172.400 268.200 C 172.950 269.408,173.535 270.398,173.700 270.399 C 173.865 270.399,174.000 270.760,174.000 271.200 C 174.000 271.640,174.180 272.000,174.400 272.000 C 174.620 272.000,174.800 272.345,174.800 272.767 C 174.800 273.188,174.935 273.593,175.100 273.667 C 175.265 273.740,176.014 274.970,176.764 276.400 C 177.514 277.830,179.089 280.491,180.264 282.314 C 181.439 284.137,182.400 285.724,182.400 285.842 C 182.400 286.195,184.927 289.789,185.277 289.933 C 185.455 290.007,185.600 290.288,185.600 290.558 C 185.600 290.828,185.915 291.407,186.300 291.845 C 188.034 293.816,188.000 293.245,188.000 320.395 C 188.000 334.698,187.849 346.400,187.665 346.400 C 187.274 346.400,179.563 338.851,177.800 336.743 C 177.140 335.953,175.700 334.316,174.600 333.105 C 173.500 331.893,172.326 330.564,171.992 330.151 C 171.657 329.738,170.210 327.960,168.775 326.200 C 167.340 324.440,164.827 321.200,163.190 319.000 C 161.554 316.800,160.109 314.910,159.981 314.800 C 159.434 314.332,157.200 310.819,157.200 310.428 C 157.200 310.193,157.050 310.000,156.868 310.000 C 156.685 310.000,156.280 309.505,155.968 308.900 C 155.655 308.295,155.260 307.620,155.089 307.400 C 154.919 307.180,154.269 306.190,153.646 305.200 C 153.023 304.210,151.678 302.089,150.657 300.488 C 149.635 298.886,148.800 297.416,148.800 297.221 C 148.800 297.026,148.665 296.807,148.500 296.733 C 148.230 296.613,147.022 294.511,145.840 292.103 C 145.598 291.610,145.265 291.205,145.100 291.203 C 144.935 291.201,144.800 290.855,144.800 290.433 C 144.800 290.012,144.665 289.607,144.500 289.533 C 144.335 289.460,143.752 288.500,143.205 287.400 C 142.658 286.300,142.108 285.310,141.983 285.200 C 141.725 284.974,138.400 278.184,138.400 277.884 C 138.400 277.778,137.577 275.915,136.571 273.745 C 134.244 268.725,133.153 266.257,131.913 263.200 C 131.689 262.650,131.348 261.887,131.153 261.505 C 130.959 261.123,130.800 260.448,130.800 260.005 C 130.800 259.562,130.620 259.200,130.400 259.200 C 130.180 259.200,130.000 258.838,130.000 258.395 C 130.000 257.952,129.820 257.232,129.600 256.795 C 129.380 256.358,129.020 255.642,128.800 255.205 C 128.580 254.768,128.400 254.048,128.400 253.605 C 128.400 253.162,128.220 252.800,128.000 252.800 C 127.780 252.800,127.600 252.438,127.600 251.995 C 127.600 251.552,127.420 250.832,127.200 250.395 C 126.980 249.958,126.620 249.242,126.400 248.805 C 126.180 248.368,126.000 247.648,126.000 247.205 C 126.000 246.762,125.820 246.400,125.600 246.400 C 125.380 246.400,125.200 245.871,125.200 245.224 C 125.200 244.577,125.020 243.936,124.800 243.800 C 124.580 243.664,124.400 243.124,124.400 242.600 C 124.400 242.076,124.220 241.536,124.000 241.400 C 123.780 241.264,123.600 240.634,123.600 240.000 C 123.600 239.366,123.441 238.749,123.246 238.629 C 123.051 238.508,122.803 237.913,122.693 237.305 C 122.584 236.697,121.819 233.590,120.993 230.400 C 119.548 224.821,119.205 223.420,118.378 219.700 C 116.880 212.965,116.661 211.869,115.184 203.700 C 112.843 190.756,111.107 173.674,110.579 158.400 L 110.364 152.200 112.082 151.249 C 113.027 150.725,114.880 149.736,116.200 149.051 C 117.520 148.366,118.690 147.704,118.800 147.580 C 119.182 147.150,130.603 141.596,131.100 141.598 C 131.375 141.599,131.600 141.420,131.600 141.200 C 131.600 140.980,131.872 140.800,132.204 140.800 C 132.537 140.800,133.572 140.464,134.504 140.054 C 138.361 138.356,144.284 136.166,150.400 134.176 C 153.461 133.180,154.431 132.888,157.600 132.008 C 158.590 131.734,159.760 131.363,160.200 131.185 C 161.204 130.778,162.934 130.396,165.000 130.127 C 165.880 130.012,166.771 129.756,166.980 129.559 C 167.189 129.362,168.033 129.200,168.856 129.200 C 169.679 129.200,170.464 129.020,170.600 128.800 C 170.736 128.580,171.521 128.400,172.344 128.400 C 173.167 128.400,174.011 128.235,174.220 128.032 C 174.574 127.689,175.777 127.543,183.000 126.963 C 184.540 126.839,185.971 126.572,186.180 126.369 C 187.970 124.632,188.000 124.917,188.000 143.575 M322.000 129.000 C 323.639 130.650,325.146 132.000,325.348 132.000 C 325.550 132.000,324.366 130.650,322.716 129.000 C 321.066 127.350,319.560 126.000,319.368 126.000 C 319.177 126.000,320.361 127.350,322.000 129.000 M216.433 126.544 C 216.525 126.624,217.950 126.794,219.600 126.923 C 221.453 127.067,222.294 127.022,221.800 126.806 C 221.047 126.477,216.075 126.234,216.433 126.544 M222.833 127.344 C 223.253 127.707,227.206 127.934,226.989 127.583 C 226.859 127.372,225.833 127.200,224.710 127.200 C 223.586 127.200,222.742 127.265,222.833 127.344 M228.800 128.400 C 230.330 128.890,231.558 128.890,230.800 128.400 C 230.470 128.187,229.660 128.027,229.000 128.046 C 227.824 128.079,227.820 128.086,228.800 128.400 M232.800 129.200 C 233.130 129.413,233.850 129.578,234.400 129.566 C 235.316 129.546,235.333 129.515,234.600 129.200 C 233.416 128.691,232.013 128.691,232.800 129.200 M236.600 130.000 C 237.040 130.189,237.760 130.344,238.200 130.344 L 239.000 130.344 238.200 130.000 C 237.760 129.811,237.040 129.656,236.600 129.656 L 235.800 129.656 236.600 130.000 M75.201 130.998 C 74.686 131.548,74.341 132.075,74.436 132.170 C 74.531 132.265,75.099 131.815,75.698 131.171 C 76.297 130.527,76.641 130.000,76.463 130.000 C 76.285 130.000,75.717 130.449,75.201 130.998 M239.800 130.785 C 240.240 130.966,241.410 131.338,242.400 131.612 C 245.569 132.486,246.980 132.904,247.800 133.210 C 248.240 133.374,249.410 133.742,250.400 134.026 C 251.390 134.311,252.380 134.659,252.600 134.800 C 252.820 134.941,253.810 135.300,254.800 135.598 C 255.790 135.895,256.771 136.288,256.980 136.470 C 257.189 136.651,257.686 136.800,258.085 136.800 C 258.484 136.800,259.123 136.959,259.505 137.153 C 259.887 137.348,260.650 137.685,261.200 137.903 C 261.750 138.120,263.100 138.704,264.200 139.200 C 265.300 139.696,266.560 140.237,267.000 140.403 C 267.440 140.570,269.420 141.469,271.400 142.403 C 276.785 144.942,277.600 145.258,277.600 144.805 C 277.600 144.582,277.240 144.400,276.800 144.400 C 276.360 144.400,276.000 144.220,276.000 144.000 C 276.000 143.780,275.755 143.600,275.456 143.600 C 275.157 143.600,273.852 143.082,272.556 142.450 C 269.763 141.086,266.516 139.614,265.400 139.206 C 264.960 139.045,263.818 138.528,262.862 138.057 C 261.906 137.586,260.781 137.200,260.362 137.200 C 259.943 137.200,259.600 137.020,259.600 136.800 C 259.600 136.580,259.186 136.400,258.680 136.400 C 258.174 136.400,257.589 136.251,257.380 136.070 C 257.171 135.888,256.190 135.495,255.200 135.198 C 254.210 134.900,253.220 134.534,253.000 134.386 C 252.780 134.237,252.240 134.014,251.800 133.890 C 251.360 133.766,248.480 132.930,245.401 132.032 C 240.187 130.512,237.917 130.007,239.800 130.785 M278.611 145.736 C 279.294 146.200,282.168 147.776,288.155 150.971 L 289.709 151.800 289.524 160.600 C 289.422 165.440,289.477 168.680,289.646 167.800 C 289.815 166.920,289.964 162.870,289.976 158.800 L 289.998 151.400 287.499 150.068 C 286.124 149.335,283.740 148.075,282.200 147.268 C 280.660 146.461,279.340 145.665,279.267 145.500 C 279.193 145.335,278.838 145.200,278.478 145.200 C 277.936 145.200,277.960 145.294,278.611 145.736 M244.800 170.000 C 245.130 170.213,245.670 170.388,246.000 170.388 C 246.533 170.388,246.533 170.345,246.000 170.000 C 245.670 169.787,245.130 169.612,244.800 169.612 C 244.267 169.612,244.267 169.655,244.800 170.000 M288.880 172.600 C 288.832 174.140,288.705 176.390,288.598 177.600 C 288.426 179.541,288.452 179.645,288.817 178.487 C 289.044 177.765,289.170 175.515,289.098 173.487 C 288.979 170.150,288.958 170.066,288.880 172.600 M246.800 170.546 C 246.800 170.626,247.655 171.005,248.700 171.387 C 249.745 171.770,251.110 172.290,251.732 172.542 L 252.865 173.000 252.641 176.200 C 252.430 179.223,252.242 180.811,251.244 188.000 C 251.015 189.650,250.653 192.260,250.440 193.800 C 250.083 196.386,249.628 198.936,248.800 203.000 C 247.626 208.764,247.415 210.506,248.000 209.600 C 248.213 209.270,248.391 208.246,248.394 207.324 C 248.397 206.402,248.580 205.536,248.800 205.400 C 249.020 205.264,249.200 204.389,249.200 203.456 C 249.200 202.523,249.363 201.589,249.561 201.380 C 249.760 201.171,250.025 200.190,250.150 199.200 C 250.275 198.210,250.551 196.230,250.764 194.800 C 252.277 184.621,252.660 181.663,253.122 176.600 C 253.303 174.620,253.412 172.942,253.364 172.872 C 253.027 172.374,246.800 170.167,246.800 170.546 M287.847 183.924 C 287.664 185.532,287.610 186.943,287.727 187.060 C 288.049 187.383,288.484 183.970,288.322 182.389 C 288.219 181.384,288.087 181.809,287.847 183.924 M191.800 184.868 C 184.404 185.687,172.848 188.209,172.516 189.076 C 172.067 190.243,176.555 212.369,178.383 218.000 C 178.561 218.550,178.929 219.810,179.199 220.800 C 179.470 221.790,179.828 222.960,179.995 223.400 C 180.161 223.840,180.870 226.000,181.570 228.200 C 185.693 241.165,198.099 268.000,199.970 268.000 C 200.519 268.000,204.821 260.907,204.791 260.051 C 204.779 259.720,203.220 261.717,203.209 262.079 C 203.193 262.580,200.369 267.200,200.081 267.197 C 199.926 267.195,199.602 266.790,199.360 266.297 C 198.492 264.530,196.996 261.796,196.789 261.600 C 196.673 261.490,195.596 259.420,194.394 257.000 C 193.193 254.580,192.073 252.540,191.905 252.467 C 191.737 252.393,191.600 252.084,191.600 251.779 C 191.600 251.474,191.276 250.634,190.880 249.912 C 190.483 249.190,189.114 245.990,187.837 242.800 C 184.770 235.140,184.948 235.597,184.400 234.000 C 183.818 232.307,183.229 230.840,182.753 229.905 C 182.559 229.523,182.400 228.758,182.400 228.205 C 182.400 227.652,182.220 227.200,182.000 227.200 C 181.780 227.200,181.600 226.671,181.600 226.024 C 181.600 225.377,181.420 224.736,181.200 224.600 C 180.980 224.464,180.800 223.924,180.800 223.400 C 180.800 222.876,180.620 222.336,180.400 222.200 C 180.180 222.064,180.000 221.434,180.000 220.800 C 180.000 220.166,179.820 219.536,179.600 219.400 C 179.380 219.264,179.200 218.634,179.200 218.000 C 179.200 217.366,179.020 216.736,178.800 216.600 C 178.580 216.464,178.400 215.834,178.400 215.200 C 178.400 214.566,178.220 213.936,178.000 213.800 C 177.780 213.664,177.600 212.933,177.600 212.176 C 177.600 211.419,177.420 210.800,177.200 210.800 C 176.980 210.800,176.800 210.001,176.800 209.024 C 176.800 208.047,176.620 207.136,176.400 207.000 C 176.180 206.864,176.000 206.043,176.000 205.176 C 176.000 204.309,175.820 203.600,175.600 203.600 C 175.380 203.600,175.200 202.801,175.200 201.824 C 175.200 200.847,175.020 199.936,174.800 199.800 C 174.580 199.664,174.400 198.674,174.400 197.600 C 174.400 196.526,174.220 195.536,174.000 195.400 C 173.780 195.264,173.600 194.342,173.600 193.350 C 173.600 192.359,173.397 191.168,173.149 190.705 C 172.335 189.183,177.297 187.689,188.800 185.993 C 192.994 185.374,209.522 185.337,213.000 185.939 C 214.540 186.205,216.610 186.525,217.600 186.650 C 218.590 186.775,219.571 187.040,219.780 187.239 C 219.989 187.437,220.743 187.600,221.456 187.600 C 222.169 187.600,222.864 187.780,223.000 188.000 C 223.136 188.220,223.678 188.400,224.205 188.400 C 226.328 188.400,227.304 189.232,226.998 190.782 C 226.844 191.562,226.557 193.145,226.359 194.300 C 225.684 198.248,225.242 200.600,224.839 202.400 C 224.616 203.390,224.248 205.100,224.020 206.200 C 223.525 208.585,223.005 210.819,222.436 213.000 C 221.913 215.006,221.902 215.571,222.400 214.800 C 222.613 214.470,222.791 213.716,222.794 213.124 C 222.797 212.532,222.961 211.948,223.158 211.826 C 223.355 211.705,223.618 210.929,223.742 210.103 C 223.867 209.276,224.077 207.880,224.209 207.000 C 224.342 206.120,224.606 205.040,224.798 204.600 C 224.989 204.160,225.256 203.170,225.391 202.400 C 225.622 201.079,225.807 200.057,226.819 194.500 C 227.885 188.643,227.666 188.000,224.605 188.000 C 224.078 188.000,223.548 187.840,223.427 187.644 C 223.306 187.449,222.621 187.186,221.904 187.061 C 221.187 186.936,219.610 186.638,218.400 186.398 C 209.654 184.669,199.081 184.061,191.800 184.868 M287.097 190.400 C 286.940 190.950,286.825 191.940,286.842 192.600 L 286.872 193.800 287.258 192.458 C 287.471 191.720,287.586 190.730,287.514 190.258 C 287.392 189.454,287.366 189.463,287.097 190.400 M286.289 196.000 C 286.136 196.550,286.030 197.810,286.052 198.800 L 286.094 200.600 286.457 198.403 C 286.857 195.990,286.744 194.368,286.289 196.000 M285.421 202.259 C 285.295 203.107,285.013 204.568,284.795 205.506 C 284.578 206.444,284.400 207.828,284.400 208.582 C 284.400 209.336,284.220 210.064,284.000 210.200 C 283.780 210.336,283.600 211.236,283.600 212.200 C 283.600 213.164,283.420 214.064,283.200 214.200 C 282.980 214.336,282.800 215.146,282.800 216.000 C 282.800 216.854,282.620 217.664,282.400 217.800 C 282.180 217.936,282.000 218.746,282.000 219.600 C 282.000 220.454,281.839 221.252,281.642 221.374 C 281.445 221.495,281.190 222.271,281.074 223.097 C 280.783 225.183,280.400 226.857,280.000 227.800 C 279.642 228.644,279.285 230.141,278.927 232.304 C 278.809 233.021,278.551 233.706,278.356 233.827 C 278.160 233.948,278.000 234.489,278.000 235.029 C 278.000 235.569,277.838 236.323,277.639 236.705 C 277.440 237.087,277.054 238.210,276.781 239.200 C 276.096 241.685,274.759 246.034,274.385 247.000 C 273.157 250.164,272.793 251.327,272.974 251.507 C 273.088 251.621,273.289 251.374,273.420 250.957 C 273.551 250.541,273.825 249.887,274.029 249.505 C 274.233 249.123,274.400 248.448,274.400 248.005 C 274.400 247.562,274.580 247.200,274.800 247.200 C 275.020 247.200,275.200 246.660,275.200 246.000 C 275.200 245.340,275.380 244.800,275.600 244.800 C 275.820 244.800,276.000 244.348,276.000 243.795 C 276.000 243.242,276.162 242.477,276.361 242.095 C 276.560 241.713,276.937 240.590,277.200 239.600 C 277.463 238.610,277.840 237.487,278.039 237.105 C 278.238 236.723,278.400 235.969,278.400 235.429 C 278.400 234.889,278.560 234.348,278.756 234.227 C 278.951 234.106,279.209 233.421,279.327 232.704 C 279.685 230.541,280.042 229.044,280.400 228.200 C 280.587 227.760,280.851 226.860,280.988 226.200 C 281.124 225.540,281.418 224.280,281.640 223.400 C 282.600 219.599,284.007 212.878,284.781 208.400 C 285.892 201.974,286.018 201.085,285.843 200.909 C 285.738 200.804,285.548 201.412,285.421 202.259 M247.254 211.000 C 247.219 211.440,247.089 212.250,246.967 212.800 C 246.775 213.663,246.807 213.703,247.198 213.090 C 247.447 212.699,247.577 211.889,247.486 211.290 C 247.378 210.579,247.297 210.479,247.254 211.000 M246.222 215.129 C 246.058 215.859,246.022 216.556,246.142 216.676 C 246.443 216.977,246.920 214.956,246.699 214.317 C 246.601 214.033,246.386 214.398,246.222 215.129 M221.429 216.629 C 221.281 217.215,221.251 217.784,221.361 217.894 C 221.471 218.004,221.681 217.615,221.829 217.029 C 221.976 216.442,222.006 215.873,221.896 215.763 C 221.786 215.653,221.576 216.042,221.429 216.629 M245.473 218.153 C 245.323 218.545,245.211 219.166,245.225 219.533 C 245.242 219.975,245.381 219.874,245.637 219.234 C 245.849 218.703,245.961 218.082,245.885 217.854 C 245.809 217.627,245.624 217.761,245.473 218.153 M220.688 219.333 C 220.210 220.549,220.324 221.573,220.839 220.687 C 221.067 220.296,221.191 219.666,221.115 219.287 C 220.988 218.660,220.951 218.664,220.688 219.333 M244.649 221.415 C 244.512 221.773,244.416 222.456,244.436 222.933 C 244.462 223.547,244.585 223.408,244.859 222.456 C 245.257 221.072,245.094 220.258,244.649 221.415 M219.411 223.878 C 219.038 225.155,218.568 226.513,218.367 226.895 C 218.165 227.277,218.000 227.941,218.000 228.371 C 218.000 228.801,217.820 229.264,217.600 229.400 C 217.380 229.536,217.200 230.051,217.200 230.544 C 217.200 231.037,217.057 231.611,216.882 231.820 C 216.707 232.029,216.335 232.920,216.055 233.800 C 215.524 235.474,214.950 236.922,214.353 238.095 C 214.159 238.477,214.000 238.974,214.000 239.199 C 214.000 239.576,213.598 240.548,211.601 245.000 C 211.206 245.880,210.578 247.320,210.206 248.200 C 209.833 249.080,208.465 251.917,207.164 254.505 C 204.611 259.586,204.606 259.600,205.200 259.600 C 205.420 259.600,205.600 259.240,205.600 258.800 C 205.600 258.360,205.780 258.000,206.000 258.000 C 206.220 258.000,206.400 257.640,206.400 257.200 C 206.400 256.760,206.580 256.400,206.800 256.400 C 207.020 256.400,207.200 256.040,207.200 255.600 C 207.200 255.160,207.380 254.800,207.600 254.800 C 207.820 254.800,208.000 254.440,208.000 254.000 C 208.000 253.560,208.180 253.200,208.400 253.200 C 208.620 253.200,208.800 252.840,208.800 252.400 C 208.800 251.960,208.980 251.600,209.200 251.600 C 209.420 251.600,209.600 251.251,209.600 250.824 C 209.600 250.397,209.780 249.936,210.000 249.800 C 210.220 249.664,210.400 249.203,210.400 248.776 C 210.400 248.349,210.580 248.000,210.800 248.000 C 211.020 248.000,211.200 247.758,211.200 247.461 C 211.200 247.165,211.450 246.400,211.756 245.761 C 212.380 244.460,213.523 241.816,213.987 240.600 C 214.155 240.160,214.479 239.350,214.707 238.800 C 214.935 238.250,215.517 236.720,216.000 235.400 C 216.483 234.080,217.029 232.640,217.213 232.200 C 217.960 230.416,220.449 221.916,220.275 221.742 C 220.173 221.639,219.784 222.600,219.411 223.878 M243.795 225.053 C 243.661 225.684,243.383 226.513,243.176 226.895 C 242.969 227.277,242.800 228.042,242.800 228.595 C 242.800 229.148,242.620 229.600,242.400 229.600 C 242.180 229.600,242.000 230.129,242.000 230.776 C 242.000 231.423,241.820 232.064,241.600 232.200 C 241.380 232.336,241.200 232.876,241.200 233.400 C 241.200 233.924,241.020 234.464,240.800 234.600 C 240.580 234.736,240.400 235.377,240.400 236.024 C 240.400 236.671,240.220 237.200,240.000 237.200 C 239.780 237.200,239.600 237.740,239.600 238.400 C 239.600 239.060,239.459 239.600,239.287 239.600 C 239.115 239.600,238.725 240.455,238.420 241.500 C 238.115 242.545,237.737 243.670,237.579 244.000 C 237.422 244.330,237.092 245.095,236.847 245.700 C 236.601 246.305,236.199 247.295,235.953 247.900 C 235.708 248.505,235.348 249.313,235.153 249.695 C 234.959 250.077,234.800 250.577,234.800 250.806 C 234.800 251.035,234.192 252.523,233.449 254.111 C 232.705 255.700,231.424 258.530,230.600 260.400 C 228.228 265.789,227.856 266.587,227.618 266.800 C 227.496 266.910,226.811 268.125,226.098 269.500 C 225.384 270.875,224.215 273.125,223.500 274.500 C 222.785 275.875,222.065 277.060,221.900 277.133 C 221.735 277.207,221.600 277.440,221.600 277.651 C 221.600 277.863,220.700 279.370,219.600 281.000 C 218.500 282.630,217.600 284.060,217.600 284.178 C 217.600 284.296,216.250 286.472,214.600 289.013 L 211.600 293.634 211.600 320.593 C 211.600 335.431,211.756 347.649,211.948 347.768 C 212.424 348.062,223.918 336.197,228.800 330.371 C 229.130 329.977,230.120 328.798,230.999 327.752 C 232.721 325.703,234.895 322.868,238.632 317.800 C 239.929 316.040,241.308 314.251,241.696 313.825 C 242.083 313.398,242.400 312.896,242.400 312.708 C 242.400 312.520,242.760 311.980,243.200 311.508 C 243.640 311.036,244.000 310.413,244.000 310.125 C 244.000 309.836,244.158 309.600,244.351 309.600 C 244.545 309.600,244.927 309.060,245.200 308.400 C 245.473 307.740,245.855 307.200,246.049 307.200 C 246.242 307.200,246.400 307.029,246.400 306.820 C 246.400 306.611,247.765 304.346,249.434 301.787 C 251.102 299.228,252.391 297.057,252.296 296.963 C 252.116 296.782,248.181 302.631,247.227 304.500 C 246.918 305.105,246.515 305.600,246.332 305.600 C 246.150 305.600,246.000 305.787,246.000 306.015 C 246.000 307.029,233.207 324.852,230.795 327.200 C 230.681 327.310,229.784 328.390,228.800 329.600 C 226.267 332.715,220.455 339.050,216.000 343.551 L 212.200 347.390 212.097 320.608 L 211.994 293.825 214.597 289.916 C 216.029 287.766,217.200 285.825,217.200 285.603 C 217.200 285.381,217.380 285.200,217.600 285.200 C 217.820 285.200,218.000 285.007,218.000 284.772 C 218.000 284.537,218.540 283.559,219.200 282.600 C 219.860 281.641,220.400 280.741,220.400 280.600 C 220.400 280.459,220.912 279.592,221.537 278.672 C 222.678 276.995,227.736 267.675,229.160 264.626 C 230.692 261.344,232.324 257.759,232.995 256.200 C 233.373 255.320,234.047 253.790,234.492 252.800 C 235.249 251.117,235.450 250.628,236.346 248.300 C 236.537 247.805,236.879 246.950,237.106 246.400 C 237.333 245.850,237.736 244.770,238.000 244.000 C 238.582 242.307,239.171 240.840,239.647 239.905 C 239.841 239.523,240.000 238.936,240.000 238.600 C 240.000 238.264,240.161 237.677,240.359 237.295 C 240.556 236.913,241.275 234.800,241.955 232.600 C 242.636 230.400,243.488 227.648,243.848 226.484 C 244.208 225.321,244.398 224.265,244.271 224.137 C 244.143 224.010,243.929 224.422,243.795 225.053 M272.446 252.267 C 272.421 252.524,272.284 253.064,272.141 253.467 C 271.940 254.036,271.994 254.097,272.379 253.742 C 272.652 253.491,272.789 252.951,272.684 252.542 C 272.579 252.134,272.472 252.010,272.446 252.267 M271.400 255.200 C 271.250 255.673,271.217 256.150,271.327 256.260 C 271.437 256.370,271.650 256.073,271.800 255.600 C 271.950 255.127,271.983 254.650,271.873 254.540 C 271.763 254.430,271.550 254.727,271.400 255.200 M270.692 257.042 C 270.531 257.202,270.400 257.609,270.400 257.947 C 270.400 258.397,270.518 258.442,270.845 258.115 C 271.090 257.870,271.221 257.463,271.137 257.210 C 271.052 256.957,270.852 256.881,270.692 257.042 M269.458 260.504 C 269.096 261.452,268.800 262.367,268.800 262.539 C 268.800 262.710,268.242 264.054,267.560 265.525 C 266.878 266.996,266.000 268.920,265.610 269.800 C 265.219 270.680,264.315 272.660,263.600 274.200 C 262.885 275.740,261.943 277.810,261.506 278.800 C 260.658 280.722,260.408 281.221,259.016 283.768 C 255.602 290.011,253.196 294.799,253.473 294.796 C 253.653 294.794,254.299 293.759,254.909 292.496 C 256.545 289.107,258.159 286.218,258.500 286.067 C 258.665 285.993,258.800 285.603,258.800 285.200 C 258.800 284.797,258.937 284.407,259.104 284.333 C 259.387 284.209,262.006 279.013,263.606 275.400 C 263.996 274.520,264.766 272.810,265.319 271.600 C 267.892 265.961,268.553 264.414,269.474 261.865 C 270.548 258.894,270.533 257.688,269.458 260.504 " stroke="none" fill="#da7129" fill-rule="evenodd"></path></g></svg>