<svg id="svg" version="1.1" xmlns="http://www.w3.org/2000/svg" xmlns:xlink="http://www.w3.org/1999/xlink" width="400" height="400" viewBox="0, 0, 400,400"><g id="svgg"><path id="path0" d="M139.600 6.336 C 139.600 9.889,141.759 20.600,143.202 24.200 C 143.378 24.640,143.935 26.080,144.439 27.400 C 147.587 35.636,154.965 44.914,162.349 49.919 C 165.885 52.316,172.236 55.600,173.337 55.600 C 173.676 55.600,174.051 55.759,174.170 55.952 C 174.290 56.146,174.796 56.403,175.294 56.524 C 175.792 56.645,176.920 56.949,177.800 57.199 C 211.377 66.735,244.511 54.356,255.151 28.300 C 255.398 27.695,255.804 26.705,256.054 26.100 C 256.839 24.195,257.095 23.450,257.601 21.600 C 257.871 20.610,258.235 19.350,258.410 18.800 C 258.962 17.058,260.400 8.076,260.400 6.371 C 260.400 5.868,254.912 5.896,254.600 6.400 C 254.446 6.650,255.255 6.800,256.753 6.800 C 259.699 6.800,259.657 6.730,259.204 10.841 C 258.565 16.644,257.348 21.724,255.621 25.800 C 255.434 26.240,254.976 27.320,254.602 28.200 C 247.705 44.438,233.456 55.260,214.800 58.430 C 206.932 59.766,192.206 59.745,185.200 58.386 C 183.990 58.151,182.324 57.859,181.497 57.737 C 180.671 57.615,179.895 57.355,179.774 57.158 C 179.652 56.961,179.158 56.797,178.676 56.794 C 177.719 56.787,174.980 55.913,174.541 55.474 C 174.390 55.323,174.030 55.200,173.741 55.200 C 171.685 55.200,162.658 49.891,158.313 46.128 C 148.577 37.693,141.194 22.537,140.715 10.000 L 140.600 7.000 143.112 6.881 C 144.571 6.811,145.525 6.602,145.388 6.381 C 145.098 5.911,139.600 5.869,139.600 6.336 M146.400 7.200 C 146.400 7.420,147.030 7.600,147.800 7.600 C 148.570 7.600,149.200 7.420,149.200 7.200 C 149.200 6.980,148.570 6.800,147.800 6.800 C 147.030 6.800,146.400 6.980,146.400 7.200 M251.200 7.200 C 251.200 7.420,251.830 7.600,252.600 7.600 C 253.370 7.600,254.000 7.420,254.000 7.200 C 254.000 6.980,253.370 6.800,252.600 6.800 C 251.830 6.800,251.200 6.980,251.200 7.200 M149.600 8.000 C 149.600 8.220,150.320 8.400,151.200 8.400 C 152.080 8.400,152.800 8.220,152.800 8.000 C 152.800 7.780,152.080 7.600,151.200 7.600 C 150.320 7.600,149.600 7.780,149.600 8.000 M247.200 8.000 C 247.200 8.220,247.920 8.400,248.800 8.400 C 249.680 8.400,250.400 8.220,250.400 8.000 C 250.400 7.780,249.680 7.600,248.800 7.600 C 247.920 7.600,247.200 7.780,247.200 8.000 M154.000 8.800 C 154.000 9.020,154.720 9.200,155.600 9.200 C 156.480 9.200,157.200 9.020,157.200 8.800 C 157.200 8.580,156.480 8.400,155.600 8.400 C 154.720 8.400,154.000 8.580,154.000 8.800 M242.644 8.729 C 242.532 8.911,243.331 9.100,244.420 9.149 C 245.593 9.203,246.400 9.068,246.400 8.820 C 246.400 8.328,242.943 8.245,242.644 8.729 M158.219 9.115 C 157.617 9.716,158.188 10.000,160.000 10.000 C 161.675 10.000,163.033 9.253,161.500 9.174 C 161.225 9.160,160.423 9.092,159.719 9.022 C 159.014 8.953,158.339 8.994,158.219 9.115 M239.500 9.091 C 237.298 9.322,237.671 10.000,240.000 10.000 C 241.511 10.000,242.000 9.853,242.000 9.400 C 242.000 9.070,241.775 8.830,241.500 8.867 C 241.225 8.904,240.325 9.005,239.500 9.091 M163.500 9.829 C 162.800 10.538,163.335 10.800,165.480 10.800 C 167.111 10.800,167.637 10.677,167.328 10.368 C 166.787 9.827,163.903 9.421,163.500 9.829 M233.700 9.865 C 232.609 10.305,233.296 10.800,235.000 10.800 C 236.785 10.800,237.383 10.309,236.167 9.843 C 235.440 9.564,234.424 9.573,233.700 9.865 M168.400 11.000 C 168.944 11.656,172.220 11.828,173.134 11.249 C 173.860 10.789,172.396 10.413,169.851 10.405 C 168.164 10.401,167.969 10.481,168.400 11.000 M227.029 10.758 C 226.314 11.038,226.309 11.080,226.962 11.330 C 228.214 11.811,230.839 11.618,231.457 11.000 C 232.127 10.330,228.613 10.138,227.029 10.758 M175.600 11.557 C 175.600 12.077,176.657 12.401,178.333 12.395 C 180.247 12.387,181.647 12.000,181.372 11.555 C 181.085 11.090,175.600 11.092,175.600 11.557 M218.734 11.641 C 217.889 12.163,219.221 12.457,221.813 12.322 C 223.280 12.245,224.200 12.007,224.309 11.678 C 224.503 11.091,219.675 11.059,218.734 11.641 M184.780 12.540 C 185.367 13.127,195.754 13.183,195.900 12.600 C 195.963 12.349,193.825 12.178,190.161 12.140 C 185.763 12.096,184.434 12.194,184.780 12.540 M203.400 12.404 C 202.072 12.899,205.670 13.260,210.567 13.122 C 213.669 13.035,214.984 12.852,215.105 12.489 C 215.294 11.917,204.908 11.841,203.400 12.404 M59.500 47.492 C 58.895 48.126,58.400 48.782,58.400 48.950 C 58.400 49.119,58.175 49.494,57.900 49.784 C 56.748 50.997,56.098 51.929,55.568 53.128 C 55.258 53.828,54.869 54.400,54.702 54.400 C 54.536 54.400,54.400 54.760,54.400 55.200 C 54.400 55.640,54.220 56.000,54.000 56.000 C 53.780 56.000,53.600 56.234,53.600 56.520 C 53.600 57.256,52.659 59.193,52.300 59.197 C 52.135 59.199,52.000 59.560,52.000 60.000 C 52.000 60.440,51.820 60.800,51.600 60.800 C 51.380 60.800,51.200 61.070,51.200 61.400 C 51.200 61.730,51.020 62.000,50.800 62.000 C 50.580 62.000,50.400 62.265,50.400 62.589 C 50.400 62.913,49.950 63.948,49.400 64.889 C 48.850 65.830,46.915 69.570,45.100 73.200 C 43.285 76.830,41.665 79.860,41.500 79.933 C 41.335 80.007,41.200 80.412,41.200 80.833 C 41.200 81.255,41.020 81.600,40.800 81.600 C 40.580 81.600,40.400 81.960,40.400 82.400 C 40.400 82.840,40.220 83.200,40.000 83.200 C 39.780 83.200,39.600 83.545,39.600 83.967 C 39.600 84.388,39.465 84.793,39.300 84.867 C 38.868 85.059,37.200 88.372,37.200 89.038 C 37.200 89.347,37.020 89.600,36.800 89.600 C 36.580 89.600,36.400 89.836,36.400 90.125 C 36.400 90.413,36.040 91.036,35.600 91.508 C 35.160 91.980,34.800 92.571,34.800 92.822 C 34.800 93.072,34.477 93.754,34.082 94.338 C 33.687 94.922,32.922 96.300,32.382 97.400 C 31.842 98.500,31.265 99.460,31.100 99.533 C 30.935 99.607,30.800 99.903,30.800 100.191 C 30.800 100.625,29.060 104.137,26.140 109.600 C 25.846 110.150,25.604 110.810,25.602 111.067 C 25.601 111.323,25.464 111.593,25.298 111.667 C 25.132 111.740,24.368 113.060,23.600 114.600 C 22.832 116.140,22.068 117.460,21.902 117.533 C 21.736 117.607,21.600 118.012,21.600 118.433 C 21.600 118.855,21.420 119.200,21.200 119.200 C 20.980 119.200,20.800 119.434,20.800 119.720 C 20.800 120.456,19.859 122.393,19.500 122.397 C 19.335 122.399,19.200 122.760,19.200 123.200 C 19.200 123.640,19.020 124.000,18.800 124.000 C 18.580 124.000,18.400 124.360,18.400 124.800 C 18.400 125.240,18.220 125.600,18.000 125.600 C 17.780 125.600,17.600 125.870,17.600 126.200 C 17.600 126.530,17.420 126.800,17.200 126.800 C 16.980 126.800,16.800 127.072,16.800 127.405 C 16.800 127.970,16.064 129.548,15.590 130.000 C 15.475 130.110,14.935 131.100,14.390 132.200 C 13.846 133.300,13.305 134.290,13.188 134.400 C 12.719 134.843,9.200 142.422,9.200 142.990 C 9.200 143.325,9.020 143.600,8.800 143.600 C 8.580 143.600,8.400 143.971,8.400 144.424 C 8.400 144.877,8.220 145.136,8.000 145.000 C 7.780 144.864,7.600 145.123,7.600 145.576 C 7.600 146.029,7.420 146.400,7.200 146.400 C 6.980 146.400,6.800 146.839,6.800 147.376 C 6.800 147.913,6.620 148.464,6.400 148.600 C 5.879 148.922,5.879 154.278,6.400 154.600 C 6.620 154.736,6.800 155.197,6.800 155.624 C 6.800 156.051,6.980 156.400,7.200 156.400 C 7.420 156.400,7.600 156.675,7.600 157.011 C 7.600 157.689,10.943 161.200,11.589 161.200 C 11.815 161.200,12.000 161.380,12.000 161.600 C 12.000 161.820,12.360 162.000,12.800 162.000 C 13.240 162.000,13.600 162.180,13.600 162.400 C 13.600 162.620,13.819 162.800,14.086 162.800 C 14.353 162.800,16.108 163.544,17.986 164.454 C 19.864 165.364,23.780 167.265,26.688 168.679 C 29.596 170.093,32.052 171.193,32.146 171.125 C 32.239 171.056,32.650 171.285,33.058 171.633 C 33.857 172.314,35.700 173.192,38.100 174.034 C 38.925 174.324,39.600 174.705,39.600 174.880 C 39.600 175.056,39.960 175.200,40.400 175.200 C 40.840 175.200,41.200 175.380,41.200 175.600 C 41.200 175.820,41.560 176.000,42.000 176.000 C 42.440 176.000,42.800 176.180,42.800 176.400 C 42.800 176.620,43.034 176.800,43.320 176.800 C 44.056 176.800,45.993 177.741,45.997 178.100 C 45.999 178.265,46.360 178.400,46.800 178.400 C 47.240 178.400,47.600 178.591,47.600 178.824 C 47.600 179.057,47.753 179.152,47.941 179.036 C 48.129 178.920,48.624 179.084,49.041 179.400 C 49.458 179.716,50.115 179.980,50.500 179.987 C 50.885 179.994,51.200 180.180,51.200 180.400 C 51.200 180.620,51.560 180.800,52.000 180.800 C 52.440 180.800,52.800 180.980,52.800 181.200 C 52.800 181.420,53.045 181.600,53.344 181.600 C 53.848 181.600,58.750 183.942,59.200 184.398 C 59.671 184.874,61.237 185.600,61.795 185.600 C 62.128 185.600,62.400 185.758,62.400 185.950 C 62.400 186.143,62.918 186.404,63.552 186.530 C 64.185 186.657,64.982 187.040,65.323 187.380 C 65.664 187.721,66.215 188.000,66.548 188.000 C 66.881 188.000,67.264 188.180,67.400 188.400 C 67.536 188.620,67.972 188.800,68.370 188.800 C 68.767 188.800,69.555 189.164,70.120 189.609 C 70.686 190.053,71.295 190.377,71.474 190.329 C 71.906 190.211,79.762 194.065,79.933 194.479 C 80.007 194.655,80.412 194.800,80.833 194.800 C 81.255 194.800,81.600 194.980,81.600 195.200 C 81.600 195.420,81.960 195.600,82.400 195.600 C 82.840 195.600,83.200 195.780,83.200 196.000 C 83.200 196.220,83.560 196.400,84.000 196.400 C 84.440 196.400,84.800 196.580,84.800 196.800 C 84.800 197.020,85.160 197.200,85.600 197.200 C 86.040 197.200,86.400 197.380,86.400 197.600 C 86.400 197.820,86.760 198.000,87.200 198.000 C 87.640 198.000,88.000 198.180,88.000 198.400 C 88.000 198.620,88.272 198.800,88.605 198.800 C 89.271 198.800,90.857 199.604,91.248 200.139 C 91.384 200.326,91.834 200.414,92.248 200.334 C 93.144 200.161,93.636 127.022,92.817 115.600 C 91.968 103.747,87.784 84.326,85.540 81.820 C 85.353 81.611,85.200 81.202,85.200 80.912 C 85.200 80.621,84.480 78.861,83.600 77.000 C 82.720 75.139,82.000 73.537,82.000 73.440 C 82.000 73.104,78.067 66.455,76.376 63.933 C 72.403 58.006,66.775 51.762,62.720 48.782 C 61.686 48.022,60.786 47.162,60.720 46.871 C 60.642 46.526,60.217 46.742,59.500 47.492 M339.133 47.100 C 339.060 47.265,338.010 48.208,336.800 49.196 C 331.986 53.124,327.522 58.117,323.624 63.933 C 322.048 66.283,318.000 73.095,318.000 73.396 C 318.000 73.469,317.359 74.897,316.576 76.570 C 312.640 84.974,309.975 94.413,307.927 107.200 C 307.087 112.447,307.058 113.835,306.909 156.304 C 306.739 204.647,306.544 201.204,309.360 199.623 C 310.165 199.170,311.089 198.800,311.412 198.800 C 311.735 198.800,312.000 198.620,312.000 198.400 C 312.000 198.180,312.360 198.000,312.800 198.000 C 313.240 198.000,313.600 197.820,313.600 197.600 C 313.600 197.380,313.960 197.200,314.400 197.200 C 314.840 197.200,315.200 197.020,315.200 196.800 C 315.200 196.580,315.560 196.400,316.000 196.400 C 316.440 196.400,316.800 196.220,316.800 196.000 C 316.800 195.780,317.160 195.600,317.600 195.600 C 318.040 195.600,318.400 195.420,318.400 195.200 C 318.400 194.980,318.760 194.800,319.200 194.800 C 319.640 194.800,320.001 194.665,320.003 194.500 C 320.007 194.171,321.908 193.205,322.580 193.191 C 322.811 193.186,323.450 192.830,324.000 192.400 C 324.550 191.970,325.249 191.614,325.552 191.609 C 325.856 191.604,328.016 190.679,330.352 189.553 C 332.689 188.427,335.590 187.039,336.800 186.468 C 338.010 185.897,339.060 185.288,339.133 185.115 C 339.207 184.942,339.612 184.800,340.033 184.800 C 340.455 184.800,340.800 184.620,340.800 184.400 C 340.800 184.180,341.160 184.000,341.600 184.000 C 342.040 184.000,342.400 183.820,342.400 183.600 C 342.400 183.380,342.760 183.200,343.200 183.200 C 343.640 183.200,344.000 183.064,344.000 182.898 C 344.000 182.731,344.540 182.371,345.200 182.098 C 345.860 181.824,346.940 181.376,347.600 181.102 C 348.260 180.829,348.800 180.469,348.800 180.302 C 348.800 180.136,349.065 180.000,349.388 180.000 C 349.711 180.000,350.617 179.640,351.400 179.200 C 352.183 178.760,353.089 178.400,353.412 178.400 C 353.735 178.400,354.000 178.220,354.000 178.000 C 354.000 177.780,354.360 177.600,354.800 177.600 C 355.240 177.600,355.600 177.420,355.600 177.200 C 355.600 176.980,355.960 176.800,356.400 176.800 C 356.840 176.800,357.201 176.665,357.203 176.500 C 357.207 176.141,359.144 175.200,359.880 175.200 C 360.166 175.200,360.400 175.020,360.400 174.800 C 360.400 174.580,360.642 174.400,360.939 174.400 C 361.235 174.400,362.000 174.150,362.639 173.844 C 363.277 173.539,365.336 172.549,367.214 171.644 C 369.092 170.740,370.832 170.000,371.081 170.000 C 371.330 170.000,371.593 169.865,371.667 169.700 C 371.859 169.268,375.172 167.600,375.838 167.600 C 376.147 167.600,376.400 167.420,376.400 167.200 C 376.400 166.980,376.589 166.800,376.819 166.800 C 377.050 166.800,377.984 166.440,378.894 166.000 C 379.805 165.560,380.786 165.200,381.075 165.200 C 381.364 165.200,381.600 165.054,381.600 164.875 C 381.600 164.696,382.230 164.302,383.000 164.000 C 383.770 163.698,384.400 163.304,384.400 163.125 C 384.400 162.946,384.653 162.800,384.962 162.800 C 386.758 162.800,392.400 158.408,392.400 157.011 C 392.400 156.675,392.580 156.400,392.800 156.400 C 393.020 156.400,393.200 156.051,393.200 155.624 C 393.200 155.197,393.380 154.736,393.600 154.600 C 393.820 154.464,394.000 153.103,394.000 151.576 C 394.000 149.992,393.828 148.800,393.600 148.800 C 393.380 148.800,393.200 148.260,393.200 147.600 C 393.200 146.940,393.020 146.400,392.800 146.400 C 392.580 146.400,392.400 146.040,392.400 145.600 C 392.400 145.160,392.220 144.800,392.000 144.800 C 391.780 144.800,391.600 144.530,391.600 144.200 C 391.600 143.870,391.420 143.600,391.200 143.600 C 390.980 143.600,390.799 143.285,390.798 142.900 C 390.796 142.515,390.508 141.660,390.156 141.000 C 389.805 140.340,388.425 137.640,387.090 135.000 C 385.754 132.360,384.558 130.110,384.431 130.000 C 383.951 129.585,383.200 127.986,383.200 127.382 C 383.200 127.036,383.020 126.864,382.800 127.000 C 382.580 127.136,382.400 126.877,382.400 126.424 C 382.400 125.971,382.220 125.600,382.000 125.600 C 381.780 125.600,381.600 125.240,381.600 124.800 C 381.600 124.360,381.420 124.000,381.200 124.000 C 380.980 124.000,380.800 123.640,380.800 123.200 C 380.800 122.760,380.665 122.399,380.500 122.397 C 380.141 122.393,379.200 120.456,379.200 119.720 C 379.200 119.434,379.020 119.200,378.800 119.200 C 378.580 119.200,378.400 118.840,378.400 118.400 C 378.400 117.960,378.265 117.599,378.100 117.597 C 377.789 117.594,376.800 115.697,376.800 115.104 C 376.800 114.918,376.440 114.380,376.000 113.908 C 375.560 113.436,375.200 112.723,375.200 112.325 C 375.200 111.926,375.040 111.600,374.843 111.600 C 374.647 111.600,374.363 111.107,374.212 110.504 C 374.060 109.901,373.807 109.316,373.649 109.204 C 373.236 108.912,369.082 100.507,369.184 100.170 C 369.230 100.016,369.109 99.779,368.915 99.645 C 368.721 99.510,368.072 98.410,367.472 97.200 C 366.873 95.990,365.936 94.230,365.391 93.289 C 364.846 92.348,364.400 91.396,364.400 91.173 C 364.400 90.949,364.040 90.380,363.600 89.908 C 363.160 89.436,362.800 88.757,362.800 88.400 C 362.800 88.043,362.440 87.364,362.000 86.892 C 361.560 86.420,361.200 85.756,361.200 85.417 C 361.200 85.078,361.020 84.800,360.800 84.800 C 360.580 84.800,360.400 84.440,360.400 84.000 C 360.400 83.560,360.220 83.200,360.000 83.200 C 359.780 83.200,359.600 82.840,359.600 82.400 C 359.600 81.960,359.420 81.600,359.200 81.600 C 358.980 81.600,358.800 81.240,358.800 80.800 C 358.800 80.360,358.664 80.000,358.498 80.000 C 358.331 80.000,357.947 79.415,357.643 78.700 C 356.621 76.293,352.007 67.208,351.600 66.800 C 351.137 66.337,349.600 63.079,349.600 62.562 C 349.600 62.253,349.420 62.000,349.200 62.000 C 348.980 62.000,348.800 61.730,348.800 61.400 C 348.800 61.070,348.620 60.800,348.400 60.800 C 348.180 60.800,348.000 60.440,348.000 60.000 C 348.000 59.560,347.820 59.200,347.600 59.200 C 347.380 59.200,347.200 58.840,347.200 58.400 C 347.200 57.960,347.020 57.600,346.800 57.600 C 346.580 57.600,346.400 57.240,346.400 56.800 C 346.400 56.360,346.220 56.000,346.000 56.000 C 345.780 56.000,345.600 55.640,345.600 55.200 C 345.600 54.760,345.454 54.400,345.275 54.400 C 345.096 54.400,344.702 53.770,344.400 53.000 C 344.098 52.230,343.704 51.600,343.525 51.600 C 343.346 51.600,343.200 51.370,343.200 51.088 C 343.200 50.807,342.840 50.317,342.400 50.000 C 341.960 49.683,341.600 49.225,341.600 48.981 C 341.600 48.089,339.430 46.433,339.133 47.100 " stroke="none" fill="#347cc4" fill-rule="evenodd"></path><path id="path1" d="M140.603 7.195 C 140.145 7.935,141.006 14.550,142.087 18.600 C 146.552 35.332,155.695 46.897,169.708 53.538 C 171.637 54.452,173.452 55.200,173.741 55.200 C 174.030 55.200,174.390 55.323,174.541 55.474 C 174.980 55.913,177.719 56.787,178.676 56.794 C 179.158 56.797,179.652 56.961,179.774 57.158 C 179.895 57.355,180.671 57.615,181.497 57.737 C 182.324 57.859,183.990 58.151,185.200 58.386 C 199.450 61.150,218.325 59.143,230.248 53.596 C 241.146 48.527,249.802 39.501,254.602 28.200 C 254.976 27.320,255.434 26.240,255.621 25.800 C 256.075 24.728,257.203 21.332,257.681 19.600 C 258.642 16.112,259.766 7.792,259.363 7.141 C 259.064 6.657,254.000 6.713,254.000 7.200 C 254.000 7.420,253.190 7.600,252.200 7.600 C 251.210 7.600,250.400 7.780,250.400 8.000 C 250.400 8.220,249.500 8.400,248.400 8.400 C 247.220 8.400,246.400 8.579,246.400 8.837 C 246.400 9.117,245.608 9.225,244.199 9.137 C 242.517 9.032,241.999 9.131,241.999 9.559 C 242.000 10.009,241.396 10.073,238.900 9.889 C 237.195 9.763,236.025 9.751,236.300 9.863 C 237.390 10.306,236.705 10.800,235.000 10.800 C 233.646 10.800,233.200 10.647,233.200 10.184 C 233.200 9.542,233.060 9.615,231.365 11.150 C 230.900 11.571,230.025 11.636,227.630 11.427 C 224.966 11.194,224.467 11.249,224.257 11.795 C 223.907 12.707,218.532 12.517,218.729 11.600 C 218.832 11.119,218.756 11.099,218.349 11.500 C 218.069 11.775,217.265 12.000,216.563 12.000 C 215.744 12.000,215.195 12.237,215.032 12.661 C 214.743 13.413,197.534 13.140,197.267 12.379 C 197.067 11.810,195.984 11.922,196.100 12.500 C 196.254 13.269,186.853 13.432,185.113 12.691 C 182.954 11.772,181.181 11.246,181.393 11.588 C 181.960 12.506,176.745 12.688,175.839 11.782 C 175.338 11.281,174.652 11.216,172.192 11.439 C 169.260 11.705,169.125 11.678,168.013 10.613 C 167.381 10.007,166.625 9.608,166.332 9.724 C 165.966 9.871,166.011 9.947,166.476 9.968 C 168.379 10.057,167.401 10.800,165.381 10.800 C 163.575 10.800,163.159 10.683,163.335 10.225 C 163.519 9.745,163.085 9.690,160.711 9.889 C 158.205 10.099,157.895 10.051,158.112 9.485 C 158.325 8.930,158.085 8.875,156.340 9.082 C 154.872 9.255,154.231 9.174,153.989 8.782 C 153.765 8.420,152.994 8.279,151.628 8.352 C 149.749 8.451,149.598 8.391,149.568 7.530 C 149.551 7.018,149.446 6.825,149.335 7.100 C 149.097 7.691,146.400 7.783,146.400 7.200 C 146.400 6.678,140.926 6.673,140.603 7.195 " stroke="none" fill="#2c649c" fill-rule="evenodd"></path><path id="path2" d="M138.400 6.400 C 138.070 6.613,137.305 6.791,136.700 6.794 C 136.095 6.797,135.600 6.980,135.600 7.200 C 135.600 7.420,135.240 7.600,134.800 7.600 C 134.360 7.600,134.000 7.780,134.000 8.000 C 134.000 8.220,133.741 8.400,133.424 8.400 C 133.108 8.400,131.623 9.029,130.124 9.798 C 128.626 10.567,127.175 11.197,126.900 11.198 C 126.625 11.199,126.400 11.380,126.400 11.600 C 126.400 11.820,126.040 12.000,125.600 12.000 C 125.160 12.000,124.800 12.180,124.800 12.400 C 124.800 12.620,124.440 12.800,124.000 12.800 C 123.560 12.800,123.200 12.980,123.200 13.200 C 123.200 13.420,122.840 13.600,122.400 13.600 C 121.960 13.600,121.600 13.780,121.600 14.000 C 121.600 14.220,121.240 14.400,120.800 14.400 C 120.360 14.400,120.000 14.580,120.000 14.800 C 120.000 15.020,119.655 15.200,119.233 15.200 C 118.812 15.200,118.407 15.337,118.333 15.504 C 118.260 15.671,116.580 16.614,114.600 17.600 C 112.620 18.586,110.940 19.529,110.867 19.696 C 110.793 19.863,110.388 20.000,109.967 20.000 C 109.545 20.000,109.200 20.180,109.200 20.400 C 109.200 20.620,108.840 20.800,108.400 20.800 C 107.960 20.800,107.600 20.980,107.600 21.200 C 107.600 21.420,107.255 21.600,106.833 21.600 C 106.412 21.600,106.007 21.735,105.933 21.900 C 105.741 22.332,102.428 24.000,101.762 24.000 C 101.453 24.000,101.200 24.180,101.200 24.400 C 101.200 24.620,101.004 24.800,100.765 24.800 C 100.278 24.800,81.514 34.020,81.200 34.414 C 81.090 34.551,80.415 34.919,79.700 35.230 C 78.985 35.541,78.400 35.931,78.400 36.098 C 78.400 36.264,78.040 36.400,77.600 36.400 C 77.160 36.400,76.800 36.580,76.800 36.800 C 76.800 37.020,76.455 37.200,76.033 37.200 C 75.612 37.200,75.207 37.338,75.133 37.506 C 75.060 37.674,72.660 38.973,69.800 40.392 C 64.643 42.951,61.153 45.175,60.000 46.639 C 59.446 47.342,59.453 47.358,60.100 46.851 C 60.693 46.386,60.802 46.386,60.812 46.851 C 60.819 47.153,61.674 48.022,62.712 48.782 C 66.758 51.743,72.395 57.993,76.376 63.933 C 78.067 66.455,82.000 73.104,82.000 73.440 C 82.000 73.537,82.720 75.139,83.600 77.000 C 84.480 78.861,85.200 80.621,85.200 80.912 C 85.200 81.202,85.353 81.611,85.540 81.820 C 87.683 84.213,91.914 103.506,92.804 114.936 C 93.326 121.649,93.322 199.877,92.800 200.200 C 92.262 200.533,92.246 375.650,92.784 377.372 C 92.995 378.047,93.395 379.455,93.671 380.500 C 93.948 381.545,94.315 382.400,94.487 382.400 C 94.659 382.400,94.800 382.760,94.800 383.200 C 94.800 383.640,94.980 384.000,95.200 384.000 C 95.420 384.000,95.600 384.270,95.600 384.600 C 95.600 384.930,95.780 385.200,96.000 385.200 C 96.220 385.200,96.400 385.385,96.400 385.611 C 96.400 386.756,102.268 391.600,103.656 391.600 C 104.065 391.600,104.400 391.780,104.400 392.000 C 104.400 392.220,104.760 392.400,105.200 392.400 C 105.640 392.400,106.000 392.580,106.000 392.800 C 106.000 393.020,106.720 393.200,107.600 393.200 C 108.480 393.200,109.200 393.380,109.200 393.600 C 109.200 393.865,139.733 394.000,200.000 394.000 C 260.267 394.000,290.800 393.865,290.800 393.600 C 290.800 393.380,291.520 393.200,292.400 393.200 C 293.280 393.200,294.000 393.020,294.000 392.800 C 294.000 392.580,294.360 392.400,294.800 392.400 C 295.240 392.400,295.600 392.220,295.600 392.000 C 295.600 391.780,295.905 391.600,296.278 391.600 C 297.620 391.600,303.600 386.708,303.600 385.611 C 303.600 385.385,303.780 385.200,304.000 385.200 C 304.220 385.200,304.400 384.930,304.400 384.600 C 304.400 384.270,304.580 384.000,304.800 384.000 C 305.020 384.000,305.200 383.640,305.200 383.200 C 305.200 382.760,305.341 382.400,305.513 382.400 C 305.685 382.400,306.051 381.545,306.326 380.500 C 306.601 379.455,306.999 378.068,307.210 377.417 C 307.769 375.691,307.739 200.849,307.179 200.175 C 306.243 199.047,306.932 113.417,307.927 107.200 C 309.975 94.414,312.640 84.974,316.576 76.570 C 317.359 74.897,318.000 73.469,318.000 73.396 C 318.000 73.095,322.048 66.283,323.624 63.933 C 327.527 58.109,332.007 53.101,336.800 49.201 C 338.010 48.217,339.115 47.250,339.255 47.054 C 339.396 46.858,339.756 46.843,340.055 47.021 C 341.066 47.622,338.213 44.944,336.802 43.968 C 334.983 42.709,333.500 41.871,330.800 40.577 C 329.590 39.997,327.908 39.180,327.062 38.761 C 326.216 38.343,325.271 38.000,324.962 38.000 C 324.653 38.000,324.400 37.820,324.400 37.600 C 324.400 37.380,324.130 37.200,323.800 37.200 C 323.470 37.200,323.200 37.020,323.200 36.800 C 323.200 36.580,322.840 36.400,322.400 36.400 C 321.960 36.400,321.599 36.265,321.597 36.100 C 321.595 35.935,321.190 35.601,320.697 35.359 C 320.204 35.116,318.747 34.351,317.459 33.659 C 316.172 32.966,314.882 32.400,314.593 32.400 C 314.303 32.400,314.007 32.263,313.933 32.095 C 313.753 31.683,299.932 24.788,299.300 24.795 C 299.025 24.798,298.800 24.620,298.800 24.400 C 298.800 24.180,298.440 24.000,298.000 24.000 C 297.560 24.000,297.200 23.820,297.200 23.600 C 297.200 23.380,296.840 23.200,296.400 23.200 C 295.960 23.200,295.600 23.020,295.600 22.800 C 295.600 22.580,295.240 22.400,294.800 22.400 C 294.360 22.400,294.000 22.220,294.000 22.000 C 294.000 21.780,293.640 21.600,293.200 21.600 C 292.760 21.600,292.400 21.420,292.400 21.200 C 292.400 20.980,292.040 20.800,291.600 20.800 C 291.160 20.800,290.799 20.665,290.797 20.500 C 290.793 20.141,288.856 19.200,288.120 19.200 C 287.834 19.200,287.600 19.054,287.600 18.875 C 287.600 18.696,286.970 18.302,286.200 18.000 C 285.430 17.698,284.800 17.304,284.800 17.125 C 284.800 16.946,284.440 16.800,284.000 16.800 C 283.560 16.800,283.200 16.620,283.200 16.400 C 283.200 16.180,282.840 16.000,282.400 16.000 C 281.960 16.000,281.600 15.820,281.600 15.600 C 281.600 15.380,281.240 15.200,280.800 15.200 C 280.360 15.200,280.000 15.020,280.000 14.800 C 280.000 14.580,279.640 14.400,279.200 14.400 C 278.760 14.400,278.400 14.220,278.400 14.000 C 278.400 13.780,278.040 13.600,277.600 13.600 C 277.160 13.600,276.800 13.420,276.800 13.200 C 276.800 12.980,276.440 12.800,276.000 12.800 C 275.560 12.800,275.200 12.620,275.200 12.400 C 275.200 12.180,274.840 12.000,274.400 12.000 C 273.960 12.000,273.600 11.820,273.600 11.600 C 273.600 11.380,273.375 11.199,273.100 11.198 C 272.825 11.197,271.374 10.567,269.876 9.798 C 268.377 9.029,266.892 8.400,266.576 8.400 C 266.259 8.400,266.000 8.220,266.000 8.000 C 266.000 7.780,265.640 7.600,265.200 7.600 C 264.760 7.600,264.400 7.420,264.400 7.200 C 264.400 6.980,263.948 6.800,263.395 6.800 C 262.842 6.800,262.040 6.582,261.613 6.315 C 260.559 5.657,260.526 5.726,260.033 9.601 C 259.523 13.604,258.853 17.400,258.410 18.800 C 258.235 19.350,257.871 20.610,257.601 21.600 C 257.330 22.590,256.925 23.850,256.701 24.400 C 256.477 24.950,256.161 25.760,256.000 26.200 C 245.908 53.758,212.422 67.032,177.800 57.199 C 176.920 56.949,175.792 56.645,175.294 56.524 C 174.796 56.403,174.290 56.146,174.170 55.952 C 174.051 55.759,173.676 55.600,173.337 55.600 C 172.236 55.600,165.885 52.316,162.349 49.919 C 154.965 44.914,147.587 35.636,144.439 27.400 C 143.935 26.080,143.378 24.640,143.202 24.200 C 141.759 20.600,139.600 9.889,139.600 6.336 C 139.600 5.895,139.144 5.919,138.400 6.400 " stroke="none" fill="#4c94fc" fill-rule="evenodd"></path></g></svg>