<svg id="svg" version="1.1" xmlns="http://www.w3.org/2000/svg" xmlns:xlink="http://www.w3.org/1999/xlink" width="400" height="400" viewBox="0, 0, 400,400"><g id="svgg"><path id="path0" d="M266.397 9.589 C 267.354 10.195,266.558 10.631,261.400 12.325 C 239.412 19.549,222.099 35.406,207.018 62.133 L 205.927 64.067 204.613 61.454 C 203.153 58.553,202.366 57.600,201.429 57.600 C 201.083 57.600,200.800 57.420,200.800 57.200 C 200.800 56.016,196.475 57.170,195.063 58.731 C 194.228 59.653,189.600 68.752,189.600 69.470 C 189.600 69.762,189.420 70.000,189.200 70.000 C 188.980 70.000,188.800 70.360,188.800 70.800 C 188.800 71.240,188.620 71.600,188.400 71.600 C 188.180 71.600,188.000 71.960,188.000 72.400 C 188.000 72.840,187.820 73.200,187.600 73.200 C 187.380 73.200,187.200 73.445,187.200 73.745 C 187.200 74.718,185.153 76.400,183.969 76.400 C 183.352 76.400,182.719 76.608,182.561 76.862 C 182.129 77.563,184.786 76.946,186.000 76.065 C 186.619 75.615,188.554 72.221,191.079 67.155 C 196.087 57.105,197.300 56.010,201.209 58.004 C 202.675 58.753,203.073 59.389,206.893 67.104 C 211.932 77.280,211.236 76.707,220.021 77.930 C 231.958 79.593,233.278 80.077,233.825 82.993 C 234.344 85.762,233.851 86.508,227.133 93.111 C 219.486 100.625,219.382 100.813,220.231 105.538 C 220.573 107.442,221.012 109.990,221.207 111.200 C 221.401 112.410,221.748 114.480,221.978 115.800 C 223.410 124.028,219.927 126.583,212.641 122.651 C 199.378 115.495,199.129 115.424,194.941 117.637 C 183.952 123.442,181.203 124.800,180.439 124.800 C 179.198 124.800,177.416 123.800,176.435 122.554 C 175.976 121.970,175.600 121.705,175.600 121.964 C 175.600 123.085,178.603 125.200,180.195 125.200 C 181.264 125.200,181.489 125.881,180.822 127.105 C 180.613 127.487,179.333 130.680,177.977 134.200 C 175.345 141.031,174.976 142.009,169.569 156.500 C 168.891 158.315,168.005 160.790,167.600 162.000 C 167.195 163.210,166.296 165.730,165.604 167.600 C 164.411 170.819,157.200 191.986,157.200 192.266 C 157.200 192.338,156.615 192.668,155.900 192.999 L 154.600 193.601 156.070 193.388 C 171.137 191.207,171.331 191.160,172.409 189.441 C 173.000 188.499,177.847 178.771,179.142 175.927 C 180.379 173.213,182.010 172.000,184.424 172.000 C 187.405 172.000,188.224 172.997,192.525 181.864 C 197.543 192.209,196.046 191.117,207.457 192.757 C 216.310 194.029,217.339 194.359,218.685 196.359 C 220.634 199.255,220.120 200.168,212.043 208.145 C 204.260 215.832,204.671 214.492,206.611 225.870 C 208.298 235.761,208.212 236.751,205.524 238.390 C 203.504 239.621,202.435 239.405,197.321 236.734 C 183.008 229.257,186.179 229.308,172.692 236.332 C 165.881 239.878,164.725 240.019,162.300 237.594 L 160.693 235.988 160.943 233.294 C 161.180 230.727,161.468 228.870,162.427 223.700 C 162.661 222.435,162.950 219.909,163.068 218.087 L 163.283 214.773 156.850 208.287 C 153.311 204.719,150.148 201.440,149.821 201.000 C 148.198 198.820,149.944 194.772,152.774 194.154 C 154.500 193.777,154.648 193.664,153.462 193.632 C 148.649 193.498,147.368 199.384,151.317 203.487 L 152.941 205.174 152.454 207.087 C 152.187 208.139,151.795 209.585,151.584 210.300 C 151.164 211.721,150.632 213.575,149.977 215.900 C 149.745 216.725,149.401 217.940,149.214 218.600 C 144.501 235.167,140.284 254.228,137.663 270.800 C 136.380 278.915,136.113 281.120,134.784 294.544 C 134.548 296.933,134.269 304.489,134.165 311.336 C 134.055 318.575,133.814 323.946,133.588 324.172 C 133.011 324.749,133.118 326.512,133.814 327.907 C 134.151 328.584,134.610 330.727,134.833 332.669 C 135.814 341.227,136.093 343.231,136.824 347.019 C 137.251 349.230,137.600 351.423,137.600 351.892 C 137.600 352.868,137.835 352.963,142.200 353.762 C 143.960 354.083,145.850 354.464,146.400 354.608 C 146.964 354.756,147.209 354.724,146.961 354.535 C 146.515 354.194,146.618 352.942,147.578 347.000 C 148.374 342.078,148.330 341.995,141.361 335.276 C 134.346 328.513,133.248 326.890,134.063 324.480 C 135.039 321.596,135.904 321.056,140.600 320.400 C 141.920 320.215,144.350 319.864,146.000 319.619 C 147.650 319.374,150.080 319.035,151.400 318.866 C 156.181 318.253,156.316 318.112,160.828 309.001 C 163.035 304.547,165.289 300.480,165.837 299.965 C 167.290 298.600,170.728 298.626,172.238 300.014 C 173.184 300.884,180.400 314.914,180.400 315.883 C 180.400 317.326,183.255 318.513,188.400 319.210 C 202.555 321.125,204.000 321.741,204.000 325.855 L 204.000 327.722 197.356 334.409 C 188.729 343.091,189.247 341.685,191.000 351.679 C 191.550 354.814,192.000 357.546,192.000 357.750 C 192.000 358.144,181.484 357.850,172.800 357.213 C 162.052 356.424,161.044 356.378,161.349 356.684 C 161.522 356.858,163.584 357.121,165.932 357.268 C 168.279 357.416,173.800 357.764,178.200 358.041 C 196.212 359.176,231.337 357.746,248.200 355.192 C 249.520 354.992,251.950 354.627,253.600 354.380 C 255.250 354.134,257.410 353.782,258.400 353.597 C 259.390 353.412,261.370 353.055,262.800 352.804 C 264.230 352.552,266.120 352.187,267.000 351.991 C 272.723 350.719,276.801 349.703,281.000 348.503 C 283.640 347.748,286.340 346.984,287.000 346.806 C 297.606 343.931,310.980 336.724,316.315 331.006 C 321.389 325.567,322.181 322.441,320.242 315.500 C 319.889 314.235,319.342 312.255,319.028 311.100 C 318.713 309.945,318.087 307.650,317.637 306.000 C 317.187 304.350,316.815 301.875,316.809 300.500 C 316.804 299.106,316.623 298.000,316.400 298.000 C 316.180 298.000,316.000 297.370,316.000 296.600 C 316.000 295.830,315.820 295.200,315.600 295.200 C 315.380 295.200,315.200 294.581,315.200 293.824 C 315.200 293.067,315.020 292.336,314.800 292.200 C 314.580 292.064,314.400 291.423,314.400 290.776 C 314.400 290.129,314.220 289.600,314.000 289.600 C 313.780 289.600,313.600 288.880,313.600 288.000 C 313.600 287.120,313.420 286.400,313.200 286.400 C 312.980 286.400,312.800 285.781,312.800 285.024 C 312.800 284.267,312.620 283.536,312.400 283.400 C 312.180 283.264,312.000 282.634,312.000 282.000 C 312.000 281.366,311.820 280.736,311.600 280.600 C 311.380 280.464,311.200 279.733,311.200 278.976 C 311.200 278.219,311.020 277.600,310.800 277.600 C 310.580 277.600,310.400 276.970,310.400 276.200 C 310.400 275.430,310.220 274.800,310.000 274.800 C 309.780 274.800,309.600 274.080,309.600 273.200 C 309.600 272.320,309.420 271.600,309.200 271.600 C 308.980 271.600,308.800 270.880,308.800 270.000 C 308.800 269.120,308.620 268.400,308.400 268.400 C 308.180 268.400,307.998 267.905,307.995 267.300 C 307.993 266.695,307.614 264.760,307.153 263.000 C 306.692 261.240,306.225 259.213,306.114 258.496 C 306.002 257.779,305.751 257.094,305.556 256.973 C 305.360 256.852,305.200 256.144,305.200 255.400 C 305.200 254.656,305.020 253.936,304.800 253.800 C 304.580 253.664,304.400 252.944,304.400 252.200 C 304.400 251.456,304.220 250.736,304.000 250.600 C 303.780 250.464,303.600 249.834,303.600 249.200 C 303.600 248.566,303.420 247.936,303.200 247.800 C 302.980 247.664,302.800 246.933,302.800 246.176 C 302.800 245.419,302.620 244.800,302.400 244.800 C 302.180 244.800,302.000 244.181,302.000 243.424 C 302.000 242.667,301.820 241.936,301.600 241.800 C 301.380 241.664,301.200 240.933,301.200 240.176 C 301.200 239.419,301.020 238.800,300.800 238.800 C 300.580 238.800,300.400 238.080,300.400 237.200 C 300.400 236.320,300.220 235.600,300.000 235.600 C 299.780 235.600,299.600 234.880,299.600 234.000 C 299.600 233.120,299.420 232.400,299.200 232.400 C 298.980 232.400,298.800 231.781,298.800 231.024 C 298.800 230.267,298.620 229.536,298.400 229.400 C 298.180 229.264,298.000 228.533,298.000 227.776 C 298.000 227.019,297.820 226.400,297.600 226.400 C 297.380 226.400,297.200 225.680,297.200 224.800 C 297.200 223.920,297.020 223.200,296.800 223.200 C 296.580 223.200,296.400 222.480,296.400 221.600 C 296.400 220.720,296.220 220.000,296.000 220.000 C 295.780 220.000,295.600 219.280,295.600 218.400 C 295.600 217.520,295.420 216.800,295.200 216.800 C 294.980 216.800,294.800 216.080,294.800 215.200 C 294.800 214.320,294.620 213.600,294.400 213.600 C 294.180 213.600,294.000 212.981,294.000 212.224 C 294.000 211.467,293.820 210.736,293.600 210.600 C 293.380 210.464,293.200 209.733,293.200 208.976 C 293.200 208.219,293.020 207.600,292.800 207.600 C 292.580 207.600,292.400 206.880,292.400 206.000 C 292.400 205.120,292.220 204.400,292.000 204.400 C 291.780 204.400,291.600 203.887,291.600 203.261 C 291.600 202.285,290.998 199.225,289.620 193.200 C 289.108 190.960,288.766 190.400,287.911 190.400 C 287.470 190.400,285.554 189.558,283.654 188.529 C 272.967 182.741,275.217 182.604,261.677 189.869 C 255.413 193.230,253.580 193.337,251.189 190.486 C 249.705 188.716,249.710 188.538,251.597 178.000 C 253.369 168.103,253.652 168.935,245.985 161.447 C 242.502 158.045,239.355 154.686,238.991 153.983 C 237.309 150.730,240.388 146.800,244.618 146.800 C 245.345 146.800,246.808 146.629,247.869 146.419 C 248.931 146.210,251.150 145.839,252.800 145.594 C 261.716 144.274,260.851 144.997,265.985 134.565 C 269.755 126.906,270.499 125.861,272.600 125.276 C 273.980 124.892,274.095 123.808,273.222 119.400 C 272.961 118.080,272.652 116.190,272.535 115.200 C 272.418 114.210,272.160 113.229,271.961 113.020 C 271.763 112.811,271.600 111.787,271.600 110.744 C 271.600 109.701,271.420 108.736,271.200 108.600 C 270.980 108.464,270.800 107.474,270.800 106.400 C 270.800 105.326,270.620 104.336,270.400 104.200 C 270.180 104.064,270.000 102.894,270.000 101.600 C 270.000 100.306,269.820 99.136,269.600 99.000 C 269.380 98.864,269.200 97.694,269.200 96.400 C 269.200 95.106,269.020 93.936,268.800 93.800 C 268.580 93.664,268.400 92.303,268.400 90.776 C 268.400 89.192,268.228 88.000,268.000 88.000 C 267.754 88.000,267.600 86.008,267.600 82.824 C 267.600 79.508,267.443 77.550,267.162 77.377 C 266.889 77.208,266.821 76.486,266.980 75.453 C 267.121 74.544,267.335 72.855,267.455 71.700 C 267.575 70.545,267.837 69.600,268.037 69.600 C 268.237 69.600,268.400 69.412,268.400 69.182 C 268.400 68.277,271.402 66.000,272.595 66.000 C 272.928 66.000,273.200 65.820,273.200 65.600 C 273.200 65.380,273.639 65.200,274.176 65.200 C 274.713 65.200,275.264 65.020,275.400 64.800 C 275.536 64.580,276.267 64.400,277.024 64.400 C 277.781 64.400,278.400 64.220,278.400 64.000 C 278.400 63.780,278.940 63.600,279.600 63.600 C 280.260 63.600,280.800 63.420,280.800 63.200 C 280.800 62.980,281.520 62.800,282.400 62.800 C 283.280 62.800,284.000 62.620,284.000 62.400 C 284.000 62.180,284.720 62.000,285.600 62.000 C 286.480 62.000,287.200 61.820,287.200 61.600 C 287.200 61.380,287.819 61.200,288.576 61.200 C 289.333 61.200,290.064 61.020,290.200 60.800 C 290.336 60.580,291.067 60.400,291.824 60.400 C 292.581 60.400,293.200 60.220,293.200 60.000 C 293.200 59.780,293.740 59.600,294.400 59.600 C 295.060 59.600,295.600 59.420,295.600 59.200 C 295.600 58.980,296.140 58.800,296.800 58.800 C 297.460 58.800,298.000 58.620,298.000 58.400 C 298.000 58.180,298.469 58.000,299.042 58.000 C 301.531 58.000,308.000 53.530,308.000 51.811 C 308.000 51.475,308.180 51.200,308.400 51.200 C 308.620 51.200,308.800 50.660,308.800 50.000 C 308.800 49.340,308.980 48.800,309.200 48.800 C 309.420 48.800,309.600 48.361,309.600 47.824 C 309.600 47.287,309.420 46.736,309.200 46.600 C 308.980 46.464,308.800 45.857,308.800 45.251 C 308.800 44.069,307.111 40.254,306.172 39.314 C 305.857 39.000,305.600 38.587,305.600 38.397 C 305.600 37.959,298.061 30.400,297.625 30.400 C 297.447 30.400,296.513 29.680,295.551 28.800 C 294.588 27.920,293.693 27.200,293.561 27.200 C 293.352 27.200,292.677 26.692,290.917 25.207 C 290.651 24.983,290.312 24.800,290.164 24.800 C 290.015 24.800,289.603 24.484,289.247 24.097 C 288.891 23.711,288.105 23.140,287.500 22.830 C 286.895 22.519,286.400 22.115,286.400 21.932 C 286.400 21.750,286.130 21.600,285.800 21.600 C 285.470 21.600,285.200 21.420,285.200 21.200 C 285.200 20.980,285.012 20.800,284.783 20.800 C 284.554 20.800,283.980 20.440,283.508 20.000 C 283.036 19.560,282.413 19.200,282.125 19.200 C 281.836 19.200,281.600 19.042,281.600 18.849 C 281.600 18.655,281.060 18.273,280.400 18.000 C 279.740 17.727,279.200 17.345,279.200 17.151 C 279.200 16.958,278.880 16.800,278.488 16.800 C 278.097 16.800,277.517 16.440,277.200 16.000 C 276.883 15.560,276.386 15.200,276.095 15.200 C 275.804 15.200,275.180 14.840,274.708 14.400 C 274.236 13.960,273.613 13.600,273.325 13.600 C 273.036 13.600,272.800 13.420,272.800 13.200 C 272.800 12.980,272.607 12.800,272.372 12.800 C 272.137 12.800,271.159 12.260,270.200 11.600 C 269.241 10.940,268.285 10.400,268.077 10.400 C 267.868 10.400,267.474 10.130,267.200 9.800 C 266.926 9.470,266.499 9.203,266.251 9.206 C 266.003 9.209,266.068 9.382,266.397 9.589 M177.396 77.607 C 177.230 77.876,177.933 77.925,179.472 77.751 C 182.519 77.408,182.676 77.200,179.890 77.200 C 178.657 77.200,177.534 77.383,177.396 77.607 M172.000 78.416 C 171.582 78.697,172.067 78.739,173.600 78.555 C 174.810 78.410,175.875 78.226,175.967 78.146 C 176.370 77.793,172.538 78.054,172.000 78.416 M166.375 79.429 C 164.905 80.208,164.120 81.199,163.705 82.800 C 162.965 85.655,163.595 86.648,170.339 93.260 C 173.782 96.637,176.906 99.850,177.279 100.400 C 177.676 100.985,177.967 101.165,177.979 100.835 C 177.991 100.525,174.850 97.089,171.000 93.200 C 164.042 86.171,164.000 86.119,164.000 84.350 C 164.000 81.889,165.505 80.114,168.204 79.390 C 170.039 78.897,170.087 78.855,168.800 78.869 C 168.030 78.878,166.939 79.130,166.375 79.429 M177.449 104.215 C 177.312 104.573,177.221 105.616,177.247 106.533 C 177.293 108.184,177.297 108.179,177.652 106.039 C 178.012 103.870,177.915 103.001,177.449 104.215 M176.667 108.667 C 176.520 108.813,176.421 109.848,176.447 110.967 L 176.494 113.000 176.852 110.839 C 177.211 108.677,177.167 108.166,176.667 108.667 M175.867 113.467 C 175.720 113.613,175.600 114.593,175.600 115.643 C 175.600 116.693,175.420 117.664,175.200 117.800 C 174.695 118.112,174.670 121.200,175.173 121.200 C 175.379 121.200,175.543 120.705,175.538 120.100 C 175.533 119.495,175.717 117.747,175.946 116.215 C 176.367 113.408,176.355 112.979,175.867 113.467 M98.000 220.304 C 98.000 220.471,98.344 220.822,98.764 221.085 C 99.184 221.347,101.153 224.883,103.140 228.942 C 106.924 236.675,108.261 238.400,110.471 238.400 C 111.019 238.400,112.442 238.569,113.633 238.776 C 114.825 238.983,117.104 239.347,118.698 239.585 C 125.940 240.667,127.036 240.927,128.283 241.858 C 129.695 242.911,130.257 244.717,129.809 246.759 C 129.617 247.635,127.680 249.818,122.980 254.456 C 115.614 261.726,115.281 262.271,115.994 265.896 C 116.243 267.163,116.608 269.100,116.805 270.200 C 117.002 271.300,117.386 273.370,117.658 274.800 C 118.931 281.480,118.247 284.320,115.090 285.470 C 113.810 285.935,113.809 285.939,114.887 285.970 C 115.623 285.990,116.429 285.544,117.387 284.587 C 119.208 282.765,119.232 281.326,117.600 271.734 C 115.788 261.083,115.192 262.718,124.030 254.087 C 130.782 247.494,131.445 246.362,130.191 243.581 C 129.009 240.960,128.019 240.470,122.100 239.577 C 115.593 238.596,114.454 238.434,112.400 238.197 C 110.140 237.938,108.607 237.385,107.662 236.490 C 107.150 236.005,100.415 222.663,100.387 222.079 C 100.341 221.125,98.000 219.384,98.000 220.304 M261.716 253.537 C 262.672 254.431,264.788 258.449,269.506 268.331 C 270.734 270.903,271.768 271.641,274.739 272.067 C 291.667 274.491,291.500 274.442,292.945 277.351 C 294.240 279.958,293.338 281.444,286.546 287.885 C 278.575 295.445,278.380 295.907,280.000 303.400 C 280.190 304.280,280.531 306.080,280.758 307.400 C 280.984 308.720,281.386 310.994,281.649 312.453 C 282.310 316.113,280.037 319.632,277.041 319.587 C 276.166 319.574,275.825 319.411,265.492 314.064 C 258.172 310.276,258.586 310.342,254.755 312.347 C 239.175 320.501,239.368 320.434,236.933 318.576 C 235.421 317.423,234.262 315.064,234.634 313.894 C 234.769 313.467,235.042 312.101,235.239 310.858 C 235.732 307.759,236.336 304.189,236.774 301.800 C 237.973 295.250,238.341 296.011,230.085 287.957 C 223.360 281.396,222.845 280.620,223.367 277.833 C 223.838 275.326,225.837 274.198,231.000 273.527 C 232.760 273.298,235.190 272.961,236.400 272.778 C 237.610 272.595,239.590 272.333,240.800 272.195 C 245.364 271.675,245.603 271.420,250.220 262.170 C 252.347 257.909,254.531 253.978,255.074 253.435 C 256.717 251.792,259.903 251.841,261.716 253.537 M89.818 279.400 C 87.447 280.610,85.168 281.600,84.754 281.600 C 84.339 281.600,84.000 281.780,84.000 282.000 C 84.000 282.762,85.082 282.389,89.800 280.000 C 95.891 276.916,93.739 276.526,106.058 282.947 C 109.279 284.626,112.249 285.986,112.658 285.968 C 113.140 285.948,112.979 285.785,112.200 285.503 C 111.540 285.265,110.280 284.674,109.400 284.191 C 106.797 282.761,99.119 278.714,97.519 277.928 C 95.315 276.844,94.531 276.994,89.818 279.400 M148.800 355.176 C 149.339 355.546,153.568 355.811,153.167 355.450 C 153.075 355.368,151.920 355.180,150.600 355.032 C 148.904 354.843,148.376 354.886,148.800 355.176 M154.400 356.003 C 154.942 356.351,161.162 356.598,160.767 356.256 C 160.675 356.176,159.070 356.000,157.200 355.865 C 154.962 355.702,154.005 355.749,154.400 356.003 " stroke="none" fill="#60b8ff" fill-rule="evenodd"></path><path id="path1" d="M196.668 58.106 C 195.297 58.901,194.721 59.834,191.160 67.043 C 185.954 77.578,187.192 76.669,175.951 78.207 C 165.564 79.627,164.000 80.441,164.000 84.426 C 164.000 86.096,164.137 86.267,171.000 93.200 L 178.000 100.271 177.999 102.235 C 177.998 103.316,177.629 106.360,177.178 109.000 C 174.980 121.866,174.995 122.111,178.122 124.018 C 180.384 125.397,179.913 125.576,194.941 117.637 C 199.129 115.424,199.378 115.495,212.641 122.651 C 219.927 126.583,223.410 124.028,221.978 115.800 C 221.748 114.480,221.401 112.410,221.207 111.200 C 221.012 109.990,220.573 107.442,220.231 105.538 C 219.382 100.812,219.485 100.627,227.150 93.094 C 233.927 86.433,234.428 85.661,233.809 82.842 C 233.199 80.063,231.830 79.575,220.021 77.930 C 211.236 76.707,211.932 77.280,206.893 67.104 C 201.879 56.978,200.583 55.837,196.668 58.106 M272.600 125.241 C 270.478 125.893,269.742 126.931,265.985 134.565 C 260.851 144.997,261.716 144.274,252.800 145.594 C 251.150 145.839,248.931 146.210,247.869 146.419 C 246.808 146.629,245.345 146.800,244.618 146.800 C 240.388 146.800,237.309 150.730,238.991 153.983 C 239.355 154.686,242.502 158.045,245.985 161.447 C 253.652 168.935,253.369 168.103,251.597 178.000 C 249.710 188.538,249.705 188.716,251.189 190.486 C 253.580 193.337,255.413 193.230,261.677 189.869 C 275.217 182.604,272.967 182.741,283.654 188.529 C 287.808 190.779,288.800 190.908,288.800 189.200 C 288.800 188.540,288.620 188.000,288.400 188.000 C 288.180 188.000,288.000 187.280,288.000 186.400 C 288.000 185.520,287.820 184.800,287.600 184.800 C 287.380 184.800,287.200 184.080,287.200 183.200 C 287.200 182.320,287.020 181.600,286.800 181.600 C 286.580 181.600,286.400 180.891,286.400 180.024 C 286.400 179.157,286.220 178.336,286.000 178.200 C 285.780 178.064,285.600 177.243,285.600 176.376 C 285.600 175.509,285.420 174.800,285.200 174.800 C 284.980 174.800,284.800 174.080,284.800 173.200 C 284.800 172.320,284.620 171.600,284.400 171.600 C 284.180 171.600,284.000 170.891,284.000 170.024 C 284.000 169.157,283.820 168.336,283.600 168.200 C 283.380 168.064,283.200 167.153,283.200 166.176 C 283.200 165.199,283.020 164.400,282.800 164.400 C 282.580 164.400,282.400 163.680,282.400 162.800 C 282.400 161.920,282.220 161.200,282.000 161.200 C 281.780 161.200,281.600 160.390,281.600 159.400 C 281.600 158.410,281.420 157.600,281.200 157.600 C 280.980 157.600,280.800 156.880,280.800 156.000 C 280.800 155.120,280.620 154.400,280.400 154.400 C 280.180 154.400,280.000 153.601,280.000 152.624 C 280.000 151.647,279.820 150.736,279.600 150.600 C 279.380 150.464,279.200 149.643,279.200 148.776 C 279.200 147.909,279.020 147.200,278.800 147.200 C 278.580 147.200,278.400 146.401,278.400 145.424 C 278.400 144.447,278.220 143.536,278.000 143.400 C 277.780 143.264,277.600 142.454,277.600 141.600 C 277.600 140.746,277.420 139.936,277.200 139.800 C 276.980 139.664,276.800 138.843,276.800 137.976 C 276.800 137.109,276.620 136.400,276.400 136.400 C 276.180 136.400,276.000 135.500,276.000 134.400 C 276.000 133.300,275.846 132.400,275.658 132.400 C 275.469 132.400,275.195 130.965,275.049 129.211 C 274.777 125.945,274.511 124.772,274.057 124.836 C 273.916 124.856,273.260 125.038,272.600 125.241 M181.221 173.044 C 180.538 173.618,179.603 174.916,179.142 175.927 C 177.808 178.857,172.991 188.512,172.372 189.500 C 171.512 190.872,169.860 191.426,164.400 192.173 C 159.683 192.818,153.793 193.827,152.348 194.238 C 149.843 194.950,148.331 198.997,149.821 201.000 C 150.148 201.440,153.311 204.719,156.850 208.287 L 163.283 214.773 163.068 218.087 C 162.950 219.909,162.661 222.435,162.427 223.700 C 161.468 228.870,161.180 230.727,160.943 233.294 L 160.693 235.988 162.300 237.594 C 164.725 240.019,165.881 239.878,172.692 236.332 C 186.179 229.308,183.008 229.257,197.321 236.734 C 202.435 239.405,203.504 239.621,205.524 238.390 C 208.212 236.751,208.298 235.761,206.611 225.870 C 204.671 214.492,204.260 215.832,212.043 208.145 C 220.120 200.168,220.634 199.255,218.685 196.359 C 217.339 194.359,216.310 194.029,207.457 192.757 C 196.046 191.117,197.543 192.209,192.525 181.864 C 188.224 172.997,187.405 172.000,184.424 172.000 C 182.892 172.000,182.189 172.229,181.221 173.044 M97.696 221.595 C 97.423 222.032,97.200 222.932,97.200 223.595 C 97.200 224.258,97.020 224.800,96.800 224.800 C 96.580 224.800,96.400 225.419,96.400 226.176 C 96.400 226.933,96.220 227.664,96.000 227.800 C 95.780 227.936,95.600 228.566,95.600 229.200 C 95.600 229.834,95.440 230.452,95.244 230.573 C 95.049 230.694,94.792 231.379,94.673 232.096 C 94.555 232.813,94.265 234.165,94.029 235.100 C 92.586 240.818,91.586 245.537,91.314 247.900 C 91.207 248.835,90.958 249.600,90.760 249.600 C 90.562 249.600,90.400 250.320,90.400 251.200 C 90.400 252.080,90.220 252.800,90.000 252.800 C 89.780 252.800,89.600 253.700,89.600 254.800 C 89.600 255.900,89.420 256.800,89.200 256.800 C 88.980 256.800,88.800 257.520,88.800 258.400 C 88.800 259.280,88.620 260.000,88.400 260.000 C 88.180 260.000,88.000 260.810,88.000 261.800 C 88.000 262.790,87.820 263.600,87.600 263.600 C 87.380 263.600,87.200 264.410,87.200 265.400 C 87.200 266.390,87.020 267.200,86.800 267.200 C 86.580 267.200,86.400 267.999,86.400 268.976 C 86.400 269.953,86.220 270.864,86.000 271.000 C 85.780 271.136,85.600 272.126,85.600 273.200 C 85.600 274.274,85.420 275.264,85.200 275.400 C 84.980 275.536,84.800 276.447,84.800 277.424 C 84.800 278.401,84.620 279.200,84.400 279.200 C 84.180 279.200,84.000 279.740,84.000 280.400 C 84.000 282.110,84.768 281.978,89.818 279.400 C 94.531 276.994,95.315 276.844,97.519 277.928 C 99.066 278.688,106.639 282.677,109.400 284.187 C 116.450 288.041,119.516 284.555,117.658 274.800 C 117.386 273.370,117.002 271.300,116.805 270.200 C 116.608 269.100,116.243 267.163,115.994 265.896 C 115.281 262.270,115.613 261.727,122.996 254.440 C 130.840 246.698,131.776 244.463,128.267 241.846 C 127.038 240.929,125.916 240.664,118.698 239.585 C 117.104 239.347,114.825 238.983,113.633 238.776 C 112.442 238.569,111.019 238.400,110.471 238.400 C 108.283 238.400,106.927 236.669,103.318 229.265 C 99.085 220.582,98.677 220.025,97.696 221.595 M257.131 252.324 C 255.348 252.530,254.252 254.092,250.220 262.170 C 245.603 271.420,245.364 271.675,240.800 272.195 C 239.590 272.333,237.610 272.595,236.400 272.778 C 235.190 272.961,232.760 273.298,231.000 273.527 C 225.837 274.198,223.838 275.326,223.367 277.833 C 222.845 280.620,223.360 281.396,230.085 287.957 C 238.341 296.011,237.973 295.250,236.774 301.800 C 236.336 304.189,235.732 307.759,235.239 310.858 C 235.042 312.101,234.769 313.467,234.634 313.894 C 234.262 315.064,235.421 317.423,236.933 318.576 C 239.368 320.434,239.175 320.501,254.755 312.347 C 258.586 310.342,258.172 310.276,265.492 314.064 C 275.825 319.411,276.166 319.574,277.041 319.587 C 280.037 319.632,282.310 316.113,281.649 312.453 C 281.386 310.994,280.984 308.720,280.758 307.400 C 280.531 306.080,280.190 304.280,280.000 303.400 C 278.380 295.907,278.575 295.445,286.546 287.885 C 293.338 281.444,294.240 279.958,292.945 277.351 C 291.500 274.442,291.667 274.491,274.739 272.067 C 271.768 271.641,270.734 270.903,269.506 268.331 C 261.866 252.330,261.473 251.822,257.131 252.324 M167.400 299.069 C 165.798 299.491,164.766 301.052,160.828 309.001 C 156.316 318.112,156.181 318.253,151.400 318.866 C 150.080 319.035,147.650 319.374,146.000 319.619 C 144.350 319.864,141.920 320.215,140.600 320.400 C 135.904 321.056,135.039 321.596,134.063 324.480 C 133.248 326.890,134.346 328.513,141.361 335.276 C 148.330 341.995,148.374 342.078,147.578 347.000 C 146.827 351.649,146.505 354.191,146.647 354.358 C 147.679 355.565,192.000 358.881,192.000 357.751 C 192.000 357.547,191.550 354.814,191.000 351.679 C 189.247 341.685,188.729 343.091,197.356 334.409 L 204.000 327.722 204.000 325.855 C 204.000 321.741,202.555 321.125,188.400 319.210 C 183.255 318.513,180.400 317.326,180.400 315.883 C 180.400 314.980,173.218 300.915,172.351 300.120 C 171.374 299.224,168.848 298.688,167.400 299.069 " stroke="none" fill="#fbd217" fill-rule="evenodd"></path><path id="path2" d="M230.388 0.136 C 230.272 0.258,229.417 0.402,228.488 0.457 C 227.560 0.512,226.800 0.701,226.800 0.878 C 226.800 1.055,226.350 1.200,225.800 1.200 C 225.250 1.200,224.800 1.380,224.800 1.600 C 224.800 1.820,224.260 2.000,223.600 2.000 C 222.940 2.000,222.399 2.135,222.397 2.300 C 222.393 2.665,220.451 3.600,219.697 3.600 C 219.398 3.600,219.264 3.780,219.400 4.000 C 219.536 4.220,219.402 4.400,219.103 4.400 C 218.349 4.400,216.407 5.335,216.403 5.700 C 216.401 5.865,216.151 6.000,215.846 6.000 C 215.021 6.000,213.527 6.859,212.188 8.104 C 211.534 8.711,210.791 9.128,210.536 9.031 C 210.281 8.933,209.756 9.274,209.370 9.788 C 208.983 10.303,208.427 10.632,208.134 10.519 C 207.833 10.404,207.600 10.580,207.600 10.925 C 207.600 11.260,206.925 11.947,206.100 12.450 C 205.275 12.954,204.540 13.510,204.466 13.685 C 204.392 13.861,204.163 13.900,203.956 13.773 C 203.749 13.645,203.630 13.712,203.690 13.922 C 203.827 14.396,201.734 16.400,201.425 16.091 C 201.301 15.968,201.200 16.172,201.200 16.546 C 201.200 16.919,200.885 17.343,200.500 17.487 C 199.727 17.776,196.000 21.584,196.000 22.085 C 196.000 22.258,195.700 22.400,195.333 22.400 C 194.967 22.400,194.783 22.517,194.926 22.660 C 195.199 22.932,193.236 24.799,192.676 24.800 C 192.498 24.800,192.465 24.981,192.602 25.203 C 192.739 25.424,192.570 25.713,192.228 25.845 C 191.885 25.976,191.705 26.247,191.828 26.446 C 191.951 26.645,191.501 27.121,190.828 27.504 C 190.156 27.887,189.604 28.385,189.603 28.611 C 189.599 29.198,187.123 31.822,186.697 31.690 C 186.501 31.630,186.448 31.754,186.580 31.967 C 186.711 32.180,186.179 32.995,185.396 33.777 C 184.614 34.560,184.178 35.200,184.429 35.200 C 184.680 35.200,184.326 35.722,183.642 36.360 C 182.959 36.999,182.400 37.729,182.400 37.984 C 182.400 38.239,182.220 38.336,182.000 38.200 C 181.780 38.064,181.600 38.251,181.600 38.616 C 181.600 38.981,181.105 39.758,180.500 40.343 C 179.895 40.929,179.348 41.676,179.283 42.004 C 179.219 42.332,178.681 43.001,178.087 43.492 C 177.493 43.982,177.006 44.702,177.004 45.092 C 177.002 45.513,176.757 45.746,176.400 45.667 C 176.070 45.593,175.929 45.662,176.087 45.820 C 176.245 45.978,176.020 46.557,175.587 47.108 C 175.154 47.658,174.800 48.364,174.800 48.678 C 174.800 48.991,174.620 49.136,174.400 49.000 C 174.180 48.864,174.000 49.033,174.000 49.376 C 174.000 49.719,173.820 50.000,173.600 50.000 C 173.380 50.000,173.200 50.270,173.200 50.600 C 173.200 50.930,173.009 51.200,172.776 51.200 C 172.543 51.200,172.455 51.365,172.580 51.568 C 172.705 51.770,172.581 52.175,172.304 52.468 C 172.027 52.760,171.545 53.495,171.232 54.100 C 170.920 54.705,170.515 55.200,170.332 55.200 C 170.150 55.200,170.000 55.496,170.000 55.857 C 170.000 56.218,169.505 57.000,168.900 57.595 C 167.684 58.790,166.800 60.152,166.800 60.830 C 166.800 61.073,166.395 61.629,165.900 62.066 C 165.405 62.503,165.270 62.744,165.600 62.600 C 165.933 62.455,165.844 62.664,165.400 63.070 C 164.960 63.471,164.538 64.160,164.462 64.600 C 164.387 65.040,164.027 65.706,163.662 66.081 C 162.291 67.491,161.959 68.000,162.413 68.000 C 162.663 68.000,162.587 68.270,162.238 68.619 C 161.898 68.959,161.310 69.904,160.931 70.719 C 160.552 71.533,160.082 72.310,159.887 72.445 C 159.691 72.579,159.547 72.804,159.566 72.945 C 159.674 73.754,159.551 74.017,159.173 73.783 C 158.939 73.638,158.778 73.763,158.817 74.060 C 158.932 74.948,158.336 76.408,157.955 76.172 C 157.760 76.051,157.600 76.424,157.600 77.000 C 157.600 77.576,157.439 77.948,157.242 77.826 C 156.838 77.577,156.200 78.754,156.050 80.024 C 156.023 80.257,155.820 80.336,155.600 80.200 C 155.253 79.986,154.991 81.143,155.163 82.130 C 155.194 82.311,155.035 82.345,154.810 82.206 C 154.579 82.064,154.400 82.323,154.400 82.800 C 154.400 83.266,154.242 83.550,154.049 83.430 C 153.855 83.311,153.594 83.728,153.468 84.358 C 153.342 84.988,152.991 85.752,152.687 86.056 C 152.383 86.359,152.014 87.089,151.867 87.676 C 151.719 88.263,151.374 88.986,151.099 89.282 C 150.825 89.577,150.541 90.085,150.470 90.410 C 150.398 90.734,150.173 91.060,149.970 91.133 C 149.766 91.207,149.600 91.501,149.600 91.788 C 149.600 92.592,148.554 94.420,148.261 94.127 C 148.117 93.984,148.000 94.104,148.000 94.395 C 148.000 94.685,147.460 96.065,146.800 97.462 C 146.140 98.859,145.600 100.182,145.600 100.401 C 145.600 100.620,145.420 100.800,145.200 100.800 C 144.980 100.800,144.800 101.126,144.800 101.525 C 144.800 101.923,144.485 102.605,144.100 103.040 C 143.715 103.475,143.341 104.093,143.268 104.412 C 143.195 104.731,142.961 105.101,142.747 105.233 C 142.533 105.365,142.406 105.637,142.466 105.837 C 142.619 106.350,141.113 109.600,140.723 109.600 C 140.545 109.600,140.400 109.960,140.400 110.400 C 140.400 110.840,140.220 111.200,140.000 111.200 C 139.780 111.200,139.600 111.530,139.600 111.933 C 139.600 112.337,139.475 112.791,139.323 112.944 C 139.171 113.096,138.985 113.621,138.911 114.110 C 138.837 114.600,138.602 115.060,138.388 115.133 C 138.175 115.207,138.000 115.524,138.000 115.839 C 138.000 116.413,137.860 116.749,136.668 119.044 C 136.312 119.728,136.151 120.432,136.311 120.608 C 136.470 120.784,136.375 120.799,136.100 120.641 C 135.791 120.463,135.600 120.591,135.600 120.976 C 135.600 121.319,135.420 121.600,135.200 121.600 C 134.980 121.600,134.800 122.140,134.800 122.800 C 134.800 123.460,134.641 124.000,134.447 124.000 C 134.143 124.000,133.628 125.096,133.454 126.115 C 133.424 126.288,133.187 126.561,132.926 126.722 C 132.665 126.883,132.382 127.462,132.296 128.007 C 132.089 129.320,130.693 132.400,130.306 132.400 C 130.138 132.400,129.997 132.985,129.994 133.700 C 129.989 134.686,129.894 134.855,129.600 134.400 C 129.292 133.924,129.210 134.007,129.200 134.800 C 129.184 136.140,128.210 138.877,127.870 138.537 C 127.722 138.388,127.600 138.567,127.600 138.933 C 127.600 139.300,127.420 139.600,127.200 139.600 C 126.980 139.600,126.800 140.063,126.800 140.629 C 126.800 141.195,126.313 142.488,125.719 143.503 C 125.124 144.517,124.854 145.214,125.119 145.050 C 125.383 144.887,125.600 144.933,125.600 145.153 C 125.600 145.373,125.420 145.664,125.200 145.800 C 124.980 145.936,124.800 146.397,124.800 146.824 C 124.800 147.251,124.620 147.600,124.400 147.600 C 124.180 147.600,124.000 147.958,124.000 148.395 C 124.000 148.833,123.695 149.547,123.322 149.983 C 122.949 150.418,122.578 151.275,122.497 151.887 C 122.417 152.499,122.182 153.060,121.975 153.133 C 121.769 153.207,121.600 153.702,121.600 154.233 C 121.600 154.765,121.420 155.200,121.200 155.200 C 120.980 155.200,120.800 155.661,120.800 156.224 C 120.800 156.787,120.656 157.158,120.480 157.049 C 120.304 156.940,119.924 157.650,119.636 158.626 C 119.347 159.602,118.990 160.400,118.841 160.400 C 118.692 160.400,118.526 160.985,118.472 161.700 C 118.419 162.415,118.217 163.054,118.025 163.121 C 117.833 163.187,117.440 164.042,117.151 165.021 C 116.862 165.999,116.485 166.800,116.313 166.800 C 116.141 166.800,116.000 167.160,116.000 167.600 C 116.000 168.040,115.858 168.400,115.685 168.400 C 115.512 168.400,115.342 168.771,115.308 169.224 C 115.228 170.288,114.293 172.400,113.902 172.400 C 113.736 172.400,113.621 172.535,113.647 172.700 C 113.845 173.954,113.557 174.957,113.159 174.400 C 112.809 173.909,112.763 173.951,112.910 174.632 C 113.009 175.089,112.844 175.798,112.545 176.208 C 112.245 176.618,112.000 177.379,112.000 177.900 C 112.000 178.430,111.824 178.738,111.600 178.600 C 111.380 178.464,111.200 178.693,111.200 179.110 C 111.200 179.526,111.067 179.999,110.905 180.162 C 110.743 180.324,110.590 180.669,110.566 180.928 C 110.542 181.188,110.494 181.726,110.461 182.124 C 110.427 182.522,110.247 182.753,110.060 182.637 C 109.874 182.522,109.705 183.003,109.685 183.706 C 109.665 184.409,109.477 185.041,109.267 185.111 C 109.057 185.181,108.971 185.569,109.077 185.974 C 109.183 186.379,109.074 186.831,108.835 186.978 C 108.596 187.126,108.400 187.597,108.400 188.024 C 108.400 188.451,108.220 188.800,108.000 188.800 C 107.780 188.800,107.594 189.475,107.587 190.300 C 107.580 191.125,107.323 192.132,107.015 192.539 C 106.707 192.945,106.552 193.530,106.670 193.839 C 106.789 194.147,106.686 194.400,106.443 194.400 C 106.199 194.400,106.000 194.670,106.000 195.000 C 106.000 195.330,105.820 195.600,105.600 195.600 C 105.380 195.600,105.200 196.309,105.200 197.176 C 105.200 198.043,105.020 198.864,104.800 199.000 C 104.580 199.136,104.400 199.597,104.400 200.024 C 104.400 200.451,104.220 200.800,104.000 200.800 C 103.780 200.800,103.600 201.430,103.600 202.200 C 103.600 202.970,103.420 203.600,103.200 203.600 C 102.980 203.600,102.800 204.219,102.800 204.976 C 102.800 205.733,102.620 206.464,102.400 206.600 C 102.180 206.736,102.000 207.197,102.000 207.624 C 102.000 208.051,101.820 208.400,101.600 208.400 C 101.380 208.400,101.200 208.940,101.200 209.600 C 101.200 210.260,101.065 210.800,100.900 210.801 C 100.735 210.801,100.560 211.373,100.511 212.071 C 100.461 212.769,100.281 213.443,100.111 213.570 C 99.940 213.696,99.748 214.430,99.684 215.200 C 99.577 216.503,99.226 217.580,98.350 219.300 C 98.116 219.758,98.145 220.000,98.432 220.000 C 98.881 220.000,100.363 221.575,100.387 222.079 C 100.415 222.663,107.150 236.005,107.662 236.490 C 108.607 237.385,110.140 237.938,112.400 238.197 C 113.610 238.337,115.680 238.615,117.000 238.817 C 118.320 239.018,120.570 239.357,122.000 239.569 C 128.008 240.460,129.004 240.947,130.191 243.581 C 131.445 246.362,130.782 247.494,124.030 254.087 C 115.192 262.718,115.788 261.083,117.600 271.734 C 119.232 281.326,119.208 282.765,117.387 284.587 C 115.021 286.952,113.251 286.696,106.058 282.947 C 93.739 276.526,95.891 276.916,89.800 280.000 C 87.193 281.320,84.858 282.400,84.610 282.400 C 84.070 282.400,83.200 284.659,83.200 286.062 C 83.200 286.614,83.067 287.199,82.905 287.362 C 82.560 287.706,82.541 287.860,82.461 290.924 C 82.423 292.357,82.247 293.153,82.000 293.000 C 81.756 292.849,81.600 293.463,81.600 294.576 C 81.600 295.579,81.440 296.400,81.244 296.400 C 81.049 296.400,80.897 296.625,80.907 296.900 C 81.008 299.616,80.738 302.123,80.400 301.600 C 80.142 301.200,80.010 301.167,80.006 301.500 C 80.003 301.775,79.640 302.000,79.200 302.000 C 78.760 302.000,78.400 302.180,78.400 302.400 C 78.400 302.620,77.770 302.800,77.000 302.800 C 76.230 302.800,75.600 302.980,75.600 303.200 C 75.600 303.420,75.060 303.600,74.400 303.600 C 73.740 303.600,73.200 303.780,73.200 304.000 C 73.200 304.220,72.660 304.400,72.000 304.400 C 71.340 304.400,70.800 304.580,70.800 304.800 C 70.800 305.020,70.260 305.200,69.600 305.200 C 68.940 305.200,68.400 305.380,68.400 305.600 C 68.400 305.820,67.860 306.000,67.200 306.000 C 66.540 306.000,66.000 306.180,66.000 306.400 C 66.000 306.620,65.460 306.800,64.800 306.800 C 64.140 306.800,63.600 306.980,63.600 307.200 C 63.600 307.420,63.150 307.600,62.600 307.600 C 62.050 307.600,61.600 307.757,61.600 307.949 C 61.600 308.141,60.880 308.413,60.000 308.554 C 59.120 308.694,58.400 308.987,58.400 309.205 C 58.400 309.422,57.860 309.600,57.200 309.600 C 56.540 309.600,56.000 309.780,56.000 310.000 C 56.000 310.220,55.640 310.400,55.200 310.400 C 54.760 310.400,54.400 310.580,54.400 310.800 C 54.400 311.020,54.040 311.200,53.600 311.200 C 53.160 311.200,52.800 311.380,52.800 311.600 C 52.800 311.820,52.485 311.999,52.100 311.997 C 51.204 311.992,44.800 315.204,44.800 315.658 C 44.800 315.846,44.440 316.000,44.000 316.000 C 43.560 316.000,43.200 316.180,43.200 316.400 C 43.200 316.620,42.930 316.800,42.600 316.800 C 42.270 316.800,42.000 316.980,42.000 317.200 C 42.000 317.420,41.680 317.600,41.288 317.600 C 40.897 317.600,40.317 317.960,40.000 318.400 C 39.683 318.840,39.143 319.200,38.800 319.200 C 38.457 319.200,37.917 319.560,37.600 320.000 C 37.283 320.440,36.775 320.800,36.472 320.800 C 36.169 320.800,35.417 321.340,34.800 322.000 C 34.183 322.660,33.508 323.200,33.299 323.200 C 32.068 323.200,24.800 331.148,24.800 332.495 C 24.800 332.785,24.440 333.283,24.000 333.600 C 23.560 333.917,23.200 334.486,23.200 334.865 C 23.200 335.243,23.020 335.664,22.800 335.800 C 22.580 335.936,22.400 336.487,22.400 337.024 C 22.400 337.561,22.220 338.000,22.000 338.000 C 21.773 338.000,21.600 339.173,21.600 340.720 C 21.600 342.216,21.404 343.636,21.165 343.875 C 20.852 344.188,20.852 344.385,21.165 344.578 C 21.404 344.726,21.600 345.917,21.600 347.224 C 21.600 348.541,21.778 349.600,22.000 349.600 C 22.220 349.600,22.400 350.140,22.400 350.800 C 22.400 351.460,22.580 352.000,22.800 352.000 C 23.020 352.000,23.200 352.360,23.200 352.800 C 23.200 353.240,23.380 353.600,23.600 353.600 C 23.820 353.600,24.000 353.960,24.000 354.400 C 24.000 354.840,24.180 355.200,24.400 355.200 C 24.620 355.200,24.800 355.485,24.800 355.833 C 24.800 356.975,31.413 364.400,32.431 364.400 C 32.677 364.400,33.383 364.940,34.000 365.600 C 34.617 366.260,35.320 366.800,35.564 366.800 C 35.808 366.800,36.572 367.340,37.263 368.000 C 37.954 368.660,38.762 369.200,39.059 369.200 C 39.357 369.200,39.600 369.380,39.600 369.600 C 39.600 369.820,39.894 370.000,40.253 370.000 C 40.612 370.000,41.197 370.318,41.553 370.707 C 41.909 371.096,43.100 371.861,44.200 372.407 C 45.300 372.953,46.260 373.535,46.333 373.700 C 46.407 373.865,46.701 374.000,46.988 374.000 C 47.274 374.000,48.024 374.269,48.654 374.598 C 49.284 374.926,50.115 375.196,50.500 375.198 C 50.885 375.199,51.200 375.380,51.200 375.600 C 51.200 375.820,51.560 376.000,52.000 376.000 C 52.440 376.000,52.800 376.180,52.800 376.400 C 52.800 376.620,53.160 376.800,53.600 376.800 C 54.040 376.800,54.400 376.980,54.400 377.200 C 54.400 377.420,54.760 377.600,55.200 377.600 C 55.640 377.600,56.000 377.780,56.000 378.000 C 56.000 378.220,56.540 378.400,57.200 378.400 C 57.860 378.400,58.400 378.580,58.400 378.800 C 58.400 379.020,58.760 379.200,59.200 379.200 C 59.640 379.200,60.000 379.380,60.000 379.600 C 60.000 379.820,60.450 380.000,61.000 380.000 C 61.550 380.000,62.000 380.180,62.000 380.400 C 62.000 380.620,62.540 380.800,63.200 380.800 C 63.860 380.800,64.400 380.980,64.400 381.200 C 64.400 381.420,64.760 381.600,65.200 381.600 C 65.640 381.600,66.000 381.780,66.000 382.000 C 66.000 382.220,66.540 382.400,67.200 382.400 C 67.860 382.400,68.400 382.580,68.400 382.800 C 68.400 383.020,68.940 383.200,69.600 383.200 C 70.260 383.200,70.800 383.380,70.800 383.600 C 70.800 383.820,71.340 384.000,72.000 384.000 C 72.660 384.000,73.200 384.180,73.200 384.400 C 73.200 384.620,73.819 384.800,74.576 384.800 C 75.333 384.800,76.064 384.980,76.200 385.200 C 76.336 385.420,76.887 385.600,77.424 385.600 C 77.961 385.600,78.400 385.780,78.400 386.000 C 78.400 386.220,79.120 386.400,80.000 386.400 C 80.880 386.400,81.600 386.580,81.600 386.800 C 81.600 387.020,82.129 387.200,82.776 387.200 C 83.423 387.200,84.064 387.380,84.200 387.600 C 84.336 387.820,85.067 388.000,85.824 388.000 C 86.581 388.000,87.200 388.180,87.200 388.400 C 87.200 388.620,87.920 388.800,88.800 388.800 C 89.680 388.800,90.400 388.980,90.400 389.200 C 90.400 389.420,91.109 389.600,91.976 389.600 C 92.843 389.600,93.664 389.780,93.800 390.000 C 93.936 390.220,94.721 390.400,95.544 390.400 C 96.367 390.400,97.212 390.572,97.423 390.783 C 97.633 390.993,99.289 391.289,101.103 391.440 C 102.916 391.591,104.400 391.869,104.400 392.058 C 104.400 392.246,105.379 392.400,106.576 392.400 C 107.773 392.400,108.864 392.580,109.000 392.800 C 109.136 393.020,110.047 393.200,111.024 393.200 C 112.001 393.200,112.800 393.380,112.800 393.600 C 112.800 393.822,113.867 394.000,115.200 394.000 C 116.533 394.000,117.600 394.178,117.600 394.400 C 117.600 394.622,118.659 394.800,119.976 394.800 C 121.283 394.800,122.464 394.980,122.600 395.200 C 122.736 395.420,124.007 395.600,125.424 395.600 C 126.875 395.600,128.000 395.775,128.000 396.000 C 128.000 396.231,129.267 396.400,131.000 396.400 C 132.733 396.400,134.000 396.569,134.000 396.800 C 134.000 397.037,135.467 397.200,137.600 397.200 C 139.733 397.200,141.200 397.363,141.200 397.600 C 141.200 397.839,142.733 398.000,145.000 398.000 C 147.267 398.000,148.800 398.161,148.800 398.400 C 148.800 398.644,150.656 398.800,153.567 398.800 C 157.024 398.800,158.379 398.937,158.500 399.300 C 158.745 400.034,241.255 400.034,241.500 399.300 C 241.621 398.937,242.976 398.800,246.433 398.800 C 249.344 398.800,251.200 398.644,251.200 398.400 C 251.200 398.161,252.733 398.000,255.000 398.000 C 257.267 398.000,258.800 397.839,258.800 397.600 C 258.800 397.363,260.267 397.200,262.400 397.200 C 264.533 397.200,266.000 397.037,266.000 396.800 C 266.000 396.572,267.192 396.400,268.776 396.400 C 270.303 396.400,271.664 396.220,271.800 396.000 C 271.936 395.780,273.196 395.600,274.600 395.600 C 276.004 395.600,277.264 395.420,277.400 395.200 C 277.536 394.980,278.717 394.800,280.024 394.800 C 281.341 394.800,282.400 394.622,282.400 394.400 C 282.400 394.178,283.467 394.000,284.800 394.000 C 286.133 394.000,287.200 393.822,287.200 393.600 C 287.200 393.380,288.100 393.200,289.200 393.200 C 290.300 393.200,291.200 393.020,291.200 392.800 C 291.200 392.580,292.190 392.400,293.400 392.400 C 294.610 392.400,295.600 392.245,295.600 392.055 C 295.600 391.866,296.981 391.585,298.669 391.432 C 300.357 391.279,302.042 390.991,302.414 390.793 C 302.785 390.594,303.699 390.350,304.445 390.250 C 305.190 390.151,306.340 389.901,307.000 389.696 C 307.660 389.491,308.409 389.395,308.663 389.483 C 308.918 389.570,309.244 389.453,309.387 389.221 C 309.530 388.990,310.357 388.800,311.224 388.800 C 312.091 388.800,312.800 388.620,312.800 388.400 C 312.800 388.180,313.419 388.000,314.176 388.000 C 314.933 388.000,315.664 387.820,315.800 387.600 C 315.936 387.380,316.562 387.200,317.190 387.200 C 317.819 387.200,318.393 387.034,318.467 386.831 C 318.540 386.627,319.140 386.386,319.800 386.294 C 320.960 386.132,321.563 385.950,323.519 385.167 C 324.024 384.965,324.869 384.800,325.395 384.800 C 325.922 384.800,326.464 384.620,326.600 384.400 C 326.736 384.180,327.377 384.000,328.024 384.000 C 328.671 384.000,329.200 383.820,329.200 383.600 C 329.200 383.380,329.740 383.200,330.400 383.200 C 331.060 383.200,331.600 383.020,331.600 382.800 C 331.600 382.580,332.039 382.400,332.576 382.400 C 333.113 382.400,333.664 382.220,333.800 382.000 C 333.936 381.780,334.397 381.600,334.824 381.600 C 335.251 381.600,335.600 381.420,335.600 381.200 C 335.600 380.980,336.140 380.800,336.800 380.800 C 337.460 380.800,338.000 380.620,338.000 380.400 C 338.000 380.180,338.450 380.000,339.000 380.000 C 339.550 380.000,340.000 379.820,340.000 379.600 C 340.000 379.380,340.360 379.200,340.800 379.200 C 341.240 379.200,341.600 379.020,341.600 378.800 C 341.600 378.580,342.140 378.400,342.800 378.400 C 343.460 378.400,344.000 378.220,344.000 378.000 C 344.000 377.780,344.360 377.600,344.800 377.600 C 345.240 377.600,345.600 377.420,345.600 377.200 C 345.600 376.980,345.960 376.800,346.400 376.800 C 346.840 376.800,347.200 376.620,347.200 376.400 C 347.200 376.180,347.560 376.000,348.000 376.000 C 348.440 376.000,348.800 375.820,348.800 375.600 C 348.800 375.380,349.104 375.200,349.476 375.200 C 350.429 375.200,357.666 371.584,358.447 370.717 C 358.803 370.323,359.388 370.000,359.747 370.000 C 360.106 370.000,360.400 369.832,360.400 369.627 C 360.400 369.422,360.766 369.138,361.213 368.996 C 361.660 368.854,362.458 368.306,362.986 367.778 C 363.514 367.250,364.165 366.769,364.434 366.709 C 364.703 366.649,365.409 366.105,366.005 365.500 C 366.600 364.895,367.263 364.400,367.480 364.400 C 368.008 364.400,371.600 360.984,371.600 360.482 C 371.600 360.264,371.896 359.972,372.257 359.833 C 372.619 359.695,372.811 359.478,372.684 359.351 C 372.557 359.224,372.975 358.611,373.612 357.988 C 374.250 357.365,374.887 356.394,375.028 355.831 C 375.170 355.267,375.446 354.905,375.643 355.026 C 375.839 355.148,376.000 354.877,376.000 354.424 C 376.000 353.971,376.180 353.600,376.400 353.600 C 376.620 353.600,376.800 353.240,376.800 352.800 C 376.800 352.360,376.980 352.000,377.200 352.000 C 377.420 352.000,377.600 351.460,377.600 350.800 C 377.600 350.140,377.780 349.600,378.000 349.600 C 378.248 349.600,378.400 347.475,378.400 344.024 C 378.400 340.737,378.236 338.346,378.000 338.200 C 377.780 338.064,377.600 337.603,377.600 337.176 C 377.600 336.749,377.420 336.400,377.200 336.400 C 376.980 336.400,376.800 335.984,376.800 335.475 C 376.800 334.967,376.440 334.164,376.000 333.692 C 375.560 333.220,375.200 332.638,375.200 332.400 C 375.200 331.234,368.692 324.000,367.643 324.000 C 367.454 324.000,366.534 323.280,365.600 322.400 C 364.666 321.520,363.653 320.800,363.351 320.800 C 363.048 320.800,362.800 320.620,362.800 320.400 C 362.800 320.180,362.519 320.000,362.176 320.000 C 361.807 320.000,361.669 319.812,361.838 319.538 C 362.009 319.262,361.949 319.185,361.688 319.346 C 361.448 319.494,360.798 319.162,360.244 318.608 C 359.690 318.053,358.992 317.600,358.694 317.600 C 358.395 317.600,357.764 317.240,357.292 316.800 C 356.820 316.360,356.156 316.000,355.817 316.000 C 355.478 316.000,355.200 315.859,355.200 315.688 C 355.200 315.516,354.705 315.162,354.100 314.902 C 353.495 314.642,352.730 314.246,352.400 314.022 C 351.327 313.295,346.673 311.200,346.129 311.200 C 345.838 311.200,345.600 311.020,345.600 310.800 C 345.600 310.580,345.364 310.400,345.075 310.400 C 344.786 310.400,343.779 310.027,342.837 309.572 C 341.894 309.117,340.870 308.841,340.561 308.959 C 340.253 309.078,340.000 309.001,340.000 308.787 C 340.000 308.574,339.550 308.400,339.000 308.400 C 338.450 308.400,338.000 308.220,338.000 308.000 C 338.000 307.780,337.640 307.600,337.200 307.600 C 336.760 307.600,336.400 307.420,336.400 307.200 C 336.400 306.980,335.860 306.800,335.200 306.800 C 334.540 306.800,334.000 306.620,334.000 306.400 C 334.000 306.180,333.460 306.000,332.800 306.000 C 332.140 306.000,331.600 305.820,331.600 305.600 C 331.600 305.380,331.060 305.200,330.400 305.200 C 329.740 305.200,329.200 305.020,329.200 304.800 C 329.200 304.580,328.660 304.400,328.000 304.400 C 327.340 304.400,326.800 304.220,326.800 304.000 C 326.800 303.780,326.260 303.600,325.600 303.600 C 324.940 303.600,324.400 303.420,324.400 303.200 C 324.400 302.980,323.770 302.800,323.000 302.800 C 322.230 302.800,321.600 302.620,321.600 302.400 C 321.600 302.180,321.060 302.000,320.400 302.000 C 319.740 302.000,319.200 301.820,319.200 301.600 C 319.200 301.380,318.660 301.200,318.000 301.200 C 316.521 301.200,316.479 301.755,317.637 306.000 C 318.087 307.650,318.713 309.945,319.028 311.100 C 319.342 312.255,319.889 314.235,320.242 315.500 C 322.181 322.441,321.389 325.567,316.315 331.006 C 310.980 336.724,297.606 343.931,287.000 346.806 C 286.340 346.984,283.640 347.748,281.000 348.503 C 276.801 349.703,272.723 350.719,267.000 351.991 C 266.120 352.187,264.230 352.552,262.800 352.804 C 261.370 353.055,259.390 353.412,258.400 353.597 C 257.410 353.782,255.250 354.134,253.600 354.380 C 251.950 354.627,249.520 354.992,248.200 355.192 C 236.202 357.009,216.351 358.218,194.600 358.454 C 180.470 358.608,154.359 356.606,147.200 354.821 C 146.210 354.574,143.960 354.103,142.200 353.774 C 137.822 352.956,137.600 352.865,137.600 351.892 C 137.600 351.423,137.251 349.230,136.824 347.019 C 136.093 343.231,135.814 341.227,134.833 332.669 C 134.610 330.727,134.151 328.584,133.814 327.907 C 133.118 326.512,133.011 324.749,133.588 324.172 C 133.814 323.946,134.055 318.575,134.165 311.336 C 134.269 304.489,134.548 296.933,134.784 294.544 C 136.113 281.120,136.380 278.915,137.663 270.800 C 140.284 254.228,144.501 235.167,149.214 218.600 C 149.401 217.940,149.735 216.770,149.955 216.000 C 150.175 215.230,150.545 213.925,150.777 213.100 C 151.010 212.275,151.373 211.015,151.584 210.300 C 151.795 209.585,152.187 208.139,152.454 207.087 L 152.941 205.174 151.317 203.487 C 147.433 199.451,148.614 193.600,153.313 193.600 C 154.209 193.600,157.200 192.570,157.200 192.262 C 157.200 191.985,164.422 170.791,165.604 167.600 C 166.296 165.730,167.195 163.210,167.600 162.000 C 168.005 160.790,168.891 158.315,169.569 156.500 C 174.976 142.009,175.345 141.031,177.977 134.200 C 179.333 130.680,180.613 127.487,180.822 127.105 C 181.489 125.881,181.264 125.200,180.195 125.200 C 178.496 125.200,175.600 123.069,175.600 121.818 C 175.600 121.478,175.420 121.200,175.200 121.200 C 174.980 121.200,174.800 120.491,174.800 119.624 C 174.800 118.757,174.980 117.936,175.200 117.800 C 175.420 117.664,175.600 116.674,175.600 115.600 C 175.600 114.526,175.780 113.536,176.000 113.400 C 176.220 113.264,176.400 112.209,176.400 111.056 C 176.400 109.903,176.563 108.789,176.763 108.580 C 176.963 108.371,177.220 107.300,177.335 106.200 C 177.449 105.100,177.665 103.625,177.814 102.921 C 178.188 101.154,177.415 100.159,170.155 93.070 C 162.974 86.059,161.960 83.750,164.713 80.681 C 166.066 79.173,167.465 78.816,174.600 78.155 C 175.920 78.033,177.171 77.768,177.380 77.566 C 177.589 77.365,178.793 77.200,180.056 77.200 C 181.319 77.200,182.464 77.020,182.600 76.800 C 182.736 76.580,183.352 76.400,183.969 76.400 C 185.153 76.400,187.200 74.718,187.200 73.745 C 187.200 73.445,187.380 73.200,187.600 73.200 C 187.820 73.200,188.000 72.840,188.000 72.400 C 188.000 71.960,188.180 71.600,188.400 71.600 C 188.620 71.600,188.800 71.240,188.800 70.800 C 188.800 70.360,188.980 70.000,189.200 70.000 C 189.420 70.000,189.600 69.762,189.600 69.470 C 189.600 68.752,194.228 59.653,195.063 58.731 C 196.475 57.170,200.800 56.016,200.800 57.200 C 200.800 57.420,201.083 57.600,201.429 57.600 C 202.366 57.600,203.153 58.553,204.613 61.454 L 205.927 64.067 207.018 62.133 C 222.099 35.406,239.412 19.549,261.400 12.325 C 266.754 10.566,267.176 10.319,266.302 9.445 C 265.968 9.111,265.584 8.950,265.448 9.086 C 265.311 9.222,265.200 9.123,265.200 8.867 C 265.200 8.610,264.922 8.400,264.583 8.400 C 264.244 8.400,263.580 8.040,263.108 7.600 C 262.636 7.160,261.848 6.800,261.358 6.800 C 260.868 6.800,260.407 6.634,260.333 6.430 C 260.260 6.227,259.937 6.002,259.616 5.930 C 259.294 5.859,258.714 5.521,258.326 5.179 C 257.392 4.358,254.453 2.800,253.838 2.800 C 253.570 2.800,252.957 2.433,252.475 1.984 C 251.951 1.496,251.600 1.368,251.600 1.664 C 251.600 2.050,251.493 2.053,251.120 1.680 C 250.856 1.416,250.262 1.200,249.800 1.200 C 249.338 1.200,248.742 0.982,248.475 0.715 C 247.980 0.220,230.835 -0.329,230.388 0.136 " stroke="none" fill="#22a7ff" fill-rule="evenodd"></path></g></svg>